<svg id="Capa_1" enable-background="new 0 0 512 512" height="64" viewBox="0 0 512 512" width="64" xmlns="http://www.w3.org/2000/svg"><g><path d="m474.165 41h-436.33c-20.862 0-37.835 16.963-37.835 37.813v354.374c0 20.85 16.973 37.813 37.835 37.813h436.329c20.863 0 37.836-16.963 37.836-37.813v-354.374c0-20.85-16.973-37.813-37.835-37.813zm-454.165 122.528h472v54.291h-472zm17.835-102.528h436.329c9.835 0 17.836 7.991 17.836 17.813v64.715h-472v-64.715c0-9.822 8.001-17.813 17.835-17.813zm436.33 390h-436.33c-9.834 0-17.835-7.991-17.835-17.813v-36.478h60.411c5.523 0 10-4.477 10-10s-4.477-10-10-10h-60.411v-138.89h472v138.891h-321.789c-5.523 0-10 4.477-10 10s4.477 10 10 10h321.789v36.478c0 9.821-8.001 17.812-17.835 17.812z"/><path d="m75.876 112.264h167.893c5.523 0 10-4.477 10-10s-4.477-10-10-10h-167.893c-5.523 0-10 4.477-10 10s4.477 10 10 10z"/><path d="m329.798 112.264h.057c5.523 0 9.971-4.477 9.971-10s-4.505-10-10.028-10-10 4.477-10 10 4.477 10 10 10z"/><path d="m382.947 112.264h.028c5.523 0 9.986-4.477 9.986-10s-4.491-10-10.014-10-10 4.477-10 10 4.477 10 10 10z"/><path d="m436.067 112.264h.057c5.523 0 9.972-4.477 9.972-10s-4.505-10-10.028-10-10 4.477-10 10 4.476 10 9.999 10z"/><path d="m171.27 265.806c-5.174-1.932-10.934.698-12.865 5.872l-14.589 39.091-14.607-39.095c-1.461-3.909-5.195-6.5-9.368-6.5 0 0-.001 0-.002 0-4.173.001-7.908 2.593-9.367 6.503l-14.589 39.091-14.608-39.095c-1.933-5.174-7.693-7.799-12.867-5.868-5.174 1.933-7.801 7.694-5.867 12.868l23.981 64.18c1.46 3.909 5.194 6.5 9.367 6.5h.001c4.174-.001 7.908-2.593 9.367-6.503l14.589-39.091 14.607 39.094c1.461 3.909 5.195 6.5 9.368 6.5h.002c4.173-.001 7.908-2.593 9.367-6.503l23.953-64.18c1.93-5.173-.699-10.933-5.873-12.864z"/><path d="m222.665 342.851c1.459 3.911 5.194 6.503 9.369 6.503s7.909-2.593 9.369-6.503l14.589-39.091 14.607 39.094c1.461 3.909 5.195 6.5 9.368 6.5h.001c4.174-.001 7.908-2.593 9.367-6.503l23.953-64.18c1.931-5.174-.698-10.934-5.872-12.865-5.173-1.932-10.934.698-12.865 5.872l-14.589 39.091-14.607-39.095c-1.461-3.909-5.195-6.5-9.368-6.5h-.001c-4.174.001-7.908 2.593-9.367 6.503l-14.583 39.076-14.584-39.076c-1.931-5.174-7.688-7.803-12.865-5.872-5.174 1.931-7.803 7.691-5.872 12.865z"/><path d="m358.81 342.851c1.459 3.911 5.194 6.503 9.369 6.503s7.909-2.593 9.369-6.503l14.589-39.091 14.607 39.095c1.461 3.909 5.195 6.5 9.368 6.5h.002c4.173-.001 7.908-2.593 9.367-6.503l23.952-64.18c1.931-5.174-.698-10.935-5.872-12.865-5.175-1.932-10.934.698-12.865 5.872l-14.589 39.091-14.607-39.094c-1.461-3.909-5.195-6.5-9.368-6.5 0 0-.001 0-.002 0-4.173.001-7.908 2.593-9.367 6.503l-14.584 39.076-14.583-39.076c-1.931-5.174-7.688-7.803-12.865-5.872-5.174 1.931-7.803 7.691-5.872 12.865z"/><path d="m125.311 376.709c-5.523 0-10 4.477-10 10s4.477 10 10 10h.057c5.523 0 9.972-4.477 9.972-10s-4.506-10-10.029-10z"/></g></svg>