<svg xmlns="http://www.w3.org/2000/svg" viewBox="0 0 82.72 91.84"><defs><style>.cls-1{fill:#e7e216;}.cls-2{fill:#010101;}</style></defs><g id="Layer_2" data-name="Layer 2"><g id="Layer_7" data-name="Layer 7"><path class="cls-1" d="M5.93,18.62l29.5-17a11.85,11.85,0,0,1,11.86,0l29.5,17a11.88,11.88,0,0,1,5.93,10.27V63a11.88,11.88,0,0,1-5.93,10.27l-29.5,17a11.85,11.85,0,0,1-11.86,0l-29.5-17A11.86,11.86,0,0,1,0,63V28.89A11.86,11.86,0,0,1,5.93,18.62"/><path class="cls-2" d="M57.41,37.71l-11,.56c0-2.86-1.74-4.82-5-4.82-2.68,0-4.42,1.4-4.42,3.7,0,2.13,1.51,3,6.94,4.2C52.2,43.59,58,46.44,58,54c0,9.3-7.17,13.27-15.74,13.27-10.19,0-17.36-5-17.3-14.17l11-.56c-.06,3.2,2.57,5.38,6.27,5.38,2.86,0,4.7-.95,4.7-3.36,0-2.07-2.29-3.3-7.11-4.54-7.61-2-13.94-4.25-13.94-12.49,0-7.22,5-13.38,15.23-13.38C50.86,24.1,57.3,29.2,57.41,37.71Z"/></g></g></svg>