<?xml version="1.0"?>
<svg xmlns="http://www.w3.org/2000/svg" viewBox="0 0 128 128" width="512" height="512"><path d="M40.094,57.2a2.463,2.463,0,0,0-2.46,2.461v5.246a2.462,2.462,0,0,0,2.46,2.461h2.729a21.194,21.194,0,0,0,2.5,6.033l-1.933,1.933a2.464,2.464,0,0,0,0,3.48l3.71,3.709a2.463,2.463,0,0,0,3.48,0l1.932-1.932a21.233,21.233,0,0,0,6.034,2.5v2.728a2.463,2.463,0,0,0,2.461,2.461h5.245a2.463,2.463,0,0,0,2.461-2.461V83.1a21.233,21.233,0,0,0,6.034-2.5l1.933,1.932a2.464,2.464,0,0,0,3.48,0l3.709-3.709a2.462,2.462,0,0,0,0-3.48L81.94,73.4a21.206,21.206,0,0,0,2.5-6.033h2.729a2.462,2.462,0,0,0,2.46-2.461V59.663a2.463,2.463,0,0,0-2.46-2.461H84.444a21.194,21.194,0,0,0-2.5-6.033l1.934-1.934a2.464,2.464,0,0,0,0-3.479l-3.709-3.709a2.465,2.465,0,0,0-3.48,0l-1.933,1.932a21.2,21.2,0,0,0-6.034-2.5V38.747a2.464,2.464,0,0,0-2.461-2.461H61.011a2.464,2.464,0,0,0-2.461,2.461v2.729a21.2,21.2,0,0,0-6.034,2.5l-1.932-1.932a2.464,2.464,0,0,0-3.48,0l-3.71,3.709a2.464,2.464,0,0,0,0,3.48l1.933,1.933a21.194,21.194,0,0,0-2.5,6.033Z" fill="#e6e7e8"/><path d="M123.842,99.145l-9.428-7.428A4,4,0,1,0,109.463,98l.363.286H88.889A44,44,0,1,0,24.368,42.378l-.2-.577a4,4,0,1,0-7.542,2.669l4,11.315a3.98,3.98,0,0,0,2.486,2.453,4.036,4.036,0,0,0,3.465-.433l10.064-6.542a4,4,0,1,0-4.36-6.708l-.012.008A36.011,36.011,0,1,1,63.633,98.286h-53a4,4,0,1,0,0,8h99.193l-.363.286a4,4,0,1,0,4.951,6.283l9.428-7.426a4,4,0,0,0,0-6.284Z" fill="#e6e7e8"/><circle cx="59.634" cy="58.286" r="11.952" fill="#ffd7e5"/><path d="M59.634,49.334A11.948,11.948,0,0,1,71.482,59.786a12.16,12.16,0,0,0,.1-1.5,11.953,11.953,0,1,0-23.8,1.5A11.947,11.947,0,0,1,59.634,49.334Z" fill="#fff"/><path d="M84.634,60.909V55.663A1.461,1.461,0,0,0,83.173,54.2h-3.53a20.324,20.324,0,0,0-2.977-7.174l2.5-2.5a1.462,1.462,0,0,0,0-2.066l-3.709-3.709a1.46,1.46,0,0,0-2.066,0l-2.5,2.5a20.3,20.3,0,0,0-7.174-2.976v-3.53a1.461,1.461,0,0,0-1.461-1.461H57.011a1.461,1.461,0,0,0-1.461,1.461v3.53a20.3,20.3,0,0,0-7.174,2.976l-2.5-2.5a1.46,1.46,0,0,0-2.066,0L40.1,42.463a1.462,1.462,0,0,0,0,2.066l2.5,2.5A20.3,20.3,0,0,0,39.625,54.2H36.094a1.461,1.461,0,0,0-1.46,1.461v5.246a1.461,1.461,0,0,0,1.46,1.461h3.531A20.3,20.3,0,0,0,42.6,69.544l-2.5,2.5a1.462,1.462,0,0,0,0,2.066l3.71,3.709a1.459,1.459,0,0,0,2.065,0l2.5-2.5A20.3,20.3,0,0,0,55.55,78.3v3.53a1.461,1.461,0,0,0,1.461,1.461h5.245a1.461,1.461,0,0,0,1.461-1.461V78.3a20.3,20.3,0,0,0,7.174-2.976l2.5,2.5a1.46,1.46,0,0,0,2.066,0l3.709-3.709a1.462,1.462,0,0,0,0-2.066l-2.5-2.5a20.324,20.324,0,0,0,2.977-7.174h3.53A1.461,1.461,0,0,0,84.634,60.909Zm-25,9.329A11.952,11.952,0,1,1,71.586,58.286,11.953,11.953,0,0,1,59.634,70.238Z" fill="#fa759e"/><path d="M119.223,95.93,109.8,88.5a3,3,0,1,0-3.713,4.713l2.629,2.071h-27.2a43,43,0,1,0-61.27-54.28l-1.016-2.872a3,3,0,0,0-5.657,2l4,11.315a3,3,0,0,0,4.463,1.515L32.1,46.425a3,3,0,0,0-3.27-5.031L25.741,43.4A37.008,37.008,0,1,1,59.633,95.286h-53a3,3,0,1,0,0,6H108.711l-2.629,2.071a3,3,0,1,0,3.713,4.713l9.428-7.427a3,3,0,0,0,0-4.713Z" fill="#0089ef"/><path d="M59.633,71.238A12.952,12.952,0,1,0,46.682,58.286,12.966,12.966,0,0,0,59.633,71.238Zm0-23.9A10.952,10.952,0,1,1,48.682,58.286,10.964,10.964,0,0,1,59.633,47.334Z" fill="#3a2c60"/><path d="M36.094,53.2a2.463,2.463,0,0,0-2.46,2.461v5.246a2.462,2.462,0,0,0,2.46,2.461h2.729a21.194,21.194,0,0,0,2.5,6.033l-1.933,1.933a2.464,2.464,0,0,0,0,3.48l3.71,3.709a2.462,2.462,0,0,0,3.479,0l1.933-1.932a21.233,21.233,0,0,0,6.034,2.5v2.728a2.463,2.463,0,0,0,2.461,2.461h5.245a2.463,2.463,0,0,0,2.461-2.461V79.1a21.233,21.233,0,0,0,6.034-2.5l1.933,1.932a2.464,2.464,0,0,0,3.48,0l3.709-3.709a2.462,2.462,0,0,0,0-3.48L77.94,69.4a21.206,21.206,0,0,0,2.5-6.033h2.729a2.462,2.462,0,0,0,2.46-2.461V55.663a2.463,2.463,0,0,0-2.46-2.461H80.444a21.194,21.194,0,0,0-2.5-6.033l1.934-1.934a2.464,2.464,0,0,0,0-3.479l-3.709-3.709a2.465,2.465,0,0,0-3.48,0l-1.933,1.932a21.2,21.2,0,0,0-6.034-2.5V34.747a2.464,2.464,0,0,0-2.461-2.461H57.011a2.464,2.464,0,0,0-2.461,2.461v2.729a21.2,21.2,0,0,0-6.034,2.5l-1.933-1.932a2.463,2.463,0,0,0-3.479,0l-3.71,3.709a2.464,2.464,0,0,0,0,3.48l1.933,1.933a21.194,21.194,0,0,0-2.5,6.033Zm4.51,1.2a19.263,19.263,0,0,1,2.831-6.821,1,1,0,0,0-.127-1.259l-2.5-2.5a.462.462,0,0,1,0-.653l3.71-3.709a.459.459,0,0,1,.651,0l2.5,2.5a1,1,0,0,0,1.259.127,19.212,19.212,0,0,1,6.821-2.83,1,1,0,0,0,.8-.981v-3.53a.461.461,0,0,1,.461-.461h5.245a.461.461,0,0,1,.461.461v3.53a1,1,0,0,0,.8.981,19.212,19.212,0,0,1,6.821,2.83,1,1,0,0,0,1.259-.127l2.5-2.5a.46.46,0,0,1,.652,0l3.709,3.709a.462.462,0,0,1,0,.652l-2.5,2.5a1,1,0,0,0-.127,1.259A19.263,19.263,0,0,1,78.663,54.4a1,1,0,0,0,.98.8h3.53a.461.461,0,0,1,.46.461v5.246a.461.461,0,0,1-.46.461h-3.53a1,1,0,0,0-.98.8,19.257,19.257,0,0,1-2.83,6.821,1,1,0,0,0,.126,1.259l2.5,2.5a.461.461,0,0,1,0,.652L74.75,77.111a.462.462,0,0,1-.652,0l-2.5-2.5a1,1,0,0,0-1.259-.127,19.212,19.212,0,0,1-6.821,2.83,1,1,0,0,0-.8.981v3.53a.461.461,0,0,1-.461.461H57.011a.461.461,0,0,1-.461-.461V78.3a1,1,0,0,0-.8-.981,19.212,19.212,0,0,1-6.821-2.83,1,1,0,0,0-1.259.127l-2.5,2.5a.461.461,0,0,1-.651,0L40.808,73.4a.461.461,0,0,1,0-.652l2.5-2.5a1,1,0,0,0,.127-1.259A19.263,19.263,0,0,1,40.6,62.171a1,1,0,0,0-.979-.8H36.094a.461.461,0,0,1-.46-.461V55.663a.461.461,0,0,1,.46-.461h3.531A1,1,0,0,0,40.6,54.4Z" fill="#3a2c60"/><path d="M119.842,95.145l-9.428-7.428A4,4,0,1,0,105.463,94l.363.286H84.889A44,44,0,1,0,20.368,38.378l-.2-.577a4,4,0,1,0-7.542,2.669l4,11.315a3.98,3.98,0,0,0,2.486,2.453,4.036,4.036,0,0,0,3.465-.433l10.064-6.542a4,4,0,1,0-4.36-6.708l-.013.009A36.011,36.011,0,1,1,59.633,94.286h-53a4,4,0,1,0,0,8H24.166a1,1,0,0,0,0-2H6.633a2,2,0,1,1,0-4h53A38,38,0,1,0,24.824,43a1,1,0,0,0,1.462,1.239l3.085-2.005a2,2,0,0,1,2.18,3.354L21.487,52.128a2.026,2.026,0,0,1-1.733.216,1.989,1.989,0,0,1-1.242-1.227L14.507,39.8a2,2,0,1,1,3.771-1.334l1.016,2.873a1,1,0,0,0,.908.665.941.941,0,0,0,.952-.6A42,42,0,1,1,81,94.426a1,1,0,0,0,.51,1.86h27.2a1,1,0,0,0,.619-1.785L106.7,92.43a2,2,0,1,1,2.475-3.143l9.428,7.429a2,2,0,0,1,0,3.141l-9.428,7.428a2.043,2.043,0,0,1-2.808-.334,2,2,0,0,1,.333-2.808l2.629-2.072a1,1,0,0,0-.619-1.785H42a1,1,0,0,0,0,2h63.826l-.363.286a4,4,0,1,0,4.951,6.283l9.428-7.426a4,4,0,0,0,0-6.284Z" fill="#3a2c60"/><path d="M37.5,100.286h-9a1,1,0,0,0,0,2h9a1,1,0,0,0,0-2Z" fill="#3a2c60"/></svg>
