<svg height="512" viewBox="0 0 128 128" width="512" xmlns="http://www.w3.org/2000/svg"><path d="m121.4 38.5h-48a1 1 0 0 0 -1 1v9.5h-13.576l-23.224-10.843v-8.657h12.5a11.5 11.5 0 1 0 0-23h-27a11.5 11.5 0 0 0 0 23h12.5v8.657l-23.421 10.937a1 1 0 0 0 0 1.812l23.421 10.938v8.656h-23a1 1 0 0 0 -1 1v21a1 1 0 0 0 1 1h23v9h-12.5a11.5 11.5 0 0 0 0 23h27a11.5 11.5 0 1 0 0-23h-12.5v-9h23a1 1 0 0 0 1-1v-9.5h37.8a1 1 0 0 0 1-1v-20.5h23a1 1 0 0 0 1-1v-21a1 1 0 0 0 -1-1zm-25 42.5h-36.8v-9.5a1 1 0 0 0 -1-1h-23v-8.656l23.225-10.844h13.575v9.5a1 1 0 0 0 1 1h23z" fill="#e6e7e8"/><path d="m44.1 3.5h-27a10.5 10.5 0 0 0 0 21h27a10.5 10.5 0 0 0 0-21z" fill="#fa759e"/><path d="m17.1 6.5h27a10.493 10.493 0 0 1 10.381 9 10.612 10.612 0 0 0 .119-1.5 10.5 10.5 0 0 0 -10.5-10.5h-27a10.421 10.421 0 0 0 -10.38 12 10.492 10.492 0 0 1 10.38-9z" fill="#fff"/><path d="m44.1 99.5h-27a10.5 10.5 0 0 0 0 21h27a10.5 10.5 0 1 0 0-21z" fill="#fa759e"/><path d="m6.602 67.5h48v21h-48z" fill="#6dc9f7"/><path d="m69.397 35.5h48v21h-48z" fill="#6dc9f7"/><path d="m30.602 34.793-24 11.207 24 11.206 24-11.206z" fill="#0089ef"/><g fill="#3a2c60"><path d="m117.4 34.5h-23a1 1 0 1 0 0 2h22v19h-46v-19h7.636a1 1 0 0 0 0-2h-8.636a1 1 0 0 0 -1 1v9.5h-13.575l-23.225-10.844v-8.656h12.5a11.5 11.5 0 1 0 0-23h-27a11.5 11.5 0 0 0 0 23h12.5v8.657l-23.421 10.937a1 1 0 0 0 0 1.812l23.421 10.937v8.657h-23a1 1 0 0 0 -1 1v21a1 1 0 0 0 1 1h23v9h-12.5a11.5 11.5 0 0 0 0 23h27a11.5 11.5 0 1 0 0-23h-12.5v-9h23a1 1 0 0 0 1-1v-9.5h37.8a1 1 0 0 0 1-1v-20.5h23a1 1 0 0 0 1-1v-21a1 1 0 0 0 -1-1zm-109.8-20.5a9.511 9.511 0 0 1 9.5-9.5h27a9.5 9.5 0 1 1 0 19h-27a9.511 9.511 0 0 1 -9.5-9.5zm46 96a9.511 9.511 0 0 1 -9.5 9.5h-27a9.5 9.5 0 0 1 0-19h27a9.511 9.511 0 0 1 9.5 9.5zm-23-74.1 21.639 10.1-21.639 10.1-21.634-10.1zm23 51.6h-46v-19h46zm38.8-10.5h-36.8v-9.5a1 1 0 0 0 -1-1h-23v-8.657l23.224-10.843h13.576v9.5a1 1 0 0 0 1 1h23z"/><path d="m82.064 36.5h8.125a1 1 0 0 0 0-2h-8.125a1 1 0 0 0 0 2z"/></g></svg>