<svg height="512" viewBox="0 0 128 128" width="512" xmlns="http://www.w3.org/2000/svg"><rect fill="#e6e7e8" height="112" rx="8.036" width="63.275" x="34.362" y="10"/><rect fill="#6dc9f7" height="110" rx="7.035" width="61.275" x="31.362" y="7"/><path d="m31.362 17.429h61.275v84.657h-61.275z" fill="#d4fbff"/><path d="m31.362 99.086h61.275v3h-61.275z" fill="#fff"/><rect fill="#0089ef" height="2.27" rx="1.026" width="19.128" x="52.436" y="11.186"/><path d="m76.1 11.075a1.246 1.246 0 1 0 1.245 1.246 1.245 1.245 0 0 0 -1.245-1.246z" fill="#0089ef"/><rect fill="#0089ef" height="5.511" rx="2.492" width="16.534" x="53.733" y="106.153"/><circle cx="62" cy="40" fill="#fa759e" r="12"/><rect fill="#0089ef" height="7.511" rx="2" width="16.534" x="53.733" y="84.153"/><g fill="#3a2c60"><path d="m75 40a13 13 0 1 0 -13 13 13.014 13.014 0 0 0 13-13zm-24 0a11 11 0 1 1 11 11 11.013 11.013 0 0 1 -11-11z"/><path d="m81.375 63h-38.75a1 1 0 0 0 0 2h38.75a1 1 0 0 0 0-2z"/><path d="m82.375 74a1 1 0 0 0 -1-1h-38.75a1 1 0 0 0 0 2h38.75a1 1 0 0 0 1-1z"/><path d="m55.732 83.153a3 3 0 0 0 -3 3v3.511a3 3 0 0 0 3 3h12.535a3 3 0 0 0 3-3v-3.511a3 3 0 0 0 -3-3zm13.535 3v3.511a1 1 0 0 1 -1 1h-12.535a1 1 0 0 1 -1-1v-3.511a1 1 0 0 1 1-1h12.535a1 1 0 0 1 1 1z"/><path d="m85.6 6h-47.2a8.045 8.045 0 0 0 -8.036 8.036v95.928a8.045 8.045 0 0 0 8.036 8.036h47.2a8.044 8.044 0 0 0 8.035-8.036v-58.964a1 1 0 0 0 -2 0v50.086h-59.273v-82.657h59.275v15.4a1 1 0 0 0 2 0v-19.8a8.044 8.044 0 0 0 -8.037-8.029zm6.035 97.086v6.878a6.042 6.042 0 0 1 -6.035 6.036h-47.2a6.043 6.043 0 0 1 -6.036-6.036v-6.878zm-59.273-86.657v-2.393a6.043 6.043 0 0 1 6.038-6.036h47.2a6.042 6.042 0 0 1 6.035 6.036v2.393z"/><path d="m92.637 37.416a1 1 0 0 0 -1 1v7.459a1 1 0 0 0 2 0v-7.459a1 1 0 0 0 -1-1z"/></g></svg>