<svg height="512" viewBox="0 0 128 128" width="512" xmlns="http://www.w3.org/2000/svg"><rect fill="#e6e7e8" height="112" rx="8.036" width="63.275" x="34.362" y="10"/><rect fill="#6dc9f7" height="110" rx="7.035" width="61.275" x="31.363" y="7"/><path d="m31.363 17.429h61.275v84.657h-61.275z" fill="#d4fbff"/><path d="m31.363 99.086h61.275v3h-61.275z" fill="#fff"/><path d="m43.3 69.238 2.274 16.827a2.576 2.576 0 0 0 2.552 2.235h26.758a2.576 2.576 0 0 0 2.553-2.231l2.274-16.827z" fill="#0089ef"/><path d="m81.437 64.1h-39.864a2.569 2.569 0 0 0 0 5.137h39.864a2.569 2.569 0 0 0 0-5.137z" fill="#fa759e"/><path d="m76.176 52.453a2.568 2.568 0 0 0 -3.632 0l-12.4 12.4a2.568 2.568 0 0 0 0 3.632 2.568 2.568 0 0 0 3.632 0l12.4-12.4a2.568 2.568 0 0 0 0-3.632z" fill="#0089ef"/><rect fill="#0089ef" height="2.269" rx="1.026" width="19.128" x="52.436" y="11.186"/><path d="m76.1 11.075a1.246 1.246 0 1 0 1.245 1.246 1.245 1.245 0 0 0 -1.245-1.246z" fill="#0089ef"/><rect fill="#0089ef" height="5.511" rx="2.492" width="16.534" x="53.733" y="106.153"/><path d="m31.362 17.429v17.844a7.66 7.66 0 0 0 15.319 0v-17.844z" fill="#ffd7e5"/><path d="m46.681 17.429v17.844a7.66 7.66 0 0 0 15.319 0v-17.844z" fill="#fa759e"/><path d="m62 17.429v17.844a7.659 7.659 0 0 0 7.659 7.659 7.66 7.66 0 0 0 7.66-7.659v-17.844z" fill="#ffd7e5"/><path d="m77.319 17.429v17.844a7.659 7.659 0 0 0 15.318 0v-17.844z" fill="#fa759e"/><g fill="#3a2c60"><path d="m58.622 85.017a1 1 0 0 0 1-1v-10.391a1 1 0 0 0 -2 0v10.391a1 1 0 0 0 1 1z"/><path d="m52.609 85.017a.787.787 0 0 0 .084 0 1 1 0 0 0 .914-1.079l-.859-10.391a.989.989 0 0 0 -1.079-.914 1 1 0 0 0 -.914 1.079l.859 10.388a1 1 0 0 0 .995.917z"/><path d="m64.633 85.017a1 1 0 0 0 1-1v-10.391a1 1 0 0 0 -2 0v10.391a1 1 0 0 0 1 1z"/><path d="m70.562 85.013a.781.781 0 0 0 .083 0 1 1 0 0 0 1-.918l.855-10.387a1 1 0 0 0 -1.994-.165l-.859 10.391a1 1 0 0 0 .915 1.079z"/><path d="m76.883 51.747a3.57 3.57 0 0 0 -5.046 0l-11.355 11.353h-18.909a3.569 3.569 0 0 0 0 7.137h.852l2.157 15.963a3.589 3.589 0 0 0 3.544 3.1h26.757a3.59 3.59 0 0 0 3.545-3.1l2.157-15.961h.852a3.569 3.569 0 0 0 0-7.137h-10.862l6.308-6.309a3.571 3.571 0 0 0 0-5.046zm-36.878 14.922a1.571 1.571 0 0 1 1.568-1.569h17.2a3.557 3.557 0 0 0 0 3.137h-17.2a1.571 1.571 0 0 1 -1.568-1.568zm36.44 19.262a1.582 1.582 0 0 1 -1.562 1.369h-26.757a1.582 1.582 0 0 1 -1.562-1.364l-2.121-15.698h34.124zm4.992-20.831a1.569 1.569 0 0 1 0 3.137h-16l3.138-3.137zm-5.968-9.723-12.4 12.4a1.608 1.608 0 0 1 -2.218 0 1.568 1.568 0 0 1 0-2.217l12.4-12.4a1.568 1.568 0 0 1 2.218 2.217z"/><circle cx="62.083" cy="66.546" r="1.073"/><path d="m31.362 91.414a1 1 0 0 0 1-1v-8.081a1 1 0 0 0 -2 0v8.081a1 1 0 0 0 1 1z"/><path d="m85.6 6h-47.2a8.045 8.045 0 0 0 -8.036 8.036v63.464a1 1 0 1 0 2 0v-36.7a8.648 8.648 0 0 0 14.319-1.5 8.649 8.649 0 0 0 15.317 0 8.649 8.649 0 0 0 15.319 0 8.647 8.647 0 0 0 14.318 1.5v60.286h-59.275v-5.836a1 1 0 0 0 -2 0v14.714a8.045 8.045 0 0 0 8.038 8.036h47.2a8.044 8.044 0 0 0 8.035-8.036v-95.928a8.044 8.044 0 0 0 -8.035-8.036zm0 110h-47.2a6.043 6.043 0 0 1 -6.036-6.036v-6.878h59.273v6.878a6.042 6.042 0 0 1 -6.037 6.036zm-47.2-108h47.2a6.042 6.042 0 0 1 6.035 6.036v2.393h-59.273v-2.393a6.043 6.043 0 0 1 6.038-6.036zm.624 33.932a6.667 6.667 0 0 1 -6.66-6.659v-16.844h13.317v16.844a6.666 6.666 0 0 1 -6.659 6.659zm15.318 0a6.666 6.666 0 0 1 -6.659-6.659v-16.844h13.317v16.844a6.666 6.666 0 0 1 -6.66 6.659zm15.319 0a6.666 6.666 0 0 1 -6.661-6.659v-16.844h13.319v16.844a6.666 6.666 0 0 1 -6.66 6.659zm15.319 0a6.666 6.666 0 0 1 -6.659-6.659v-16.844h13.316v16.844a6.666 6.666 0 0 1 -6.659 6.659z"/></g></svg>