<svg height="512" viewBox="0 0 128 128" width="512" xmlns="http://www.w3.org/2000/svg"><path d="M124.17 88.37h-2.67a20.88 20.88 0 00-2.46-5.92l1.9-1.89a2.44 2.44 0 000-3.45l-3.54-3.54V18a5 5 0 00-5-5h-102a5 5 0 00-5 5v88a5 5 0 005 5h72l2.32 2.32a2.44 2.44 0 003.45 0l1.9-1.89a20.9 20.9 0 005.91 2.46v2.67a2.44 2.44 0 002.44 2.44h5.16a2.44 2.44 0 002.44-2.44v-2.67a20.87 20.87 0 005.92-2.46l1.9 1.9a2.44 2.44 0 003.44 0l3.65-3.66a2.44 2.44 0 000-3.44l-1.9-1.9a20.9 20.9 0 002.47-5.92h2.67a2.44 2.44 0 002.44-2.44v-5.16a2.44 2.44 0 00-2.44-2.44z" fill="#e6e7e8"/><rect fill="#d4fbff" height="96" rx="4" width="110" x="2.39" y="10"/><path d="M42.53 36h-6.8a1 1 0 010-2h6.8a1 1 0 010 2zM29.73 36H12.89a1 1 0 110-2h16.84a1 1 0 110 2zM42.53 71h-10.3a1 1 0 010-2h10.3a1 1 0 010 2zM28.23 71H12.89a1 1 0 010-2h15.34a1 1 0 110 2zM42.53 92H27.71a1 1 0 010-2h14.82a1 1 0 010 2zM20.56 92H12.9a1 1 0 010-2h7.67a1 1 0 110 2z" fill="#fa759e"/><path d="M108.4 103H6.4a4 4 0 01-4-4v3a4 4 0 004 4h102a4 4 0 004-4v-3a4 4 0 01-4 4z" fill="#fff"/><path d="M108.4 10H6.4a4 4 0 00-4 4v10.5h110V14a4 4 0 00-4-4z" fill="#0089ef"/><path d="M91.06 15.08a2.33 2.33 0 102.33 2.34 2.33 2.33 0 00-2.33-2.34z" fill="#fff"/><path d="M98.06 15.08a2.33 2.33 0 102.33 2.34 2.33 2.33 0 00-2.33-2.34z" fill="#d4fbff"/><path d="M105.06 15.08a2.33 2.33 0 102.33 2.34 2.33 2.33 0 00-2.33-2.34zM121.6 91.97v-5.16a1.44 1.44 0 00-1.43-1.44h-3.47a19.99 19.99 0 00-2.93-7.06l2.46-2.46a1.44 1.44 0 000-2.03l-3.65-3.65a1.44 1.44 0 00-2.03 0l-2.46 2.46a19.98 19.98 0 00-7.07-2.93v-3.48a1.44 1.44 0 00-1.44-1.43h-5.16a1.44 1.44 0 00-1.44 1.43v3.48a19.97 19.97 0 00-7.06 2.93l-2.46-2.46a1.44 1.44 0 00-2.03 0l-3.66 3.65a1.44 1.44 0 000 2.03l2.46 2.46a20 20 0 00-2.92 7.07h-3.48a1.44 1.44 0 00-1.44 1.43v5.17a1.44 1.44 0 001.44 1.43h3.48a20 20 0 002.92 7.07l-2.46 2.45a1.44 1.44 0 000 2.04l3.66 3.65a1.44 1.44 0 002.03 0l2.46-2.46a19.95 19.95 0 007.06 2.93v3.47a1.44 1.44 0 001.44 1.44h5.16a1.44 1.44 0 001.44-1.44v-3.47a19.96 19.96 0 007.06-2.93l2.46 2.46a1.44 1.44 0 002.03 0l3.65-3.65a1.44 1.44 0 000-2.04l-2.46-2.46a19.99 19.99 0 002.93-7.06h3.48a1.44 1.44 0 001.44-1.44zM97 101.16a11.76 11.76 0 1111.77-11.77A11.76 11.76 0 0197 101.16z" fill="#fa759e"/><g fill="#3a2c60"><path d="M52.23 43h30.3a1 1 0 000-2h-30.3a1 1 0 000 2zM19.9 43h25.16a1 1 0 000-2H19.89a1 1 0 000 2zM37.31 49a1 1 0 001 1h54.22a1 1 0 000-2H38.31a1 1 0 00-1 1zM19.9 50h12.33a1 1 0 100-2H19.89a1 1 0 000 2zM19.9 57h72.64a1 1 0 000-2H19.88a1 1 0 000 2zM84.53 62H72.66a1 1 0 000 2h11.88a1 1 0 000-2zM19.9 64h47.74a1 1 0 000-2H19.9a1 1 0 000 2zM70.53 76H60.06a1 1 0 000 2h10.47a1 1 0 000-2zM19.9 78h34.59a1 1 0 100-2h-34.6a1 1 0 000 2zM63.53 83H19.9a1 1 0 000 2h43.64a1 1 0 000-2zM66.9 25.5h8.74a1 1 0 000-2H66.9a1 1 0 000 2z"/><path d="M120.17 84.37h-2.67a20.82 20.82 0 00-2.46-5.92l1.9-1.89a2.44 2.44 0 000-3.45l-3.54-3.54V14a5 5 0 00-5-5H6.4a5 5 0 00-5 5v88a5 5 0 005 5h72l2.33 2.33a2.44 2.44 0 003.45 0l1.9-1.9A20.86 20.86 0 0092 109.9v2.67a2.44 2.44 0 002.42 2.44h5.16a2.44 2.44 0 002.44-2.44v-2.67a20.9 20.9 0 005.92-2.46l1.9 1.9a2.44 2.44 0 003.44 0l3.65-3.65a2.44 2.44 0 000-3.45l-1.9-1.9a20.82 20.82 0 002.46-5.92h2.67a2.44 2.44 0 002.44-2.44v-5.16a2.44 2.44 0 00-2.43-2.44zM3.39 102V25.5h58.67a1 1 0 000-2H3.39V14a3 3 0 013-3h102a3 3 0 013 3v9.5H80.66a1 1 0 000 2h30.73v43.26a2.42 2.42 0 00-1.56.7l-1.89 1.9a20.85 20.85 0 00-5.92-2.46v-2.67a2.44 2.44 0 00-2.44-2.44h-5.16a2.44 2.44 0 00-2.44 2.44v2.67a20.82 20.82 0 00-5.92 2.46l-1.9-1.9a2.44 2.44 0 00-3.45 0l-3.65 3.65a2.44 2.44 0 000 3.45l1.9 1.9a20.85 20.85 0 00-2.46 5.92h-2.67a2.44 2.44 0 00-2.44 2.43v5.17a2.44 2.44 0 002.44 2.43h2.67a20.84 20.84 0 002.46 5.93l-1.9 1.89a2.43 2.43 0 00-.46 2.77H6.4a3 3 0 01-3-3zm117.22-10.03a.44.44 0 01-.44.44h-3.47a1 1 0 00-.98.8 18.87 18.87 0 01-2.78 6.71 1 1 0 00.12 1.26l2.46 2.46a.44.44 0 010 .62l-3.65 3.65a.44.44 0 01-.62 0l-2.46-2.46a1 1 0 00-1.26-.13 18.93 18.93 0 01-6.7 2.79 1 1 0 00-.8.98v3.47a.44.44 0 01-.44.44h-5.17a.44.44 0 01-.44-.44v-3.47a1 1 0 00-.8-.98 18.92 18.92 0 01-6.7-2.79 1 1 0 00-1.27.13l-2.46 2.46a.44.44 0 01-.62 0l-3.65-3.65a.44.44 0 010-.62l2.46-2.46a1 1 0 00.13-1.26 18.87 18.87 0 01-2.78-6.7 1 1 0 00-.98-.8h-3.48a.44.44 0 01-.44-.45v-5.16a.44.44 0 01.44-.44h3.48a1 1 0 00.98-.8 18.91 18.91 0 012.78-6.7 1 1 0 00-.13-1.26l-2.46-2.46a.44.44 0 010-.62l3.65-3.65a.44.44 0 01.62 0l2.46 2.46a1 1 0 001.26.12 18.9 18.9 0 016.71-2.78 1 1 0 00.8-.98v-3.48a.44.44 0 01.44-.43h5.16a.44.44 0 01.44.43v3.48a1 1 0 00.8.98 18.9 18.9 0 016.7 2.78 1 1 0 001.27-.12l2.46-2.46a.44.44 0 01.62 0l3.65 3.65a.44.44 0 010 .62l-2.46 2.46a1 1 0 00-.13 1.26 18.87 18.87 0 012.78 6.7 1 1 0 00.98.8h3.48a.44.44 0 01.44.44z"/><path d="M97 76.63a12.76 12.76 0 1012.77 12.76A12.78 12.78 0 0097 76.63zm0 23.53a10.76 10.76 0 1110.77-10.77A10.78 10.78 0 0197 100.16z"/></g></svg>