<svg height="512" viewBox="0 0 128 128" width="512" xmlns="http://www.w3.org/2000/svg"><path d="m111.413 108.521-23.7-20.612.018-.018a4.977 4.977 0 0 0 0-7.03l-1.013-1.012a4.951 4.951 0 0 0 -1.326-.928 33.384 33.384 0 0 0 -4.3-36.254v-25.333a8.045 8.045 0 0 0 -8.044-8.034h-47.2a8.045 8.045 0 0 0 -8.035 8.036v95.929a8.045 8.045 0 0 0 8.035 8.035h47.2a8.045 8.045 0 0 0 8.036-8.035v-15.109l18.927 21.767a8.113 8.113 0 0 0 5.818 2.774h.278a8.082 8.082 0 0 0 5.306-14.181z" fill="#e6e7e8"/><rect fill="#6dc9f7" height="110" rx="7.035" width="61.275" x="14.809" y="6.298"/><path d="m3.118 28.419h84.657v61.275h-84.657z" fill="#d4fbff" transform="matrix(0 1 -1 0 104.502 13.61)"/><path d="m14.809 16.728h61.275v3h-61.275z" fill="#fff"/><rect fill="#0089ef" height="2.269" rx="1.026" width="19.128" x="35.882" y="10.484"/><path d="m59.549 10.374a1.245 1.245 0 1 0 1.245 1.245 1.244 1.244 0 0 0 -1.245-1.245z" fill="#0089ef"/><rect fill="#0089ef" height="5.511" rx="2.492" width="16.534" x="37.179" y="105.451"/><path d="m106.757 105.275-24.514-21.316-6.793 6.794 21.315 24.514a7.083 7.083 0 1 0 9.992-9.992z" fill="#fa759e"/><path d="m83.02 77.568-1.013-1.013a3.956 3.956 0 0 0 -2.023-1.082 32.335 32.335 0 0 1 -13.021 13.021 3.951 3.951 0 0 0 1.083 2.023l1.012 1.013a3.971 3.971 0 0 0 5.615 0l8.347-8.347a3.971 3.971 0 0 0 0-5.615z" fill="#ffd7e5"/><circle cx="51.569" cy="60.079" fill="#0089ef" r="32.316"/><circle cx="51.569" cy="60.079" fill="#d4fbff" r="26"/><path d="m42.022 79.924a2.354 2.354 0 0 1 -1.363-4.275l.68-.481a7.3 7.3 0 0 0 3.077-5.95v-22.339a8.7 8.7 0 0 1 8.691-8.69 8.533 8.533 0 0 1 5.718 14.87 10.215 10.215 0 0 1 -5.572 18.779h-.783a2.354 2.354 0 0 1 0-4.708h.783a5.51 5.51 0 0 0 1.987-10.65l-3.561-1.375a2.354 2.354 0 0 1 .848-4.55h.58a3.83 3.83 0 0 0 0-7.659 3.988 3.988 0 0 0 -3.983 3.983v22.339a12.016 12.016 0 0 1 -5.064 9.791l-.679.481a2.336 2.336 0 0 1 -1.359.434z" fill="#fa759e"/><g fill="#3a2c60"><path d="m34.946 100.385h-7.5a1 1 0 0 0 0 2h7.5a1 1 0 1 0 0-2z"/><path d="m107.413 104.521-23.7-20.612.018-.018a4.971 4.971 0 0 0 0-7.03l-1.013-1.013a4.738 4.738 0 0 0 -1.328-.923 33.384 33.384 0 0 0 -4.3-36.258v-25.333a8.045 8.045 0 0 0 -8.042-8.034h-47.2a8.045 8.045 0 0 0 -8.035 8.036v95.929a8.045 8.045 0 0 0 8.035 8.035h47.2a8.045 8.045 0 0 0 8.036-8.035v-15.109l18.927 21.767a8.113 8.113 0 0 0 5.818 2.774h.278a8.082 8.082 0 0 0 5.306-14.181zm-26.113-27.259 1.014 1.013a2.972 2.972 0 0 1 0 4.2l-8.347 8.346a2.974 2.974 0 0 1 -4.2 0l-1.015-1.011a2.893 2.893 0 0 1 -.585-.849 33.2 33.2 0 0 0 12.285-12.284 2.847 2.847 0 0 1 .848.585zm-7.586 4.961a31.3 31.3 0 1 1 0-44.288 31.353 31.353 0 0 1 -.001 44.288zm-51.87-74.923h47.2a6.043 6.043 0 0 1 6.036 6.036v2.394h-59.271v-2.396a6.042 6.042 0 0 1 6.035-6.034zm47.2 108h-47.2a6.041 6.041 0 0 1 -6.035-6.035v-6.878h7.971a1 1 0 0 0 0-2h-7.971v-82.659h59.275v18.751a33.3 33.3 0 1 0 -8.668 53.421 4.749 4.749 0 0 0 .922 1.328l1.014 1.013a4.931 4.931 0 0 0 6.732.242v7.906h-36.263a1 1 0 0 0 0 2h36.263v6.878a6.042 6.042 0 0 1 -6.036 6.033zm37.362-.378a6.081 6.081 0 0 1 -8.89-.31l-20.7-23.812 5.475-5.475 23.81 20.7a6.082 6.082 0 0 1 .309 8.89z"/><path d="m51.569 33.079a27 27 0 1 0 19.092 7.908 26.821 26.821 0 0 0 -19.092-7.908zm17.678 44.677a25 25 0 1 1 0-35.355 24.839 24.839 0 0 1 0 35.355z"/><path d="m60.339 52.935a9.531 9.531 0 0 0 -7.232-15.746 9.7 9.7 0 0 0 -9.691 9.69v22.339a6.3 6.3 0 0 1 -2.655 5.134l-.679.481a3.354 3.354 0 0 0 -.8 4.676 3.353 3.353 0 0 0 4.676.8l.679-.481a13.023 13.023 0 0 0 5.263-8.195 3.349 3.349 0 0 0 2.573 1.2h.783a11.231 11.231 0 0 0 11.216-11.213 11.363 11.363 0 0 0 -4.133-8.685zm-7.086 17.9h-.783a1.354 1.354 0 0 1 0-2.708h.783a6.51 6.51 0 0 0 2.347-12.579l-3.56-1.376a1.354 1.354 0 0 1 .487-2.617h.58a4.83 4.83 0 0 0 0-9.659 4.989 4.989 0 0 0 -4.983 4.983v22.339a11.014 11.014 0 0 1 -4.642 8.975l-.68.482a1.39 1.39 0 0 1 -1.887-.322 1.354 1.354 0 0 1 .322-1.888l.68-.481a8.3 8.3 0 0 0 3.5-6.766v-22.339a7.7 7.7 0 0 1 7.691-7.69 7.533 7.533 0 0 1 5.047 13.129 1 1 0 0 0 .123 1.578 9.341 9.341 0 0 1 4.2 7.724 9.229 9.229 0 0 1 -9.225 9.218zm-3.129-3.749v-11.838a3.344 3.344 0 0 0 1.194.789l3.562 1.376a4.51 4.51 0 0 1 -1.627 8.717h-.783a3.345 3.345 0 0 0 -2.346.959zm0-16.519v-3.688a2.986 2.986 0 0 1 2.983-2.979 2.83 2.83 0 0 1 0 5.659h-.58a3.349 3.349 0 0 0 -2.403 1.011z"/></g></svg>