<svg height="512" viewBox="0 0 128 128" width="512" xmlns="http://www.w3.org/2000/svg"><path d="m114.388 26.334a11.1 11.1 0 0 0 -11.088-11.086h-74.6a11.1 11.1 0 0 0 -11.085 11.091v66.345c0 .032 0 .072.006.108a6.059 6.059 0 0 0 6.039 5.932h14.14v15.023a3 3 0 0 0 3 3h70.591a3 3 0 0 0 3-3z" fill="#e6e7e8"/><path d="m109.388 22.334a10.086 10.086 0 0 0 -10.088-10.086h-74.6a10.091 10.091 0 0 1 10.1 10.091v87.413a2 2 0 0 0 2 2h70.591a2 2 0 0 0 2-2z" fill="#d4fbff"/><path d="m37.8 109.752v-87.413a10.091 10.091 0 0 0 -10.094-10.091h-3a10.091 10.091 0 0 1 10.094 10.091v87.413a2 2 0 0 0 2 2h3a2 2 0 0 1 -2-2z" fill="#fff"/><path d="m14.612 48.313v40.37.033-40.4z" fill="#fa759e"/><path d="m24.706 12.248a10.091 10.091 0 0 0 -10.091 10.091v66.377a5.044 5.044 0 0 0 5.042 5.013h15.143v-71.39a10.091 10.091 0 0 0 -10.094-10.091z" fill="#0089ef"/><path d="m19.657 93.729a5.046 5.046 0 0 0 5.043-5.046v-57.023a2 2 0 0 1 2-2h8.1v64.069z" fill="#d4fbff"/><path d="m82.443 56.648a12.262 12.262 0 0 1 -7.043 3.252v2.97a2.448 2.448 0 0 1 -.66 1.769 2.571 2.571 0 0 1 -3.49 0 2.439 2.439 0 0 1 -.659-1.769v-2.87a21.308 21.308 0 0 1 -5.234-1.131 14.971 14.971 0 0 1 -4.385-2.358 2.383 2.383 0 0 1 -.849-.942 3.078 3.078 0 0 1 -.235-1.274 2.746 2.746 0 0 1 .589-1.744 1.69 1.69 0 0 1 1.343-.754 2.276 2.276 0 0 1 .873.164 9.957 9.957 0 0 1 1.061.543 17.408 17.408 0 0 0 4.267 2.074 14.6 14.6 0 0 0 4.408.66 8.332 8.332 0 0 0 4.881-1.225 4.078 4.078 0 0 0 1.72-3.537 2.841 2.841 0 0 0 -.943-2.216 6.848 6.848 0 0 0 -2.358-1.343q-1.413-.495-3.96-1.156a42.742 42.742 0 0 1 -5.752-1.815 9.975 9.975 0 0 1 -3.819-2.8 7.6 7.6 0 0 1 -1.6-5.092 8.789 8.789 0 0 1 2.734-6.507 12.544 12.544 0 0 1 7.167-3.347v-2.981a2.437 2.437 0 0 1 .66-1.768 2.571 2.571 0 0 1 3.49 0 2.445 2.445 0 0 1 .66 1.768v2.924a15.822 15.822 0 0 1 8.2 3.441 2.647 2.647 0 0 1 1.127 2.216 2.745 2.745 0 0 1 -.59 1.744 1.728 1.728 0 0 1 -1.391.755 2.471 2.471 0 0 1 -.825-.141 5.563 5.563 0 0 1 -1.06-.566 17.856 17.856 0 0 0 -3.655-2.051 11.034 11.034 0 0 0 -4.077-.684 7.647 7.647 0 0 0 -4.668 1.3 4.191 4.191 0 0 0 -1.744 3.56 3.365 3.365 0 0 0 .989 2.522 6.553 6.553 0 0 0 2.5 1.485q1.509.519 4.1 1.179a40.5 40.5 0 0 1 5.61 1.745 9.559 9.559 0 0 1 3.7 2.711 7.4 7.4 0 0 1 1.532 4.927 8.617 8.617 0 0 1 -2.614 6.362z" fill="#fa759e"/><g fill="#3a2c60"><path d="m109.388 77.709a1 1 0 0 0 -1 1v7.558a1 1 0 0 0 2 0v-7.558a1 1 0 0 0 -1-1z"/><path d="m99.3 11.248h-74.6a11.1 11.1 0 0 0 -11.085 11.091v25.961.016 40.368c0 .037 0 .081.007.123a6.057 6.057 0 0 0 6.037 5.918h14.141v15.024a3 3 0 0 0 3 3h70.591a3 3 0 0 0 3-3v-19.315a1 1 0 0 0 -2 0v19.318a1 1 0 0 1 -1 1h-70.591a1 1 0 0 1 -1-1v-87.413a11.081 11.081 0 0 0 -4.756-9.091h68.256a9.1 9.1 0 0 1 9.086 9.086v52.327a1 1 0 0 0 2 0v-52.327a11.1 11.1 0 0 0 -11.086-11.086zm-75.154 81.48a6.021 6.021 0 0 0 1.554-4.044v-57.024a1 1 0 0 1 1-1h7.1v62.068zm9.654-70.389v6.321h-7.1a3 3 0 0 0 -3 3v57.024a4.044 4.044 0 0 1 -8.088.032v-66.377a9.091 9.091 0 1 1 18.182 0z"/><path d="m96.6 69.622h-48.254a1 1 0 1 0 0 2h48.254a1 1 0 0 0 0-2z"/><path d="m76.725 53.193a7.42 7.42 0 0 1 -4.3 1.04 13.675 13.675 0 0 1 -4.108-.614 16.657 16.657 0 0 1 -4.07-1.988 11.125 11.125 0 0 0 -1.177-.6 3.275 3.275 0 0 0 -1.254-.239 2.654 2.654 0 0 0 -2.132 1.139 3.743 3.743 0 0 0 -.8 2.359 4.068 4.068 0 0 0 .325 1.687 3.285 3.285 0 0 0 1.137 1.313 16.081 16.081 0 0 0 4.675 2.518 22.451 22.451 0 0 0 4.566 1.084v1.979a3.417 3.417 0 0 0 .94 2.464 3.566 3.566 0 0 0 4.93 0 3.424 3.424 0 0 0 .939-2.462v-2.131a12.905 12.905 0 0 0 6.752-3.385 9.616 9.616 0 0 0 2.913-7.074 8.4 8.4 0 0 0 -1.768-5.573 10.614 10.614 0 0 0 -4.084-2.99 41.669 41.669 0 0 0 -5.745-1.788c-1.7-.434-3.056-.824-4.025-1.158a5.584 5.584 0 0 1 -2.124-1.254 2.388 2.388 0 0 1 -.688-1.806 3.18 3.18 0 0 1 1.34-2.757 6.722 6.722 0 0 1 4.072-1.1 10.073 10.073 0 0 1 3.708.614 17.1 17.1 0 0 1 3.483 1.962 6.4 6.4 0 0 0 1.27.667 3.492 3.492 0 0 0 1.16.2 2.707 2.707 0 0 0 2.179-1.138 3.744 3.744 0 0 0 .8-2.36 3.632 3.632 0 0 0 -1.5-2.99 16.675 16.675 0 0 0 -7.839-3.529v-2.063a3.425 3.425 0 0 0 -.942-2.465 3.563 3.563 0 0 0 -4.927 0 3.411 3.411 0 0 0 -.941 2.463v2.129a13.257 13.257 0 0 0 -6.868 3.475 9.794 9.794 0 0 0 -3.033 7.22 8.593 8.593 0 0 0 1.841 5.739 11 11 0 0 0 4.2 3.082 44.02 44.02 0 0 0 5.884 1.86c1.665.432 2.971.812 3.881 1.129a5.917 5.917 0 0 1 2.018 1.148 1.847 1.847 0 0 1 .611 1.474 3.068 3.068 0 0 1 -1.299 2.719zm3.3-2.721a3.816 3.816 0 0 0 -1.272-2.96 7.892 7.892 0 0 0 -2.7-1.545c-.962-.336-2.321-.733-4.044-1.18a41.922 41.922 0 0 1 -5.614-1.77 9 9 0 0 1 -3.441-2.53 6.667 6.667 0 0 1 -1.365-4.443 7.761 7.761 0 0 1 2.435-5.794 11.629 11.629 0 0 1 6.614-3.071 1 1 0 0 0 .852-.99v-2.969a1.448 1.448 0 0 1 .379-1.074 1.577 1.577 0 0 1 2.05 0 1.451 1.451 0 0 1 .381 1.074v2.922a1 1 0 0 0 .872.993 14.919 14.919 0 0 1 7.73 3.249 1.642 1.642 0 0 1 .733 1.417 1.762 1.762 0 0 1 -.378 1.128c-.289.37-.509.37-.6.37a1.487 1.487 0 0 1 -.494-.085 4.284 4.284 0 0 1 -.814-.44 19.092 19.092 0 0 0 -3.863-2.163 12.076 12.076 0 0 0 -4.446-.754 8.649 8.649 0 0 0 -5.265 1.494 5.166 5.166 0 0 0 -2.147 4.363 4.347 4.347 0 0 0 1.291 3.238 7.571 7.571 0 0 0 2.871 1.714c1.033.356 2.4.75 4.188 1.205a39.9 39.9 0 0 1 5.468 1.7 8.63 8.63 0 0 1 3.317 2.429 6.477 6.477 0 0 1 1.3 4.283 7.583 7.583 0 0 1 -2.321 5.654 11.327 11.327 0 0 1 -6.491 2.974 1 1 0 0 0 -.853.989v2.971a1.449 1.449 0 0 1 -.378 1.072 1.578 1.578 0 0 1 -2.053 0 1.445 1.445 0 0 1 -.378-1.073v-2.87a1 1 0 0 0 -.913-1 20.376 20.376 0 0 1 -4.989-1.078 14.218 14.218 0 0 1 -4.146-2.235 1.436 1.436 0 0 1 -.509-.536 2.12 2.12 0 0 1 -.146-.86 1.747 1.747 0 0 1 .377-1.129c.288-.369.482-.369.555-.369a1.265 1.265 0 0 1 .488.087 8.634 8.634 0 0 1 .9.458 18.5 18.5 0 0 0 4.513 2.19 15.636 15.636 0 0 0 4.708.706 9.311 9.311 0 0 0 5.461-1.411 5.042 5.042 0 0 0 2.136-4.351z"/><path d="m96.6 83.122h-48.254a1 1 0 1 0 0 2h48.254a1 1 0 0 0 0-2z"/><path d="m96.6 96.622h-48.254a1 1 0 1 0 0 2h48.254a1 1 0 0 0 0-2z"/></g></svg>