<svg height="512" viewBox="0 0 128 128" width="512" xmlns="http://www.w3.org/2000/svg"><path d="m106.179 60.448a15.839 15.839 0 0 0 15.821-15.821v-6.313a1 1 0 1 0 -2 0v6.313a13.837 13.837 0 0 1 -13.821 13.821h-9.561a37.213 37.213 0 0 0 -13.863-12.255 19.737 19.737 0 0 0 -2.476-24.359l5.841-8.356a1 1 0 0 0 -1.64-1.145l-5.673 8.115a19.773 19.773 0 0 0 -25.614 0l-5.673-8.115a1 1 0 0 0 -1.64 1.145l5.841 8.356a19.737 19.737 0 0 0 -2.476 24.359 37.213 37.213 0 0 0 -13.863 12.255h-9.561a13.837 13.837 0 0 1 -13.821-13.821v-6.313a1 1 0 0 0 -2 0v6.313a15.839 15.839 0 0 0 15.821 15.821h8.308a36.71 36.71 0 0 0 -5.043 17.252h-18.086a1 1 0 0 0 0 2h18.066a36.69 36.69 0 0 0 4.6 17.256h-7.845a15.839 15.839 0 0 0 -15.821 15.826v6.312a1 1 0 0 0 2 0v-6.312a13.837 13.837 0 0 1 13.821-13.822h9.04a36.9 36.9 0 0 0 62.278 0h9.04a13.837 13.837 0 0 1 13.821 13.822v6.312a1 1 0 0 0 2 0v-6.312a15.839 15.839 0 0 0 -15.821-15.822h-7.842a36.69 36.69 0 0 0 4.6-17.256h18.063a1 1 0 0 0 0-2h-18.086a36.7 36.7 0 0 0 -5.043-17.256z" fill="#e6e7e8"/><path d="m62 39.16a35.792 35.792 0 0 1 15.3 3.416 18.852 18.852 0 1 0 -30.6 0 35.792 35.792 0 0 1 15.3-3.416z" fill="#0089ef"/><circle cx="62" cy="75.109" fill="#6dc9f7" r="35.949"/><path d="m62 42.16a35.945 35.945 0 0 1 35.911 34.449c.021-.5.038-1 .038-1.5a35.949 35.949 0 0 0 -71.9 0c0 .5.017 1 .037 1.5a35.946 35.946 0 0 1 35.914-34.449z" fill="#fff"/><rect fill="#fa759e" height="31.881" rx="2" width="31.881" x="46.06" y="58.764"/><g fill="#ffd7e5"><rect height="19.934" rx="2" width="19.934" x="52.033" y="64.737"/><path d="m56.1 52.2h-.39a1.813 1.813 0 0 0 -1.81 1.817v4.747h4.014v-4.747a1.813 1.813 0 0 0 -1.814-1.817z"/><path d="m68.286 52.2h-.386a1.813 1.813 0 0 0 -1.812 1.813v4.747h4.012v-4.743a1.813 1.813 0 0 0 -1.814-1.817z"/><path d="m53.9 90.645h4.015a0 0 0 0 1 0 0v4.747a1.812 1.812 0 0 1 -1.815 1.808h-.39a1.812 1.812 0 0 1 -1.81-1.808v-4.747a0 0 0 0 1 0 0z"/><path d="m66.084 90.645h4.016a0 0 0 0 1 0 0v4.747a1.812 1.812 0 0 1 -1.814 1.808h-.386a1.812 1.812 0 0 1 -1.812-1.812v-4.743a0 0 0 0 1 -.004 0z"/><path d="m41.312 78.788a1.812 1.812 0 0 0 -1.812 1.812v.39a1.813 1.813 0 0 0 1.812 1.81h4.748v-4.012z"/><path d="m41.312 66.606a1.812 1.812 0 0 0 -1.812 1.812v.39a1.812 1.812 0 0 0 1.812 1.812h4.748v-4.014z"/><path d="m82.687 78.788h-4.747v4.012h4.747a1.813 1.813 0 0 0 1.813-1.81v-.39a1.813 1.813 0 0 0 -1.813-1.812z"/><path d="m82.687 66.606h-4.747v4.014h4.747a1.813 1.813 0 0 0 1.813-1.812v-.39a1.813 1.813 0 0 0 -1.813-1.812z"/></g><path d="m86.451 100.081a35.236 35.236 0 0 1 -4.736 3.89 1 1 0 0 0 .566 1.825.989.989 0 0 0 .564-.175 37.268 37.268 0 0 0 5-4.11 1 1 0 0 0 -1.4-1.43z" fill="#3a2c60"/><path d="m102.179 56.448a15.839 15.839 0 0 0 15.821-15.821v-6.313a1 1 0 1 0 -2 0v6.313a13.837 13.837 0 0 1 -13.821 13.821h-9.561a37.2 37.2 0 0 0 -13.871-12.258 19.714 19.714 0 0 0 -2.468-24.356l5.841-8.356a1 1 0 0 0 -1.64-1.145l-5.673 8.115a19.773 19.773 0 0 0 -25.614 0l-5.673-8.115a1 1 0 0 0 -1.64 1.145l5.841 8.356a19.716 19.716 0 0 0 -2.469 24.356 37.2 37.2 0 0 0 -13.87 12.258h-9.561a13.837 13.837 0 0 1 -13.821-13.821v-6.313a1 1 0 0 0 -2 0v6.313a15.839 15.839 0 0 0 15.821 15.821h8.308a36.7 36.7 0 0 0 -5.043 17.252h-18.086a1 1 0 0 0 0 2h18.066a36.69 36.69 0 0 0 4.6 17.256h-7.845a15.839 15.839 0 0 0 -15.821 15.826v6.312a1 1 0 0 0 2 0v-6.312a13.837 13.837 0 0 1 13.821-13.822h9.04a36.938 36.938 0 0 0 49.139 12.428 1 1 0 0 0 -.976-1.747 34.936 34.936 0 0 1 -16.024 4.386v-18.383h2.084v3.747a2.816 2.816 0 0 0 2.816 2.809h.39a2.816 2.816 0 0 0 2.81-2.809v-3.747h4.84a3 3 0 0 0 3-3v-4.844h3.747a2.816 2.816 0 0 0 2.813-2.81v-.39a2.816 2.816 0 0 0 -2.813-2.812h-3.747v-6.168h3.747a2.815 2.815 0 0 0 2.813-2.812v-.39a2.816 2.816 0 0 0 -2.813-2.812h-3.747v-4.842a3 3 0 0 0 -3-3h-4.84v-3.748a2.816 2.816 0 0 0 -2.814-2.816h-.386a2.816 2.816 0 0 0 -2.812 2.812v3.748h-2.088v-17.575a34.943 34.943 0 0 1 25.657 57.528 1 1 0 0 0 1.524 1.294 36.734 36.734 0 0 0 2.981-4.047h9.017a13.837 13.837 0 0 1 13.821 13.822v6.312a1 1 0 0 0 2 0v-6.312a15.839 15.839 0 0 0 -15.821-15.822h-7.837a36.975 36.975 0 0 0 4.594-17.26h18.064a1 1 0 0 0 0-2h-18.086a36.71 36.71 0 0 0 -5.043-17.256zm-58.031-24.856a17.852 17.852 0 0 1 35.7 0 17.68 17.68 0 0 1 -2.926 9.728 36.831 36.831 0 0 0 -29.852 0 17.68 17.68 0 0 1 -2.922-9.728zm24.952 63.799a.814.814 0 0 1 -.813.813h-.387a.813.813 0 0 1 -.812-.813v-3.747h2.012zm13.588-15.6a.813.813 0 0 1 .813.812v.39a.814.814 0 0 1 -.813.813h-3.748v-2.018zm0-12.182a.813.813 0 0 1 .813.812v.39a.813.813 0 0 1 -.813.812h-3.748v-2.017zm-5.748-6.845v27.88a1 1 0 0 1 -1 1h-27.88a1 1 0 0 1 -1-1v-27.88a1 1 0 0 1 1-1h27.88a1 1 0 0 1 1 1zm-22.04 30.88h2.015v3.747a.813.813 0 0 1 -.812.813h-.39a.814.814 0 0 1 -.813-.813zm-9.84-9.844h-3.748a.813.813 0 0 1 -.812-.813v-.387a.813.813 0 0 1 .812-.812h3.748zm0-12.183h-3.748a.813.813 0 0 1 -.812-.812v-.39a.813.813 0 0 1 .812-.812h3.748zm11.856-11.853h-2.016v-3.748a.813.813 0 0 1 .813-.812h.39a.813.813 0 0 1 .812.812zm10.168-3.748a.813.813 0 0 1 .816-.816h.39a.813.813 0 0 1 .813.812v3.748h-2.019zm-8.168 3.748v-3.748a2.816 2.816 0 0 0 -2.816-2.816h-.39a2.816 2.816 0 0 0 -2.81 2.816v3.748h-4.84a3 3 0 0 0 -3 3v4.842h-3.748a2.816 2.816 0 0 0 -2.812 2.812v.39a2.815 2.815 0 0 0 2.812 2.812h3.748v6.168h-3.748a2.816 2.816 0 0 0 -2.812 2.812v.39a2.816 2.816 0 0 0 2.812 2.81h3.748v4.841a3 3 0 0 0 3 3h4.84v3.747a2.816 2.816 0 0 0 2.814 2.812h.39a2.816 2.816 0 0 0 2.812-2.813v-3.743h2.084v18.389a34.938 34.938 0 0 1 0-69.848v17.579z" fill="#3a2c60"/></svg>