<?xml version="1.0"?>
<svg xmlns="http://www.w3.org/2000/svg" viewBox="0 0 128 128" width="512" height="512"><path d="M106.179,56.323A15.839,15.839,0,0,0,122,40.5V34.189a1,1,0,1,0-2,0V40.5a13.837,13.837,0,0,1-13.821,13.821H96.618A37.211,37.211,0,0,0,82.755,42.069a19.738,19.738,0,0,0-2.476-24.36L86.12,9.354a1,1,0,0,0-1.64-1.146l-5.673,8.115a19.773,19.773,0,0,0-25.614,0L47.52,8.208a1,1,0,0,0-1.64,1.146l5.841,8.355a19.738,19.738,0,0,0-2.476,24.36A37.211,37.211,0,0,0,35.382,54.323H25.821A13.837,13.837,0,0,1,12,40.5V34.189a1,1,0,0,0-2,0V40.5A15.839,15.839,0,0,0,25.821,56.323h8.308a36.71,36.71,0,0,0-5.043,17.256H11a1,1,0,0,0,0,2H29.066a36.691,36.691,0,0,0,4.6,17.257H25.821A15.839,15.839,0,0,0,10,108.657v6.313a1,1,0,0,0,2,0v-6.313A13.837,13.837,0,0,1,25.821,94.836h9.04A37.025,37.025,0,0,0,59.29,111.312v6.2a6.71,6.71,0,1,0,13.42,0v-6.2A37.025,37.025,0,0,0,97.139,94.836h9.04A13.837,13.837,0,0,1,120,108.657v6.313a1,1,0,0,0,2,0v-6.313a15.839,15.839,0,0,0-15.821-15.821H98.337a36.691,36.691,0,0,0,4.6-17.257H121a1,1,0,0,0,0-2H102.914a36.7,36.7,0,0,0-5.043-17.256Z" fill="#e6e7e8"/><path d="M62,35.035a35.807,35.807,0,0,1,15.3,3.416,18.852,18.852,0,1,0-30.6,0A35.807,35.807,0,0,1,62,35.035Z" fill="#0089ef"/><circle cx="62" cy="70.984" r="35.949" fill="#6dc9f7"/><path d="M62,38.035A35.945,35.945,0,0,1,97.911,72.484c.021-.5.038-1,.038-1.5a35.949,35.949,0,0,0-71.9,0c0,.5.017,1,.037,1.5A35.946,35.946,0,0,1,62,38.035Z" fill="#fff"/><path d="M77,58.3a14.988,14.988,0,0,0-8.158-13.338V58.77H55.158V44.959a14.99,14.99,0,0,0,1.131,27.206v41.343A5.711,5.711,0,0,0,62,119.219h0a5.71,5.71,0,0,0,5.71-5.711V72.165A15,15,0,0,0,77,58.3Z" fill="#fa759e"/><path d="M86.451,95.957a35.236,35.236,0,0,1-4.736,3.89,1,1,0,1,0,1.13,1.65,37.345,37.345,0,0,0,5-4.11,1,1,0,0,0-1.4-1.43Z" fill="#3a2c60"/><path d="M102.179,52.323A15.839,15.839,0,0,0,118,36.5V30.189a1,1,0,1,0-2,0V36.5a13.837,13.837,0,0,1-13.821,13.821H92.618A37.2,37.2,0,0,0,78.747,38.065a19.714,19.714,0,0,0-2.468-24.356L82.12,5.354a1,1,0,0,0-1.64-1.146l-5.673,8.115a19.773,19.773,0,0,0-25.614,0L43.52,4.208a1,1,0,0,0-1.64,1.146l5.841,8.355a19.714,19.714,0,0,0-2.468,24.356A37.2,37.2,0,0,0,31.382,50.323H21.821A13.837,13.837,0,0,1,8,36.5V30.189a1,1,0,0,0-2,0V36.5A15.839,15.839,0,0,0,21.821,52.323h8.308a36.7,36.7,0,0,0-5.043,17.256H7a1,1,0,0,0,0,2H25.064a36.705,36.705,0,0,0,4.6,17.257H21.821A15.839,15.839,0,0,0,6,104.657v6.313a1,1,0,0,0,2,0v-6.313A13.837,13.837,0,0,1,21.821,90.836h9.037A37.026,37.026,0,0,0,55.29,107.311v6.2a6.71,6.71,0,1,0,13.42,0v-6.216A36.749,36.749,0,0,0,80,103.263a1,1,0,0,0-.976-1.746,34.749,34.749,0,0,1-10.31,3.743V72.819a15.989,15.989,0,0,0,.589-28.75,1,1,0,0,0-1.457.89V57.77H63V36.06A34.943,34.943,0,0,1,88.657,93.588a1,1,0,1,0,1.524,1.3,36.828,36.828,0,0,0,2.981-4.047h9.017A13.837,13.837,0,0,1,116,104.657v6.313a1,1,0,0,0,2,0v-6.313a15.839,15.839,0,0,0-15.821-15.821H94.342a36.982,36.982,0,0,0,4.594-17.257H117a1,1,0,0,0,0-2H98.914a36.71,36.71,0,0,0-5.043-17.256ZM44.148,27.467a17.852,17.852,0,0,1,35.7,0A17.686,17.686,0,0,1,76.926,37.2a36.82,36.82,0,0,0-29.852,0A17.686,17.686,0,0,1,44.148,27.467Zm24.694,32.3a1,1,0,0,0,1-1V46.71a13.989,13.989,0,0,1-2.513,24.53,1,1,0,0,0-.619.925v41.344a4.71,4.71,0,1,1-9.42,0V72.165a1,1,0,0,0-.619-.925,13.989,13.989,0,0,1-2.513-24.53V58.77a1,1,0,0,0,1,1Zm-12.684-2V44.959a1,1,0,0,0-1.457-.89,15.989,15.989,0,0,0,.589,28.75v32.452A34.936,34.936,0,0,1,61,36.06V57.77Z" fill="#3a2c60"/><circle cx="62" cy="113.346" r="2.105" fill="#ffd7e5"/></svg>
