<svg height="512" viewBox="0 0 128 128" width="512" xmlns="http://www.w3.org/2000/svg"><path d="m102.609 90.2v-5.951a3 3 0 0 0 -3-3h-32.609v-5.868h29.1a19.244 19.244 0 0 0 2.375-38.342c.006-.139.01-.278.01-.418a29.12 29.12 0 0 0 -56.737-9.221c-.366-.022-.725-.037-1.095-.037a24.01 24.01 0 1 0 0 48.02h24.347v5.868h-32.609a3 3 0 0 0 -3 3v5.949a8.5 8.5 0 1 0 2 0v-5.951a1 1 0 0 1 1-1h32.609v5.451a17.925 17.925 0 1 0 2 0v-5.451h32.609a1 1 0 0 1 1 1v5.951a8.5 8.5 0 1 0 2 0z" fill="#e6e7e8"/><path d="m93.423 33.94c.021-.44.067-.874.067-1.319a28.12 28.12 0 0 0 -55.028-8.168c-.6-.047-1.2-.092-1.809-.092a23.01 23.01 0 0 0 0 46.02h55.447a18.244 18.244 0 0 0 1.32-36.441z" fill="#d4fbff"/><path d="m64.623 8.5c12.817 0 23.763 7.42 28.165 17.889a28.109 28.109 0 0 0 -52.545-6.367 30.934 30.934 0 0 1 24.38-11.522z" fill="#fff"/><path d="m40.946 47.237a3.946 3.946 0 1 0 3.946 3.946 3.946 3.946 0 0 0 -3.946-3.946z" fill="#0089ef"/><path d="m62 47.237a3.946 3.946 0 1 0 3.946 3.946 3.946 3.946 0 0 0 -3.946-3.946z" fill="#0089ef"/><path d="m83.054 47.237a3.946 3.946 0 1 0 3.946 3.946 3.946 3.946 0 0 0 -3.946-3.946z" fill="#0089ef"/><circle cx="62" cy="102.575" fill="#fa759e" r="16.925" transform="matrix(.707 -.707 .707 .707 -54.372 73.884)"/><circle cx="26.391" cy="94.632" fill="#fa759e" r="7.5"/><circle cx="97.609" cy="94.632" fill="#fa759e" r="7.5"/><g fill="#3a2c60"><path d="m71 69.381a1 1 0 0 0 0 2h5.667a1 1 0 0 0 0-2z"/><path d="m36 51.183a4.946 4.946 0 1 0 4.946-4.946 4.952 4.952 0 0 0 -4.946 4.946zm7.892 0a2.946 2.946 0 1 1 -2.946-2.946 2.95 2.95 0 0 1 2.946 2.946z"/><path d="m57.054 51.183a4.946 4.946 0 1 0 4.946-4.946 4.951 4.951 0 0 0 -4.946 4.946zm7.892 0a2.946 2.946 0 1 1 -2.946-2.946 2.949 2.949 0 0 1 2.946 2.946z"/><path d="m88 51.183a4.946 4.946 0 1 0 -4.946 4.946 4.952 4.952 0 0 0 4.946-4.946zm-7.892 0a2.946 2.946 0 1 1 2.946 2.946 2.949 2.949 0 0 1 -2.946-2.946z"/><path d="m98.609 86.2v-5.951a3 3 0 0 0 -3-3h-32.609v-5.868h4.042a1 1 0 0 0 0-2h-30.389a22.01 22.01 0 1 1 0-44.02c1.639 0 6.294.308 9.391 3.27a1 1 0 1 0 1.383-1.445 14.1 14.1 0 0 0 -7.6-3.608 27.106 27.106 0 0 1 52.665 9.043c0 .066-.007.131-.009.2a11.822 11.822 0 0 0 -8.026 2.057 1 1 0 0 0 1.227 1.58 9.849 9.849 0 0 1 6.1-1.638c.918.02 2.291.184 2.646.232a17.006 17.006 0 0 1 2.655.577 17.243 17.243 0 0 1 -4.985 33.752h-11.433a1 1 0 0 0 0 2h11.433a19.244 19.244 0 0 0 2.375-38.342c.006-.139.01-.278.01-.418a29.12 29.12 0 0 0 -56.737-9.221c-.367-.022-.725-.037-1.095-.037a24.01 24.01 0 1 0 0 48.02h24.347v5.868h-32.609a3 3 0 0 0 -3 3v5.949a8.5 8.5 0 1 0 2 0v-5.951a1 1 0 0 1 1-1h32.609v5.451a17.925 17.925 0 1 0 2 0v-5.451h32.609a1 1 0 0 1 1 1v5.951a8.5 8.5 0 1 0 2 0zm-65.718 8.431a6.5 6.5 0 1 1 -6.5-6.5 6.508 6.508 0 0 1 6.5 6.5zm45.034 7.944a15.925 15.925 0 1 1 -15.925-15.925 15.943 15.943 0 0 1 15.925 15.925zm19.684-1.444a6.5 6.5 0 1 1 6.5-6.5 6.508 6.508 0 0 1 -6.5 6.5z"/></g><path d="m58.685 105.956v.02a1.106 1.106 0 0 1 -1.546 1.015l-6.237-2.7a1.589 1.589 0 0 1 -.956-1.457v-.017a1.588 1.588 0 0 1 .956-1.457l6.237-2.7a1.106 1.106 0 0 1 1.546 1.015v.025a1.105 1.105 0 0 1 -.708 1.032l-5.377 2.073 5.388 2.122a1.106 1.106 0 0 1 .697 1.029z" fill="#fff"/><path d="m64.089 97.931-2.432 10.017c-.082.33-.152.591-.213.782a.968.968 0 0 1 -.278.448.813.813 0 0 1 -.543.16q-.887 0-.886-.764a6.816 6.816 0 0 1 .174-1l2.423-10.017a4.5 4.5 0 0 1 .365-1.1.72.72 0 0 1 .678-.295.954.954 0 0 1 .664.208.734.734 0 0 1 .231.574 4.778 4.778 0 0 1 -.183.987z" fill="#fff"/><path d="m73.1 104.289-6.237 2.716a1.107 1.107 0 0 1 -1.549-1.015v-.015a1.108 1.108 0 0 1 .7-1.031l5.405-2.122-5.4-2.089a1.106 1.106 0 0 1 -.708-1.032 1.107 1.107 0 0 1 1.546-1.016l6.235 2.69a1.588 1.588 0 0 1 .959 1.458 1.588 1.588 0 0 1 -.951 1.456z" fill="#fff"/></svg>