<svg height="512" viewBox="0 0 128 128" width="512" xmlns="http://www.w3.org/2000/svg"><path d="m107 46.333h-5v-4.339a3.049 3.049 0 0 0 -3.045-3.045h-4.137a29.289 29.289 0 0 0 -3.695-8.906l2.929-2.93a3.047 3.047 0 0 0 0-4.306l-5.193-5.193a3.049 3.049 0 0 0 -4.306 0l-2.929 2.93a29.249 29.249 0 0 0 -8.907-3.695v-4.137a3.048 3.048 0 0 0 -3.045-3.045h-7.344a3.048 3.048 0 0 0 -3.045 3.045v4.137a29.259 29.259 0 0 0 -8.907 3.7l-2.929-2.93a3.049 3.049 0 0 0 -4.306 0l-5.193 5.193a3.047 3.047 0 0 0 0 4.306l2.929 2.93a29.293 29.293 0 0 0 -3.695 8.906h-4.137a3.049 3.049 0 0 0 -3.045 3.04v4.339h-5a5.006 5.006 0 0 0 -5 5v66a5.006 5.006 0 0 0 5 5h82a5.006 5.006 0 0 0 5-5v-66a5.006 5.006 0 0 0 -5-5zm-56.733-.666a15.733 15.733 0 0 1 31.466 0c0 .225-.024.443-.034.666h-31.399c-.009-.223-.033-.441-.033-.666z" fill="#e6e7e8"/><path d="m45.351 43.333c-.054-.548-.084-1.1-.084-1.666a16.733 16.733 0 1 1 33.466 0c0 .562-.03 1.118-.084 1.666h18.351v-5.338a2.046 2.046 0 0 0 -2.045-2.046h-4.942a28.418 28.418 0 0 0 -4.167-10.043l3.5-3.5a2.045 2.045 0 0 0 0-2.893l-5.193-5.193a2.046 2.046 0 0 0 -2.892 0l-3.5 3.5a28.423 28.423 0 0 0 -10.044-4.167v-4.941a2.045 2.045 0 0 0 -2.045-2.045h-7.344a2.045 2.045 0 0 0 -2.045 2.045v4.942a28.43 28.43 0 0 0 -10.044 4.167l-3.5-3.5a2.046 2.046 0 0 0 -2.892 0l-5.193 5.193a2.045 2.045 0 0 0 0 2.893l3.5 3.5a28.4 28.4 0 0 0 -4.166 10.043h-4.943a2.046 2.046 0 0 0 -2.045 2.045v5.338z" fill="#fa759e"/><rect fill="#d4fbff" height="74" rx="4" width="90" x="17" y="43.333"/><path d="m103 114.333h-82a4 4 0 0 1 -4-4v3a4 4 0 0 0 4 4h82a4 4 0 0 0 4-4v-3a4 4 0 0 1 -4 4z" fill="#fff"/><rect fill="#fa759e" height="28.833" rx="2" width="32" x="27.167" y="78.666"/><path d="m94.5 67.833h-65a2.834 2.834 0 0 0 0 5.667h65a2.834 2.834 0 0 0 0-5.667z" fill="#6dc9f7"/><path d="m103 43.333h-82a4 4 0 0 0 -4 4v10.5h90v-10.5a4 4 0 0 0 -4-4z" fill="#0089ef"/><path d="m85.667 48.416a2.334 2.334 0 1 0 2.333 2.334 2.334 2.334 0 0 0 -2.333-2.334z" fill="#fff"/><path d="m92.667 48.416a2.334 2.334 0 1 0 2.333 2.334 2.334 2.334 0 0 0 -2.333-2.334z" fill="#d4fbff"/><path d="m99.667 48.416a2.334 2.334 0 1 0 2.333 2.334 2.334 2.334 0 0 0 -2.333-2.334z" fill="#fa759e"/><g fill="#3a2c60"><path d="m96.833 78.833h-30.667a1 1 0 0 0 0 2h30.667a1 1 0 0 0 0-2z"/><path d="m96.833 87.833h-30.667a1 1 0 0 0 0 2h30.667a1 1 0 0 0 0-2z"/><path d="m96.833 96.833h-30.667a1 1 0 0 0 0 2h30.667a1 1 0 0 0 0-2z"/><path d="m96.833 105.833h-30.667a1 1 0 0 0 0 2h30.667a1 1 0 0 0 0-2z"/><path d="m40.25 56.833h-8.75a1 1 0 0 0 0 2h8.75a1 1 0 0 0 0-2z"/><path d="m103 42.333h-5v-4.338a3.049 3.049 0 0 0 -3.045-3.046h-4.137a29.279 29.279 0 0 0 -3.695-8.906l2.929-2.929a3.044 3.044 0 0 0 0-4.306l-5.193-5.194a3.118 3.118 0 0 0 -4.306 0l-2.929 2.93a29.249 29.249 0 0 0 -8.907-3.695v-4.137a3.048 3.048 0 0 0 -3.045-3.045h-7.344a3.048 3.048 0 0 0 -3.045 3.045v4.137a29.259 29.259 0 0 0 -8.907 3.7l-2.929-2.93a3.049 3.049 0 0 0 -4.306 0l-5.193 5.194a3.043 3.043 0 0 0 0 4.305l2.929 2.93a29.293 29.293 0 0 0 -3.695 8.906h-4.137a3.049 3.049 0 0 0 -3.045 3.041v4.338h-5a5.006 5.006 0 0 0 -5 5v66a5.006 5.006 0 0 0 5 5h82a5.006 5.006 0 0 0 5-5v-66a5.006 5.006 0 0 0 -5-5zm-75-4.338a1.047 1.047 0 0 1 1.045-1.046h4.942a1 1 0 0 0 .98-.8 27.345 27.345 0 0 1 4.021-9.69 1 1 0 0 0 -.127-1.259l-3.5-3.5a1.044 1.044 0 0 1 0-1.476l5.193-5.194a1.045 1.045 0 0 1 1.478 0l3.5 3.5a1 1 0 0 0 1.259.127 27.3 27.3 0 0 1 9.69-4.02 1 1 0 0 0 .8-.981v-4.944a1.046 1.046 0 0 1 1.045-1.045h7.344a1.046 1.046 0 0 1 1.045 1.045v4.942a1 1 0 0 0 .8.981 27.272 27.272 0 0 1 9.689 4.02 1 1 0 0 0 1.26-.127l3.5-3.5a1.072 1.072 0 0 1 1.477 0l5.193 5.194a1.044 1.044 0 0 1 0 1.477l-3.5 3.5a1 1 0 0 0 -.127 1.259 27.323 27.323 0 0 1 4.021 9.69 1 1 0 0 0 .98.8h4.942a1.047 1.047 0 0 1 1.05 1.047v4.338h-16.3c.01-.223.034-.441.034-.666a17.733 17.733 0 1 0 -35.466 0c0 .225.024.443.034.666h-16.302zm18.3 4.338c-.01-.223-.036-.441-.036-.666a15.733 15.733 0 1 1 31.466 0c0 .225-.026.443-.036.666zm56.7 74h-82a3 3 0 0 1 -3-3v-54.5h8.666a1 1 0 0 0 0-2h-8.666v-9.5a3 3 0 0 1 3-3h82a3 3 0 0 1 3 3v9.5h-60.733a1 1 0 1 0 0 2h60.733v54.5a3 3 0 0 1 -3 3z"/></g></svg>