<svg height="512" viewBox="0 0 128 128" width="512" xmlns="http://www.w3.org/2000/svg"><path d="m124.461 50.005a1 1 0 0 0 -.293-.707l-16.931-16.932a1 1 0 0 0 -.707-.293h-31.5a2.234 2.234 0 0 0 -2.23 2.232v41.918l-6.424-5.687a1 1 0 0 0 -1.663.749v4.615h-5.513v-25.895a1 1 0 0 0 -.293-.707l-16.928-16.932a1 1 0 0 0 -.707-.293h-31.503a2.234 2.234 0 0 0 -2.231 2.232v62.395a2.234 2.234 0 0 0 2.231 2.231h47.2a2.234 2.234 0 0 0 2.231-2.231v-7.746h5.51v4.863a1 1 0 0 0 1.638.77l6.449-5.34v7.453a2.234 2.234 0 0 0 2.23 2.231h47.2a2.234 2.234 0 0 0 2.231-2.231z" fill="#e6e7e8"/><path d="m54.2 46.005-16.929-16.931h-31.502a1.231 1.231 0 0 0 -1.231 1.231v62.395a1.231 1.231 0 0 0 1.231 1.231h47.2a1.232 1.232 0 0 0 1.231-1.231v-46.7z" fill="#d4fbff"/><path d="m37.271 29.075h-31.502a1.231 1.231 0 0 0 -1.231 1.231v2.813a1.232 1.232 0 0 1 1.231-1.232h31.5z" fill="#fff"/><path d="m37.272 29.074v15.7a1.233 1.233 0 0 0 1.228 1.231h15.7z" fill="#6dc9f7"/><path d="m119.461 46.005-16.931-16.931h-31.5a1.231 1.231 0 0 0 -1.23 1.231v62.395a1.231 1.231 0 0 0 1.231 1.231h47.2a1.231 1.231 0 0 0 1.231-1.231v-46.7z" fill="#ffd7e5"/><path d="m88.919 68.275v.032a1.907 1.907 0 0 1 -2.665 1.75l-10.745-4.657a2.736 2.736 0 0 1 -1.648-2.51v-.03a2.736 2.736 0 0 1 1.648-2.51l10.745-4.657a1.906 1.906 0 0 1 2.665 1.749v.052a1.909 1.909 0 0 1 -1.221 1.78l-9.271 3.571 9.284 3.655a1.907 1.907 0 0 1 1.208 1.775z" fill="#fa759e"/><path d="m97.409 51.392a1.772 1.772 0 0 0 -2.139 1.3l-4.725 19.528a1.774 1.774 0 0 0 1.3 2.139 1.817 1.817 0 0 0 .419.05 1.766 1.766 0 0 0 1.72-1.356l4.73-19.523a1.773 1.773 0 0 0 -1.305-2.138z" fill="#fa759e"/><path d="m113.754 65.362-10.746 4.679a1.907 1.907 0 0 1 -2.668-1.748v-.026a1.905 1.905 0 0 1 1.21-1.775l9.313-3.657-9.3-3.6a1.905 1.905 0 0 1 -1.219-1.778 1.907 1.907 0 0 1 2.656-1.751l10.743 4.635a2.737 2.737 0 0 1 1.653 2.513 2.736 2.736 0 0 1 -1.642 2.508z" fill="#fa759e"/><path d="m102.531 29.074v15.7a1.232 1.232 0 0 0 1.231 1.232h15.7z" fill="#fa759e"/><path d="m74.861 78.928-13.151-11.643v5.611h-14.315v11.058h14.315v5.863z" fill="#0089ef"/><g fill="#3a2c60"><path d="m21 55.693-10.749 4.657a2.735 2.735 0 0 0 -1.651 2.51v.03a2.735 2.735 0 0 0 1.649 2.51l10.751 4.657a1.907 1.907 0 0 0 2.665-1.75v-.032a1.907 1.907 0 0 0 -1.213-1.775l-9.284-3.655 9.271-3.571a1.907 1.907 0 0 0 1.221-1.78v-.052a1.906 1.906 0 0 0 -2.66-1.749z"/><path d="m32.15 51.392a1.771 1.771 0 0 0 -2.139 1.3l-4.725 19.528a1.774 1.774 0 0 0 1.306 2.139 1.8 1.8 0 0 0 .418.05 1.766 1.766 0 0 0 1.72-1.356l4.725-19.523a1.773 1.773 0 0 0 -1.305-2.138z"/><path d="m50.139 62.854a2.738 2.738 0 0 0 -1.652-2.513l-10.744-4.635a1.907 1.907 0 1 0 -1.443 3.529l9.3 3.6-9.313 3.657a1.905 1.905 0 0 0 -1.21 1.774v.027a1.907 1.907 0 0 0 2.668 1.748l10.755-4.679a2.736 2.736 0 0 0 1.639-2.508z"/><path d="m89.919 57.442a2.908 2.908 0 0 0 -4.063-2.667l-10.744 4.657a3.759 3.759 0 0 0 0 6.886l10.744 4.657a2.908 2.908 0 0 0 4.063-2.667v-.034a2.89 2.89 0 0 0 -1.842-2.7l-6.894-2.715 6.874-2.648a2.942 2.942 0 0 0 1.862-2.769zm-2.581.9-9.271 3.571a1 1 0 0 0 -.007 1.864l9.285 3.655a.9.9 0 0 1 .574.843v.034a.908.908 0 0 1 -1.268.832l-10.744-4.658a1.759 1.759 0 0 1 0-3.216l10.744-4.657a.914.914 0 0 1 .364-.076.9.9 0 0 1 .5.151.919.919 0 0 1 .409.81.9.9 0 0 1 -.586.846z"/><path d="m91.613 75.33a2.768 2.768 0 0 0 3.348-2.041l4.724-19.523a2.771 2.771 0 1 0 -5.387-1.3l-4.725 19.518a2.773 2.773 0 0 0 2.04 3.346zm-.1-2.874 4.725-19.523a.775.775 0 0 1 .748-.592.758.758 0 0 1 .183.023.773.773 0 0 1 .568.931l-4.72 19.523a.772.772 0 0 1 -1.5-.362z"/><path d="m99.34 68.293a2.9 2.9 0 0 0 4.067 2.665l10.746-4.679a3.736 3.736 0 0 0 -.012-6.856l-10.741-4.634a2.9 2.9 0 0 0 -4.058 2.668 2.927 2.927 0 0 0 1.857 2.711l6.912 2.674-6.925 2.719a2.9 2.9 0 0 0 -1.846 2.732zm2.575-.871 9.313-3.656a1 1 0 0 0 0-1.863l-9.3-3.6a.913.913 0 0 1 -.58-.846.91.91 0 0 1 .9-.909.906.906 0 0 1 .362.077l10.744 4.635a1.736 1.736 0 0 1 0 3.185l-10.746 4.679a.89.89 0 0 1 -.858-.073.929.929 0 0 1 .165-1.629z"/><path d="m120.131 45.26-16.894-16.893a1 1 0 0 0 -.707-.293h-31.5a2.234 2.234 0 0 0 -2.23 2.231v41.918l-6.424-5.687a1 1 0 0 0 -1.663.749v4.615h-5.513v-25.895a1 1 0 0 0 -.293-.707l-16.929-16.931a1 1 0 0 0 -.707-.293h-31.502a2.234 2.234 0 0 0 -2.231 2.231v62.395a2.234 2.234 0 0 0 2.231 2.231h47.2a2.234 2.234 0 0 0 2.231-2.231v-7.746h5.51v4.863a1 1 0 0 0 1.638.77l6.449-5.34v7.453a2.234 2.234 0 0 0 2.231 2.231h47.2a2.234 2.234 0 0 0 2.232-2.231v-17.487a1 1 0 0 0 -2 0v17.487a.232.232 0 0 1 -.232.231h-47.2a.231.231 0 0 1 -.228-.231v-9.1l4.7-3.9a1 1 0 0 0 .025-1.519l-4.725-4.187v-43.689a.23.23 0 0 1 .231-.231h30.5v14.7a2.234 2.234 0 0 0 2.232 2.232h14.7v14.172a1 1 0 0 0 2 0v-15.178a1 1 0 0 0 -.332-.74zm-81.859-13.771 13.516 13.516h-13.288a.232.232 0 0 1 -.232-.232zm14.928 61.211a.232.232 0 0 1 -.232.231h-47.199a.231.231 0 0 1 -.231-.231v-62.395a.23.23 0 0 1 .231-.231h30.5v14.7a2.234 2.234 0 0 0 2.231 2.231h14.7v24.895h-5.8a1 1 0 0 0 -1 1v11.054a1 1 0 0 0 1 1h5.8zm9.506-5v-3.746a1 1 0 0 0 -1-1h-13.306v-9.054h13.31a1 1 0 0 0 1-1v-3.395l10.614 9.4zm40.82-42.917v-13.294l13.516 13.516h-13.28a.232.232 0 0 1 -.232-.232z"/><path d="m119.463 64.194a1 1 0 0 0 -1 1v6.106a1 1 0 0 0 2 0v-6.106a1 1 0 0 0 -1-1z"/></g></svg>