<svg height="512" viewBox="0 0 128 128" width="512" xmlns="http://www.w3.org/2000/svg"><path d="m61.3 10a36.312 36.312 0 0 0 -36.27 36.271 41.691 41.691 0 0 0 13.282 29.8 41.558 41.558 0 0 1 10.214 15.223 3.77 3.77 0 0 0 -2.438 3.518v.517a3.751 3.751 0 0 0 1.236 2.771 3.753 3.753 0 0 0 -1.236 2.774v.518a3.754 3.754 0 0 0 1.236 2.774 3.75 3.75 0 0 0 -1.236 2.773v.519a3.777 3.777 0 0 0 3.774 3.773h.238v.412a6.472 6.472 0 0 0 6.421 6.464 4.886 4.886 0 0 0 9.567 0 6.472 6.472 0 0 0 6.421-6.464v-.412h.236a3.777 3.777 0 0 0 3.774-3.773v-.519a3.75 3.75 0 0 0 -1.236-2.773 3.754 3.754 0 0 0 1.236-2.774v-.518a3.753 3.753 0 0 0 -1.238-2.774 3.751 3.751 0 0 0 1.236-2.774v-.517a3.77 3.77 0 0 0 -2.438-3.518 41.562 41.562 0 0 1 10.212-15.219 41.691 41.691 0 0 0 13.282-29.8 36.312 36.312 0 0 0 -36.273-36.272z" fill="#e6e7e8"/><path d="m37.608 84.989-2.908-.784a10.953 10.953 0 0 1 -7.705-7.7l-.784-2.91a1 1 0 0 0 -1.932 0l-.783 2.91a10.954 10.954 0 0 1 -7.706 7.7l-2.911.784a1 1 0 0 0 0 1.932l2.911.783a10.956 10.956 0 0 1 7.7 7.705l.783 2.911a1 1 0 0 0 1.932 0l.784-2.911a10.954 10.954 0 0 1 7.711-7.709l2.911-.783a1 1 0 0 0 0-1.932z" fill="#e6e7e8"/><path d="m101.208 27.653.417-1.547a5.352 5.352 0 0 1 3.768-3.768l1.548-.417a1 1 0 0 0 0-1.932l-1.548-.417a5.356 5.356 0 0 1 -3.768-3.767l-.417-1.549a1 1 0 0 0 -1.932 0l-.417 1.549a5.358 5.358 0 0 1 -3.767 3.767l-1.549.417a1 1 0 0 0 0 1.932l1.549.417a5.354 5.354 0 0 1 3.767 3.768l.417 1.547a1 1 0 0 0 1.932 0z" fill="#e6e7e8"/><path d="m119.123 40.262-2.084-.561a7.555 7.555 0 0 1 -5.315-5.316l-.561-2.083a1 1 0 0 0 -1.931 0l-.562 2.084a7.555 7.555 0 0 1 -5.315 5.316l-2.084.561a1 1 0 0 0 0 1.931l2.084.562a7.552 7.552 0 0 1 5.315 5.315l.562 2.084a1 1 0 0 0 1.931 0l.561-2.084a7.552 7.552 0 0 1 5.315-5.315l2.084-.562a1 1 0 0 0 0-1.931z" fill="#e6e7e8"/><path d="m57.3 117a3.887 3.887 0 0 0 3.888-3.887h-7.773a3.887 3.887 0 0 0 3.885 3.887z" fill="#6dc9f7"/><path d="m57.3 7a35.271 35.271 0 0 0 -35.268 35.271 40.446 40.446 0 0 0 12.968 29.071 42.438 42.438 0 0 1 10.9 16.718c.074 0 .144-.022.22-.022h22.364c.076 0 .146.017.22.022a42.438 42.438 0 0 1 10.9-16.718 40.442 40.442 0 0 0 12.969-29.071 35.27 35.27 0 0 0 -35.273-35.271z" fill="#fa759e"/><path d="m57.3 7v20.2a4.044 4.044 0 0 1 -2.815-1.231 5.508 5.508 0 1 0 .065 7.791 3.855 3.855 0 0 1 2.75-1.16v28.6h.035a4.044 4.044 0 0 0 2.818-1.231 5.508 5.508 0 1 1 -.065 7.791 3.855 3.855 0 0 0 -2.744-1.16h-.044v21.44h11.184c.076 0 .146.017.22.022a42.438 42.438 0 0 1 10.9-16.718 40.442 40.442 0 0 0 12.969-29.073 35.27 35.27 0 0 0 -35.273-35.271z" fill="#ffd7e5"/><path d="m57.3 10.28a35.269 35.269 0 0 1 35.229 33.534c.022-.514.044-1.028.044-1.543a35.271 35.271 0 1 0 -70.541 0c0 .515.022 1.029.044 1.543a35.269 35.269 0 0 1 35.224-33.534z" fill="#fff"/><path d="m47.1 106.234v1.412a5.467 5.467 0 0 0 5.467 5.467h9.473a5.467 5.467 0 0 0 5.467-5.467v-1.412z" fill="#0089ef"/><rect fill="#6dc9f7" height="6.066" rx="2.774" width="28.429" x="43.088" y="88.038"/><rect fill="#6dc9f7" height="6.066" rx="2.774" width="28.429" x="43.088" y="94.103"/><rect fill="#6dc9f7" height="6.066" rx="2.774" width="28.429" x="43.088" y="100.169"/><path d="m30.437 81.171 2.911.784-2.911.784a11.919 11.919 0 0 0 -8.411 8.411l-.784 2.911-.784-2.911a11.919 11.919 0 0 0 -8.411-8.411l-2.911-.784 2.911-.784a11.919 11.919 0 0 0 8.411-8.411l.784-2.911.784 2.911a11.919 11.919 0 0 0 8.411 8.411z" fill="#ffd7e5"/><path d="m101.133 16.538 1.548.417-1.548.417a6.339 6.339 0 0 0 -4.474 4.474l-.417 1.548-.417-1.548a6.339 6.339 0 0 0 -4.474-4.474l-1.551-.417 1.548-.417a6.339 6.339 0 0 0 4.474-4.474l.417-1.548.417 1.548a6.339 6.339 0 0 0 4.477 4.474z" fill="#ffd7e5"/><path d="m112.78 36.667 2.084.561-2.084.561a8.535 8.535 0 0 0 -6.022 6.022l-.561 2.083-.561-2.083a8.535 8.535 0 0 0 -6.022-6.022l-2.084-.561 2.084-.561a8.535 8.535 0 0 0 6.022-6.022l.561-2.084.561 2.084a8.535 8.535 0 0 0 6.022 6.022z" fill="#ffd7e5"/><g fill="#3a2c60"><path d="m57.3 6a36.311 36.311 0 0 0 -36.268 36.27 41.692 41.692 0 0 0 13.282 29.8 41.585 41.585 0 0 1 10.213 15.224 3.769 3.769 0 0 0 -2.439 3.517v.518a3.75 3.75 0 0 0 1.237 2.771 3.729 3.729 0 0 0 -1.237 2.773v.517a3.753 3.753 0 0 0 1.237 2.776 3.73 3.73 0 0 0 -1.237 2.773v.518a3.777 3.777 0 0 0 3.774 3.773h.238v.411a6.473 6.473 0 0 0 6.421 6.465 4.886 4.886 0 0 0 9.567 0 6.473 6.473 0 0 0 6.422-6.465v-.411h.235a3.777 3.777 0 0 0 3.774-3.773v-.518a3.729 3.729 0 0 0 -1.237-2.773 3.753 3.753 0 0 0 1.237-2.776v-.517a3.731 3.731 0 0 0 -1.238-2.773 3.753 3.753 0 0 0 1.236-2.775v-.518a3.769 3.769 0 0 0 -2.438-3.517 41.562 41.562 0 0 1 10.212-15.218 41.692 41.692 0 0 0 13.282-29.8 36.31 36.31 0 0 0 -36.273-36.272zm0 110a2.892 2.892 0 0 1 -2.709-1.888h5.417a2.891 2.891 0 0 1 -2.708 1.888zm9.2-8.355a4.472 4.472 0 0 1 -4.468 4.467h-9.468a4.471 4.471 0 0 1 -4.466-4.467v-.411h18.41zm4.009-4.7v.518a1.775 1.775 0 0 1 -1.774 1.773h-22.873a1.776 1.776 0 0 1 -1.774-1.773v-.518a1.776 1.776 0 0 1 1.774-1.774h22.881a1.776 1.776 0 0 1 1.774 1.772zm0-6.066v.517a1.776 1.776 0 0 1 -1.774 1.775h-22.873a1.776 1.776 0 0 1 -1.774-1.775v-.517a1.776 1.776 0 0 1 1.774-1.779h22.881a1.776 1.776 0 0 1 1.774 1.777zm0-5.548a1.775 1.775 0 0 1 -1.766 1.769h-22.881a1.776 1.776 0 0 1 -1.774-1.774v-.518a1.776 1.776 0 0 1 1.774-1.773h22.881a1.775 1.775 0 0 1 1.774 1.773zm8.409-20.718a43.627 43.627 0 0 0 -10.887 16.425h-9.731v-19.27a2.882 2.882 0 0 1 1.074.7 6.453 6.453 0 0 0 4.636 1.944 6.508 6.508 0 1 0 -4.556-11.152 3.373 3.373 0 0 1 -1.151.757v-7.434a1 1 0 0 0 -2 0v8.617a1.029 1.029 0 0 0 1.034 1 5.035 5.035 0 0 0 3.52-1.518 4.509 4.509 0 1 1 -.053 6.376 4.854 4.854 0 0 0 -3.504-1.458 1 1 0 0 0 -1 1v20.44h-9.73a43.619 43.619 0 0 0 -10.89-16.429 39.658 39.658 0 0 1 -12.648-28.341 34.3 34.3 0 0 1 33.268-34.245v17.975a3.408 3.408 0 0 1 -1.113-.744 6.477 6.477 0 0 0 -5.572-1.79 6.509 6.509 0 0 0 1.013 12.939 6.449 6.449 0 0 0 4.635-1.944 2.909 2.909 0 0 1 1.037-.683v3.972a1 1 0 0 0 2 0v-5.15a1 1 0 0 0 -1-1 4.829 4.829 0 0 0 -3.46 1.464 4.464 4.464 0 0 1 -3.209 1.347 4.509 4.509 0 1 1 3.156-7.723 5.041 5.041 0 0 0 3.513 1.512 1 1 0 0 0 1-1v-19.175a34.305 34.305 0 0 1 33.273 34.245 39.66 39.66 0 0 1 -12.647 28.341z"/><path d="m57.3 41.125a1 1 0 0 0 -1 1v5.958a1 1 0 0 0 2 0v-5.958a1 1 0 0 0 -1-1z"/><path d="m33.608 80.989-2.908-.784a10.951 10.951 0 0 1 -7.7-7.7l-.784-2.91a1 1 0 0 0 -1.932 0l-.783 2.91a10.954 10.954 0 0 1 -7.706 7.7l-2.911.784a1 1 0 0 0 0 1.932l2.911.783a10.956 10.956 0 0 1 7.7 7.705l.783 2.911a1 1 0 0 0 1.932 0l.784-2.911a10.954 10.954 0 0 1 7.706-7.709l2.91-.783a1 1 0 0 0 0-1.932zm-12.366 9.286a12.97 12.97 0 0 0 -8.321-8.32 12.972 12.972 0 0 0 8.321-8.321 12.97 12.97 0 0 0 8.321 8.32 12.974 12.974 0 0 0 -8.321 8.321z"/><path d="m97.208 23.653.417-1.548a5.351 5.351 0 0 1 3.767-3.767l1.548-.417a1 1 0 0 0 0-1.932l-1.548-.417a5.354 5.354 0 0 1 -3.767-3.767l-.417-1.549a1 1 0 0 0 -1.932 0l-.417 1.549a5.354 5.354 0 0 1 -3.767 3.767l-1.548.417a1 1 0 0 0 0 1.932l1.548.417a5.351 5.351 0 0 1 3.767 3.767l.417 1.548a1 1 0 0 0 1.932 0zm-4.173-6.7a7.383 7.383 0 0 0 3.207-3.207 7.383 7.383 0 0 0 3.207 3.207 7.383 7.383 0 0 0 -3.207 3.207 7.377 7.377 0 0 0 -3.207-3.205z"/><path d="m115.123 36.262-2.083-.562a7.553 7.553 0 0 1 -5.316-5.316l-.561-2.083a1 1 0 0 0 -1.932 0l-.561 2.084a7.557 7.557 0 0 1 -5.316 5.315l-2.084.561a1 1 0 0 0 0 1.931l2.084.562a7.555 7.555 0 0 1 5.316 5.315l.561 2.084a1 1 0 0 0 1.932 0l.561-2.084a7.555 7.555 0 0 1 5.317-5.315l2.083-.562a1 1 0 0 0 0-1.931zm-8.926 6.1a9.583 9.583 0 0 0 -5.139-5.139 9.586 9.586 0 0 0 5.139-5.139 9.583 9.583 0 0 0 5.139 5.139 9.583 9.583 0 0 0 -5.136 5.144z"/></g></svg>