<svg height="512" viewBox="0 0 128 128" width="512" xmlns="http://www.w3.org/2000/svg"><path d="m123.4 90.324h-9v-53.524a7.008 7.008 0 0 0 -7-7h-82.8a7.008 7.008 0 0 0 -7 7v53.524h-9a1 1 0 0 0 -1 1v3.933a6.953 6.953 0 0 0 6.95 6.943h102.9a6.953 6.953 0 0 0 6.947-6.945v-3.931a1 1 0 0 0 -.997-1z" fill="#e6e7e8"/><path d="m109.4 87.324v-54.524a6 6 0 0 0 -6-6h-82.8a6 6 0 0 0 -6 6v54.524z" fill="#6dc9f7"/><path d="m103.4 26.8h-82.8a6 6 0 0 0 -6 6v3a6 6 0 0 1 6-6h82.8a6 6 0 0 1 6 6v-3a6 6 0 0 0 -6-6z" fill="#fff"/><path d="m102.372 87.324v-49.689a2 2 0 0 0 -2-2h-76.745a2 2 0 0 0 -2 2v49.689z" fill="#d4fbff"/><circle cx="62" cy="61.479" fill="#fa759e" r="20"/><path d="m65.535 61.132 5.732-5.732a2.5 2.5 0 0 0 -3.535-3.535l-5.732 5.735-5.733-5.732a2.5 2.5 0 1 0 -3.535 3.532l5.733 5.732-5.733 5.733a2.5 2.5 0 0 0 3.535 3.535l5.733-5.733 5.732 5.733a2.5 2.5 0 0 0 3.535-3.535z" fill="#fff"/><path d="m4.605 87.324v3.933a5.945 5.945 0 0 0 5.945 5.943h102.9a5.946 5.946 0 0 0 5.947-5.945v-3.931z" fill="#0089ef"/><g fill="#3a2c60"><path d="m62 40.48a21 21 0 1 0 21 21 21.024 21.024 0 0 0 -21-21zm0 40a19 19 0 1 1 19-19 19.022 19.022 0 0 1 -19 19z"/><path d="m119.4 86.324h-9v-23.013a1 1 0 1 0 -2 0v23.013h-5.029v-48.689a3 3 0 0 0 -3-3h-76.744a3 3 0 0 0 -3 3v48.689h-5.027v-53.524a5.006 5.006 0 0 1 5-5h82.8a5.006 5.006 0 0 1 5 5v12.761a1 1 0 0 0 2 0v-12.761a7.008 7.008 0 0 0 -7-7h-82.8a7.008 7.008 0 0 0 -7 7v53.524h-8.995a1 1 0 0 0 -1 1v3.933a6.952 6.952 0 0 0 6.945 6.943h102.9a6.954 6.954 0 0 0 6.947-6.945v-3.931a1 1 0 0 0 -.997-1zm-96.773-48.689a1 1 0 0 1 1-1h76.745a1 1 0 0 1 1 1v48.689h-78.745zm95.773 53.622a4.951 4.951 0 0 1 -4.947 4.945h-102.903a4.95 4.95 0 0 1 -4.945-4.945v-2.933h112.795z"/><path d="m109.4 48.912a1 1 0 0 0 -1 1v8.649a1 1 0 0 0 2 0v-8.649a1 1 0 0 0 -1-1z"/></g></svg>