<svg height="512" viewBox="0 0 128 128" width="512" xmlns="http://www.w3.org/2000/svg"><path d="m115 79.376h-6.906a44.625 44.625 0 1 0 -84.188 0h-6.906a9.01 9.01 0 0 0 -9 9v14.666a9.01 9.01 0 0 0 9 9h98a9.01 9.01 0 0 0 9-9v-14.666a9.01 9.01 0 0 0 -9-9z" fill="#e6e7e8"/><path d="m102.666 76.375a43.625 43.625 0 1 0 -81.332 0z" fill="#d4fbff"/><path d="m62 19.959a43.617 43.617 0 0 1 43.588 42.176c.019-.516.037-1.031.037-1.551a43.625 43.625 0 0 0 -87.25 0c0 .52.018 1.035.037 1.551a43.617 43.617 0 0 1 43.588-42.176z" fill="#fff"/><rect fill="#6dc9f7" height="30.667" rx="8" width="114" x="5" y="76.375"/><path d="m70.256 53.2a13.045 13.045 0 0 1 -16.512 0 11.162 11.162 0 0 0 -10.114 11.114v12.061h36.74v-12.061a11.162 11.162 0 0 0 -10.114-11.114z" fill="#0089ef"/><path d="m62 30.042a13.053 13.053 0 1 0 13.053 13.058 13.053 13.053 0 0 0 -13.053-13.058z" fill="#fff"/><path d="m18.406 82.582 2.153 6.627h6.969l-5.638 4.097 2.154 6.628-5.638-4.097-5.638 4.097 2.153-6.628-5.638-4.097h6.969z" fill="#fa759e"/><path d="m40.094 82.582 2.154 6.627h6.969l-5.638 4.097 2.153 6.628-5.638-4.097-5.638 4.097 2.154-6.628-5.638-4.097h6.969z" fill="#fa759e"/><path d="m61.783 82.582 2.154 6.627h6.969l-5.638 4.097 2.153 6.628-5.638-4.097-5.638 4.097 2.154-6.628-5.638-4.097h6.969z" fill="#fa759e"/><path d="m83.472 82.582 2.153 6.627h6.969l-5.638 4.097 2.154 6.628-5.638-4.097-5.638 4.097 2.153-6.628-5.638-4.097h6.969z" fill="#ffd7e5"/><path d="m105.161 82.582 2.153 6.627h6.969l-5.638 4.097 2.154 6.628-5.638-4.097-5.638 4.097 2.153-6.628-5.638-4.097h6.969z" fill="#ffd7e5"/><g fill="#3a2c60"><path d="m111 75.375h-6.909a44.625 44.625 0 1 0 -84.182 0h-6.909a9.01 9.01 0 0 0 -9 9v14.667a9.01 9.01 0 0 0 9 9h39.875a1 1 0 0 0 0-2h-39.875a7.008 7.008 0 0 1 -7-7v-14.667a7.009 7.009 0 0 1 7-7h98a7.009 7.009 0 0 1 7 7v14.667a7.008 7.008 0 0 1 -7 7h-41.375a1 1 0 0 0 0 2h41.375a9.01 9.01 0 0 0 9-9v-14.667a9.01 9.01 0 0 0 -9-9zm-91.625-14.792a42.625 42.625 0 1 1 82.59 14.792h-20.595v-11.06a12.171 12.171 0 0 0 -9.028-11.738 14.053 14.053 0 1 0 -20.684 0 12.171 12.171 0 0 0 -9.028 11.738v11.06h-20.6a42.42 42.42 0 0 1 -2.655-14.792zm30.572-17.483a12.053 12.053 0 1 1 12.053 12.049 12.067 12.067 0 0 1 -12.053-12.049zm-5.317 32.275v-11.06a10.172 10.172 0 0 1 8.849-10.07 13.953 13.953 0 0 0 17.042 0 10.172 10.172 0 0 1 8.849 10.07v11.06z"/><path d="m66 106.042h-9.25a1 1 0 0 0 0 2h9.25a1 1 0 0 0 0-2z"/><path d="m28.479 88.9a1 1 0 0 0 -.951-.692h-6.242l-1.93-5.937a1 1 0 0 0 -1.9 0l-1.929 5.936h-6.244a1 1 0 0 0 -.583 1.811l5.05 3.67-1.929 5.937a1 1 0 0 0 1.539 1.117l5.05-3.669 5.051 3.669a1 1 0 0 0 1.539-1.118l-1.93-5.936 5.051-3.67a1 1 0 0 0 .358-1.118zm-7.179 3.6a1 1 0 0 0 -.364 1.118l1.2 3.7-3.149-2.287a1 1 0 0 0 -1.176 0l-3.141 2.285 1.2-3.7a1 1 0 0 0 -.363-1.117l-3.147-2.29h3.892a1 1 0 0 0 .951-.691l1.2-3.7 1.2 3.7a1 1 0 0 0 .952.69h3.89z"/><path d="m50.168 88.9a1 1 0 0 0 -.951-.692h-6.242l-1.929-5.936a1 1 0 0 0 -1.9 0l-1.93 5.937h-6.244a1 1 0 0 0 -.588 1.809l5.05 3.67-1.929 5.937a1 1 0 0 0 1.539 1.117l5.056-3.669 5.05 3.669a1 1 0 0 0 1.539-1.117l-1.929-5.937 5.05-3.67a1 1 0 0 0 .358-1.118zm-7.177 3.6a1 1 0 0 0 -.363 1.117l1.2 3.7-3.147-2.287a1 1 0 0 0 -1.176 0l-3.149 2.287 1.2-3.7a1 1 0 0 0 -.356-1.117l-3.148-2.288h3.888a1 1 0 0 0 .952-.69l1.2-3.7 1.2 3.7a1 1 0 0 0 .951.691h3.897z"/><path d="m66.443 93.688 5.05-3.67a1 1 0 0 0 -.588-1.809h-6.242l-1.929-5.936a1 1 0 0 0 -1.9 0l-1.934 5.936h-6.24a1 1 0 0 0 -.588 1.809l5.051 3.67-1.929 5.937a1 1 0 0 0 1.539 1.117l5.05-3.669 5.05 3.669a1 1 0 0 0 1.539-1.117zm-4.072 1.341a1 1 0 0 0 -1.176 0l-3.147 2.287 1.2-3.7a1 1 0 0 0 -.363-1.117l-3.149-2.288h3.894a1 1 0 0 0 .951-.691l1.2-3.7 1.2 3.7a1 1 0 0 0 .952.691h3.891l-3.144 2.289a1 1 0 0 0 -.364 1.117l1.2 3.7z"/><path d="m93.546 88.9a1 1 0 0 0 -.951-.692h-6.243l-1.929-5.936a1 1 0 0 0 -1.9 0l-1.928 5.936h-6.245a1 1 0 0 0 -.588 1.809l5.05 3.67-1.929 5.937a1 1 0 0 0 1.539 1.117l5.05-3.669 5.049 3.669a1 1 0 0 0 1.54-1.117l-1.929-5.937 5.051-3.67a1 1 0 0 0 .363-1.117zm-7.178 3.6a1 1 0 0 0 -.363 1.117l1.2 3.7-3.145-2.288a1 1 0 0 0 -1.176 0l-3.148 2.287 1.2-3.7a1 1 0 0 0 -.363-1.117l-3.148-2.288h3.891a1 1 0 0 0 .952-.691l1.2-3.7 1.2 3.7a1 1 0 0 0 .951.691h3.892z"/><path d="m115.234 88.9a1 1 0 0 0 -.951-.692h-6.242l-1.93-5.937a1 1 0 0 0 -1.9 0l-1.929 5.936h-6.244a1 1 0 0 0 -.588 1.809l5.05 3.67-1.929 5.937a1 1 0 0 0 1.539 1.117l5.05-3.669 5.051 3.669a1 1 0 0 0 1.539-1.117l-1.929-5.937 5.05-3.67a1 1 0 0 0 .363-1.116zm-7.176 3.6a1 1 0 0 0 -.364 1.117l1.2 3.7-3.148-2.287a1 1 0 0 0 -1.176 0l-3.147 2.287 1.2-3.7a1 1 0 0 0 -.363-1.117l-3.149-2.288h3.892a1 1 0 0 0 .951-.691l1.2-3.7 1.2 3.7a1 1 0 0 0 .951.69h3.892z"/></g></svg>