<svg height="512" viewBox="0 0 128 128" width="512" xmlns="http://www.w3.org/2000/svg"><path d="m115 74.376h-6.906a44.625 44.625 0 1 0 -84.188 0h-6.906a9.01 9.01 0 0 0 -9 9v24.666a9.01 9.01 0 0 0 9 9h98a9.01 9.01 0 0 0 9-9v-24.666a9.01 9.01 0 0 0 -9-9z" fill="#e6e7e8"/><path d="m102.666 71.375a43.625 43.625 0 1 0 -81.332 0z" fill="#d4fbff"/><path d="m62 14.959a43.617 43.617 0 0 1 43.588 42.176c.019-.516.037-1.031.037-1.551a43.625 43.625 0 0 0 -87.25 0c0 .52.018 1.035.037 1.551a43.617 43.617 0 0 1 43.588-42.176z" fill="#fff"/><rect fill="#6dc9f7" height="40.667" rx="8" width="114" x="5" y="71.375"/><path d="m70.256 48.2a13.041 13.041 0 0 1 -16.512 0 11.164 11.164 0 0 0 -10.114 11.114v12.061h36.74v-12.061a11.164 11.164 0 0 0 -10.114-11.114z" fill="#0089ef"/><circle cx="62" cy="38.095" fill="#fff" r="13.053"/><g fill="#3a2c60"><path d="m19.833 83.5h89.334a1 1 0 0 0 0-2h-89.334a1 1 0 0 0 0 2z"/><path d="m110.167 92.5a1 1 0 0 0 -1-1h-89.334a1 1 0 0 0 0 2h89.334a1 1 0 0 0 1-1z"/><path d="m19.833 101.5a1 1 0 0 0 0 2h49.334a1 1 0 0 0 0-2z"/><path d="m111 70.375h-6.909a44.625 44.625 0 1 0 -84.182 0h-6.909a9.01 9.01 0 0 0 -9 9v24.667a9.01 9.01 0 0 0 9 9h69.875a1 1 0 0 0 0-2h-69.875a7.008 7.008 0 0 1 -7-7v-24.667a7.009 7.009 0 0 1 7-7h98a7.009 7.009 0 0 1 7 7v24.667a7.008 7.008 0 0 1 -7 7h-11.375a1 1 0 0 0 0 2h11.375a9.01 9.01 0 0 0 9-9v-24.667a9.01 9.01 0 0 0 -9-9zm-91.625-14.792a42.625 42.625 0 1 1 82.59 14.792h-20.595v-11.06a12.171 12.171 0 0 0 -9.028-11.738 14.053 14.053 0 1 0 -20.684 0 12.171 12.171 0 0 0 -9.028 11.738v11.06h-20.6a42.42 42.42 0 0 1 -2.655-14.792zm30.572-17.483a12.053 12.053 0 1 1 12.053 12.049 12.067 12.067 0 0 1 -12.053-12.049zm-5.317 32.275v-11.06a10.172 10.172 0 0 1 8.849-10.07 13.953 13.953 0 0 0 17.042 0 10.172 10.172 0 0 1 8.849 10.07v11.06z"/><path d="m96 111.042h-9.25a1 1 0 0 0 0 2h9.25a1 1 0 0 0 0-2z"/></g></svg>