<svg height="512" viewBox="0 0 128 128" width="512" xmlns="http://www.w3.org/2000/svg"><path d="m81.29 29.661v-5.452a5.006 5.006 0 0 0 -5-5h-7.434c-.966-1.773-5.384-9-13.191-9-4.826 0-7.461 2.7-10.009 5.313-2.859 2.931-5.8 5.942-12.286 5.832a10.531 10.531 0 0 1 -2.062-3.954l-.76-2.824a1 1 0 0 0 -1.932 0l-.76 2.824a10.6 10.6 0 0 1 -7.456 7.454l-2.824.761a1 1 0 0 0 0 1.932l2.824.759a10.6 10.6 0 0 1 7.456 7.456l.76 2.825a1 1 0 0 0 1.932 0l.76-2.825a10.6 10.6 0 0 1 7.455-7.456l2.826-.759a1 1 0 0 0 0-1.932l-2.826-.761a10.5 10.5 0 0 1 -3.3-1.566c5.887-.506 8.916-3.594 11.623-6.369 2.465-2.528 4.593-4.71 8.577-4.71 5.632 0 9.354 4.681 10.853 7h-6.476a5.006 5.006 0 0 0 -5 5v5.452a47 47 0 1 0 26.25 0z" fill="#e6e7e8"/><path d="m76.29 26.419v-6.21a4 4 0 0 0 -4-4h-16.25a4 4 0 0 0 -4 4v6.21a46 46 0 1 0 24.25 0z" fill="#0089ef"/><path d="m64.165 113.792a45.991 45.991 0 0 1 -45.965-44.636c-.019.544-.034 1.088-.034 1.636a46 46 0 0 0 92 0c0-.548-.016-1.092-.035-1.636a45.99 45.99 0 0 1 -45.966 44.636z" fill="#fff"/><circle cx="64.165" cy="70.792" fill="#fa759e" r="35"/><path d="m99.163 70.709a35 35 0 0 0 -35-34.917v34.917z" fill="#ffd7e5"/><path d="m34.5 21.82 2.825.76-2.825.761a11.569 11.569 0 0 0 -8.158 8.159l-.76 2.825-.76-2.825a11.569 11.569 0 0 0 -8.162-8.161l-2.824-.761 2.824-.76a11.569 11.569 0 0 0 8.162-8.162l.76-2.824.76 2.824a11.569 11.569 0 0 0 8.158 8.164z" fill="#ffd7e5"/><circle cx="64.165" cy="70.792" fill="#6dc9f7" r="5"/><g fill="#3a2c60"><path d="m77.29 25.66v-5.452a5.006 5.006 0 0 0 -5-5h-7.434c-.968-1.774-5.385-9-13.191-9-4.826 0-7.461 2.7-10.009 5.314-2.859 2.932-5.807 5.935-12.287 5.831a10.512 10.512 0 0 1 -2.06-3.954l-.761-2.825a1 1 0 0 0 -1.932 0l-.76 2.825a10.6 10.6 0 0 1 -7.456 7.455l-2.826.76a1 1 0 0 0 0 1.932l2.826.761a10.594 10.594 0 0 1 7.455 7.455l.76 2.824a1 1 0 0 0 1.932 0l.761-2.824a10.593 10.593 0 0 1 7.455-7.455l2.824-.761a1 1 0 0 0 0-1.932l-2.824-.76a10.49 10.49 0 0 1 -3.3-1.566c5.887-.507 8.916-3.594 11.623-6.37 2.465-2.527 4.594-4.71 8.577-4.71 5.632 0 9.354 4.681 10.853 7h-6.476a5.006 5.006 0 0 0 -5 5v5.452a47 47 0 1 0 26.25 0zm-51.708 4.9a12.61 12.61 0 0 0 -7.982-7.98 12.609 12.609 0 0 0 7.982-7.98 12.61 12.61 0 0 0 7.98 7.979 12.612 12.612 0 0 0 -7.98 7.981zm38.583 85.232a45 45 0 0 1 -11.865-88.409 1 1 0 0 0 .737-.965v-6.21a3 3 0 0 1 3-3h16.253a3 3 0 0 1 3 3v6.21a1 1 0 0 0 .738.965 45 45 0 0 1 -11.863 88.409z"/><path d="m86.833 96.133a34.1 34.1 0 0 1 -7.3 5 1 1 0 1 0 .9 1.783 36.063 36.063 0 0 0 7.728-5.288 1 1 0 0 0 -1.334-1.49z"/><path d="m64.165 34.792a36 36 0 1 0 12.812 69.654 1 1 0 0 0 -.711-1.87 34.032 34.032 0 1 1 13.052-8.907 1 1 0 0 0 1.482 1.346 36 36 0 0 0 -26.635-60.223z"/><path d="m85 70.1-15.39-1.812a6.026 6.026 0 0 0 -2.8-2.873l-1.974-21.8a.674.674 0 0 0 -1.342 0l-1.975 21.8a6 6 0 1 0 8.113 7.837l15.368-1.812a.673.673 0 0 0 0-1.34zm-20.835 4.692a4 4 0 1 1 4-4 4 4 0 0 1 -4 4z"/></g></svg>