<?xml version="1.0"?>
<svg xmlns="http://www.w3.org/2000/svg" viewBox="0 0 128 128" width="512" height="512"><path d="M66,7.5A58.5,58.5,0,1,0,124.5,66,58.566,58.566,0,0,0,66,7.5ZM66,110a43.559,43.559,0,0,1-25.812-8.374L56.182,85.632a20.513,20.513,0,0,0,2.445.981l-2.5,2.5a9.094,9.094,0,0,0,0,12.847l2.435,2.434a1,1,0,1,0,1.414-1.414l-2.435-2.434a7.085,7.085,0,0,1,0-10.019l3.317-3.317a20.553,20.553,0,0,0,18.774-5.585,20.474,20.474,0,0,0,6.037-14.573,20.791,20.791,0,0,0-.437-4.216l3.3-3.3a7.083,7.083,0,0,1,10.018,0l2.435,2.435a1,1,0,1,0,1.414-1.414l-2.435-2.435a9.082,9.082,0,0,0-12.846,0l-2.492,2.492a20.36,20.36,0,0,0-.987-2.439l17.988-17.988A43.559,43.559,0,0,1,110,66,44.049,44.049,0,0,1,66,110Zm0-88a43.573,43.573,0,0,1,25.668,8.267L73.614,48.322a20.3,20.3,0,0,0-2.579-1l2.642-2.642a9.086,9.086,0,0,0,0-12.847L71.242,29.4a1,1,0,1,0-1.414,1.414l2.435,2.435a7.087,7.087,0,0,1,0,10.019L68.772,46.76c-.009.009-.012.021-.021.031a20.472,20.472,0,0,0-9.6.516,11.228,11.228,0,0,0-10.6-8.3l-.588-5.045a1,1,0,0,0-1.986.232l.576,4.944a11.194,11.194,0,0,0-9.411,9.411l-4.944-.576a1,1,0,1,0-.232,1.986l5.045.588a11.23,11.23,0,0,0,8.309,10.607,20.744,20.744,0,0,0-.518,9.593c-.012.01-.027.014-.038.025l-3.491,3.491a7.087,7.087,0,0,1-10.019,0l-2.435-2.435A1,1,0,1,0,27.4,73.242l2.435,2.435a9.086,9.086,0,0,0,12.847,0l2.655-2.655a20.523,20.523,0,0,0,.992,2.584L30.267,91.668A43.573,43.573,0,0,1,22,66,44.049,44.049,0,0,1,66,22Z" fill="#e6e7e8"/><path d="M47.191,49.191a19.48,19.48,0,0,1,7.221-4.565A10.283,10.283,0,1,0,42.626,56.412,19.48,19.48,0,0,1,47.191,49.191Z" fill="#0089ef"/><path d="M74.922,76.922a19.616,19.616,0,0,0,3.512-22.957L51.965,80.434A19.616,19.616,0,0,0,74.922,76.922Z" fill="#6dc9f7"/><path d="M47.191,49.191a19.605,19.605,0,0,0-3.664,22.632l26.3-26.3A19.605,19.605,0,0,0,47.191,49.191Z" fill="#6dc9f7"/><path d="M62,4.5A57.5,57.5,0,1,0,119.5,62,57.5,57.5,0,0,0,62,4.5ZM62,17a44.792,44.792,0,0,1,27.2,9.154L26.154,89.2A44.994,44.994,0,0,1,62,17Zm0,90a44.79,44.79,0,0,1-27.336-9.264L97.736,34.663A44.991,44.991,0,0,1,62,107Z" fill="#fa759e"/><path d="M62,7.5a57.488,57.488,0,0,1,57.462,56c.013-.5.038-1,.038-1.5a57.5,57.5,0,0,0-115,0c0,.5.025,1,.038,1.5A57.488,57.488,0,0,1,62,7.5Z" fill="#fff"/><path d="M112.2,90.073a1,1,0,0,0-1.368.36,56.737,56.737,0,0,1-4.617,6.741,1,1,0,0,0,1.565,1.246,58.652,58.652,0,0,0,4.779-6.979A1,1,0,0,0,112.2,90.073Z" fill="#3a2c60"/><path d="M62,3.5a58.5,58.5,0,1,0,43.318,97.817,1,1,0,1,0-1.48-1.345A56.5,56.5,0,1,1,118.5,62a55.941,55.941,0,0,1-5.855,25.077,1,1,0,1,0,1.792.888A57.922,57.922,0,0,0,120.5,62,58.566,58.566,0,0,0,62,3.5Z" fill="#3a2c60"/><path d="M90.194,26.086a1,1,0,0,0-.393-.729A45.585,45.585,0,0,0,62,16,46.053,46.053,0,0,0,16,62a45.587,45.587,0,0,0,9.357,27.8,1,1,0,0,0,.729.393l.068,0a1,1,0,0,0,.707-.293L89.9,26.861A1,1,0,0,0,90.194,26.086ZM42.447,63.056A18.58,18.58,0,0,1,68.086,45.849L43.842,70.093A18.473,18.473,0,0,1,42.447,63.056Zm1.824-26.063a9.241,9.241,0,0,1,8.985,6.994A20.61,20.61,0,0,0,41.974,55.252a9.172,9.172,0,0,1-4.266-2.417,9.279,9.279,0,0,1,6.563-15.842ZM69.61,44.326a20.28,20.28,0,0,0-2.6-.977l2.666-2.666a9.086,9.086,0,0,0,0-12.847L67.242,25.4a1,1,0,1,0-1.414,1.414l2.435,2.435a7.087,7.087,0,0,1,0,10.019L64.772,42.76c-.012.012-.016.028-.027.04a20.751,20.751,0,0,0-9.591.523,11.225,11.225,0,0,0-10.607-8.316l-.588-5.045a1,1,0,1,0-1.986.232l.576,4.944a11.194,11.194,0,0,0-9.411,9.411l-4.944-.576a1,1,0,1,0-.232,1.986l5.045.588a11.223,11.223,0,0,0,8.3,10.6,20.729,20.729,0,0,0-.526,9.615c-.006.005-.016,0-.021.008l-3.491,3.491a7.087,7.087,0,0,1-10.019,0l-2.435-2.435A1,1,0,1,0,23.4,69.242l2.435,2.435a9.086,9.086,0,0,0,12.847,0l2.649-2.649a20.273,20.273,0,0,0,.982,2.594L26.267,87.668A43.573,43.573,0,0,1,18,62,44.049,44.049,0,0,1,62,18a43.571,43.571,0,0,1,25.668,8.267Z" fill="#3a2c60"/><path d="M62,108a46.053,46.053,0,0,0,46-46,45.568,45.568,0,0,0-9.47-27.945,1,1,0,0,0-.728-.389,1.013,1.013,0,0,0-.773.291L33.957,97.029a1,1,0,0,0,.1,1.5A45.574,45.574,0,0,0,62,108ZM79.665,63.056a18.46,18.46,0,0,1-4.778,12.417L66.614,67.2l11.52-11.519A18.508,18.508,0,0,1,79.665,63.056ZM53.694,80.12,65.2,68.614l8.279,8.279A18.62,18.62,0,0,1,53.694,80.12Zm-1.516,1.516a20.559,20.559,0,0,0,2.443.982l-2.5,2.5a9.082,9.082,0,0,0,0,12.846l2.435,2.435a1,1,0,1,0,1.414-1.414l-2.435-2.435a7.083,7.083,0,0,1,0-10.018l3.318-3.318a20.577,20.577,0,0,0,24.37-24.37l3.306-3.306a7.083,7.083,0,0,1,10.018,0l2.435,2.435A1,1,0,1,0,98.4,56.558l-2.435-2.435a9.082,9.082,0,0,0-12.846,0l-2.485,2.485a20.377,20.377,0,0,0-.985-2.441L97.626,36.188A43.559,43.559,0,0,1,106,62a44.049,44.049,0,0,1-44,44,43.564,43.564,0,0,1-25.812-8.374Z" fill="#3a2c60"/></svg>
