<svg height="512" viewBox="0 0 128 128" width="512" xmlns="http://www.w3.org/2000/svg"><circle cx="66" cy="65.992" fill="#e6e7e8" r="38.667" transform="matrix(.987 -.16 .16 .987 -9.719 11.424)"/><path d="m124.521 65.236-7.428-6.428a1 1 0 0 0 -1.309 1.512l5.4 4.672h-11.05a1 1 0 0 0 0 2h11.049l-5.4 4.672a1 1 0 1 0 1.309 1.512l7.428-6.428a1 1 0 0 0 0-1.512z" fill="#e6e7e8"/><path d="m21.866 64.992h-11.049l5.4-4.672a1 1 0 1 0 -1.309-1.512l-7.429 6.428a1 1 0 0 0 0 1.512l7.428 6.428a1 1 0 1 0 1.309-1.512l-5.4-4.672h11.05a1 1 0 0 0 0-2z" fill="#e6e7e8"/><path d="m59.571 16.554a1 1 0 0 0 .757-.346l4.672-5.398v11.048a1 1 0 1 0 2 0v-11.048l4.672 5.4a1 1 0 0 0 1.512-1.31l-6.428-7.428a1.031 1.031 0 0 0 -1.512 0l-6.428 7.428a1 1 0 0 0 .755 1.655z" fill="#e6e7e8"/><path d="m71.672 115.776-4.672 5.398v-11.048a1 1 0 0 0 -2 0v11.048l-4.672-5.4a1 1 0 0 0 -1.512 1.309l6.428 7.428a1 1 0 0 0 1.512 0l6.428-7.428a1 1 0 0 0 -1.512-1.309z" fill="#e6e7e8"/><path d="m25.788 35.872h.073a1 1 0 0 0 .926-1.069l-.514-7.121 7.813 7.813a1 1 0 0 0 1.414-1.417l-7.813-7.813 7.121.513a1 1 0 1 0 .144-1.994l-9.8-.707a1 1 0 0 0 -1.069 1.069l.707 9.8a1 1 0 0 0 .998.926z" fill="#e6e7e8"/><path d="m106.139 96.115a1 1 0 0 0 -.925 1.069l.513 7.121-7.813-7.813a1 1 0 0 0 -1.414 1.414l7.813 7.813-7.121-.513a1 1 0 0 0 -.144 1.994l9.8.707h.072a1 1 0 0 0 1-1.072l-.707-9.8a.992.992 0 0 0 -1.074-.92z" fill="#e6e7e8"/><path d="m106.846 24.077-9.8.707a1 1 0 1 0 .144 1.994l7.121-.513-7.811 7.813a1 1 0 1 0 1.414 1.414l7.813-7.813-.513 7.121a1 1 0 0 0 .925 1.069h.073a1 1 0 0 0 1-.928l.707-9.8a1 1 0 0 0 -.29-.779.983.983 0 0 0 -.783-.285z" fill="#e6e7e8"/><path d="m34.808 105.206-7.121.513 7.813-7.813a1 1 0 0 0 -1.414-1.414l-7.813 7.813.514-7.121a1 1 0 0 0 -1.995-.144l-.707 9.8a1 1 0 0 0 1 1.072q.036 0 .072 0l9.8-.707a1 1 0 1 0 -.144-1.994z" fill="#e6e7e8"/><circle cx="62" cy="61.992" fill="#6dc9f7" r="37.667"/><circle cx="62" cy="61.992" fill="#ffd7e5" r="11.952"/><path d="m62 53.04a11.947 11.947 0 0 1 11.848 10.452 11.952 11.952 0 1 0 -23.7 0 11.947 11.947 0 0 1 11.852-10.452z" fill="#fff"/><path d="m87 64.615v-5.246a1.461 1.461 0 0 0 -1.461-1.461h-3.53a20.3 20.3 0 0 0 -2.976-7.174l2.5-2.5a1.46 1.46 0 0 0 0-2.066l-3.71-3.708a1.46 1.46 0 0 0 -2.066 0l-2.5 2.5a20.3 20.3 0 0 0 -7.174-2.976v-3.53a1.461 1.461 0 0 0 -1.461-1.461h-5.245a1.461 1.461 0 0 0 -1.461 1.461v3.53a20.292 20.292 0 0 0 -7.173 2.976l-2.5-2.5a1.46 1.46 0 0 0 -2.066 0l-3.709 3.709a1.46 1.46 0 0 0 0 2.066l2.5 2.5a20.3 20.3 0 0 0 -2.976 7.174h-3.53a1.461 1.461 0 0 0 -1.462 1.46v5.246a1.461 1.461 0 0 0 1.461 1.461h3.53a20.3 20.3 0 0 0 2.976 7.174l-2.5 2.5a1.46 1.46 0 0 0 0 2.066l3.709 3.709a1.46 1.46 0 0 0 2.066 0l2.5-2.5a20.292 20.292 0 0 0 7.174 2.975v3.53a1.461 1.461 0 0 0 1.461 1.461h5.246a1.461 1.461 0 0 0 1.461-1.461v-3.53a20.3 20.3 0 0 0 7.174-2.976l2.5 2.5a1.46 1.46 0 0 0 2.066 0l3.709-3.709a1.46 1.46 0 0 0 0-2.066l-2.5-2.5a20.3 20.3 0 0 0 2.976-7.174h3.53a1.461 1.461 0 0 0 1.461-1.46zm-25 9.329a11.952 11.952 0 1 1 11.952-11.952 11.952 11.952 0 0 1 -11.952 11.952z" fill="#fa759e"/><g fill="#3a2c60"><path d="m87.733 88.112a36.945 36.945 0 0 1 -5.646 4.561 1 1 0 0 0 .55 1.835.983.983 0 0 0 .547-.164 38.954 38.954 0 0 0 5.954-4.808 1 1 0 0 0 -1.405-1.424z"/><path d="m62 23.326a38.667 38.667 0 1 0 0 77.333 38.262 38.262 0 0 0 17.245-4.05 1 1 0 1 0 -.893-1.789 36.3 36.3 0 0 1 -16.352 3.839 36.666 36.666 0 1 1 28.12-13.135 1 1 0 1 0 1.533 1.285 38.667 38.667 0 0 0 -29.653-63.483z"/><path d="m74.952 61.992a12.952 12.952 0 1 0 -12.952 12.952 12.967 12.967 0 0 0 12.952-12.952zm-23.9 0a10.952 10.952 0 1 1 10.948 10.952 10.964 10.964 0 0 1 -10.952-10.952z"/><path d="m59.377 87.992h5.246a2.464 2.464 0 0 0 2.461-2.461v-2.731a21.108 21.108 0 0 0 6.033-2.5l1.934 1.934a2.465 2.465 0 0 0 3.479 0l3.709-3.709a2.464 2.464 0 0 0 0-3.48l-1.932-1.933a21.158 21.158 0 0 0 2.5-6.033h2.729a2.464 2.464 0 0 0 2.464-2.464v-5.246a2.463 2.463 0 0 0 -2.461-2.461h-2.729a21.146 21.146 0 0 0 -2.5-6.033l1.932-1.933a2.462 2.462 0 0 0 0-3.48l-3.712-3.709a2.464 2.464 0 0 0 -3.48 0l-1.933 1.932a21.2 21.2 0 0 0 -6.033-2.5v-2.732a2.463 2.463 0 0 0 -2.461-2.461h-5.246a2.463 2.463 0 0 0 -2.461 2.461v2.728a21.239 21.239 0 0 0 -6.033 2.5l-1.933-1.928a2.464 2.464 0 0 0 -3.48 0l-3.709 3.709a2.463 2.463 0 0 0 0 3.48l1.932 1.933a21.191 21.191 0 0 0 -2.5 6.033h-2.732a2.463 2.463 0 0 0 -2.461 2.461v5.246a2.464 2.464 0 0 0 2.461 2.461h2.729a21.2 21.2 0 0 0 2.5 6.033l-1.93 1.934a2.464 2.464 0 0 0 0 3.479l3.709 3.709a2.464 2.464 0 0 0 3.48 0l1.934-1.931a21.16 21.16 0 0 0 6.033 2.5v2.729a2.464 2.464 0 0 0 2.461 2.463zm-8.082-9.8a1 1 0 0 0 -1.259.127l-2.5 2.5a.462.462 0 0 1 -.652 0l-3.709-3.709a.462.462 0 0 1 0-.652l2.5-2.5a1 1 0 0 0 .125-1.258 19.257 19.257 0 0 1 -2.83-6.821 1 1 0 0 0 -.98-.8h-3.53a.461.461 0 0 1 -.46-.464v-5.246a.461.461 0 0 1 .461-.461h3.53a1 1 0 0 0 .98-.8 19.257 19.257 0 0 1 2.83-6.821 1 1 0 0 0 -.127-1.259l-2.5-2.5a.461.461 0 0 1 0-.652l3.709-3.709a.46.46 0 0 1 .652 0l2.5 2.5a1 1 0 0 0 1.259.127 19.212 19.212 0 0 1 6.821-2.83 1 1 0 0 0 .8-.981v-3.53a.462.462 0 0 1 .461-.461h5.246a.462.462 0 0 1 .461.461v3.53a1 1 0 0 0 .8.981 19.2 19.2 0 0 1 6.82 2.83 1 1 0 0 0 1.26-.127l2.5-2.5a.461.461 0 0 1 .653 0l3.709 3.709a.461.461 0 0 1 0 .652l-2.5 2.5a1 1 0 0 0 -.127 1.259 19.218 19.218 0 0 1 2.829 6.82 1 1 0 0 0 .981.8h3.53a.462.462 0 0 1 .461.461v5.246a.462.462 0 0 1 -.461.461h-3.53a1 1 0 0 0 -.981.8 19.218 19.218 0 0 1 -2.827 6.825 1 1 0 0 0 .127 1.259l2.5 2.5a.461.461 0 0 1 0 .653l-3.709 3.709a.461.461 0 0 1 -.652 0l-2.5-2.5a1 1 0 0 0 -1.259-.127 19.2 19.2 0 0 1 -6.82 2.829 1 1 0 0 0 -.8.981v3.53a.462.462 0 0 1 -.461.461h-5.249a.462.462 0 0 1 -.461-.461v-3.534a1 1 0 0 0 -.8-.981 19.188 19.188 0 0 1 -6.816-2.828z"/><path d="m120.521 61.236-7.428-6.428a1 1 0 0 0 -1.309 1.512l5.4 4.672h-11.05a1 1 0 0 0 0 2h11.049l-5.4 4.673a1 1 0 1 0 1.309 1.511l7.428-6.428a1 1 0 0 0 0-1.512z"/><path d="m17.866 60.992h-11.049l5.4-4.672a1 1 0 1 0 -1.309-1.512l-7.429 6.428a1 1 0 0 0 0 1.512l7.428 6.428a1 1 0 1 0 1.309-1.511l-5.4-4.673h11.05a1 1 0 1 0 0-2z"/><path d="m55.572 12.553a1 1 0 0 0 .757-.345l4.671-5.399v11.049a1 1 0 1 0 2 0v-11.049l4.673 5.4a1 1 0 1 0 1.511-1.309l-6.428-7.429a1.033 1.033 0 0 0 -1.512 0l-6.428 7.429a1 1 0 0 0 .756 1.654z"/><path d="m67.673 111.776-4.673 5.399v-11.049a1 1 0 0 0 -2 0v11.049l-4.671-5.4a1 1 0 0 0 -1.513 1.309l6.428 7.428a1 1 0 0 0 1.512 0l6.428-7.428a1 1 0 1 0 -1.511-1.309z"/><path d="m21.788 31.872h.073a1 1 0 0 0 .926-1.07l-.514-7.12 7.812 7.813a1 1 0 1 0 1.415-1.417l-7.812-7.813 7.121.513a1 1 0 0 0 .144-1.994l-9.8-.707a.975.975 0 0 0 -.779.29 1 1 0 0 0 -.29.779l.707 9.8a1 1 0 0 0 .997.926z"/><path d="m102.139 92.115a1 1 0 0 0 -.925 1.069l.513 7.121-7.812-7.812a1 1 0 1 0 -1.415 1.414l7.812 7.812-7.121-.513a1 1 0 0 0 -.144 1.994l9.8.707q.036 0 .072 0a1 1 0 0 0 1-1.072l-.707-9.8a1.008 1.008 0 0 0 -1.073-.92z"/><path d="m102.846 20.077-9.8.707a1 1 0 1 0 .144 1.994l7.121-.513-7.811 7.813a1 1 0 1 0 1.414 1.414l7.812-7.813-.513 7.12a1 1 0 0 0 .925 1.07h.073a1 1 0 0 0 1-.928l.707-9.8a1 1 0 0 0 -.29-.779.973.973 0 0 0 -.782-.285z"/><path d="m30.808 101.206-7.121.513 7.813-7.812a1 1 0 1 0 -1.414-1.414l-7.812 7.812.514-7.121a1 1 0 0 0 -.926-1.069.985.985 0 0 0 -1.069.925l-.707 9.8a1 1 0 0 0 1 1.072q.036 0 .072 0l9.8-.707a1 1 0 0 0 .925-1.069.989.989 0 0 0 -1.075-.93z"/></g></svg>