<svg height="512" viewBox="0 0 128 128" width="512" xmlns="http://www.w3.org/2000/svg"><path d="m113.317 71.008h-12.34a46 46 0 1 0 -44.589 34.692c1.425 0 2.832-.074 4.225-.2v4.5a8.3 8.3 0 0 0 8.3 8.3h44.409a8.305 8.305 0 0 0 8.3-8.3v-30.7a8.306 8.306 0 0 0 -8.305-8.292z" fill="#e6e7e8"/><path d="m57.613 75.3a7.3 7.3 0 0 1 7.3-7.3h30.756a45 45 0 1 0 -43.282 32.7 45.534 45.534 0 0 0 5.226-.311z" fill="#6dc9f7"/><path d="m10.388 55.7a44.992 44.992 0 0 1 43.5-44.962c-.5-.016-1-.038-1.5-.038a45 45 0 0 0 0 90c.5 0 1-.021 1.5-.038a44.992 44.992 0 0 1 -43.5-44.962z" fill="#fff"/><rect fill="#ffd7e5" height="45.292" rx="7.296" width="59" x="57.613" y="68.008"/><path d="m80.513 96.894v.038a2.2 2.2 0 0 1 -3.079 2.022l-12.417-5.382a3.162 3.162 0 0 1 -1.9-2.9v-.034a3.162 3.162 0 0 1 1.9-2.9l12.417-5.382a2.2 2.2 0 0 1 3.079 2.022v.06a2.2 2.2 0 0 1 -1.413 2.054l-10.711 4.128 10.728 4.223a2.2 2.2 0 0 1 1.396 2.051z" fill="#fa759e"/><path d="m90.324 77.384a2.046 2.046 0 0 0 -2.471 1.509l-5.46 22.56a2.049 2.049 0 0 0 1.508 2.472 2.1 2.1 0 0 0 .484.057 2.041 2.041 0 0 0 1.988-1.566l5.46-22.561a2.05 2.05 0 0 0 -1.509-2.471z" fill="#fa759e"/><path d="m109.213 93.528-12.413 5.407a2.2 2.2 0 0 1 -3.083-2.02v-.03a2.205 2.205 0 0 1 1.4-2.052l10.762-4.225-10.759-4.16a2.2 2.2 0 0 1 -1.408-2.055 2.2 2.2 0 0 1 3.076-2.023l12.412 5.356a3.162 3.162 0 0 1 1.91 2.9 3.16 3.16 0 0 1 -1.897 2.902z" fill="#fa759e"/><g fill="#3a2c60"><path d="m98.513 112.3h-9.25a1 1 0 0 0 0 2h9.25a1 1 0 0 0 0-2z"/><path d="m109.317 67.008h-12.373a45.982 45.982 0 1 0 -44.557 34.692c1.427 0 2.832-.088 4.225-.218v4.518a8.305 8.305 0 0 0 8.3 8.3h20.101a1 1 0 0 0 0-2h-20.105a6.3 6.3 0 0 1 -6.3-6.3v-30.7a6.3 6.3 0 0 1 6.3-6.3h44.409a6.3 6.3 0 0 1 6.3 6.3v30.7a6.3 6.3 0 0 1 -6.3 6.3h-6.9a1 1 0 0 0 0 2h6.9a8.3 8.3 0 0 0 8.3-8.3v-30.7a8.3 8.3 0 0 0 -8.3-8.292zm-57.93 32.64c-7.326-.69-13.706-8.917-17.327-20.974a83.239 83.239 0 0 1 17.327-1.96zm2-.012v-22.921q1.624.019 3.225.1v22.013a11.248 11.248 0 0 1 -3.225.808zm-2-24.922a85.066 85.066 0 0 0 -17.874 2.038 81.766 81.766 0 0 1 -2.613-20.052h20.487zm-42.974-18.014h20.487a82.342 82.342 0 0 0 2.723 20.511 54.678 54.678 0 0 0 -13.923 5.511 43.761 43.761 0 0 1 -9.287-26.022zm9.287-28.022a54.642 54.642 0 0 0 13.922 5.512 82.333 82.333 0 0 0 -2.722 20.51h-20.487a43.761 43.761 0 0 1 9.287-26.022zm13.2 26.022a81.758 81.758 0 0 1 2.613-20.051 85.133 85.133 0 0 0 17.874 2.037v18.014zm22.487-42.948c7.326.69 13.706 8.918 17.328 20.974a83.173 83.173 0 0 1 -17.328 1.96zm-2 22.934a83.189 83.189 0 0 1 -17.328-1.96c3.622-12.056 10-20.284 17.328-20.974zm2 2a85.135 85.135 0 0 0 17.875-2.037 81.806 81.806 0 0 1 2.613 20.051h-20.488zm42.975 18.014h-20.486a82.279 82.279 0 0 0 -2.724-20.51 54.686 54.686 0 0 0 13.923-5.511 43.756 43.756 0 0 1 9.287 26.021zm.007 2a43.8 43.8 0 0 1 -1.469 10.308h-19.75a87.537 87.537 0 0 0 .72-10.308zm-10.577-29.589a53.071 53.071 0 0 1 -13.192 5.16c-2.766-9.1-7.091-16.187-12.25-19.835a43.987 43.987 0 0 1 25.442 14.675zm-41.367-14.675c-5.159 3.648-9.483 10.73-12.249 19.835a53.063 53.063 0 0 1 -13.194-5.16 43.994 43.994 0 0 1 25.443-14.675zm-25.443 71.854a53.048 53.048 0 0 1 13.19-5.16c2.765 9.1 7.089 16.184 12.246 19.834a44 44 0 0 1 -25.436-14.674zm37.655-9.481q-1.614-.077-3.25-.094v-18.015h20.483a87.321 87.321 0 0 1 -.721 10.308h-8.241a8.3 8.3 0 0 0 -8.271 7.801z"/><path d="m81.513 84.376a3.2 3.2 0 0 0 -4.477-2.939l-12.416 5.381a4.188 4.188 0 0 0 0 7.672l12.416 5.381a3.2 3.2 0 0 0 4.477-2.939v-.038a3.186 3.186 0 0 0 -2.029-2.981l-8.34-3.283 8.318-3.2a3.241 3.241 0 0 0 2.051-3.054zm-2.77 1.183-10.714 4.128a1 1 0 0 0 -.006 1.863l10.728 4.223a1.2 1.2 0 0 1 .762 1.121v.038a1.2 1.2 0 0 1 -1.682 1.1l-12.416-5.377a2.188 2.188 0 0 1 0-4l12.417-5.381a1.2 1.2 0 0 1 .482-.1 1.188 1.188 0 0 1 .656.2 1.253 1.253 0 0 1 -.227 2.189z"/><path d="m92.443 77.787a3.047 3.047 0 0 0 -5.563.87l-5.459 22.561a3.047 3.047 0 1 0 5.924 1.433l5.455-22.56a3.021 3.021 0 0 0 -.357-2.304zm-1.583 1.833-5.46 22.561a1.064 1.064 0 0 1 -1.263.772 1.049 1.049 0 0 1 -.772-1.264l5.46-22.562a1.04 1.04 0 0 1 .474-.648 1.025 1.025 0 0 1 .54-.153 1.045 1.045 0 0 1 .248.03 1.048 1.048 0 0 1 .771 1.264z"/><path d="m92.712 96.915a3.2 3.2 0 0 0 4.482 2.937l12.418-5.407a4.162 4.162 0 0 0 -.013-7.637l-12.415-5.357a3.2 3.2 0 1 0 -2.425 5.93l8.359 3.234-8.373 3.285a3.2 3.2 0 0 0 -2.033 3.015zm2.763-1.151 10.762-4.225a1 1 0 0 0 0-1.864l-10.755-4.159a1.213 1.213 0 0 1 -.77-1.123 1.208 1.208 0 0 1 1.2-1.206 1.2 1.2 0 0 1 .48.1l12.415 5.356a2.162 2.162 0 0 1 .007 3.967l-12.414 5.408a1.183 1.183 0 0 1 -1.14-.1 1.228 1.228 0 0 1 .219-2.157z"/></g></svg>