<svg height="512" viewBox="0 0 128 128" width="512" xmlns="http://www.w3.org/2000/svg"><path d="m116.266 91.5h-2.377a19.113 19.113 0 0 0 -2.2-5.313l1.683-1.683a2.312 2.312 0 0 0 0-3.273l-3.337-3.338a2.318 2.318 0 0 0 -3.273 0l-1.684 1.683a19.167 19.167 0 0 0 -5.312-2.2v-2.376a2.317 2.317 0 0 0 -2.315-2.315h-1.364v-31.854a1 1 0 0 0 -.348-.758l-27.447-27.446a1 1 0 0 0 -.707-.293h-51.165a3 3 0 0 0 -3 3v101.333a3 3 0 0 0 3 3h81.026a2.318 2.318 0 0 0 2.315-2.315v-2.376a19.149 19.149 0 0 0 5.312-2.2l1.684 1.684a2.319 2.319 0 0 0 3.273 0l3.337-3.337a2.312 2.312 0 0 0 0-3.273l-1.683-1.683a19.125 19.125 0 0 0 2.2-5.313h2.377a2.317 2.317 0 0 0 2.314-2.315v-4.725a2.317 2.317 0 0 0 -2.309-2.314zm-20.179-5.029a9.754 9.754 0 0 1 0 19.405z" fill="#e6e7e8"/><path d="m91.085 36.833-27.5-27.5h-51.165a2 2 0 0 0 -2 2v101.334a2 2 0 0 0 2 2h76.667a2 2 0 0 0 2-2v-75.836z" fill="#d4fbff"/><path d="m12.42 12.333h54.165l-3-3h-51.165a2 2 0 0 0 -2 2v3a2 2 0 0 1 2-2z" fill="#fff"/><path d="m63.587 9.333v25.5a2 2 0 0 0 2 2h25.5z" fill="#6dc9f7"/><path d="m113.58 94.533v-4.719a1.315 1.315 0 0 0 -1.315-1.315h-3.176a18.258 18.258 0 0 0 -2.678-6.454l2.249-2.245a1.313 1.313 0 0 0 0-1.859l-3.337-3.341a1.313 1.313 0 0 0 -1.859 0l-2.249 2.249a18.258 18.258 0 0 0 -6.454-2.678v-3.171a1.315 1.315 0 0 0 -1.315-1.315h-4.719a1.315 1.315 0 0 0 -1.315 1.315v3.176a18.258 18.258 0 0 0 -6.454 2.678l-2.249-2.254a1.313 1.313 0 0 0 -1.859 0l-3.337 3.337a1.315 1.315 0 0 0 0 1.859l2.249 2.249a18.258 18.258 0 0 0 -2.678 6.455h-3.176a1.315 1.315 0 0 0 -1.315 1.315v4.719a1.315 1.315 0 0 0 1.315 1.315h3.176a18.258 18.258 0 0 0 2.678 6.454l-2.249 2.249a1.315 1.315 0 0 0 0 1.859l3.337 3.337a1.315 1.315 0 0 0 1.859 0l2.249-2.249a18.258 18.258 0 0 0 6.454 2.678v3.176a1.315 1.315 0 0 0 1.315 1.315h4.719a1.315 1.315 0 0 0 1.315-1.315v-3.176a18.258 18.258 0 0 0 6.454-2.678l2.249 2.249a1.315 1.315 0 0 0 1.859 0l3.337-3.337a1.313 1.313 0 0 0 0-1.859l-2.249-2.249a18.258 18.258 0 0 0 2.678-6.454h3.176a1.315 1.315 0 0 0 1.315-1.316zm-22.493 8.394a10.754 10.754 0 1 1 10.753-10.754 10.754 10.754 0 0 1 -10.753 10.754z" fill="#fa759e"/><g fill="#3a2c60"><path d="m22.753 28h33a1 1 0 0 0 0-2h-33a1 1 0 0 0 0 2z"/><path d="m22.753 38h33a1 1 0 0 0 0-2h-33a1 1 0 0 0 0 2z"/><path d="m22.753 48h56a1 1 0 0 0 0-2h-56a1 1 0 0 0 0 2z"/><path d="m22.753 58h56a1 1 0 0 0 0-2h-56a1 1 0 0 0 0 2z"/><path d="m22.753 68h56a1 1 0 0 0 0-2h-56a1 1 0 0 0 0 2z"/><path d="m22.753 78h44a1 1 0 0 0 0-2h-44a1 1 0 0 0 0 2z"/><path d="m22.753 88h36a1 1 0 0 0 0-2h-36a1 1 0 0 0 0 2z"/><path d="m22.753 98h36a1 1 0 0 0 0-2h-36a1 1 0 0 0 0 2z"/><path d="m40.587 113.666h-9.5a1 1 0 1 0 0 2h9.5a1 1 0 0 0 0-2z"/><path d="m91.087 80.42a11.754 11.754 0 1 0 11.753 11.753 11.766 11.766 0 0 0 -11.753-11.753zm-9.754 11.753a9.767 9.767 0 0 1 8.754-9.7v19.405a9.768 9.768 0 0 1 -8.754-9.705zm10.754 9.7v-19.4a9.754 9.754 0 0 1 0 19.405z"/><path d="m112.266 87.5h-2.377a19.113 19.113 0 0 0 -2.2-5.313l1.683-1.683a2.312 2.312 0 0 0 0-3.273l-3.337-3.338a2.318 2.318 0 0 0 -3.273 0l-1.684 1.683a19.137 19.137 0 0 0 -5.312-2.2v-2.376a2.317 2.317 0 0 0 -2.315-2.315h-1.364v-31.854a1 1 0 0 0 -.336-.746l-27.459-27.459a1 1 0 0 0 -.707-.293h-51.165a3 3 0 0 0 -3 3v101.333a3 3 0 0 0 3 3h14.5a1 1 0 1 0 0-2h-14.5a1 1 0 0 1 -1-1v-101.333a1 1 0 0 1 1-1h50.165v24.5a3 3 0 0 0 3 3h24.5v30.847h-1.36a2.317 2.317 0 0 0 -2.313 2.32v2.376a19.155 19.155 0 0 0 -5.312 2.2l-1.684-1.684a2.369 2.369 0 0 0 -3.272 0l-3.338 3.338a2.318 2.318 0 0 0 0 3.273l1.683 1.683a19.186 19.186 0 0 0 -2.2 5.313h-2.381a2.317 2.317 0 0 0 -2.314 2.314v4.72a2.317 2.317 0 0 0 2.314 2.315h2.376a19.15 19.15 0 0 0 2.2 5.313l-1.683 1.684a2.316 2.316 0 0 0 0 3.272l3.338 3.337a2.367 2.367 0 0 0 3.272 0l1.684-1.683a19.167 19.167 0 0 0 5.312 2.2v2.377a2.3 2.3 0 0 0 .032.313h-41.686a1 1 0 1 0 0 2h48.693a2.317 2.317 0 0 0 2.315-2.313v-2.377a19.149 19.149 0 0 0 5.312-2.2l1.684 1.684a2.319 2.319 0 0 0 3.273 0l3.337-3.337a2.312 2.312 0 0 0 0-3.273l-1.683-1.683a19.125 19.125 0 0 0 2.2-5.313h2.377a2.317 2.317 0 0 0 2.314-2.315v-4.72a2.317 2.317 0 0 0 -2.309-2.314zm-47.681-52.667v-23.085l24.086 24.085h-23.086a1 1 0 0 1 -1-1zm48 59.7a.315.315 0 0 1 -.314.315h-3.177a1 1 0 0 0 -.981.8 17.155 17.155 0 0 1 -2.531 6.1 1 1 0 0 0 .127 1.259l2.249 2.25a.307.307 0 0 1 .093.221.312.312 0 0 1 -.093.223l-3.337 3.337a.315.315 0 0 1 -.445 0l-2.249-2.249a1 1 0 0 0 -1.259-.126 17.207 17.207 0 0 1 -6.1 2.531 1 1 0 0 0 -.8.98v3.177a.314.314 0 0 1 -.315.313h-4.726a.314.314 0 0 1 -.315-.313v-3.177a1 1 0 0 0 -.8-.98 17.217 17.217 0 0 1 -6.1-2.531 1 1 0 0 0 -1.259.126l-2.253 2.251a.266.266 0 0 1 -.444 0l-3.336-3.34a.316.316 0 0 1 0-.445l2.249-2.249a1 1 0 0 0 .127-1.259 17.187 17.187 0 0 1 -2.532-6.1 1 1 0 0 0 -.98-.8h-3.176a.314.314 0 0 1 -.314-.315v-4.72a.314.314 0 0 1 .314-.314h3.176a1 1 0 0 0 .979-.8 17.229 17.229 0 0 1 2.537-6.098 1 1 0 0 0 -.127-1.259l-2.253-2.252a.316.316 0 0 1 0-.445l3.338-3.338a.267.267 0 0 1 .444 0l2.249 2.249a1 1 0 0 0 1.259.126 17.21 17.21 0 0 1 6.1-2.531 1 1 0 0 0 .8-.98v-3.17a.315.315 0 0 1 .315-.315h4.719a.315.315 0 0 1 .315.315v3.176a1 1 0 0 0 .8.98 17.192 17.192 0 0 1 6.1 2.531 1 1 0 0 0 1.259-.126l2.249-2.249a.315.315 0 0 1 .445 0l3.337 3.337a.313.313 0 0 1 0 .445l-2.249 2.244a1 1 0 0 0 -.127 1.259 17.173 17.173 0 0 1 2.531 6.1 1 1 0 0 0 .981.8h3.177a.315.315 0 0 1 .314.314z"/></g></svg>