<svg height="512" viewBox="0 0 128 128" width="512" xmlns="http://www.w3.org/2000/svg"><path d="m124.748 66.55-6.7-7.031v-37.519a5.006 5.006 0 0 0 -5-5h-102a5.006 5.006 0 0 0 -5 5v88a5.006 5.006 0 0 0 5 5h102a5.006 5.006 0 0 0 5-5v-31.033l6.551-6.241a4.373 4.373 0 0 0 .149-6.176z" fill="#e6e7e8"/><rect fill="#d4fbff" height="96" rx="4" width="110" x="3.047" y="14"/><path d="m43.19 40h-6.809a1 1 0 0 1 0-2h6.809a1 1 0 0 1 0 2z" fill="#fa759e"/><path d="m30.381 40h-16.833a1 1 0 0 1 0-2h16.833a1 1 0 0 1 0 2z" fill="#fa759e"/><path d="m43.19 75h-10.309a1 1 0 0 1 0-2h10.309a1 1 0 0 1 0 2z" fill="#fa759e"/><path d="m28.881 75h-15.333a1 1 0 0 1 0-2h15.333a1 1 0 0 1 0 2z" fill="#fa759e"/><path d="m43.19 96h-14.821a1 1 0 0 1 0-2h14.821a1 1 0 0 1 0 2z" fill="#fa759e"/><path d="m21.215 96h-7.667a1 1 0 0 1 0-2h7.667a1 1 0 1 1 0 2z" fill="#fa759e"/><path d="m109.048 107h-102a4 4 0 0 1 -4-4v3a4 4 0 0 0 4 4h102a4 4 0 0 0 4-4v-3a4 4 0 0 1 -4 4z" fill="#fff"/><path d="m109.048 14h-102a4 4 0 0 0 -4 4v10.5h110v-10.5a4 4 0 0 0 -4-4z" fill="#0089ef"/><path d="m91.714 19.083a2.334 2.334 0 1 0 2.334 2.334 2.334 2.334 0 0 0 -2.334-2.334z" fill="#fff"/><path d="m98.714 19.083a2.334 2.334 0 1 0 2.334 2.334 2.334 2.334 0 0 0 -2.334-2.334z" fill="#d4fbff"/><path d="m105.715 19.083a2.334 2.334 0 1 0 2.333 2.334 2.334 2.334 0 0 0 -2.333-2.334z" fill="#fa759e"/><path d="m86.014 100.3-17.114 3.66 4.481-16.918 33.9-32.3a3.367 3.367 0 0 1 4.761.115l7.985 8.38a3.368 3.368 0 0 1 -.117 4.763z" fill="#ffd7e5"/><path d="m86.014 100.3-12.631-13.258 33.9-32.3a3.367 3.367 0 0 1 4.761.115l7.985 8.38a3.368 3.368 0 0 1 -.119 4.763z" fill="#6dc9f7"/><path d="m116.684 71.075 3.226-3.075a3.368 3.368 0 0 0 .115-4.761l-7.985-8.38a3.367 3.367 0 0 0 -4.761-.115l-3.227 3.074z" fill="#fa759e"/><g fill="#3a2c60"><path d="m83.19 47a1 1 0 0 0 0-2h-30.31a1 1 0 1 0 0 2z"/><path d="m45.714 45h-25.166a1 1 0 0 0 0 2h25.166a1 1 0 0 0 0-2z"/><path d="m37.969 53a1 1 0 0 0 1 1h54.221a1 1 0 0 0 0-2h-54.221a1 1 0 0 0 -1 1z"/><path d="m20.548 54h12.333a1 1 0 0 0 0-2h-12.333a1 1 0 0 0 0 2z"/><path d="m20.548 61h72.642a1 1 0 0 0 0-2h-72.642a1 1 0 0 0 0 2z"/><path d="m73.315 66a1 1 0 0 0 0 2h11.875a1 1 0 0 0 0-2z"/><path d="m20.548 68h47.752a1 1 0 0 0 0-2h-47.752a1 1 0 0 0 0 2z"/><path d="m60.715 80a1 1 0 0 0 0 2h10.475a1 1 0 0 0 0-2z"/><path d="m20.548 82h34.591a1 1 0 1 0 0-2h-34.591a1 1 0 0 0 0 2z"/><path d="m20.548 89h43.642a1 1 0 0 0 0-2h-43.642a1 1 0 0 0 0 2z"/><path d="m3.048 56.5a1 1 0 0 0 1-1v-7.75a1 1 0 0 0 -2 0v7.75a1 1 0 0 0 1 1z"/><path d="m120.749 62.55-6.7-7.032v-37.518a5.006 5.006 0 0 0 -5-5h-102a5.006 5.006 0 0 0 -5 5v25.25a1 1 0 0 0 2 0v-13.75h108v24.07a4.372 4.372 0 0 0 -5.459.45l-33.9 32.3a1.008 1.008 0 0 0 -.277.469l-4.481 16.919a1 1 0 0 0 .967 1.255.983.983 0 0 0 .209-.022l17.113-3.662a.992.992 0 0 0 .48-.254l25.344-24.148v29.123a3 3 0 0 1 -3 3h-102a3 3 0 0 1 -3-3v-46a1 1 0 0 0 -2 0v46a5.006 5.006 0 0 0 5 5h102a5.006 5.006 0 0 0 5-5v-31.032l6.552-6.242a4.375 4.375 0 0 0 .152-6.176zm-116.701-35.05v-9.5a3 3 0 0 1 3-3h102a3 3 0 0 1 3 3v9.5zm82 71.384-11.248-11.808 29.221-27.844 11.249 11.809zm-12.156-9.859 10.166 10.669-10.492 2.246-2.421-2.54zm45.329-21.748-2.5 2.385-11.255-11.809 2.5-2.384a2.369 2.369 0 0 1 3.348.081l7.985 8.38a2.371 2.371 0 0 1 -.078 3.347z"/></g></svg>