<svg height="512" viewBox="0 0 128 128" width="512" xmlns="http://www.w3.org/2000/svg"><path d="m111.521 27.21h-22.27v-15.558a4.809 4.809 0 0 0 -4.8-4.8h-36.898a4.809 4.809 0 0 0 -4.8 4.8v15.558h-22.274a7.988 7.988 0 0 0 -7.979 7.978v62.29a7.988 7.988 0 0 0 7.979 7.979h34.775v9.383h-8.661a5.04 5.04 0 0 0 -5.034 5.034v.244a5.039 5.039 0 0 0 5.034 5.034h38.814a5.039 5.039 0 0 0 5.034-5.034v-.244a5.04 5.04 0 0 0 -5.034-5.034h-8.661v-9.383h34.775a7.988 7.988 0 0 0 7.979-7.979v-62.29a7.988 7.988 0 0 0 -7.979-7.978z" fill="#e6e7e8"/><path d="m16.48 24.21h91.041a6.979 6.979 0 0 1 6.979 6.979v62.289a6.979 6.979 0 0 1 -6.979 6.979h-91.042a6.979 6.979 0 0 1 -6.979-6.979v-62.288a6.98 6.98 0 0 1 6.98-6.98z" fill="#6dc9f7"/><path d="m12.5 93.478v-62.289a6.979 6.979 0 0 1 6.979-6.979h-3a6.979 6.979 0 0 0 -6.979 6.979v62.289a6.98 6.98 0 0 0 6.979 6.979h3a6.98 6.98 0 0 1 -6.979-6.979z" fill="#fff"/><rect fill="#0089ef" height="4.17" rx="1.83" width="12.512" x="55.744" y="92.367"/><path d="m19.755 30.679h84.49a4.121 4.121 0 0 1 4.121 4.121v49.348a4.122 4.122 0 0 1 -4.122 4.122h-84.489a4.121 4.121 0 0 1 -4.121-4.121v-49.349a4.122 4.122 0 0 1 4.121-4.121z" fill="#d4fbff"/><rect fill="#6dc9f7" height="8.312" rx="4.033" width="46.882" x="38.559" y="111.84"/><path d="m52.254 100.457h19.492v11.383h-19.492z" fill="#6dc9f7"/><rect fill="#6dc9f7" height="79.891" rx="3.805" width="44.503" x="39.749" y="3.848"/><path d="m39.749 11.422h44.503v61.484h-44.503z" fill="#d4fbff"/><rect fill="#fa759e" height="26.567" rx="2" width="31.073" x="46.464" y="18.137"/><rect fill="#0089ef" height="1.648" rx=".555" width="13.892" x="55.054" y="6.888"/><path d="m72.243 6.807a.9.9 0 1 0 .9.9.9.9 0 0 0 -.9-.9z" fill="#0089ef"/><path d="m57.343 75.86h9.314a1.348 1.348 0 0 1 1.343 1.348v1.308a1.347 1.347 0 0 1 -1.347 1.347h-9.31a1.348 1.348 0 0 1 -1.343-1.348v-1.307a1.348 1.348 0 0 1 1.343-1.348z" fill="#0089ef"/><g fill="#3a2c60"><path d="m107.521 23.21h-22.27v-15.558a4.81 4.81 0 0 0 -4.805-4.8h-36.893a4.809 4.809 0 0 0 -4.8 4.8v15.558h-22.274a7.988 7.988 0 0 0 -7.979 7.978v62.29a7.988 7.988 0 0 0 7.979 7.979h34.775v9.383h-8.661a5.04 5.04 0 0 0 -5.034 5.034v.244a5.039 5.039 0 0 0 5.034 5.034h38.814a5.039 5.039 0 0 0 5.034-5.034v-.244a5.04 5.04 0 0 0 -5.034-5.034h-8.661v-9.383h34.774a7.989 7.989 0 0 0 7.98-7.98v-24.442a1 1 0 0 0 -2 0v24.442a5.987 5.987 0 0 1 -5.98 5.98h-91.041a5.986 5.986 0 0 1 -5.979-5.979v-62.29a5.985 5.985 0 0 1 5.979-5.978h22.27v4.469h-18.994a5.127 5.127 0 0 0 -5.122 5.121v49.348a5.128 5.128 0 0 0 5.122 5.123h84.49a5.128 5.128 0 0 0 5.122-5.123v-49.348a5.127 5.127 0 0 0 -5.122-5.121h-18.994v-4.469h22.27a5.985 5.985 0 0 1 5.979 5.978v19.66a1 1 0 1 0 2 0v-19.66a7.988 7.988 0 0 0 -7.979-7.978zm-23.08 92.664v.244a3.037 3.037 0 0 1 -3.034 3.034h-38.814a3.037 3.037 0 0 1 -3.034-3.034v-.244a3.037 3.037 0 0 1 3.034-3.034h38.814a3.037 3.037 0 0 1 3.034 3.034zm-13.7-14.417v9.383h-17.487v-9.383zm-30-27.55h42.5v6.027a2.808 2.808 0 0 1 -2.805 2.8h-36.883a2.807 2.807 0 0 1 -2.8-2.8zm42.5-2h-42.5v-59.485h42.5zm-39.688-67.059h36.893a2.807 2.807 0 0 1 2.805 2.8v2.77h-42.5v-2.766a2.807 2.807 0 0 1 2.802-2.804zm60.692 26.831a3.125 3.125 0 0 1 3.122 3.121v49.348a3.126 3.126 0 0 1 -3.122 3.123h-84.49a3.126 3.126 0 0 1 -3.122-3.123v-49.348a3.125 3.125 0 0 1 3.122-3.121h18.994v48.255a4.809 4.809 0 0 0 4.8 4.8h36.897a4.81 4.81 0 0 0 4.805-4.8v-48.255z"/><path d="m114.5 53.848a1 1 0 0 0 -1 1v10.333a1 1 0 0 0 2 0v-10.333a1 1 0 0 0 -1-1z"/><path d="m47.807 52.616h28.386a1 1 0 0 0 0-2h-28.386a1 1 0 0 0 0 2z"/><path d="m47.807 59.331h28.386a1 1 0 0 0 0-2h-28.386a1 1 0 0 0 0 2z"/><path d="m76.193 64.046h-28.386a1 1 0 0 0 0 2h28.386a1 1 0 0 0 0-2z"/></g></svg>