<svg height="512" viewBox="0 0 128 128" width="512" xmlns="http://www.w3.org/2000/svg"><path d="m123.4 99.379h-9v-53.526a7.008 7.008 0 0 0 -7-7h-25.409l-10.653-15.321a6.5 6.5 0 0 0 -10.675 0l-10.654 15.321h-25.409a7.009 7.009 0 0 0 -7 7v53.526h-8.995a1 1 0 0 0 -1 1v3.933a6.953 6.953 0 0 0 6.946 6.946h102.9a6.954 6.954 0 0 0 6.946-6.946v-3.933a1 1 0 0 0 -.997-1z" fill="#e6e7e8"/><path d="m109.4 96.379v-54.526a6 6 0 0 0 -6-6h-82.8a6 6 0 0 0 -6 6v54.526z" fill="#6dc9f7"/><path d="m102.373 96.379v-49.688a2 2 0 0 0 -2-2h-76.745a2 2 0 0 0 -2 2v49.688z" fill="#d4fbff"/><path d="m4.605 96.379v3.934a5.946 5.946 0 0 0 5.945 5.945h102.9a5.946 5.946 0 0 0 5.946-5.945v-3.934z" fill="#0089ef"/><path d="m96.921 63.827-30.405-43.727a5.5 5.5 0 0 0 -9.032 0l-30.404 43.727a5.5 5.5 0 0 0 4.515 8.64h60.81a5.5 5.5 0 0 0 4.516-8.64z" fill="#ffd7e5"/><path d="m94.047 65.826-30.405-43.726a2 2 0 0 0 -3.284 0l-30.4 43.725a2 2 0 0 0 1.642 3.142h60.805a2 2 0 0 0 1.642-3.141z" fill="#fa759e"/><g fill="#fff"><path d="m52.833 57.3a1.019 1.019 0 0 1 .33.814q0 1.1-1.32 1.1h-1.122v1.738a1.4 1.4 0 0 1 -.385 1.056 1.527 1.527 0 0 1 -2 0 1.4 1.4 0 0 1 -.385-1.056v-1.734h-5.766a1.225 1.225 0 0 1 -.924-.341 1.169 1.169 0 0 1 -.33-.847 1.7 1.7 0 0 1 .352-1.012l6.8-9.768a1.489 1.489 0 0 1 .55-.473 1.506 1.506 0 0 1 .682-.165 1.435 1.435 0 0 1 .99.374 1.346 1.346 0 0 1 .418 1.056v8.976h1.122a1.475 1.475 0 0 1 .988.282zm-8.975-.286h4.091v-5.914z"/><path d="m55.892 60.417a10.142 10.142 0 0 1 -1.452-5.929 10.1 10.1 0 0 1 1.452-5.907 5.355 5.355 0 0 1 8.4 0 10.107 10.107 0 0 1 1.452 5.907 10.161 10.161 0 0 1 -1.444 5.918 5.346 5.346 0 0 1 -8.4.011zm6.38-1.562a10.41 10.41 0 0 0 .681-4.367 10.323 10.323 0 0 0 -.681-4.367 2.426 2.426 0 0 0 -4.357.011 10.32 10.32 0 0 0 -.681 4.356 10.394 10.394 0 0 0 .681 4.367 2.413 2.413 0 0 0 4.357 0z"/><path d="m79.233 57.3a1.023 1.023 0 0 1 .33.814q0 1.1-1.321 1.1h-1.122v1.738a1.405 1.405 0 0 1 -.384 1.056 1.527 1.527 0 0 1 -2 0 1.4 1.4 0 0 1 -.385-1.056v-1.734h-5.767a1.226 1.226 0 0 1 -.924-.341 1.173 1.173 0 0 1 -.33-.847 1.689 1.689 0 0 1 .353-1.012l6.8-9.768a1.486 1.486 0 0 1 .549-.473 1.51 1.51 0 0 1 .682-.165 1.435 1.435 0 0 1 .99.374 1.343 1.343 0 0 1 .418 1.056v8.976h1.122a1.476 1.476 0 0 1 .989.282zm-8.976-.286h4.092v-5.914z"/></g><path d="m57.334 72.467h9.333v23.912h-9.333z" fill="#fa759e"/><path d="m57.334 72.467h3v23.912h-3z" fill="#fff"/><path d="m119.4 95.379h-9v-9.013a1 1 0 0 0 -2 0v9.013h-5.029v-48.688a3 3 0 0 0 -3-3h-16.234l-4.754-6.838h24.017a5.006 5.006 0 0 1 5 5v26.764a1 1 0 0 0 2 0v-26.764a7.008 7.008 0 0 0 -7-7h-25.408l-10.654-15.321a6.5 6.5 0 0 0 -10.675 0l-10.654 15.321h-25.409a7.008 7.008 0 0 0 -7 7v53.526h-8.995a1 1 0 0 0 -1 1v3.934a6.952 6.952 0 0 0 6.945 6.944h102.9a6.953 6.953 0 0 0 6.947-6.944v-3.934a1 1 0 0 0 -.997-1zm-19.028-49.688a1 1 0 0 1 1 1v48.688h-33.7v-21.912h24.733a6.5 6.5 0 0 0 5.337-10.211l-12.214-17.565zm-77.744 49.688v-48.688a1 1 0 0 1 1-1h14.845l-12.214 17.565a6.5 6.5 0 0 0 5.341 10.211h24.733v21.912zm35.705-21.912h7.334v21.912h-7.334zm-.027-52.794a4.5 4.5 0 0 1 7.39 0l30.404 43.727a4.5 4.5 0 0 1 -3.695 7.069h-60.805a4.5 4.5 0 0 1 -3.7-7.069zm-42.706 21.18a5.006 5.006 0 0 1 5-5h24.019l-4.755 6.838h-16.236a3 3 0 0 0 -3 3v48.688h-5.028zm102.8 58.46a4.951 4.951 0 0 1 -4.947 4.944h-102.903a4.95 4.95 0 0 1 -4.945-4.944v-2.934h112.795z" fill="#3a2c60"/><path d="m109.4 71.967a1 1 0 0 0 -1 1v8.649a1 1 0 0 0 2 0v-8.649a1 1 0 0 0 -1-1z" fill="#3a2c60"/></svg>