<svg height="512" viewBox="0 0 128 128" width="512" xmlns="http://www.w3.org/2000/svg"><path d="m106.986 40.073-27.447-27.446a1 1 0 0 0 -.707-.293h-51.166a3 3 0 0 0 -3 3v101.333a3 3 0 0 0 3 3h76.667a3 3 0 0 0 3-3v-75.836a1 1 0 0 0 -.347-.758z" fill="#e6e7e8"/><path d="m102.331 36.833-27.5-27.5h-51.165a2 2 0 0 0 -2 2v101.334a2 2 0 0 0 2 2h76.667a2 2 0 0 0 2-2v-75.836z" fill="#d4fbff"/><path d="m36 69.625v-19.069a20.864 20.864 0 0 1 6.829-14 16.958 16.958 0 0 1 20.188-1.456c6.284 3.972 8.009 12.459 5.5 18.68s-8.7 11.729-9.692 14.4c-1.987 5.345.3 12.318-7.368 15.613a10.791 10.791 0 0 1 -12.616-3.613c-3.041-4.393-2.841-10.555-2.841-10.555z" fill="#fa759e"/><path d="m21.666 91v21.667a2 2 0 0 0 2 2h76.667a2 2 0 0 0 2-2v-21.667z" fill="#6dc9f7"/><path d="m23.666 12.333h54.166l-3-3h-51.166a2 2 0 0 0 -2 2v3a2 2 0 0 1 2-2z" fill="#fff"/><path d="m74.834 9.333v25.5a2 2 0 0 0 2 2h25.5z" fill="#6dc9f7"/><g fill="#3a2c60"><path d="m58.8 73.417a21.445 21.445 0 0 1 .964-4.888 21.788 21.788 0 0 1 3.012-4.216c2.283-2.813 5.124-6.313 6.672-10.16 2.552-6.336 1.045-15.512-5.9-19.9a17.906 17.906 0 0 0 -21.37 1.547 21.808 21.808 0 0 0 -7.178 14.756v19.055c-.013.449-.121 6.6 3.019 11.139a11.853 11.853 0 0 0 9.619 4.8 10.668 10.668 0 0 0 4.213-.837c5.894-2.532 6.454-7.188 6.949-11.296zm-7.736 9.458a9.758 9.758 0 0 1 -11.4-3.263c-2.808-4.06-2.664-9.897-2.664-9.955 0-.01 0-.021 0-.032v-19.069a19.949 19.949 0 0 1 6.481-13.242 16.271 16.271 0 0 1 10.489-3.892 15.787 15.787 0 0 1 8.51 2.522c6.059 3.83 7.356 11.886 5.11 17.462-1.436 3.563-4.171 6.937-6.37 9.647a21.54 21.54 0 0 0 -3.333 4.779 23.254 23.254 0 0 0 -1.075 5.346c-.49 4.089-.912 7.622-5.747 9.697z"/><path d="m60.417 52.041v3.25a1 1 0 0 0 2 0v-3.25a9.25 9.25 0 0 0 -18.5 0v6.625a1 1 0 0 0 1 1h.75a4.375 4.375 0 0 1 0 8.75h-3.5a1 1 0 0 0 0 2h3.5a6.375 6.375 0 0 0 .25-12.745v-5.63a7.25 7.25 0 0 1 14.5 0z"/><path d="m75.023 42.783a16.138 16.138 0 0 1 0 31.434 1 1 0 0 0 .226 1.974.983.983 0 0 0 .227-.026 18.138 18.138 0 0 0 0-35.331 1 1 0 0 0 -.453 1.949z"/><path d="m74.3 69.866a1 1 0 0 0 1.265.631 12.652 12.652 0 0 0 0-23.994 1 1 0 0 0 -.635 1.9 10.652 10.652 0 0 1 0 20.2 1 1 0 0 0 -.63 1.263z"/><path d="m74.72 62.424a1 1 0 0 0 1.06 1.7 6.622 6.622 0 0 0 0-11.24 1 1 0 1 0 -1.06 1.7 4.622 4.622 0 0 1 0 7.848z"/><path d="m50 90h-9.75a1 1 0 0 0 0 2h9.75a1 1 0 0 0 0-2z"/><path d="m58.212 97.273a.9.9 0 0 0 -.96.96v6.7a1.627 1.627 0 0 1 -.315 1.095 1.255 1.255 0 0 1 -.93.39l-.48.03a.914.914 0 0 0 -.592.218.74.74 0 0 0 -.187.547q0 .84 1.154.8l.48-.03a2.711 2.711 0 0 0 2.805-3.045v-6.7a.941.941 0 0 0 -.262-.7.963.963 0 0 0 -.713-.265z"/><path d="m67.534 102.546a12.081 12.081 0 0 0 -2.167-.668 6.153 6.153 0 0 1 -1.785-.615 1.051 1.051 0 0 1 -.525-.945 1.321 1.321 0 0 1 .592-1.147 2.782 2.782 0 0 1 1.613-.413 4.049 4.049 0 0 1 1.418.218 5.053 5.053 0 0 1 1.192.668 2.2 2.2 0 0 0 .337.164.831.831 0 0 0 .278.045.556.556 0 0 0 .443-.232.932.932 0 0 0 .1-.945 1.125 1.125 0 0 0 -.277-.323 5.235 5.235 0 0 0 -3.5-1.14 5.179 5.179 0 0 0 -2.108.413 3.464 3.464 0 0 0 -1.462 1.147 2.794 2.794 0 0 0 -.525 1.665 2.481 2.481 0 0 0 .42 1.485 3.029 3.029 0 0 0 1.245.96 10.8 10.8 0 0 0 2.145.66 7.251 7.251 0 0 1 1.823.593.962.962 0 0 1 .547.877 1.253 1.253 0 0 1 -.585 1.118 3.075 3.075 0 0 1 -1.68.382 5.463 5.463 0 0 1 -1.561-.21 4.482 4.482 0 0 1 -1.349-.675 1.222 1.222 0 0 0 -.615-.21.555.555 0 0 0 -.442.233.91.91 0 0 0 .157 1.267 4.794 4.794 0 0 0 1.672.833 7.573 7.573 0 0 0 2.183.307 5.474 5.474 0 0 0 2.152-.4 3.367 3.367 0 0 0 1.455-1.11 2.724 2.724 0 0 0 .518-1.643 2.26 2.26 0 0 0 -.442-1.425 3.21 3.21 0 0 0 -1.267-.934z"/><path d="m102.985 36.073-27.446-27.447a1 1 0 0 0 -.707-.293h-51.165a3 3 0 0 0 -3 3v101.333a3 3 0 0 0 3 3h76.666a3 3 0 0 0 3-3v-75.835a1 1 0 0 0 -.348-.758zm-27.153-24.325 24.085 24.085h-23.085a1 1 0 0 1 -1-1zm24.5 101.918h-76.665a1 1 0 0 1 -1-1v-20.666h13.333a1 1 0 0 0 0-2h-13.333v-78.667a1 1 0 0 1 1-1h50.165v24.5a3 3 0 0 0 3 3h24.5v52.167h-46.957a1 1 0 0 0 0 2h46.958v20.666a1 1 0 0 1 -1 1z"/></g></svg>