<svg height="512" viewBox="0 0 128 128" width="512" xmlns="http://www.w3.org/2000/svg"><path d="M54.8 47.4l-3.05 17.83a3 3 0 004.35 3.17l16.01-8.42 16.01 8.42a3 3 0 004.36-3.16L89.42 47.4l12.95-12.63a3 3 0 00-1.66-5.12l-17.9-2.6-8.01-16.22a2.98 2.98 0 00-2.69-1.67 2.98 2.98 0 00-2.7 1.67l-8 16.22-17.9 2.6a3 3 0 00-1.66 5.12z" fill="#e6e7e8"/><path d="M120.7 65.8a6.82 6.82 0 00-9.21-.66L93.6 79.22a6.44 6.44 0 00-5.12-2.53H73.82a38.23 38.23 0 01-10.75-1.55l-3.43-1a26.28 26.28 0 00-9.78-1.06c-8.72.75-12.35 5.4-14.3 7.9a8.7 8.7 0 01-1.1 1.26c-.31.23-3.9 2.57-6.73 4.4a5.46 5.46 0 00-7.13-1.03l-8.66 5.57a5.52 5.52 0 00-1.65 7.62l13.82 21.5a5.5 5.5 0 007.62 1.66l8.67-5.58a5.52 5.52 0 001.66-7.62l-.85-1.3c4.36-2.68 7.71-4.63 8.28-4.8 2.31-.65 7.33.43 12.63 1.59 5.15 1.12 10.48 2.28 14.9 2.28 5.76 0 10.44-2.93 13.35-5.39l29.86-25.45a6.85 6.85 0 00.47-9.9z" fill="#e6e7e8"/><path d="M115.97 62.49a5.85 5.85 0 00-7.86-.57L89.36 76.7a5.47 5.47 0 00-4.87-3H69.82a39.27 39.27 0 01-11.04-1.59l-3.42-1a25.42 25.42 0 00-9.41-1.02c-10.53.9-13.17 7.68-14.89 8.96-.47.35-6.4 4.2-7.56 4.95l12.31 19.15c1.27-.78 8.38-5.16 9.4-5.45 4.86-1.37 18.71 3.84 27.81 3.84 5.52 0 10.02-2.88 12.7-5.15l29.85-25.44a5.85 5.85 0 00.4-8.45z" fill="#ffd7e5"/><path d="M69.9 7.28l8.24 16.7 18.43 2.67a2 2 0 011.1 3.41l-13.33 13L87.5 61.4a2 2 0 01-2.9 2.1l-16.48-8.65-16.48 8.66a2 2 0 01-2.9-2.1l3.15-18.35-13.33-13a2 2 0 011.1-3.4l18.43-2.69 8.24-16.69a2 2 0 013.59 0z" fill="#fa759e"/><path d="M31.06 82.04c1.72-1.29 4.36-8.06 14.89-8.97a25.42 25.42 0 019.4 1.03l3.43 1a39.27 39.27 0 0011.04 1.58H84.5a5.47 5.47 0 014.87 3.01l18.75-14.77a5.85 5.85 0 019.28 3.1 5.85 5.85 0 00-9.28-6.1L89.36 76.7a5.47 5.47 0 00-4.87-3.01H69.82A39.27 39.27 0 0158.8 72.1l-3.43-1a25.42 25.42 0 00-9.41-1.02c-10.53.9-13.17 7.68-14.89 8.96-.47.35-6.4 4.2-7.56 4.95l1.36 2.11c2.16-1.4 5.84-3.79 6.2-4.06z" fill="#fff"/><rect fill="#0089ef" height="34.59" rx="4.51" transform="rotate(-32.75 22.18 99.8)" width="19.33" x="12.51" y="82.48"/><circle cx="25.29" cy="108.16" fill="#d4fbff" r="2.5"/><g fill="#3a2c60"><path d="M50.8 43.4l-3.05 17.83a3 3 0 004.35 3.17l16.01-8.42 16.01 8.42a3 3 0 004.36-3.16L85.42 43.4l12.95-12.63a3 3 0 00-1.66-5.12l-17.9-2.6L70.8 6.84a2.98 2.98 0 00-2.69-1.67 2.99 2.99 0 00-2.7 1.67l-8 16.22-17.9 2.6a3 3 0 00-1.66 5.12zM39 28.33a.99.99 0 01.8-.68l18.42-2.68a1 1 0 00.76-.54l8.23-16.7a.98.98 0 01.9-.56.98.98 0 01.9.56l8.24 16.7a1 1 0 00.76.54l18.41 2.68a1 1 0 01.56 1.7l-13.33 13a1 1 0 00-.3.89l3.16 18.34a1 1 0 01-1.46 1.06l-16.47-8.67a1 1 0 00-.93 0l-16.48 8.67a1 1 0 01-1.45-1.06l3.15-18.34a1 1 0 00-.3-.89l-13.32-13a.98.98 0 01-.26-1.02z"/><path d="M116.7 61.8a6.82 6.82 0 00-9.21-.66L89.6 75.22a6.44 6.44 0 00-5.12-2.53H69.82a38.24 38.24 0 01-10.75-1.55l-3.43-1a26.27 26.27 0 00-9.78-1.06c-8.72.75-12.35 5.4-14.3 7.89a8.84 8.84 0 01-1.1 1.27c-.3.22-3.56 2.35-6.72 4.4a5.47 5.47 0 00-7.14-1.03l-8.66 5.57A5.52 5.52 0 006.3 94.8l13.82 21.5a5.5 5.5 0 007.62 1.65l8.67-5.57a5.52 5.52 0 001.66-7.61l-.85-1.32c4.3-2.64 7.72-4.62 8.28-4.8 2.31-.65 7.33.44 12.63 1.6 5.15 1.12 10.48 2.28 14.9 2.28 5.77 0 10.44-2.93 13.35-5.39l5.41-4.6a1 1 0 10-1.3-1.53l-5.4 4.6c-2.66 2.25-6.9 4.92-12.06 4.92-4.2 0-9.43-1.14-14.47-2.24-5.8-1.26-10.8-2.36-13.6-1.56-.97.27-5.62 3.07-8.82 5.04L24.88 84.28c2.18-1.41 6.36-4.12 6.78-4.44a8.98 8.98 0 001.48-1.64c1.88-2.41 5.04-6.45 12.9-7.13a24.36 24.36 0 019.04.99l3.43 1a40.25 40.25 0 0011.31 1.62H84.5a4.47 4.47 0 013.98 2.47 4.43 4.43 0 01.48 2.02 4.5 4.5 0 01-4.49 4.5H58.31a1 1 0 000 2h26.15a6.5 6.5 0 006.5-6.5 6.44 6.44 0 00-.38-2.17l18.15-14.3a4.85 4.85 0 016.2 7.47L102.95 80.4a1 1 0 101.3 1.52l11.98-10.22a6.85 6.85 0 00.47-9.9zm-81.39 48.9l-8.66 5.57a3.51 3.51 0 01-4.85-1.05L7.97 93.72a3.52 3.52 0 011.05-4.86l8.67-5.57a3.48 3.48 0 011.9-.56 3.56 3.56 0 01.74.08 3.48 3.48 0 012.21 1.53l13.83 21.5a3.52 3.52 0 01-1.06 4.86z"/><path d="M99.7 83.15l-5.78 4.93a1 1 0 001.3 1.52l5.78-4.93a1 1 0 10-1.3-1.52zM25.29 104.66a3.5 3.5 0 103.5 3.5 3.5 3.5 0 00-3.5-3.5zm0 5a1.5 1.5 0 111.5-1.5 1.5 1.5 0 01-1.5 1.5z"/></g></svg>