<svg height="512" viewBox="0 0 128 128" width="512" xmlns="http://www.w3.org/2000/svg"><path d="m54.805 47.405-3.058 17.829a3 3 0 0 0 4.353 3.166l16.011-8.417 16.012 8.417a3 3 0 0 0 4.354-3.162l-3.059-17.833 12.954-12.627a3 3 0 0 0 -1.663-5.116l-17.9-2.6-8.009-16.224a2.983 2.983 0 0 0 -2.69-1.672 2.985 2.985 0 0 0 -2.691 1.672l-8.003 16.222-17.9 2.6a3 3 0 0 0 -1.663 5.116z" fill="#e6e7e8"/><path d="m120.7 65.8a6.822 6.822 0 0 0 -9.211-.663l-17.877 14.087a6.436 6.436 0 0 0 -5.126-2.539h-14.664a38.235 38.235 0 0 1 -10.756-1.544l-3.424-1a26.28 26.28 0 0 0 -9.779-1.062c-8.724.755-12.351 5.4-14.3 7.892a8.7 8.7 0 0 1 -1.1 1.267c-.316.236-3.895 2.568-6.73 4.405a5.465 5.465 0 0 0 -7.13-1.035l-8.664 5.574a5.522 5.522 0 0 0 -1.651 7.618l13.824 21.5a5.505 5.505 0 0 0 7.619 1.655l8.669-5.575a5.516 5.516 0 0 0 1.655-7.615l-.843-1.31c4.36-2.679 7.71-4.624 8.279-4.8 2.314-.649 7.327.438 12.632 1.595 5.151 1.123 10.476 2.284 14.9 2.284 5.76 0 10.438-2.932 13.348-5.393 2.46-2.094 29.852-25.441 29.859-25.451a6.852 6.852 0 0 0 .47-9.891z" fill="#e6e7e8"/><path d="m115.975 62.488a5.852 5.852 0 0 0 -7.867-.566l-18.747 14.773a5.473 5.473 0 0 0 -4.875-3.01h-14.664a39.265 39.265 0 0 1 -11.037-1.585l-3.426-1a25.417 25.417 0 0 0 -9.41-1.025c-10.528.911-13.167 7.681-14.886 8.965-.471.352-6.407 4.2-7.56 4.947l12.312 19.154c1.267-.783 8.371-5.156 9.4-5.448 4.86-1.376 18.706 3.841 27.805 3.841 5.517 0 10.02-2.888 12.7-5.155 2.464-2.091 29.854-25.44 29.854-25.44a5.854 5.854 0 0 0 .401-8.451z" fill="#ffd7e5"/><path d="m69.905 7.281 8.239 16.693 18.421 2.677a2 2 0 0 1 1.109 3.411l-13.33 12.994 3.147 18.344a2 2 0 0 1 -2.9 2.108l-16.479-8.659-16.477 8.662a2 2 0 0 1 -2.9-2.108l3.145-18.347-13.33-12.994a2 2 0 0 1 1.108-3.411l18.422-2.677 8.238-16.693a2 2 0 0 1 3.587 0z" fill="#fa759e"/><path d="m31.063 82.037c1.719-1.284 4.358-8.054 14.886-8.965a25.417 25.417 0 0 1 9.41 1.025l3.426 1a39.265 39.265 0 0 0 11.037 1.584h14.664a5.473 5.473 0 0 1 4.875 3.01l18.747-14.773a5.852 5.852 0 0 1 9.28 3.095 5.852 5.852 0 0 0 -9.28-6.095l-18.747 14.777a5.473 5.473 0 0 0 -4.875-3.01h-14.664a39.265 39.265 0 0 1 -11.037-1.585l-3.426-1a25.417 25.417 0 0 0 -9.41-1.025c-10.528.911-13.167 7.681-14.886 8.965-.471.352-6.407 4.2-7.56 4.947l1.361 2.113c2.155-1.4 5.836-3.789 6.199-4.063z" fill="#fff"/><rect fill="#0089ef" height="34.589" rx="4.512" transform="matrix(.841 -.541 .541 .841 -50.466 27.865)" width="19.327" x="12.506" y="82.485"/><circle cx="25.286" cy="108.164" fill="#d4fbff" r="2.5"/><g fill="#3a2c60"><path d="m50.805 43.405-3.058 17.829a2.995 2.995 0 0 0 4.353 3.166l16.012-8.417 16.011 8.417a3 3 0 0 0 4.353-3.162l-3.058-17.833 12.954-12.627a3 3 0 0 0 -1.663-5.116l-17.9-2.6-8.009-16.224a2.984 2.984 0 0 0 -2.69-1.673 2.986 2.986 0 0 0 -2.691 1.673l-8.003 16.222-17.9 2.6a3 3 0 0 0 -1.664 5.116zm-11.811-15.084a.986.986 0 0 1 .808-.681l18.421-2.677a1 1 0 0 0 .754-.547l8.238-16.693a.982.982 0 0 1 .9-.558.982.982 0 0 1 .9.558l8.239 16.693a1 1 0 0 0 .753.547l18.415 2.677a1 1 0 0 1 .553 1.706l-13.33 12.994a1 1 0 0 0 -.287.885l3.147 18.347a1 1 0 0 1 -1.451 1.054l-16.477-8.662a1 1 0 0 0 -.931 0l-16.476 8.662a1 1 0 0 1 -1.451-1.054l3.147-18.347a1 1 0 0 0 -.288-.885l-13.33-12.994a.981.981 0 0 1 -.254-1.025z"/><path d="m116.7 61.8a6.821 6.821 0 0 0 -9.211-.662l-17.877 14.086a6.436 6.436 0 0 0 -5.126-2.539h-14.664a38.24 38.24 0 0 1 -10.756-1.544l-3.425-1a26.275 26.275 0 0 0 -9.778-1.062c-8.723.754-12.351 5.4-14.3 7.891a8.836 8.836 0 0 1 -1.1 1.269c-.3.224-3.562 2.352-6.728 4.405a5.468 5.468 0 0 0 -7.131-1.036l-8.662 5.572a5.518 5.518 0 0 0 -1.654 7.62l13.824 21.5a5.506 5.506 0 0 0 7.619 1.654l8.669-5.574a5.518 5.518 0 0 0 1.655-7.615l-.843-1.311c4.3-2.64 7.719-4.626 8.28-4.8 2.312-.651 7.324.437 12.631 1.594 5.151 1.124 10.477 2.285 14.9 2.285 5.763 0 10.439-2.932 13.349-5.393.595-.505 2.645-2.25 5.41-4.607a1 1 0 1 0 -1.3-1.522c-2.764 2.356-4.812 4.1-5.406 4.6-2.653 2.244-6.9 4.919-12.056 4.919-4.208 0-9.427-1.138-14.474-2.239-5.8-1.264-10.8-2.357-13.6-1.564-.966.274-5.618 3.078-8.815 5.044l-11.249-17.49c2.181-1.414 6.355-4.126 6.779-4.444a8.978 8.978 0 0 0 1.478-1.637c1.885-2.413 5.041-6.452 12.9-7.131a24.356 24.356 0 0 1 9.04.989l3.427 1a40.249 40.249 0 0 0 11.318 1.624h14.662a4.469 4.469 0 0 1 3.985 2.465 4.429 4.429 0 0 1 .483 2.028 4.5 4.5 0 0 1 -4.494 4.494h-26.155a1 1 0 0 0 0 2h26.155a6.5 6.5 0 0 0 6.494-6.494 6.436 6.436 0 0 0 -.375-2.171l18.148-14.3a4.854 4.854 0 0 1 6.2 7.468l-11.981 10.214a1 1 0 1 0 1.3 1.522l11.984-10.218a6.854 6.854 0 0 0 .47-9.891zm-81.387 48.9-8.664 5.575a3.512 3.512 0 0 1 -4.854-1.055l-13.824-21.507a3.515 3.515 0 0 1 1.053-4.851l8.664-5.575a3.483 3.483 0 0 1 1.894-.56 3.562 3.562 0 0 1 .752.081 3.485 3.485 0 0 1 2.209 1.533l13.824 21.506a3.515 3.515 0 0 1 -1.054 4.853z"/><path d="m99.706 83.148-5.785 4.929a1 1 0 0 0 1.3 1.523l5.779-4.931a1 1 0 1 0 -1.3-1.521z"/><path d="m25.286 104.663a3.5 3.5 0 1 0 3.5 3.5 3.5 3.5 0 0 0 -3.5-3.5zm0 5a1.5 1.5 0 1 1 1.5-1.5 1.5 1.5 0 0 1 -1.5 1.5z"/></g></svg>