<?xml version="1.0"?>
<svg xmlns="http://www.w3.org/2000/svg" viewBox="0 0 128 128" width="512" height="512"><path d="M124.636,66a8.172,8.172,0,0,0-7.958-8.156,51.06,51.06,0,0,0-9.095-21.89A8.16,8.16,0,0,0,96.046,24.417a51.048,51.048,0,0,0-21.89-9.1,8.158,8.158,0,0,0-16.312,0,51.048,51.048,0,0,0-21.89,9.1A8.16,8.16,0,0,0,24.417,35.954a51.06,51.06,0,0,0-9.1,21.89,8.158,8.158,0,0,0,0,16.312,51.06,51.06,0,0,0,9.1,21.89,8.16,8.16,0,0,0,11.537,11.537,51.048,51.048,0,0,0,21.89,9.095,8.158,8.158,0,0,0,16.312,0,51.048,51.048,0,0,0,21.89-9.095,8.16,8.16,0,0,0,11.537-11.537,51.06,51.06,0,0,0,9.095-21.89A8.172,8.172,0,0,0,124.636,66Z" fill="#e6e7e8"/><circle cx="62" cy="62" r="50.333" transform="translate(-25.681 62) rotate(-45)" fill="#d4fbff"/><circle cx="112.469" cy="62" r="7.167" fill="#0089ef"/><circle cx="11.531" cy="62" r="7.167" transform="translate(-40.463 26.313) rotate(-45)" fill="#0089ef"/><circle cx="62" cy="11.531" r="7.167" transform="translate(10.006 47.218) rotate(-45)" fill="#0089ef"/><circle cx="62" cy="112.469" r="7.167" transform="translate(-24.181 17.253) rotate(-13.282)" fill="#0089ef"/><circle cx="97.687" cy="26.313" r="7.167" fill="#0089ef"/><circle cx="26.313" cy="97.687" r="7.167" fill="#0089ef"/><path d="M31.381,21.245a7.167,7.167,0,1,0,0,10.136A7.169,7.169,0,0,0,31.381,21.245Z" fill="#0089ef"/><circle cx="97.687" cy="97.687" r="7.167" fill="#0089ef"/><circle cx="62" cy="62" r="16.495" transform="translate(-25.681 62) rotate(-45)" fill="#ffd7e5"/><path d="M62,75.5a16.491,16.491,0,0,1-16.42-15c-.044.495-.075.994-.075,1.5A16.495,16.495,0,0,0,78.5,62c0-.506-.031-1.005-.075-1.5A16.491,16.491,0,0,1,62,75.5Z" fill="#fff"/><path d="M96.5,65.62V58.38a2.017,2.017,0,0,0-2.016-2.016H89.615a28.011,28.011,0,0,0-4.108-9.9l3.45-3.45a2.016,2.016,0,0,0,0-2.851l-5.119-5.119a2.016,2.016,0,0,0-2.851,0l-3.45,3.45a28.011,28.011,0,0,0-9.9-4.108V29.513A2.017,2.017,0,0,0,65.62,27.5H58.38a2.017,2.017,0,0,0-2.016,2.016v4.872a28.011,28.011,0,0,0-9.9,4.108l-3.45-3.45a2.016,2.016,0,0,0-2.851,0l-5.119,5.119a2.016,2.016,0,0,0,0,2.851l3.45,3.45a28.011,28.011,0,0,0-4.108,9.9H29.513A2.017,2.017,0,0,0,27.5,58.38v7.24a2.017,2.017,0,0,0,2.016,2.016h4.872a28.011,28.011,0,0,0,4.108,9.9l-3.45,3.449a2.018,2.018,0,0,0,0,2.852l5.119,5.119a2.016,2.016,0,0,0,2.851,0l3.45-3.45a28.011,28.011,0,0,0,9.9,4.108v4.872A2.017,2.017,0,0,0,58.38,96.5h7.24a2.017,2.017,0,0,0,2.016-2.016V89.615a28.011,28.011,0,0,0,9.9-4.108l3.45,3.45a2.016,2.016,0,0,0,2.851,0l5.119-5.119a2.018,2.018,0,0,0,0-2.852l-3.45-3.449a28.011,28.011,0,0,0,4.108-9.9h4.872A2.017,2.017,0,0,0,96.5,65.62ZM62,78.5A16.5,16.5,0,1,1,78.5,62,16.495,16.495,0,0,1,62,78.5Z" fill="#fa759e"/><path d="M120.636,62a8.172,8.172,0,0,0-7.985-8.157,51.04,51.04,0,0,0-9.084-21.871A8.161,8.161,0,0,0,92.025,20.436,51.062,51.062,0,0,0,70.158,11.35a8.16,8.16,0,0,0-16.316,0,51.036,51.036,0,0,0-21.87,9.084A8.161,8.161,0,0,0,20.436,31.975a51.047,51.047,0,0,0-9.085,21.868,8.159,8.159,0,0,0,0,16.314,51.047,51.047,0,0,0,9.085,21.868,8.16,8.16,0,0,0,11.535,11.542,51,51,0,0,0,21.872,9.1,8.159,8.159,0,0,0,16.315-.011,51.036,51.036,0,0,0,21.87-9.084,8.161,8.161,0,0,0,11.536-11.542,51.047,51.047,0,0,0,9.085-21.868A8.172,8.172,0,0,0,120.636,62ZM97.687,89.521a8.16,8.16,0,0,0-6.92,12.494,49.039,49.039,0,0,1-20.809,8.643,8.16,8.16,0,0,0-15.918.009,49.037,49.037,0,0,1-20.806-8.653A8.16,8.16,0,0,0,21.989,90.765a49.041,49.041,0,0,1-8.647-20.808,8.159,8.159,0,0,0,0-15.914,49.049,49.049,0,0,1,8.646-20.809A8.16,8.16,0,0,0,33.233,21.985a49.045,49.045,0,0,1,20.809-8.643,8.16,8.16,0,0,0,15.916,0,49.055,49.055,0,0,1,20.807,8.647,8.16,8.16,0,0,0,11.249,11.245,49.052,49.052,0,0,1,8.644,20.81,8.159,8.159,0,0,0,0,15.914,49.049,49.049,0,0,1-8.646,20.809A8.106,8.106,0,0,0,97.687,89.521ZM118.636,62a6.167,6.167,0,1,1-6.167-6.167A6.175,6.175,0,0,1,118.636,62ZM97.687,20.149a6.159,6.159,0,1,1-4.361,1.8A6.147,6.147,0,0,1,97.687,20.149ZM62,5.364a6.167,6.167,0,1,1-6.167,6.167A6.174,6.174,0,0,1,62,5.364ZM21.952,21.952a6.167,6.167,0,1,1-1.806,4.361A6.176,6.176,0,0,1,21.952,21.952ZM5.364,62a6.167,6.167,0,1,1,6.167,6.167A6.175,6.175,0,0,1,5.364,62Zm20.949,41.854a6.166,6.166,0,1,1,4.361-1.807A6.128,6.128,0,0,1,26.313,103.854ZM62,118.636a6.167,6.167,0,1,1,6.167-6.167A6.174,6.174,0,0,1,62,118.636Zm40.048-16.589a6.166,6.166,0,1,1,1.806-4.36A6.128,6.128,0,0,1,102.048,102.047Z" fill="#3a2c60"/><path d="M65.214,46.838a15.378,15.378,0,0,1,4.288,1.6,1,1,0,0,0,.971-1.749,17.4,17.4,0,0,0-4.847-1.808,1,1,0,1,0-.412,1.957Z" fill="#3a2c60"/><path d="M72.553,49.282A1,1,0,0,0,72.6,50.7,15.35,15.35,0,0,1,77.5,62,15.5,15.5,0,1,1,61.413,46.516a1,1,0,0,0-.074-2,17.492,17.492,0,1,0,12.628,4.719A1,1,0,0,0,72.553,49.282Z" fill="#3a2c60"/><path d="M94.487,55.364H90.421A28.881,28.881,0,0,0,86.784,46.6l2.88-2.88a3.019,3.019,0,0,0,0-4.265l-5.119-5.119a3.088,3.088,0,0,0-4.266,0l-2.88,2.88a28.844,28.844,0,0,0-8.763-3.636V29.513A3.019,3.019,0,0,0,65.62,26.5H58.38a3.019,3.019,0,0,0-3.016,3.016V33.58A28.844,28.844,0,0,0,46.6,37.216l-2.88-2.88a3.088,3.088,0,0,0-4.266,0l-5.119,5.119a3.019,3.019,0,0,0,0,4.265l2.88,2.88a28.881,28.881,0,0,0-3.637,8.764H29.513A3.019,3.019,0,0,0,26.5,58.38v7.24a3.019,3.019,0,0,0,3.016,3.016h4.066A28.886,28.886,0,0,0,37.216,77.4l-2.88,2.88a3.019,3.019,0,0,0,0,4.265l5.119,5.12a3.02,3.02,0,0,0,4.266,0l2.88-2.88a28.844,28.844,0,0,0,8.763,3.636v4.067A3.019,3.019,0,0,0,58.38,97.5h7.24a3.019,3.019,0,0,0,3.016-3.016V90.42A28.844,28.844,0,0,0,77.4,86.784l2.88,2.88a3.02,3.02,0,0,0,4.266,0l5.119-5.12a3.019,3.019,0,0,0,0-4.265l-2.88-2.88a28.886,28.886,0,0,0,3.637-8.763h4.066A3.019,3.019,0,0,0,97.5,65.62V58.38A3.019,3.019,0,0,0,94.487,55.364ZM95.5,65.62a1.017,1.017,0,0,1-1.016,1.016H89.615a1,1,0,0,0-.98.8,26.91,26.91,0,0,1-3.962,9.547,1,1,0,0,0,.127,1.26l3.45,3.449a1.018,1.018,0,0,1,0,1.437l-5.119,5.12a1.042,1.042,0,0,1-1.438,0L78.244,84.8a1,1,0,0,0-1.259-.127,26.919,26.919,0,0,1-9.548,3.962,1,1,0,0,0-.8.98v4.872A1.017,1.017,0,0,1,65.62,95.5H58.38a1.017,1.017,0,0,1-1.016-1.016V89.615a1,1,0,0,0-.8-.98,26.919,26.919,0,0,1-9.548-3.962,1,1,0,0,0-1.259.127l-3.449,3.45a1.042,1.042,0,0,1-1.438,0L35.75,83.13a1.018,1.018,0,0,1,0-1.437l3.45-3.449a1,1,0,0,0,.127-1.26,26.91,26.91,0,0,1-3.962-9.547,1,1,0,0,0-.98-.8H29.513A1.017,1.017,0,0,1,28.5,65.62V58.38a1.017,1.017,0,0,1,1.016-1.016h4.872a1,1,0,0,0,.98-.8,26.915,26.915,0,0,1,3.962-9.548,1,1,0,0,0-.127-1.259l-3.45-3.45a1.018,1.018,0,0,1,0-1.437l5.119-5.119a1.042,1.042,0,0,1,1.438,0l3.449,3.45a1,1,0,0,0,1.259.127,26.919,26.919,0,0,1,9.548-3.962,1,1,0,0,0,.8-.98V29.513A1.017,1.017,0,0,1,58.38,28.5h7.24a1.017,1.017,0,0,1,1.016,1.016v4.872a1,1,0,0,0,.8.98,26.919,26.919,0,0,1,9.548,3.962,1,1,0,0,0,1.259-.127l3.449-3.45a1.042,1.042,0,0,1,1.438,0l5.119,5.119a1.018,1.018,0,0,1,0,1.437l-3.45,3.45a1,1,0,0,0-.127,1.259,26.915,26.915,0,0,1,3.962,9.548,1,1,0,0,0,.98.8h4.872A1.017,1.017,0,0,1,95.5,58.38Z" fill="#3a2c60"/></svg>
