<svg height="512" viewBox="0 0 128 128" width="512" xmlns="http://www.w3.org/2000/svg"><rect fill="#e6e7e8" height="110.643" rx="5" width="97.063" x="17.469" y="10.679"/><rect fill="#d4fbff" height="108.643" rx="4" width="95.063" x="14.469" y="7.679"/><path d="m105.531 113.321h-87.062a4 4 0 0 1 -4-4v3a4 4 0 0 0 4 4h87.062a4 4 0 0 0 4-4v-3a4 4 0 0 1 -4 4z" fill="#fff"/><path d="m27.245 7.679v48.78a4 4 0 0 0 2.311 3.626l30.756 14.315a4 4 0 0 0 3.376 0l30.756-14.315a4 4 0 0 0 2.311-3.626v-48.78z" fill="#6dc9f7"/><circle cx="61.944" cy="38.467" fill="#fa759e" r="23.5"/><path d="m45.327 21.85a23.5 23.5 0 1 0 33.234 0 23.5 23.5 0 0 0 -33.234 0zm29.458 29.457a18.148 18.148 0 0 1 -23.711 1.681l2.436-2.436a2.582 2.582 0 0 0 -3.651-3.652l-2.436 2.436a18.136 18.136 0 0 1 25.392-25.39l-2.436 2.436a2.581 2.581 0 1 0 3.651 3.65l2.436-2.432a18.148 18.148 0 0 1 -1.681 23.707z" fill="#ffd7e5"/><path d="m67.545 46.031a6.822 6.822 0 0 1 -3.919 1.809v1.652a1.356 1.356 0 0 1 -.368.983 1.428 1.428 0 0 1 -1.94 0 1.355 1.355 0 0 1 -.366-.983v-1.6a11.842 11.842 0 0 1 -2.911-.629 8.313 8.313 0 0 1 -2.441-1.311 1.318 1.318 0 0 1 -.472-.524 1.715 1.715 0 0 1 -.128-.708 1.529 1.529 0 0 1 .328-.97.938.938 0 0 1 .747-.419 1.269 1.269 0 0 1 .485.091 5.7 5.7 0 0 1 .59.3 9.659 9.659 0 0 0 2.373 1.153 8.1 8.1 0 0 0 2.451.367 4.632 4.632 0 0 0 2.713-.681 2.267 2.267 0 0 0 .957-1.967 1.581 1.581 0 0 0 -.524-1.232 3.81 3.81 0 0 0 -1.311-.747q-.786-.274-2.2-.643a23.672 23.672 0 0 1 -3.2-1.009 5.532 5.532 0 0 1 -2.123-1.56 4.222 4.222 0 0 1 -.892-2.831 4.884 4.884 0 0 1 1.521-3.618 6.966 6.966 0 0 1 3.985-1.86v-1.652a1.357 1.357 0 0 1 .367-.983 1.428 1.428 0 0 1 1.94 0 1.361 1.361 0 0 1 .367.983v1.626a8.8 8.8 0 0 1 4.562 1.914 1.47 1.47 0 0 1 .629 1.232 1.527 1.527 0 0 1 -.328.97.96.96 0 0 1 -.773.419 1.379 1.379 0 0 1 -.459-.078 3.024 3.024 0 0 1 -.589-.315 9.944 9.944 0 0 0 -2.033-1.14 6.135 6.135 0 0 0 -2.267-.38 4.252 4.252 0 0 0 -2.6.721 2.331 2.331 0 0 0 -.97 1.979 1.875 1.875 0 0 0 .551 1.4 3.646 3.646 0 0 0 1.389.825q.838.289 2.281.656a22.687 22.687 0 0 1 3.12.97 5.312 5.312 0 0 1 2.058 1.508 4.118 4.118 0 0 1 .855 2.743 4.789 4.789 0 0 1 -1.455 3.539z" fill="#fff"/><g fill="#3a2c60"><path d="m105.531 6.679h-87.062a5.006 5.006 0 0 0 -5 5v70.654a1 1 0 0 0 2 0v-70.654a3 3 0 0 1 3-3h7.776v47.78a5.015 5.015 0 0 0 2.889 4.532l30.755 14.319a4.993 4.993 0 0 0 4.221 0l30.756-14.319a5.015 5.015 0 0 0 2.889-4.532v-47.78h7.776a3 3 0 0 1 3 3v100.642a3 3 0 0 1 -3 3h-87.062a3 3 0 0 1 -3-3v-13.488a1 1 0 0 0 -2 0v13.488a5.006 5.006 0 0 0 5 5h87.062a5.006 5.006 0 0 0 5-5v-100.642a5.006 5.006 0 0 0 -5-5zm-9.776 49.78a3.011 3.011 0 0 1 -1.733 2.72l-30.756 14.321a2.992 2.992 0 0 1 -2.533 0l-30.755-14.321a3.011 3.011 0 0 1 -1.733-2.72v-47.78h67.51z"/><path d="m14.469 95.833a1 1 0 0 0 1-1v-7.833a1 1 0 0 0 -2 0v7.833a1 1 0 0 0 1 1z"/><path d="m47.353 50.335a.986.986 0 0 0 .777-.29l2.436-2.437a1.582 1.582 0 0 1 2.234 2.237l-2.436 2.436a1 1 0 0 0 .107 1.507 19.136 19.136 0 0 0 26.795-26.788 1 1 0 0 0 -.729-.4 1.016 1.016 0 0 0 -.778.29l-2.436 2.435a1.581 1.581 0 1 1 -2.237-2.236l2.436-2.437a1 1 0 0 0 -.107-1.507 19.136 19.136 0 0 0 -26.791 26.793 1 1 0 0 0 .729.397zm2.458-24a17.23 17.23 0 0 1 21.454-2.251l-1.593 1.593a3.581 3.581 0 1 0 5.065 5.064l1.593-1.592a17.135 17.135 0 0 1 -23.7 23.705l1.592-1.593a3.581 3.581 0 0 0 -5.065-5.065l-1.597 1.591a17.233 17.233 0 0 1 2.251-21.454z"/><path d="m61.944 62.955a24.48 24.48 0 1 0 -17.323-7.164 24.428 24.428 0 0 0 17.323 7.164zm-15.909-40.4a22.5 22.5 0 1 1 -6.59 15.91 22.524 22.524 0 0 1 6.59-15.908z"/><path d="m27.245 86h69.51a1 1 0 0 0 0-2h-69.51a1 1 0 0 0 0 2z"/><path d="m27.245 96h69.51a1 1 0 0 0 0-2h-69.51a1 1 0 0 0 0 2z"/><path d="m27.245 106h69.51a1 1 0 0 0 0-2h-69.51a1 1 0 0 0 0 2z"/></g></svg>