<svg height="512" viewBox="0 0 128 128" width="512" xmlns="http://www.w3.org/2000/svg"><path d="m118.455 37.574h-35.655a3 3 0 0 0 -3 3v6.384l-5.977 3.154v-32.077a8.044 8.044 0 0 0 -8.038-8.035h-47.2a8.043 8.043 0 0 0 -8.035 8.035v95.93a8.043 8.043 0 0 0 8.031 8.035h47.2a8.044 8.044 0 0 0 8.036-8.035v-57.345l5.983 3.153v31.653a3 3 0 0 0 3 3h35.657a3 3 0 0 0 3-3v-50.852a3 3 0 0 0 -3.002-3z" fill="#e6e7e8"/><rect fill="#6dc9f7" height="110" rx="7.035" width="61.275" x="7.546" y="7"/><path d="m-4.146 29.12h84.657v61.275h-84.657z" fill="#d4fbff" transform="matrix(0 1 -1 0 97.941 21.575)"/><rect fill="#fa759e" height="27.899" rx="2" width="43.541" x="16.413" y="27.101"/><rect fill="#0089ef" height="7.511" rx="2" width="16.535" x="29.916" y="85.153"/><rect fill="#0089ef" height="2.27" rx="1.026" width="19.128" x="28.619" y="11.186"/><path d="m52.286 11.075a1.246 1.246 0 1 0 1.245 1.246 1.245 1.245 0 0 0 -1.245-1.246z" fill="#0089ef"/><rect fill="#0089ef" height="5.511" rx="2.492" width="16.535" x="29.916" y="106.153"/><path d="m76.8 36.574v6.987l-11 5.805 11 5.805v32.255a2 2 0 0 0 2 2h35.656a2 2 0 0 0 2-2v-50.852a2 2 0 0 0 -2-2h-35.656a2 2 0 0 0 -2 2z" fill="#ffd7e5"/><path d="m114.454 34.574h-3a2 2 0 0 1 2 2v50.852a2 2 0 0 1 -2 2h3a2 2 0 0 0 2-2v-50.852a2 2 0 0 0 -2-2z" fill="#fff"/><circle cx="96.626" cy="77.324" fill="#0089ef" r="7.875"/><path d="m100.335 76.324h-2.709v-2.708a1 1 0 0 0 -2 0v2.708h-2.708a1 1 0 0 0 0 2h2.708v2.708a1 1 0 1 0 2 0v-2.708h2.709a1 1 0 0 0 0-2z" fill="#fff"/><g fill="#3a2c60"><path d="m18.413 56h39.541a3 3 0 0 0 3-3v-23.9a3 3 0 0 0 -3-3h-39.541a3 3 0 0 0 -3 3v23.9a3 3 0 0 0 3 3zm39.541-2h-39.541a1 1 0 0 1 -1-1v-7.5l13-9.856 12.645 10.136a1 1 0 0 0 1.159.066l8.265-5.219 6.472 4.873v7.5a1 1 0 0 1 -1 1zm-39.541-25.9h39.541a1 1 0 0 1 1 1v13.9l-5.821-4.382a1 1 0 0 0 -1.133-.051l-8.245 5.206-12.696-10.18a1 1 0 0 0 -1.23-.017l-12.416 9.411v-13.887a1 1 0 0 1 1-1z"/><path d="m44.192 37.891a3.259 3.259 0 1 0 -3.259-3.259 3.262 3.262 0 0 0 3.259 3.259zm0-4.518a1.259 1.259 0 1 1 -1.259 1.259 1.259 1.259 0 0 1 1.259-1.259z"/><path d="m31.916 84.152a3 3 0 0 0 -3 3v3.512a3 3 0 0 0 3 3h12.534a3 3 0 0 0 3-3v-3.512a3 3 0 0 0 -3-3zm13.534 3v3.512a1 1 0 0 1 -1 1h-12.534a1 1 0 0 1 -1-1v-3.512a1 1 0 0 1 1-1h12.534a1 1 0 0 1 1 1z"/><path d="m16.413 65.049h43.541a1 1 0 0 0 0-2h-43.541a1 1 0 1 0 0 2z"/><path d="m16.413 72.049h43.541a1 1 0 1 0 0-2h-43.541a1 1 0 1 0 0 2z"/><path d="m16.413 79.049h43.541a1 1 0 1 0 0-2h-43.541a1 1 0 1 0 0 2z"/><path d="m7.545 40.413a1 1 0 0 0 1-1v-8.08a1 1 0 0 0 -2 0v8.08a1 1 0 0 0 1 1z"/><path d="m114.454 33.574h-35.654a3 3 0 0 0 -3 3v6.384l-5.98 3.154v-32.077a8.043 8.043 0 0 0 -8.035-8.035h-47.2a8.044 8.044 0 0 0 -8.036 8.035v12.465a1 1 0 0 0 2 0v-8.07h59.271v28.737l-2.489 1.314a1 1 0 0 0 0 1.77l2.489 1.314v49.522h-59.275v-56.837a1 1 0 0 0 -2 0v65.715a8.044 8.044 0 0 0 8.036 8.035h47.2a8.043 8.043 0 0 0 8.035-8.035v-57.345l5.984 3.153v31.653a3 3 0 0 0 3 3h35.657a3 3 0 0 0 3-3v-50.852a3 3 0 0 0 -3.003-3zm-105.909-17.144v-2.395a6.042 6.042 0 0 1 6.036-6.035h47.2a6.041 6.041 0 0 1 6.035 6.035v2.395zm53.24 99.57h-47.2a6.042 6.042 0 0 1 -6.036-6.035v-6.878h59.271v6.878a6.041 6.041 0 0 1 -6.035 6.035zm53.669-28.574a1 1 0 0 1 -1 1h-35.654a1 1 0 0 1 -1-1v-32.255a1 1 0 0 0 -.533-.885l-9.324-4.92 9.324-4.921a1 1 0 0 0 .533-.884v-6.987a1 1 0 0 1 1-1h35.657a1 1 0 0 1 1 1z"/><path d="m96.626 68.449a8.875 8.875 0 1 0 8.875 8.875 8.885 8.885 0 0 0 -8.875-8.875zm0 15.75a6.875 6.875 0 1 1 6.875-6.875 6.883 6.883 0 0 1 -6.875 6.876z"/><path d="m108.876 40.415h-24.5a1 1 0 0 0 0 2h24.5a1 1 0 0 0 0-2z"/><path d="m108.876 47.415h-24.5a1 1 0 0 0 0 2h24.5a1 1 0 0 0 0-2z"/><path d="m108.876 54.415h-24.5a1 1 0 0 0 0 2h24.5a1 1 0 0 0 0-2z"/><path d="m108.876 61.416h-24.5a1 1 0 0 0 0 2h24.5a1 1 0 0 0 0-2z"/></g></svg>