<svg height="512" viewBox="0 0 128 128" width="512" xmlns="http://www.w3.org/2000/svg"><path d="m114.074 14.84h-96.148a5.432 5.432 0 0 0 -5.426 5.426v66.563a6.74 6.74 0 0 0 6.732 6.733h45.578v11.209a.946.946 0 0 0 .023.118h-10.312a5.506 5.506 0 0 0 -5.458 4.85h-24.007a1 1 0 0 0 0 2h23.969a5.505 5.505 0 0 0 5.5 5.422h22.954a5.505 5.505 0 0 0 5.5-5.422h23.969a1 1 0 0 0 0-2h-24.011a5.506 5.506 0 0 0 -5.458-4.85h-10.693a.949.949 0 0 0 .024-.118v-11.209h45.957a6.741 6.741 0 0 0 6.733-6.733v-66.563a5.432 5.432 0 0 0 -5.426-5.426z" fill="#e6e7e8"/><path d="m110.074 11.84h-96.148a4.426 4.426 0 0 0 -4.426 4.426v11.3a5.738 5.738 0 0 1 5.738-5.738h17.3a5.738 5.738 0 0 1 5.738 5.738v2.518a3.711 3.711 0 0 0 3.706 3.716h66.785a5.733 5.733 0 0 1 5.733 5.733v-23.267a4.426 4.426 0 0 0 -4.426-4.426z" fill="#fa759e"/><path d="m108.767 33.8h-66.785a3.711 3.711 0 0 1 -3.711-3.712v-2.522a5.738 5.738 0 0 0 -5.738-5.738h-17.3a5.738 5.738 0 0 0 -5.733 5.738v55.264a5.732 5.732 0 0 0 5.733 5.732h93.534a5.732 5.732 0 0 0 5.733-5.732v-43.3a5.733 5.733 0 0 0 -5.733-5.73z" fill="#ffd7e5"/><rect fill="#0089ef" height="10.272" rx="4.5" width="31.957" x="46.022" y="101.889"/><path d="m108.767 84.677h-93.534a5.733 5.733 0 0 1 -5.733-5.733v3.886a5.732 5.732 0 0 0 5.733 5.732h93.534a5.732 5.732 0 0 0 5.733-5.732v-3.886a5.733 5.733 0 0 1 -5.733 5.733z" fill="#fff"/><g fill="#3a2c60"><path d="m77 12.839h10a1 1 0 0 0 0-2h-10a1 1 0 0 0 0 2z"/><path d="m110.074 10.839h-17.741a1 1 0 0 0 0 2h17.741a3.431 3.431 0 0 1 3.426 3.427v18.481a6.708 6.708 0 0 0 -4.733-1.951h-66.785a2.715 2.715 0 0 1 -2.711-2.712v-2.518a6.746 6.746 0 0 0 -6.738-6.738h-17.3a6.713 6.713 0 0 0 -4.733 1.954v-6.516a3.431 3.431 0 0 1 3.426-3.427h57.74a1 1 0 0 0 0-2h-57.74a5.433 5.433 0 0 0 -5.426 5.427v66.564a6.74 6.74 0 0 0 6.732 6.732h45.578v11.209a.233.233 0 0 0 .055.118h-10.344a5.506 5.506 0 0 0 -5.458 4.85h-24.007a1 1 0 1 0 0 2h23.97a5.5 5.5 0 0 0 5.495 5.421h22.957a5.5 5.5 0 0 0 5.5-5.421h23.97a1 1 0 0 0 0-2h-24.012a5.5 5.5 0 0 0 -5.458-4.85h-10.724a.235.235 0 0 0 .056-.118v-11.209h45.957a6.741 6.741 0 0 0 6.733-6.732v-66.564a5.433 5.433 0 0 0 -5.426-5.427zm-33.1 95.55v1.271a3.5 3.5 0 0 1 -3.5 3.5h-22.953a3.5 3.5 0 0 1 -3.5-3.5v-1.271a3.5 3.5 0 0 1 3.5-3.5h22.957a3.5 3.5 0 0 1 3.5 3.5zm36.526-23.559a4.738 4.738 0 0 1 -4.733 4.732h-93.535a4.738 4.738 0 0 1 -4.732-4.732v-55.264a4.743 4.743 0 0 1 4.738-4.738h17.3a4.744 4.744 0 0 1 4.738 4.738v2.518a4.717 4.717 0 0 0 4.706 4.716h66.785a4.738 4.738 0 0 1 4.733 4.733z"/><path d="m46.279 48.223h-12.217a2.177 2.177 0 0 0 -1.583.557 2.079 2.079 0 0 0 -.575 1.566v20.36a2.247 2.247 0 0 0 .61 1.636 2.15 2.15 0 0 0 1.618.627 2.1 2.1 0 0 0 1.6-.627 2.286 2.286 0 0 0 .592-1.636v-8.631h9.258q2.121 0 2.123-1.775 0-1.809-2.123-1.81h-9.257v-6.682h9.954q2.122 0 2.122-1.775-.001-1.809-2.122-1.81z"/><path d="m69.764 48.223h-17.159q-2.088 0-2.088 1.845t2.088 1.844h6.334v18.794a2.188 2.188 0 0 0 .61 1.619 2.232 2.232 0 0 0 1.653.609 2.095 2.095 0 0 0 2.227-2.228v-18.794h6.335q2.088 0 2.088-1.844t-2.088-1.845z"/><path d="m86.358 48.223h-8.558a2.181 2.181 0 0 0 -1.584.557 2.083 2.083 0 0 0 -.574 1.566v20.36a2.23 2.23 0 0 0 .609 1.653 2.188 2.188 0 0 0 1.619.61 2.1 2.1 0 0 0 2.262-2.263v-7.483h6.23a8.8 8.8 0 0 0 6.125-1.983 7.084 7.084 0 0 0 2.193-5.534 7.024 7.024 0 0 0 -2.193-5.516 8.851 8.851 0 0 0 -6.129-1.967zm-.558 11.555h-5.672v-8.078h5.672q4.629 0 4.629 4.037t-4.629 4.041z"/></g></svg>