<svg height="512" viewBox="0 0 128 128" width="512" xmlns="http://www.w3.org/2000/svg"><path d="m114.251 12.709h-50.836a9.01 9.01 0 0 0 -9 9v28.746h-36.666a9.01 9.01 0 0 0 -9 9v50.836a9.01 9.01 0 0 0 9 9h50.836a9.01 9.01 0 0 0 9-9v-28.746h36.666a9.01 9.01 0 0 0 9-9v-50.836a9.01 9.01 0 0 0 -9-9z" fill="#e6e7e8"/><path d="m110.251 9.709h-50.835a8 8 0 0 0 -8 8v29.746h13.169a8 8 0 0 1 8 8v21.09h37.666a8 8 0 0 0 8-8v-50.836a8 8 0 0 0 -8-8z" fill="#0089ef"/><path d="m110.251 9.709h-50.835a8 8 0 0 0 -8 8v3a8 8 0 0 1 8-8h50.835a8 8 0 0 1 8 8v-3a8 8 0 0 0 -8-8z" fill="#fff"/><path d="m106.008 39.121-2.384-2.384-18.791-18.791-18.79 18.791-2.384 2.384a13.223 13.223 0 0 0 -3.841 8.334h4.767a8 8 0 0 1 8 8v6.326a13.234 13.234 0 0 0 9.865-3.87l.245-.245c-2.917 5.116-6.332 9.066-8.81 10.642h21.9c-2.478-1.576-5.894-5.526-8.81-10.642l.245.245a13.287 13.287 0 0 0 18.791-18.79z" fill="#ffd7e5"/><rect fill="#6dc9f7" height="66.836" rx="8" width="66.836" x="5.749" y="47.455"/><path d="m50.836 73.768c-.031 0-.06 0-.091 0a12.673 12.673 0 1 0 -23.157 0c-.03 0-.06 0-.09 0a12.673 12.673 0 1 0 10.181 20.2c-3.047 5.685-6.8 10.125-9.461 11.819h21.9c-2.665-1.694-6.414-6.134-9.46-11.819a12.667 12.667 0 1 0 10.181-20.2z" fill="#fa759e"/><g fill="#3a2c60"><path d="m110.251 8.709h-50.835a9.01 9.01 0 0 0 -9 9v28.746h-7.541a1 1 0 0 0 0 2h21.71a7.009 7.009 0 0 1 7 7v50.835a7.009 7.009 0 0 1 -7 7h-50.836a7.009 7.009 0 0 1 -7-7v-50.835a7.009 7.009 0 0 1 7-7h10.5a1 1 0 0 0 0-2h-10.5a9.01 9.01 0 0 0 -9 9v50.835a9.01 9.01 0 0 0 9 9h50.836a9.01 9.01 0 0 0 9-9v-28.745h36.666a9.01 9.01 0 0 0 9-9v-50.836a9.01 9.01 0 0 0 -9-9zm-45.666 37.746h-3.632a12.2 12.2 0 0 1 3.413-6.627l20.467-20.468 20.467 20.468a12.287 12.287 0 1 1 -17.376 17.372l-.245-.245a1 1 0 0 0 -1.577 1.2 41.516 41.516 0 0 0 6.854 9.147h-16.245a41.506 41.506 0 0 0 6.852-9.147 1 1 0 0 0 -1.578-1.2l-.242.244a12.194 12.194 0 0 1 -8.158 3.574v-5.318a9.01 9.01 0 0 0 -9-9zm9 16.32a14.2 14.2 0 0 0 5.463-1.282 25.054 25.054 0 0 1 -5.463 5.807zm43.666 5.77a7.009 7.009 0 0 1 -7 7h-36.666v-6.287a.968.968 0 0 0 .3.05h21.9a1 1 0 0 0 .536-1.844 24.149 24.149 0 0 1 -5.708-5.982 14.288 14.288 0 0 0 16.105-23.068l-21.178-21.175a1.029 1.029 0 0 0 -1.414 0l-21.174 21.175a14.147 14.147 0 0 0 -4.015 8.041h-6.521v-28.746a7.009 7.009 0 0 1 7-7h50.835a7.009 7.009 0 0 1 7 7z"/><path d="m28.75 48.455h9.625a1 1 0 0 0 0-2h-9.625a1 1 0 0 0 0 2z"/><path d="m13.825 86.441a13.686 13.686 0 0 0 19.756 12.252 24.88 24.88 0 0 1 -5.9 6.247 1 1 0 0 0 .536 1.843h21.9a1 1 0 0 0 .536-1.843 24.88 24.88 0 0 1 -5.9-6.247 13.676 13.676 0 1 0 7.423-25.86 13.536 13.536 0 0 0 .664-4.2 13.673 13.673 0 1 0 -26.683 4.2 13.693 13.693 0 0 0 -12.332 13.608zm25.342-29.479a11.659 11.659 0 0 1 10.664 16.4 1.027 1.027 0 0 0 1.021 1.4 11.673 11.673 0 1 1 -9.394 18.6 1 1 0 0 0 -1.686 1.068 43.1 43.1 0 0 0 7.518 10.346h-16.247a43.065 43.065 0 0 0 7.517-10.339 1 1 0 0 0 -1.685-1.068 11.568 11.568 0 0 1 -9.375 4.744 11.671 11.671 0 1 1 .05-23.341h.008a.941.941 0 0 0 .861-.441 1 1 0 0 0 .085-.965 11.661 11.661 0 0 1 10.665-16.4z"/></g></svg>