<?xml version="1.0"?>
<svg xmlns="http://www.w3.org/2000/svg" viewBox="0 0 128 128" width="512" height="512"><rect x="10" y="17" width="112" height="98" rx="5" ry="5" fill="#e6e7e8"/><rect x="7" y="14" width="110" height="96" rx="4" ry="4" fill="#d4fbff"/><path d="M89.339,71.868V66.132a1.6,1.6,0,0,0-1.6-1.6H83.881a22.183,22.183,0,0,0-3.254-7.845l2.733-2.734a1.6,1.6,0,0,0,0-2.259L79.3,47.64a1.6,1.6,0,0,0-2.259,0l-2.734,2.734a22.167,22.167,0,0,0-7.845-3.255V43.258a1.6,1.6,0,0,0-1.6-1.6H59.132a1.6,1.6,0,0,0-1.6,1.6v3.861a22.167,22.167,0,0,0-7.845,3.255L46.956,47.64a1.6,1.6,0,0,0-2.26,0L40.64,51.7a1.6,1.6,0,0,0,0,2.259l2.733,2.734a22.183,22.183,0,0,0-3.254,7.845H36.258a1.6,1.6,0,0,0-1.6,1.6v5.736a1.6,1.6,0,0,0,1.6,1.6h3.861a22.191,22.191,0,0,0,3.254,7.845L40.64,84.044a1.6,1.6,0,0,0,0,2.26L44.7,90.36a1.6,1.6,0,0,0,2.26,0l2.733-2.733a22.183,22.183,0,0,0,7.845,3.254v3.861a1.6,1.6,0,0,0,1.6,1.6h5.736a1.6,1.6,0,0,0,1.6-1.6V90.881a22.183,22.183,0,0,0,7.845-3.254l2.734,2.733a1.6,1.6,0,0,0,2.259,0L83.36,86.3a1.6,1.6,0,0,0,0-2.26l-2.733-2.733a22.191,22.191,0,0,0,3.254-7.845h3.861A1.6,1.6,0,0,0,89.339,71.868ZM62,82.071A13.071,13.071,0,1,1,75.071,69,13.071,13.071,0,0,1,62,82.071Z" fill="#fa759e"/><path d="M113,14H11a4,4,0,0,0-4,4V28.5H117V18A4,4,0,0,0,113,14Z" fill="#0089ef"/><path d="M10,106V18a4,4,0,0,1,4-4H11a4,4,0,0,0-4,4v88a4,4,0,0,0,4,4h3A4,4,0,0,1,10,106Z" fill="#fff"/><path d="M95.667,19.083A2.334,2.334,0,1,0,98,21.417,2.334,2.334,0,0,0,95.667,19.083Z" fill="#fff"/><path d="M102.667,19.083A2.334,2.334,0,1,0,105,21.417,2.333,2.333,0,0,0,102.667,19.083Z" fill="#d4fbff"/><path d="M109.667,19.083A2.334,2.334,0,1,0,112,21.417,2.333,2.333,0,0,0,109.667,19.083Z" fill="#fa759e"/><path d="M31.216,86.569a2.474,2.474,0,0,1,0,3.411,2.527,2.527,0,0,1-1.705.585H25.855a5.851,5.851,0,0,1-4.362-1.559,5.92,5.92,0,0,1-1.535-4.338V75.214a4.637,4.637,0,0,0-.682-2.827,3.288,3.288,0,0,0-2.437-1.023A2.254,2.254,0,0,1,14.5,68.975a2.29,2.29,0,0,1,.609-1.656,2.443,2.443,0,0,1,1.73-.682,3.292,3.292,0,0,0,2.437-1.024,4.635,4.635,0,0,0,.682-2.827V53.332A5.918,5.918,0,0,1,21.493,49a5.847,5.847,0,0,1,4.362-1.56h3.656a2.527,2.527,0,0,1,1.705.585,2.474,2.474,0,0,1,0,3.411,2.527,2.527,0,0,1-1.705.585h-1.56a2.086,2.086,0,0,0-1.535.512A2.23,2.23,0,0,0,25.9,54.16v9.357a5.854,5.854,0,0,1-1.145,3.68,4.653,4.653,0,0,1-2.705,1.828,4.683,4.683,0,0,1,2.705,1.8A5.747,5.747,0,0,1,25.9,74.483V83.84a2.234,2.234,0,0,0,.512,1.633,2.085,2.085,0,0,0,1.535.511h1.56A2.527,2.527,0,0,1,31.216,86.569Z" fill="#fa759e"/><path d="M108.89,67.319a2.291,2.291,0,0,1,.61,1.656,2.435,2.435,0,0,1-.585,1.682,2.364,2.364,0,0,1-1.755.707,3.29,3.29,0,0,0-2.437,1.023,4.637,4.637,0,0,0-.681,2.827v9.454a5.921,5.921,0,0,1-1.536,4.338,5.848,5.848,0,0,1-4.361,1.559H94.489a2.53,2.53,0,0,1-1.706-.585,2.474,2.474,0,0,1,0-3.411,2.53,2.53,0,0,1,1.706-.585h1.56a2.085,2.085,0,0,0,1.535-.511A2.234,2.234,0,0,0,98.1,83.84V74.483a5.742,5.742,0,0,1,1.146-3.655,4.675,4.675,0,0,1,2.7-1.8,4.645,4.645,0,0,1-2.7-1.828,5.848,5.848,0,0,1-1.146-3.68V54.16a2.23,2.23,0,0,0-.511-1.632,2.086,2.086,0,0,0-1.535-.512h-1.56a2.53,2.53,0,0,1-1.706-.585,2.474,2.474,0,0,1,0-3.411,2.53,2.53,0,0,1,1.706-.585h3.656A5.845,5.845,0,0,1,102.506,49a5.918,5.918,0,0,1,1.536,4.337v9.454a4.635,4.635,0,0,0,.681,2.827,3.294,3.294,0,0,0,2.437,1.024A2.443,2.443,0,0,1,108.89,67.319Z" fill="#fa759e"/><path d="M87.742,63.534H84.685a23.061,23.061,0,0,0-2.784-6.7l2.166-2.166a2.6,2.6,0,0,0,0-3.674l-4.056-4.056a2.66,2.66,0,0,0-3.673,0L74.172,49.1a23.064,23.064,0,0,0-6.706-2.783V43.258a2.6,2.6,0,0,0-2.6-2.6H59.132a2.6,2.6,0,0,0-2.6,2.6v3.058a23.047,23.047,0,0,0-6.7,2.783l-2.166-2.166a2.661,2.661,0,0,0-3.674,0L39.932,50.99a2.6,2.6,0,0,0,0,3.673L42.1,56.829a23.031,23.031,0,0,0-2.783,6.7H36.258a2.6,2.6,0,0,0-2.6,2.6v5.736a2.6,2.6,0,0,0,2.6,2.6h3.058A23.054,23.054,0,0,0,42.1,81.171l-2.167,2.167a2.6,2.6,0,0,0,0,3.673l4.056,4.056a2.661,2.661,0,0,0,3.674,0L49.829,88.9a23.047,23.047,0,0,0,6.7,2.783v3.058a2.6,2.6,0,0,0,2.6,2.6h5.736a2.6,2.6,0,0,0,2.6-2.6V91.684A23.064,23.064,0,0,0,74.172,88.9l2.165,2.165a2.659,2.659,0,0,0,3.674,0l4.056-4.056a2.6,2.6,0,0,0,0-3.674L81.9,81.171a23.073,23.073,0,0,0,2.784-6.705h3.057a2.6,2.6,0,0,0,2.6-2.6V66.132A2.6,2.6,0,0,0,87.742,63.534Zm.6,8.334a.6.6,0,0,1-.6.6h-3.86a1,1,0,0,0-.981.8,21.135,21.135,0,0,1-3.108,7.492,1,1,0,0,0,.127,1.259l2.733,2.733a.6.6,0,0,1,0,.846L78.6,89.653a.611.611,0,0,1-.845,0l-2.733-2.734a1,1,0,0,0-1.259-.126A21.121,21.121,0,0,1,66.267,89.9a1,1,0,0,0-.8.98v3.861a.6.6,0,0,1-.6.6H59.132a.6.6,0,0,1-.6-.6V90.881a1,1,0,0,0-.8-.98,21.089,21.089,0,0,1-7.491-3.108,1,1,0,0,0-1.26.126l-2.733,2.734a.6.6,0,0,1-.846,0L41.348,85.6a.6.6,0,0,1,0-.846l2.733-2.733a1,1,0,0,0,.127-1.259A21.086,21.086,0,0,1,41.1,73.267a1,1,0,0,0-.981-.8H36.258a.6.6,0,0,1-.6-.6V66.132a.6.6,0,0,1,.6-.6h3.861a1,1,0,0,0,.981-.8,21.1,21.1,0,0,1,3.108-7.492,1,1,0,0,0-.127-1.259l-2.733-2.733a.6.6,0,0,1,0-.846L45.4,48.347a.6.6,0,0,1,.846,0l2.733,2.734a1,1,0,0,0,1.26.126A21.089,21.089,0,0,1,57.733,48.1a1,1,0,0,0,.8-.98V43.258a.6.6,0,0,1,.6-.6h5.736a.6.6,0,0,1,.6.6v3.861a1,1,0,0,0,.8.98,21.121,21.121,0,0,1,7.493,3.108,1,1,0,0,0,1.259-.126l2.734-2.734a.612.612,0,0,1,.844,0L82.653,52.4a.6.6,0,0,1,0,.845L79.92,55.982a1,1,0,0,0-.127,1.259A21.135,21.135,0,0,1,82.9,64.733a1,1,0,0,0,.981.8h3.86a.6.6,0,0,1,.6.6Z" fill="#3a2c60"/><path d="M62,54.93A14.071,14.071,0,1,0,76.07,69,14.086,14.086,0,0,0,62,54.93Zm0,26.141A12.071,12.071,0,1,1,74.07,69,12.084,12.084,0,0,1,62,81.071Z" fill="#3a2c60"/><path d="M27.5,29.5h8.75a1,1,0,0,0,0-2H27.5a1,1,0,0,0,0,2Z" fill="#3a2c60"/><path d="M113,13H11a5.006,5.006,0,0,0-5,5v88a5.006,5.006,0,0,0,5,5H113a5.006,5.006,0,0,0,5-5V18A5.006,5.006,0,0,0,113,13Zm0,96H11a3,3,0,0,1-3-3V29.5H22.667a1,1,0,0,0,0-2H8V18a3,3,0,0,1,3-3H113a3,3,0,0,1,3,3v9.5H41.267a1,1,0,1,0,0,2H116V106A3,3,0,0,1,113,109Z" fill="#3a2c60"/><path d="M25.551,67.807a6.85,6.85,0,0,0,1.353-4.29V54.161a1.427,1.427,0,0,1,.219-.926,1.259,1.259,0,0,1,.828-.219h1.56a3.512,3.512,0,0,0,2.355-.825,3.461,3.461,0,0,0,0-4.931,3.507,3.507,0,0,0-2.355-.825H25.855a6.828,6.828,0,0,0-5.075,1.859,6.9,6.9,0,0,0-1.822,5.038v9.454A3.659,3.659,0,0,1,18.487,65a2.539,2.539,0,0,1-1.691.639,3.414,3.414,0,0,0-2.407.988,3.267,3.267,0,0,0-.889,2.35,3.358,3.358,0,0,0,.876,2.361,3.32,3.32,0,0,0,2.381,1.023A2.573,2.573,0,0,1,18.486,73a3.641,3.641,0,0,1,.472,2.213v9.454a6.906,6.906,0,0,0,1.823,5.04,6.833,6.833,0,0,0,5.074,1.857h3.656a3.507,3.507,0,0,0,2.355-.825,3.461,3.461,0,0,0,0-4.931,3.512,3.512,0,0,0-2.355-.825h-1.56a1.259,1.259,0,0,1-.828-.219,1.427,1.427,0,0,1-.219-.925V74.483a6.752,6.752,0,0,0-1.358-4.272,6.615,6.615,0,0,0-1.192-1.191A6.591,6.591,0,0,0,25.551,67.807Zm-.647-4.29a4.838,4.838,0,0,1-.937,3.069,3.646,3.646,0,0,1-2.126,1.461,1,1,0,0,0,0,1.954,3.69,3.69,0,0,1,2.132,1.443,4.745,4.745,0,0,1,.932,3.039V83.84a3.181,3.181,0,0,0,.8,2.339,3.044,3.044,0,0,0,2.243.8h1.56a1.529,1.529,0,0,1,1.054.345,1.51,1.51,0,0,1,0,1.892,1.529,1.529,0,0,1-1.054.344H25.855a4.866,4.866,0,0,1-3.649-1.26,4.93,4.93,0,0,1-1.248-3.637V75.214a5.5,5.5,0,0,0-.893-3.441,4.262,4.262,0,0,0-3.183-1.408,1.432,1.432,0,0,1-1.039-.387,1.387,1.387,0,0,1-.343-1,1.267,1.267,0,0,1,.33-.963,1.535,1.535,0,0,1,1.093-.38,4.233,4.233,0,0,0,3.143-1.406,5.508,5.508,0,0,0,.892-3.441V53.332A4.931,4.931,0,0,1,22.205,49.7a4.867,4.867,0,0,1,3.65-1.261h3.656a1.529,1.529,0,0,1,1.054.344,1.512,1.512,0,0,1,0,1.893,1.529,1.529,0,0,1-1.054.344h-1.56a3.048,3.048,0,0,0-2.242.8,3.182,3.182,0,0,0-.8,2.341Z" fill="#3a2c60"/><path d="M109.61,66.624a3.392,3.392,0,0,0-2.367-.984,2.576,2.576,0,0,1-1.73-.64,3.653,3.653,0,0,1-.471-2.214V53.332a6.9,6.9,0,0,0-1.823-5.039,6.824,6.824,0,0,0-5.075-1.858H94.489a3.508,3.508,0,0,0-2.356.825,3.462,3.462,0,0,0,0,4.93,3.507,3.507,0,0,0,2.356.826h1.56a1.259,1.259,0,0,1,.828.219,1.427,1.427,0,0,1,.219.926v9.356a6.844,6.844,0,0,0,1.352,4.29,6.591,6.591,0,0,0,1.2,1.213,6.637,6.637,0,0,0-1.191,1.19A6.743,6.743,0,0,0,97.1,74.483V83.84a1.426,1.426,0,0,1-.22.926,1.26,1.26,0,0,1-.827.218h-1.56a3.513,3.513,0,0,0-2.356.825,3.463,3.463,0,0,0,0,4.931,3.508,3.508,0,0,0,2.356.825h3.655a6.824,6.824,0,0,0,5.075-1.858,6.9,6.9,0,0,0,1.823-5.039V75.214a3.659,3.659,0,0,1,.47-2.213,2.53,2.53,0,0,1,1.689-.638,3.323,3.323,0,0,0,2.461-1.042,3.414,3.414,0,0,0,.838-2.345,3.271,3.271,0,0,0-.888-2.349Zm-1.442,3.369a1.5,1.5,0,0,1-1.091.374,4.234,4.234,0,0,0-3.144,1.406,5.5,5.5,0,0,0-.891,3.441v9.454a4.924,4.924,0,0,1-1.249,3.637,4.858,4.858,0,0,1-3.649,1.26H94.489a1.553,1.553,0,0,1-1.055-.344,1.514,1.514,0,0,1,0-1.892,1.549,1.549,0,0,1,1.055-.345h1.56a3.044,3.044,0,0,0,2.242-.8,3.182,3.182,0,0,0,.805-2.34V74.483a4.733,4.733,0,0,1,.932-3.039A3.685,3.685,0,0,1,102.159,70a1,1,0,0,0,0-1.954,3.642,3.642,0,0,1-2.126-1.462,4.831,4.831,0,0,1-.936-3.068V54.161a3.182,3.182,0,0,0-.805-2.341,3.048,3.048,0,0,0-2.242-.8h-1.56a1.55,1.55,0,0,1-1.055-.345,1.514,1.514,0,0,1,0-1.892,1.553,1.553,0,0,1,1.055-.344h3.655a4.858,4.858,0,0,1,3.649,1.261,4.924,4.924,0,0,1,1.249,3.636v9.454a5.5,5.5,0,0,0,.892,3.442,4.268,4.268,0,0,0,3.182,1.408,1.492,1.492,0,0,1,1.053.376,1.277,1.277,0,0,1,.331.964A1.463,1.463,0,0,1,108.168,69.993Z" fill="#3a2c60"/></svg>
