<svg height="512" viewBox="0 0 128 128" width="512" xmlns="http://www.w3.org/2000/svg"><path d="m66 22.49a33.3 33.3 0 0 0 -33.261 33.261 38.221 38.221 0 0 0 12.176 27.321 37.935 37.935 0 0 1 9.315 13.879 3.75 3.75 0 0 0 -1 6.21 3.733 3.733 0 0 0 0 5.548 3.754 3.754 0 0 0 2.432 6.537v.3a6.006 6.006 0 0 0 5.9 6 4.547 4.547 0 0 0 8.878 0 6.006 6.006 0 0 0 5.9-6v-.3a3.754 3.754 0 0 0 2.432-6.537 3.731 3.731 0 0 0 0-5.548 3.749 3.749 0 0 0 -1-6.21 37.933 37.933 0 0 1 9.314-13.879 38.221 38.221 0 0 0 12.175-27.321 33.3 33.3 0 0 0 -33.261-33.261z" fill="#e6e7e8"/><path d="m115.917 56.813h-9.217a1 1 0 0 0 0 2h9.221a1 1 0 0 0 0-2z" fill="#e6e7e8"/><path d="m25.3 56.813h-9.22a1 1 0 0 0 0 2h9.22a1 1 0 1 0 0-2z" fill="#e6e7e8"/><path d="m100.589 21.81-6.519 6.52a1 1 0 1 0 1.414 1.414l6.516-6.52a1 1 0 0 0 -1.414-1.414z" fill="#e6e7e8"/><path d="m36.516 85.883-6.516 6.517a1 1 0 1 0 1.414 1.414l6.516-6.514a1 1 0 0 0 -1.414-1.414z" fill="#e6e7e8"/><path d="m66 18.117a1 1 0 0 0 1-1v-9.217a1 1 0 0 0 -2 0v9.22a1 1 0 0 0 1 .997z" fill="#e6e7e8"/><path d="m95.484 85.883a1 1 0 0 0 -1.414 1.417l6.519 6.519a1 1 0 0 0 1.411-1.419z" fill="#e6e7e8"/><path d="m36.516 29.744a1 1 0 0 0 1.414-1.414l-6.519-6.52a1 1 0 0 0 -1.411 1.414z" fill="#e6e7e8"/><path d="m62 120.1a3.556 3.556 0 0 0 3.556-3.556h-7.112a3.556 3.556 0 0 0 3.556 3.556z" fill="#6dc9f7"/><path d="m62 19.49a32.261 32.261 0 0 0 -32.261 32.261 36.992 36.992 0 0 0 11.861 26.59 38.818 38.818 0 0 1 9.973 15.292c.068 0 .132-.02.2-.02h20.455c.069 0 .133.015.2.02a38.818 38.818 0 0 1 9.972-15.292 36.992 36.992 0 0 0 11.859-26.59 32.261 32.261 0 0 0 -32.259-32.261z" fill="#d4fbff"/><path d="m84.5 56.288v-4.721a1.315 1.315 0 0 0 -1.315-1.315h-3.177a18.256 18.256 0 0 0 -2.679-6.452l2.25-2.249a1.315 1.315 0 0 0 0-1.86l-3.338-3.338a1.316 1.316 0 0 0 -1.86 0l-2.249 2.247a18.256 18.256 0 0 0 -6.457-2.679v-3.179a1.314 1.314 0 0 0 -1.314-1.315h-4.722a1.314 1.314 0 0 0 -1.314 1.315v3.177a18.256 18.256 0 0 0 -6.457 2.681l-2.249-2.25a1.316 1.316 0 0 0 -1.86 0l-3.338 3.338a1.316 1.316 0 0 0 0 1.86l2.25 2.249a18.256 18.256 0 0 0 -2.679 6.457h-3.177a1.315 1.315 0 0 0 -1.315 1.313v4.721a1.314 1.314 0 0 0 1.315 1.312h3.177a18.256 18.256 0 0 0 2.679 6.457l-2.25 2.25a1.315 1.315 0 0 0 0 1.859l3.338 3.338a1.315 1.315 0 0 0 1.86 0l2.249-2.249a18.273 18.273 0 0 0 6.457 2.678v3.177a1.314 1.314 0 0 0 1.314 1.315h4.722a1.314 1.314 0 0 0 1.314-1.315v-3.175a18.273 18.273 0 0 0 6.457-2.678l2.249 2.249a1.315 1.315 0 0 0 1.86 0l3.338-3.338a1.313 1.313 0 0 0 0-1.859l-2.25-2.25a18.256 18.256 0 0 0 2.679-6.459h3.177a1.314 1.314 0 0 0 1.315-1.312zm-22.5 8.396a10.757 10.757 0 1 1 10.757-10.757 10.757 10.757 0 0 1 -10.757 10.757z" fill="#fa759e"/><path d="m62 22.49a32.262 32.262 0 0 1 32.221 30.673c.02-.47.04-.94.04-1.412a32.261 32.261 0 0 0 -64.522 0c0 .472.02.942.04 1.412a32.262 32.262 0 0 1 32.221-30.673z" fill="#fff"/><path d="m52.666 110.257v1.29a5 5 0 0 0 5 5h8.668a5 5 0 0 0 5-5v-1.29z" fill="#0089ef"/><rect fill="#6dc9f7" height="5.548" rx="2.774" width="26.003" x="48.998" y="93.613"/><rect fill="#6dc9f7" height="5.548" rx="2.774" width="26.003" x="48.998" y="99.161"/><rect fill="#6dc9f7" height="5.548" rx="2.774" width="26.003" x="48.998" y="104.709"/><g fill="#3a2c60"><path d="m83.185 49.252h-2.377a19.176 19.176 0 0 0 -2.208-5.315l1.684-1.684a2.315 2.315 0 0 0 0-3.274l-3.338-3.337a2.369 2.369 0 0 0 -3.274 0l-1.682 1.683a19.163 19.163 0 0 0 -5.315-2.206v-2.377a2.317 2.317 0 0 0 -2.314-2.315h-4.721a2.318 2.318 0 0 0 -2.315 2.315v2.377a19.163 19.163 0 0 0 -5.315 2.206l-1.684-1.683a2.369 2.369 0 0 0 -3.274 0l-3.338 3.338a2.317 2.317 0 0 0 0 3.274l1.686 1.683a19.158 19.158 0 0 0 -2.206 5.315h-2.379a2.317 2.317 0 0 0 -2.315 2.314v4.722a2.318 2.318 0 0 0 2.315 2.312h2.377a19.164 19.164 0 0 0 2.208 5.317l-1.687 1.683a2.319 2.319 0 0 0 0 3.273l3.339 3.339a2.317 2.317 0 0 0 3.273 0l1.684-1.684a19.158 19.158 0 0 0 5.315 2.206v2.377a2.317 2.317 0 0 0 2.315 2.315h4.721a2.317 2.317 0 0 0 2.314-2.315v-2.376a19.158 19.158 0 0 0 5.315-2.206l1.685 1.685a2.317 2.317 0 0 0 3.273 0l3.338-3.338a2.316 2.316 0 0 0 0-3.273l-1.685-1.686a19.169 19.169 0 0 0 2.208-5.317h2.377a2.318 2.318 0 0 0 2.315-2.312v-4.722a2.317 2.317 0 0 0 -2.315-2.314zm.315 7.036a.316.316 0 0 1 -.315.315h-3.177a1 1 0 0 0 -.98.8 17.211 17.211 0 0 1 -2.532 6.1 1 1 0 0 0 .127 1.259l2.249 2.25a.315.315 0 0 1 0 .445l-3.338 3.343a.317.317 0 0 1 -.446 0l-2.249-2.25a1 1 0 0 0 -1.259-.127 17.217 17.217 0 0 1 -6.1 2.533 1 1 0 0 0 -.8.98v3.176a.315.315 0 0 1 -.314.315h-4.726a.315.315 0 0 1 -.315-.315v-3.176a1 1 0 0 0 -.8-.98 17.228 17.228 0 0 1 -6.1-2.533 1 1 0 0 0 -1.259.127l-2.254 2.25a.317.317 0 0 1 -.446 0l-3.338-3.338a.314.314 0 0 1 0-.445l2.249-2.25a1 1 0 0 0 .127-1.259 17.229 17.229 0 0 1 -2.532-6.1 1 1 0 0 0 -.98-.8h-3.177a.316.316 0 0 1 -.315-.315v-4.727a.315.315 0 0 1 .315-.314h3.177a1 1 0 0 0 .98-.8 17.214 17.214 0 0 1 2.532-6.1 1 1 0 0 0 -.126-1.26l-2.25-2.249a.314.314 0 0 1 0-.445l3.338-3.339a.268.268 0 0 1 .446 0l2.249 2.25a1 1 0 0 0 1.259.126 17.211 17.211 0 0 1 6.1-2.532 1 1 0 0 0 .8-.98v-3.181a.315.315 0 0 1 .315-.315h4.721a.315.315 0 0 1 .314.315v3.177a1 1 0 0 0 .8.98 17.218 17.218 0 0 1 6.1 2.532 1 1 0 0 0 1.259-.126l2.249-2.25a.268.268 0 0 1 .446 0l3.339 3.339a.311.311 0 0 1 .091.222.316.316 0 0 1 -.092.223l-2.249 2.249a1 1 0 0 0 -.127 1.26 17.2 17.2 0 0 1 2.532 6.1 1 1 0 0 0 .98.8h3.177a.315.315 0 0 1 .315.314z"/><path d="m62 42.17a11.757 11.757 0 1 0 11.757 11.757 11.77 11.77 0 0 0 -11.757-11.757zm0 21.514a9.757 9.757 0 1 1 9.757-9.757 9.768 9.768 0 0 1 -9.757 9.757z"/><path d="m62 18.49a33.3 33.3 0 0 0 -33.261 33.261 38.221 38.221 0 0 0 12.176 27.321 37.935 37.935 0 0 1 9.315 13.879 3.748 3.748 0 0 0 -.995 6.21 3.729 3.729 0 0 0 0 5.548 3.734 3.734 0 0 0 -1.235 2.774 3.772 3.772 0 0 0 3.668 3.763v.3a6 6 0 0 0 5.9 6 4.547 4.547 0 0 0 8.878 0 6 6 0 0 0 5.9-6v-.3a3.772 3.772 0 0 0 3.654-3.763 3.733 3.733 0 0 0 -1.236-2.774 3.731 3.731 0 0 0 0-5.548 3.749 3.749 0 0 0 -.994-6.21 37.933 37.933 0 0 1 9.314-13.879 38.22 38.22 0 0 0 12.177-27.321 33.3 33.3 0 0 0 -33.261-33.261zm0 100.61a2.56 2.56 0 0 1 -2.352-1.555h4.7a2.56 2.56 0 0 1 -2.348 1.555zm8.334-7.556a4 4 0 0 1 -4 4h-8.668a4 4 0 0 1 -4-4v-.29h16.668zm3.666-4.061a1.776 1.776 0 0 1 -1.774 1.774h-20.454a1.775 1.775 0 0 1 0-3.549h20.455a1.776 1.776 0 0 1 1.773 1.775zm0-5.548a1.775 1.775 0 0 1 -1.774 1.773h-20.454a1.774 1.774 0 1 1 0-3.547h20.455a1.776 1.776 0 0 1 1.773 1.774zm7.718-24.324a39.984 39.984 0 0 0 -9.963 15h-3.8a1 1 0 0 0 0 2h4.269a1.774 1.774 0 0 1 0 3.548h-20.452a1.774 1.774 0 1 1 0-3.548h4.6a1 1 0 0 0 0-2h-4.128a39.98 39.98 0 0 0 -9.963-15 36.189 36.189 0 0 1 -11.542-25.86 31.261 31.261 0 0 1 62.522 0 36.187 36.187 0 0 1 -11.542 25.86z"/><path d="m64.25 92.613h-4.125a1 1 0 0 0 0 2h4.125a1 1 0 0 0 0-2z"/><path d="m111.916 52.813h-9.216a1 1 0 0 0 0 2h9.22a1 1 0 0 0 0-2z"/><path d="m21.3 52.813h-9.217a1 1 0 1 0 0 2h9.217a1 1 0 1 0 0-2z"/><path d="m96.589 17.81-6.519 6.52a1 1 0 1 0 1.414 1.414l6.516-6.52a1 1 0 0 0 -1.414-1.414z"/><path d="m32.516 81.883-6.516 6.517a1 1 0 1 0 1.414 1.414l6.516-6.514a1 1 0 0 0 -1.414-1.414z"/><path d="m62 14.117a1 1 0 0 0 1-1v-9.217a1 1 0 0 0 -2 0v9.221a1 1 0 0 0 1 .996z"/><path d="m91.484 81.883a1 1 0 0 0 -1.414 1.417l6.519 6.519a1 1 0 0 0 1.411-1.419z"/><path d="m32.516 25.744a1 1 0 0 0 1.414-1.414l-6.519-6.52a1 1 0 0 0 -1.411 1.414z"/></g></svg>