<svg height="512" viewBox="0 0 128 128" width="512" xmlns="http://www.w3.org/2000/svg"><path d="m68.276 22.577c-.483-.639-.978-1.28-1.5-1.926a1.036 1.036 0 0 0 -1.56 0c-.519.646-1.015 1.287-1.5 1.926a33.3 33.3 0 0 0 -30.977 33.174 38.221 38.221 0 0 0 12.176 27.321 37.948 37.948 0 0 1 9.315 13.878 3.751 3.751 0 0 0 -1 6.211 3.733 3.733 0 0 0 0 5.548 3.754 3.754 0 0 0 2.432 6.537v.3a6 6 0 0 0 5.9 5.994 4.547 4.547 0 0 0 8.878 0 6 6 0 0 0 5.9-5.994v-.3a3.754 3.754 0 0 0 2.432-6.537 3.731 3.731 0 0 0 0-5.548 3.75 3.75 0 0 0 -1-6.211 37.937 37.937 0 0 1 9.314-13.878 38.221 38.221 0 0 0 12.175-27.321 33.3 33.3 0 0 0 -30.985-33.174z" fill="#e6e7e8"/><path d="m115.917 56.813h-9.217a1 1 0 0 0 0 2h9.221a1 1 0 0 0 0-2z" fill="#e6e7e8"/><path d="m25.3 56.813h-9.22a1 1 0 0 0 0 2h9.22a1 1 0 1 0 0-2z" fill="#e6e7e8"/><path d="m100.589 21.81-6.519 6.519a1 1 0 1 0 1.414 1.414l6.516-6.519a1 1 0 0 0 -1.414-1.414z" fill="#e6e7e8"/><path d="m36.516 85.883-6.516 6.517a1 1 0 1 0 1.414 1.414l6.516-6.514a1 1 0 0 0 -1.414-1.414z" fill="#e6e7e8"/><path d="m66 18.117a1 1 0 0 0 1-1v-9.217a1 1 0 0 0 -2 0v9.22a1 1 0 0 0 1 .997z" fill="#e6e7e8"/><path d="m95.484 85.883a1 1 0 0 0 -1.414 1.417l6.519 6.519a1 1 0 0 0 1.411-1.419z" fill="#e6e7e8"/><path d="m36.516 29.743a1 1 0 1 0 1.414-1.414l-6.519-6.519a1 1 0 0 0 -1.411 1.414z" fill="#e6e7e8"/><path d="m62 120.1a3.556 3.556 0 0 0 3.556-3.556h-7.112a3.556 3.556 0 0 0 3.556 3.556z" fill="#6dc9f7"/><path d="m62 19.49a32.261 32.261 0 0 0 -32.261 32.261 36.992 36.992 0 0 0 11.861 26.59 38.818 38.818 0 0 1 9.973 15.292c.068 0 .132-.02.2-.02h20.455c.069 0 .133.015.2.02a38.818 38.818 0 0 1 9.972-15.292 36.992 36.992 0 0 0 11.859-26.59 32.261 32.261 0 0 0 -32.259-32.261z" fill="#d4fbff"/><path d="m62 22.49a32.262 32.262 0 0 1 32.221 30.673c.02-.47.04-.94.04-1.412a32.261 32.261 0 0 0 -64.522 0c0 .472.02.942.04 1.412a32.262 32.262 0 0 1 32.221-30.673z" fill="#fff"/><path d="m52.666 110.257v1.29a5 5 0 0 0 5 5h8.668a5 5 0 0 0 5-5v-1.29z" fill="#0089ef"/><path d="m72.228 93.613h-20.456a2.774 2.774 0 1 0 0 5.548h20.456a2.774 2.774 0 1 0 0-5.548z" fill="#6dc9f7"/><rect fill="#6dc9f7" height="5.548" rx="2.774" width="26.003" x="48.998" y="99.161"/><rect fill="#6dc9f7" height="5.548" rx="2.774" width="26.003" x="48.998" y="104.709"/><path d="m85.667 65.122s-.888-14.629-10.962-20.4a71.845 71.845 0 0 1 -.488 20.405z" fill="#ffd7e5"/><path d="m49 44.88c-9.8 5.886-10.67 20.242-10.67 20.242h11.025a68.828 68.828 0 0 1 -.355-20.242z" fill="#ffd7e5"/><path d="m62 17.278c-13.275 16.522-15.15 30.55-12.645 47.844h24.862c2.506-17.294 1.058-31.322-12.217-47.844z" fill="#fa759e"/><path d="m49.359 65.122v4.378a4 4 0 0 0 4 4h16.855a4 4 0 0 0 4-4v-4.378z" fill="#ffd7e5"/><circle cx="61.507" cy="45.759" fill="#6dc9f7" r="7.54" transform="matrix(.987 -.16 .16 .987 -6.536 10.443)"/><g fill="#3a2c60"><path d="m64.282 18.585c-.485-.641-.981-1.285-1.5-1.934a1.036 1.036 0 0 0 -1.56 0c-.521.649-1.019 1.293-1.506 1.935a33.292 33.292 0 0 0 -30.977 33.165 38.221 38.221 0 0 0 12.176 27.321 37.931 37.931 0 0 1 9.315 13.879 3.749 3.749 0 0 0 -1 6.21 3.731 3.731 0 0 0 0 5.548 3.754 3.754 0 0 0 2.432 6.537v.3a6 6 0 0 0 5.9 5.994 4.547 4.547 0 0 0 8.878 0 6 6 0 0 0 5.9-5.994v-.3a3.754 3.754 0 0 0 2.432-6.537 3.733 3.733 0 0 0 0-5.548 3.75 3.75 0 0 0 -1-6.21 37.935 37.935 0 0 1 9.315-13.879 38.22 38.22 0 0 0 12.174-27.321 33.293 33.293 0 0 0 -30.979-33.166zm-2.282.3c12.331 15.822 13.573 29.152 11.349 45.237h-23.125c-2.117-15.403-.797-29.109 11.776-45.233zm13.936 27.889c6.494 5 8.222 14.225 8.621 17.348h-9.192a73.924 73.924 0 0 0 .571-17.348zm-27.728 17.348h-8.766c.388-3.065 2.044-12.019 8.263-17.082a71 71 0 0 0 .503 17.082zm2.15 2h22.856v3.378a3 3 0 0 1 -3 3h-16.856a3 3 0 0 1 -3-3zm11.642 52.978a2.558 2.558 0 0 1 -2.352-1.555h4.7a2.558 2.558 0 0 1 -2.348 1.555zm8.334-7.555a4 4 0 0 1 -4 4h-8.668a4 4 0 0 1 -4-4v-.291h16.668zm3.666-4.063a1.776 1.776 0 0 1 -1.774 1.775h-20.454a1.774 1.774 0 1 1 0-3.548h20.455a1.775 1.775 0 0 1 1.773 1.773zm0-5.547a1.776 1.776 0 0 1 -1.774 1.774h-20.454a1.774 1.774 0 1 1 0-3.548h20.455a1.776 1.776 0 0 1 1.773 1.774zm7.718-24.324a39.98 39.98 0 0 0 -9.963 15h-3.8a1 1 0 0 0 0 2h4.269a1.774 1.774 0 0 1 0 3.548h-20.452a1.774 1.774 0 1 1 0-3.548h4.6a1 1 0 0 0 0-2h-4.13a39.97 39.97 0 0 0 -9.964-15 36.189 36.189 0 0 1 -11.542-25.86 31.3 31.3 0 0 1 27.4-31.01c-5.83 8.239-8.848 15.91-10.069 23.553-9.729 6.2-10.694 20.13-10.733 20.768a1 1 0 0 0 1 1.06h10.024v3.378a5.006 5.006 0 0 0 5 5h16.856a5.006 5.006 0 0 0 5-5v-3.378h10.452a1 1 0 0 0 1-1.06c-.039-.645-1.019-14.9-11.066-20.986a53.868 53.868 0 0 0 -9.749-23.336 31.3 31.3 0 0 1 27.41 31.011 36.185 36.185 0 0 1 -11.542 25.86z"/><path d="m64.25 92.613h-4.125a1 1 0 0 0 0 2h4.125a1 1 0 0 0 0-2z"/><path d="m61.507 54.3a8.541 8.541 0 1 0 -8.54-8.541 8.55 8.55 0 0 0 8.54 8.541zm0-15.081a6.541 6.541 0 1 1 -6.54 6.54 6.547 6.547 0 0 1 6.54-6.54z"/><path d="m67 75.833a1 1 0 0 0 -1 1v7a1 1 0 0 0 2 0v-7a1 1 0 0 0 -1-1z"/><path d="m62 88.833a1 1 0 0 0 1-1v-11a1 1 0 0 0 -2 0v11a1 1 0 0 0 1 1z"/><path d="m57 75.833a1 1 0 0 0 -1 1v7a1 1 0 0 0 2 0v-7a1 1 0 0 0 -1-1z"/><path d="m111.916 52.813h-9.216a1 1 0 0 0 0 2h9.22a1 1 0 0 0 0-2z"/><path d="m21.3 52.813h-9.217a1 1 0 1 0 0 2h9.217a1 1 0 1 0 0-2z"/><path d="m96.589 17.81-6.519 6.519a1 1 0 1 0 1.414 1.414l6.516-6.519a1 1 0 0 0 -1.414-1.414z"/><path d="m32.516 81.883-6.516 6.517a1 1 0 1 0 1.414 1.414l6.516-6.514a1 1 0 0 0 -1.414-1.414z"/><path d="m62 14.117a1 1 0 0 0 1-1v-9.217a1 1 0 0 0 -2 0v9.221a1 1 0 0 0 1 .996z"/><path d="m91.484 81.883a1 1 0 0 0 -1.414 1.417l6.519 6.519a1 1 0 0 0 1.411-1.419z"/><path d="m32.516 25.743a1 1 0 1 0 1.414-1.414l-6.519-6.519a1 1 0 0 0 -1.411 1.414z"/></g></svg>