<svg height="512" viewBox="0 0 128 128" width="512" xmlns="http://www.w3.org/2000/svg"><path d="m106.985 40.073-27.446-27.446a1 1 0 0 0 -.707-.293h-51.165a3 3 0 0 0 -3 3v101.333a3 3 0 0 0 3 3h76.666a3 3 0 0 0 3-3v-75.836a1 1 0 0 0 -.348-.758z" fill="#e6e7e8"/><path d="m102.332 36.833-27.5-27.5h-51.165a2 2 0 0 0 -2 2v101.334a2 2 0 0 0 2 2h76.666a2 2 0 0 0 2-2v-75.834z" fill="#d4fbff"/><path d="m21.667 91v21.667a2 2 0 0 0 2 2h76.666a2 2 0 0 0 2-2v-21.667z" fill="#6dc9f7"/><path d="m23.667 12.333h54.165l-3-3h-51.165a2 2 0 0 0 -2 2v3a2 2 0 0 1 2-2z" fill="#fff"/><path d="m74.834 9.333v25.5a2 2 0 0 0 2 2h25.5z" fill="#6dc9f7"/><path d="m84.686 54.356h-4v4h4a2.75 2.75 0 0 1 0 5.5h-4.286a17.369 17.369 0 0 1 -1.236 4h5.527a6.75 6.75 0 1 0 0-13.5z" fill="#ffd7e5"/><path d="m59.286 77.764h7.814a17.5 17.5 0 0 0 13.591-17.047v-6.4a2.966 2.966 0 0 0 -2.966-2.967h-29.066a2.967 2.967 0 0 0 -2.968 2.967v6.4a17.5 17.5 0 0 0 13.595 17.047z" fill="#ffd7e5"/><path d="m40.564 77.764a5.863 5.863 0 0 0 5.863 5.863h33.529a5.863 5.863 0 0 0 5.863-5.863z" fill="#fa759e"/><g fill="#3a2c60"><path d="m47.353 97.273a.9.9 0 0 0 -.959.96v6.706a1.625 1.625 0 0 1 -.316 1.094 1.256 1.256 0 0 1 -.93.39l-.48.03a.917.917 0 0 0 -.593.218.742.742 0 0 0 -.187.547q0 .84 1.155.8l.48-.03a2.71 2.71 0 0 0 2.805-3.044v-6.711a.941.941 0 0 0 -.262-.7.964.964 0 0 0 -.713-.26z"/><path d="m56.038 97.874a.968.968 0 0 0 -.412-.458 1.19 1.19 0 0 0 -1.185 0 .96.96 0 0 0 -.413.458l-4.14 8.9a.9.9 0 0 0 -.09.389.735.735 0 0 0 .285.585.955.955 0 0 0 .63.24.878.878 0 0 0 .465-.127.86.86 0 0 0 .33-.4l.9-2.011h5.282l.9 2.011a.829.829 0 0 0 .78.524.945.945 0 0 0 .637-.24.739.739 0 0 0 .277-.585.9.9 0 0 0 -.09-.389zm-2.971 6.074 1.981-4.455 1.98 4.455z"/><path d="m70.2 98.1a.736.736 0 0 0 -.3-.6 1.048 1.048 0 0 0 -.675-.241.819.819 0 0 0 -.8.511l-3.45 7.664-3.45-7.664a.851.851 0 0 0 -.337-.383.92.92 0 0 0 -.473-.128 1.1 1.1 0 0 0 -.7.241.744.744 0 0 0 -.308.614.94.94 0 0 0 .09.36l4.139 8.941a.978.978 0 0 0 .414.442 1.195 1.195 0 0 0 1.184 0 .973.973 0 0 0 .412-.442l4.156-8.941a.961.961 0 0 0 .098-.374z"/><path d="m75.868 97.874a.968.968 0 0 0 -.412-.458 1.19 1.19 0 0 0 -1.185 0 .96.96 0 0 0 -.413.458l-4.14 8.9a.9.9 0 0 0 -.09.389.735.735 0 0 0 .285.585.955.955 0 0 0 .63.24.878.878 0 0 0 .465-.127.854.854 0 0 0 .33-.4l.9-2.011h5.282l.9 2.011a.829.829 0 0 0 .78.524.943.943 0 0 0 .637-.24.739.739 0 0 0 .277-.585.915.915 0 0 0 -.089-.389zm-2.97 6.074 1.98-4.455 1.98 4.455z"/><path d="m103 36.085-27.461-27.459a1 1 0 0 0 -.707-.293h-51.165a3 3 0 0 0 -3 3v17.067a1 1 0 0 0 2 0v-17.067a1 1 0 0 1 1-1h50.165v24.5a3 3 0 0 0 3 3h24.5v52.167h-78.665v-43.43a1 1 0 1 0 -2 0v66.1a3 3 0 0 0 3 3h76.667a3 3 0 0 0 3-3v-75.839a1 1 0 0 0 -.334-.746zm-27.168-1.252v-23.085l24.086 24.085h-23.086a1 1 0 0 1 -1-1zm24.5 78.833h-76.665a1 1 0 0 1 -1-1v-20.666h78.667v20.666a1 1 0 0 1 -1 1z"/><path d="m21.667 43.4a1 1 0 0 0 1-1v-9.5a1 1 0 0 0 -2 0v9.5a1 1 0 0 0 1 1z"/><path d="m39.564 77.764a6.871 6.871 0 0 0 6.864 6.863h33.528a6.871 6.871 0 0 0 6.863-6.863 1 1 0 0 0 -1-1h-13.452a18.619 18.619 0 0 0 7.433-7.909h4.888a7.75 7.75 0 0 0 0-15.5h-3.129a3.964 3.964 0 0 0 -3.834-3h-29.067a3.971 3.971 0 0 0 -3.967 3.967v6.4a18.5 18.5 0 0 0 9.324 16.047h-13.451a1 1 0 0 0 -1 .995zm42.127-18.409h3a1.75 1.75 0 0 1 0 3.5h-3.136a18.41 18.41 0 0 0 .136-2.138zm8.745 1.75a5.756 5.756 0 0 1 -5.75 5.75h-4.053c.005-.015.009-.031.015-.047a18.284 18.284 0 0 0 .575-1.953h3.463a3.75 3.75 0 1 0 0-7.5h-3v-2h3a5.757 5.757 0 0 1 5.75 5.75zm-43.745-.388v-6.4a1.969 1.969 0 0 1 1.967-1.967h29.067a1.969 1.969 0 0 1 1.966 1.967v6.4a16.517 16.517 0 0 1 -12.724 16.047h-7.552a16.518 16.518 0 0 1 -12.724-16.047zm38.025 18.047a4.872 4.872 0 0 1 -4.76 3.863h-33.528a4.872 4.872 0 0 1 -4.76-3.863z"/><path d="m67.357 38.1c2.358-2.435 5.291-5.465 3.183-9.878a5.9 5.9 0 0 0 -3.941-3.17 5.7 5.7 0 0 0 -4.8.926 4.509 4.509 0 0 0 -1.791 3.7 4.85 4.85 0 0 0 1.866 3.949 2.822 2.822 0 0 0 3.4-.2 1 1 0 0 0 -1.291-1.527.841.841 0 0 1 -.983.07 2.873 2.873 0 0 1 -.993-2.226 2.538 2.538 0 0 1 .993-2.168 3.7 3.7 0 0 1 3.118-.586 3.9 3.9 0 0 1 2.615 2.09c1.407 2.946-.125 4.846-2.814 7.625a14.612 14.612 0 0 0 -3.173 4.141 11.574 11.574 0 0 0 -.276 7.078 1 1 0 0 0 .974.779 1.055 1.055 0 0 0 .222-.024 1 1 0 0 0 .755-1.2 9.657 9.657 0 0 1 .167-5.859 13.127 13.127 0 0 1 2.769-3.52z"/><path d="m56.068 39.66a1 1 0 0 0 1.412.064 3.234 3.234 0 0 0 .882-2.821 3.029 3.029 0 0 0 -1.556-2.286 3.74 3.74 0 0 0 -3.208-.158 3.862 3.862 0 0 0 -2.258 2.424c-.941 3.007 1.224 4.684 2.805 5.908a7.437 7.437 0 0 1 1.795 1.7 5.262 5.262 0 0 1 .527 3.133 1 1 0 0 0 .917 1.077h.081a1 1 0 0 0 1-.92 7.168 7.168 0 0 0 -.808-4.324 8.884 8.884 0 0 0 -2.287-2.247c-1.69-1.309-2.623-2.128-2.122-3.731a1.872 1.872 0 0 1 1.1-1.166 1.746 1.746 0 0 1 1.5.06 1.055 1.055 0 0 1 .545.88 1.315 1.315 0 0 1 -.26.995 1 1 0 0 0 -.065 1.412z"/></g></svg>