<svg height="512" viewBox="0 0 128 128" width="512" xmlns="http://www.w3.org/2000/svg"><path d="m96.407 74.025v-33.194a1 1 0 0 0 -.336-.746l-27.459-27.458a1 1 0 0 0 -.707-.293h-51.165a3 3 0 0 0 -3 3v101.333a3 3 0 0 0 3 3h78.687a22.831 22.831 0 0 0 .98-45.642z" fill="#e6e7e8"/><path d="m69.594 92.833a21.834 21.834 0 0 1 21.812-21.833v-34.167l-27.5-27.5h-51.166a2 2 0 0 0 -2 2v101.334a2 2 0 0 0 2 2h78.666a21.832 21.832 0 0 1 -21.812-21.834z" fill="#d4fbff"/><path d="m12.74 12.333h54.165l-3-3h-51.165a2 2 0 0 0 -2 2v3a2 2 0 0 1 2-2z" fill="#fff"/><path d="m63.907 9.333v25.5a2 2 0 0 0 2 2h25.5z" fill="#6dc9f7"/><circle cx="91.427" cy="92.833" fill="#fa759e" r="21.833" transform="matrix(.099 -.995 .995 .099 -9.963 174.668)"/><circle cx="91.427" cy="92.833" fill="#ffd7e5" r="16"/><g fill="#3a2c60"><path d="m23.073 28h33a1 1 0 1 0 0-2h-33a1 1 0 0 0 0 2z"/><path d="m23.073 38h33a1 1 0 1 0 0-2h-33a1 1 0 0 0 0 2z"/><path d="m23.073 48h56a1 1 0 0 0 0-2h-56a1 1 0 0 0 0 2z"/><path d="m23.073 58h56a1 1 0 0 0 0-2h-56a1 1 0 0 0 0 2z"/><path d="m23.073 68h56a1 1 0 0 0 0-2h-56a1 1 0 0 0 0 2z"/><path d="m23.073 78h44a1 1 0 0 0 0-2h-44a1 1 0 0 0 0 2z"/><path d="m23.073 88h36a1 1 0 1 0 0-2h-36a1 1 0 0 0 0 2z"/><path d="m23.073 98h36a1 1 0 1 0 0-2h-36a1 1 0 0 0 0 2z"/><path d="m10.74 92.75a1 1 0 0 0 1-1v-11.5a1 1 0 0 0 -2 0v11.5a1 1 0 0 0 1 1z"/><path d="m92.406 70.025v-33.194a1 1 0 0 0 -.336-.746l-27.458-27.459a1 1 0 0 0 -.707-.293h-51.165a3 3 0 0 0 -3 3v64.417a1 1 0 0 0 2 0v-64.417a1 1 0 0 1 1-1h50.165v24.5a3 3 0 0 0 3 3h24.5v32.193a22.826 22.826 0 0 0 -8.306 43.64h-69.359a1 1 0 0 1 -1-1v-16.791a1 1 0 0 0 -2 0v16.791a3 3 0 0 0 3 3h78.687a22.831 22.831 0 0 0 .979-45.641zm-27.5-35.192v-23.085l24.084 24.085h-23.085a1 1 0 0 1 -1-1zm26.522 78.833a20.833 20.833 0 1 1 20.834-20.833 20.856 20.856 0 0 1 -20.835 20.833z"/><path d="m91.427 75.833a17 17 0 1 0 17 17 17.019 17.019 0 0 0 -17-17zm0 32a15 15 0 1 1 15-15 15.016 15.016 0 0 1 -15 15z"/><path d="m100.4 91.833h-6.684a2.5 2.5 0 0 0 -1.312-1.3v-8.825a1 1 0 0 0 -2 0v8.849a2.5 2.5 0 1 0 3.312 3.276h6.684a1 1 0 0 0 0-2z"/></g></svg>