<?xml version="1.0"?>
<svg xmlns="http://www.w3.org/2000/svg" viewBox="0 0 128 128" width="512" height="512"><path d="M118.542,90.917h-2.728a21.239,21.239,0,0,0-2.5-6.035l1.932-1.932a2.464,2.464,0,0,0,0-3.48l-3.709-3.709a2.519,2.519,0,0,0-3.48,0l-1.933,1.932a21.191,21.191,0,0,0-6.033-2.5V72.461A2.463,2.463,0,0,0,97.626,70H96.009V48.9h11.233a5.006,5.006,0,0,0,5-5V30.976a5.006,5.006,0,0,0-5-5H96.009v-7.94A8.045,8.045,0,0,0,87.973,10H40.77a8.045,8.045,0,0,0-8.036,8.036V37.309H17.7A6.716,6.716,0,0,0,11,44.018V62.463A6.717,6.717,0,0,0,17.7,69.172H32.734v44.792A8.045,8.045,0,0,0,40.77,122H97.626a2.463,2.463,0,0,0,2.461-2.461v-2.728a21.234,21.234,0,0,0,6.033-2.5l1.933,1.932a2.463,2.463,0,0,0,3.48,0l3.709-3.709a2.464,2.464,0,0,0,0-3.48l-1.932-1.933a21.227,21.227,0,0,0,2.5-6.033h2.728A2.463,2.463,0,0,0,121,98.623V93.377A2.462,2.462,0,0,0,118.542,90.917Z" fill="#e6e7e8"/><path d="M83.973,7h-47.2a7.035,7.035,0,0,0-7.035,7.035v95.93A7.035,7.035,0,0,0,36.769,117h54.24V14.035A7.036,7.036,0,0,0,83.973,7Z" fill="#6dc9f7"/><rect x="18.043" y="29.12" width="84.657" height="61.275" transform="translate(120.129 -0.613) rotate(90)" fill="#d4fbff"/><rect x="29.734" y="17.429" width="61.275" height="3" fill="#fff"/><rect x="50.807" y="11.186" width="19.128" height="2.27" rx="1.026" ry="1.026" fill="#0089ef"/><path d="M74.474,11.075a1.246,1.246,0,1,0,1.246,1.246A1.246,1.246,0,0,0,74.474,11.075Z" fill="#0089ef"/><rect x="52.104" y="106.153" width="16.534" height="5.511" rx="2.492" ry="2.492" fill="#0089ef"/><circle cx="91.003" cy="92" r="11.952" fill="#ffd7e5"/><path d="M116,94.623V89.377a1.461,1.461,0,0,0-1.461-1.461h-3.53a20.3,20.3,0,0,0-2.976-7.174l2.5-2.5a1.46,1.46,0,0,0,0-2.066l-3.709-3.709a1.46,1.46,0,0,0-2.066,0l-2.5,2.5a20.3,20.3,0,0,0-7.174-2.976v-3.53A1.461,1.461,0,0,0,93.626,67H88.38a1.461,1.461,0,0,0-1.461,1.461v3.53a20.3,20.3,0,0,0-7.174,2.976l-2.5-2.5a1.46,1.46,0,0,0-2.066,0l-3.709,3.709a1.46,1.46,0,0,0,0,2.066l2.5,2.5a20.3,20.3,0,0,0-2.976,7.174h-3.53A1.461,1.461,0,0,0,66,89.377v5.246a1.461,1.461,0,0,0,1.461,1.461h3.53a20.3,20.3,0,0,0,2.976,7.174l-2.5,2.5a1.46,1.46,0,0,0,0,2.066l3.709,3.709a1.46,1.46,0,0,0,2.066,0l2.5-2.5a20.3,20.3,0,0,0,7.174,2.976v3.53A1.461,1.461,0,0,0,88.38,117h5.246a1.461,1.461,0,0,0,1.461-1.461v-3.53a20.3,20.3,0,0,0,7.174-2.976l2.5,2.5a1.46,1.46,0,0,0,2.066,0l3.709-3.709a1.46,1.46,0,0,0,0-2.066l-2.5-2.5a20.3,20.3,0,0,0,2.976-7.174h3.53A1.461,1.461,0,0,0,116,94.623Zm-25,9.329A11.952,11.952,0,1,1,102.955,92,11.952,11.952,0,0,1,91,103.952Z" fill="#fa759e"/><path d="M103.243,22.975H78.9a4,4,0,0,0-4,4V39.9a4,4,0,0,0,4,4h5.952v5.76l6.519-5.76h11.877a4,4,0,0,0,4-4V26.975A4,4,0,0,0,103.243,22.975Z" fill="#ffd7e5"/><path d="M97.77,28.257h0a4.2,4.2,0,0,0-5.947,0l-.754.754-.755-.754a4.2,4.2,0,0,0-5.946,0h0a4.2,4.2,0,0,0,0,5.946l.754.755,5.013,5.012a1.321,1.321,0,0,0,1.868,0l5.012-5.012.755-.755A4.2,4.2,0,0,0,97.77,28.257Z" fill="#fa759e"/><path d="M13.705,34.309H48.454a5.709,5.709,0,0,1,5.709,5.708V58.463a5.709,5.709,0,0,1-5.709,5.709H39.96v8.22l-9.3-8.22H13.705A5.709,5.709,0,0,1,8,58.463V40.017A5.709,5.709,0,0,1,13.705,34.309Z" fill="#0089ef"/><path d="M29.734,87.75a1,1,0,0,0,1-1V77a1,1,0,0,0-2,0v9.75A1,1,0,0,0,29.734,87.75Z" fill="#3a2c60"/><path d="M114.542,86.916h-2.728a21.2,21.2,0,0,0-2.5-6.034l1.932-1.932a2.456,2.456,0,0,0,0-3.48l-3.709-3.709a2.518,2.518,0,0,0-3.48,0l-1.933,1.932a21.168,21.168,0,0,0-6.033-2.5V68.461A2.464,2.464,0,0,0,93.626,66H92.009V44.9h11.234a5.006,5.006,0,0,0,5-5V26.976a5.006,5.006,0,0,0-5-5H92.009V14.035A8.044,8.044,0,0,0,83.973,6h-47.2a8.044,8.044,0,0,0-8.035,8.035V33.309H13.705A6.716,6.716,0,0,0,7,40.018V58.463a6.716,6.716,0,0,0,6.708,6.709H28.734V72.75a1,1,0,0,0,2,0V65.576L39.3,73.142a1,1,0,0,0,1.662-.75v-7.22h7.494a6.717,6.717,0,0,0,6.709-6.709V40.018a6.716,6.716,0,0,0-6.709-6.709H30.734V18.429H90.009v3.547H78.894a5.006,5.006,0,0,0-5,5V39.9a5.006,5.006,0,0,0,5,5h4.952v4.76a1,1,0,0,0,1.663.749l4.5-3.975V66H88.381a2.463,2.463,0,0,0-2.461,2.461V71.19a21.173,21.173,0,0,0-6.034,2.5l-1.933-1.932a2.518,2.518,0,0,0-3.48,0l-3.71,3.709a2.464,2.464,0,0,0,0,3.48L72.7,80.883a21.237,21.237,0,0,0-2.505,6.033H67.464A2.463,2.463,0,0,0,65,89.377v5.246a2.463,2.463,0,0,0,2.461,2.46h2.728a21.083,21.083,0,0,0,1.429,4H30.734V91.25a1,1,0,0,0-2,0v18.714A8.045,8.045,0,0,0,36.769,118H93.626a2.464,2.464,0,0,0,2.461-2.461v-2.728a21.222,21.222,0,0,0,6.033-2.5l1.933,1.932a2.462,2.462,0,0,0,3.48,0l3.709-3.708a2.459,2.459,0,0,0,0-3.481l-1.933-1.933a21.162,21.162,0,0,0,2.5-6.034h2.728A2.464,2.464,0,0,0,117,94.623V89.377A2.464,2.464,0,0,0,114.542,86.916Zm-61.379-46.9V58.463a4.714,4.714,0,0,1-4.709,4.709H39.96a1,1,0,0,0-1,1v6l-7.643-6.752a1,1,0,0,0-.662-.25H13.705A4.714,4.714,0,0,1,9,58.463V40.018a4.714,4.714,0,0,1,4.708-4.709H48.454A4.714,4.714,0,0,1,53.163,40.018ZM30.734,16.429V14.035A6.042,6.042,0,0,1,36.769,8h47.2a6.042,6.042,0,0,1,6.036,6.035v2.394ZM84.846,42.9H78.894a3,3,0,0,1-3-3V26.976a3,3,0,0,1,3-3h24.349a3,3,0,0,1,3,3V39.9a3,3,0,0,1-3,3H91.366a1,1,0,0,0-.662.25l-4.858,4.292V43.9A1,1,0,0,0,84.846,42.9ZM30.734,109.964v-6.878H72.68l.017.031-1.934,1.933a2.464,2.464,0,0,0,0,3.48l3.71,3.709a2.463,2.463,0,0,0,3.48,0l1.933-1.932a21.228,21.228,0,0,0,6.034,2.5v2.728a2.5,2.5,0,0,0,.046.461h-49.2A6.042,6.042,0,0,1,30.734,109.964ZM115,94.623a.461.461,0,0,1-.461.46h-3.53a1,1,0,0,0-.98.8,19.191,19.191,0,0,1-2.83,6.821,1,1,0,0,0,.127,1.259l2.5,2.5a.459.459,0,0,1,0,.651l-3.709,3.709a.459.459,0,0,1-.651,0l-2.5-2.5a1,1,0,0,0-1.259-.127,19.239,19.239,0,0,1-6.822,2.83,1,1,0,0,0-.8.98v3.53a.462.462,0,0,1-.461.461H88.381a.462.462,0,0,1-.461-.461v-3.53a1,1,0,0,0-.8-.98A19.227,19.227,0,0,1,80.3,108.2a1,1,0,0,0-1.259.127l-2.5,2.5a.46.46,0,0,1-.652,0l-3.71-3.709a.463.463,0,0,1,0-.652l2.5-2.5a1,1,0,0,0,.127-1.259,19.227,19.227,0,0,1-2.83-6.821,1,1,0,0,0-.98-.8h-3.53a.461.461,0,0,1-.461-.46V89.377a.462.462,0,0,1,.461-.461h3.53a1,1,0,0,0,.98-.8,19.239,19.239,0,0,1,2.83-6.822,1,1,0,0,0-.127-1.259l-2.5-2.5a.463.463,0,0,1,0-.652l3.71-3.709a.461.461,0,0,1,.652,0l2.5,2.5a1,1,0,0,0,1.26.127,19.207,19.207,0,0,1,6.82-2.83,1,1,0,0,0,.8-.98v-3.53A.462.462,0,0,1,88.381,68h5.245a.462.462,0,0,1,.461.461v3.53a1,1,0,0,0,.8.98,19.212,19.212,0,0,1,6.821,2.83,1,1,0,0,0,1.26-.127l2.5-2.5a.46.46,0,0,1,.651,0l3.709,3.709a.459.459,0,0,1,0,.652l-2.5,2.5a1,1,0,0,0-.127,1.259,19.2,19.2,0,0,1,2.83,6.822,1,1,0,0,0,.98.8h3.53a.462.462,0,0,1,.461.461Z" fill="#3a2c60"/><path d="M91,79.048A12.952,12.952,0,1,0,103.955,92,12.966,12.966,0,0,0,91,79.048Zm0,23.9A10.952,10.952,0,1,1,101.955,92,10.964,10.964,0,0,1,91,102.952Z" fill="#3a2c60"/><circle cx="19.08" cy="50" r="3.5" fill="#fff"/><circle cx="31.08" cy="50" r="3.5" fill="#fff"/><circle cx="43.08" cy="50" r="3.5" fill="#fff"/></svg>
