<svg height="512" viewBox="0 0 128 128" width="512" xmlns="http://www.w3.org/2000/svg"><path d="m114.135 80.405-2.044-.55a7.385 7.385 0 0 1 -5.2-5.2l-.551-2.044a1 1 0 0 0 -1.932 0l-.55 2.044a7.359 7.359 0 0 1 -2.263 3.607v-60.227a8.046 8.046 0 0 0 -8.035-8.035h-47.2a8.046 8.046 0 0 0 -8.036 8.035v38.87a10.961 10.961 0 0 1 -6.34-7.238l-.784-2.911a1 1 0 0 0 -1.931 0l-.784 2.911a10.953 10.953 0 0 1 -7.705 7.7l-2.911.783a1 1 0 0 0 0 1.932l2.911.784a10.953 10.953 0 0 1 7.705 7.7l.784 2.911a1 1 0 0 0 1.931 0l.784-2.911a10.961 10.961 0 0 1 6.34-7.238v52.627a8.045 8.045 0 0 0 8.032 8.045h47.2a8.045 8.045 0 0 0 8.036-8.035v-29.484a7.359 7.359 0 0 1 2.263 3.607l.55 2.043a1 1 0 0 0 1.932 0l.551-2.044a7.386 7.386 0 0 1 5.2-5.2l2.044-.551a1 1 0 0 0 0-1.932z" fill="#e6e7e8"/><rect fill="#6dc9f7" height="110" rx="7.035" width="61.275" x="35.32" y="7"/><path d="m35.32 17.429h61.275v84.657h-61.275z" fill="#d4fbff"/><path d="m35.32 99.086h61.275v3h-61.275z" fill="#fff"/><rect fill="#0089ef" height="2.27" rx="1.026" width="19.128" x="56.394" y="11.186"/><path d="m80.061 11.075a1.246 1.246 0 1 0 1.245 1.246 1.245 1.245 0 0 0 -1.245-1.246z" fill="#0089ef"/><rect fill="#0089ef" height="5.511" rx="2.492" width="16.534" x="57.691" y="106.153"/><circle cx="65.958" cy="61.5" fill="#ffd7e5" r="23.333" transform="matrix(.383 -.924 .924 .383 -16.101 98.902)"/><circle cx="65.958" cy="61.5" fill="#fa759e" r="19.5"/><path d="m72.691 70.685a8.28 8.28 0 0 1 -4.759 2.2v2.006a1.649 1.649 0 0 1 -.446 1.194 1.736 1.736 0 0 1 -2.356 0 1.644 1.644 0 0 1 -.445-1.194v-1.946a14.4 14.4 0 0 1 -3.534-.764 10.1 10.1 0 0 1 -2.961-1.592 1.6 1.6 0 0 1 -.573-.636 2.077 2.077 0 0 1 -.159-.86 1.856 1.856 0 0 1 .4-1.178 1.141 1.141 0 0 1 .907-.509 1.522 1.522 0 0 1 .589.111 6.754 6.754 0 0 1 .716.366 11.748 11.748 0 0 0 2.882 1.4 9.853 9.853 0 0 0 2.976.445 5.619 5.619 0 0 0 3.3-.827 2.751 2.751 0 0 0 1.162-2.388 1.917 1.917 0 0 0 -.637-1.5 4.6 4.6 0 0 0 -1.592-.907q-.954-.335-2.674-.78a28.867 28.867 0 0 1 -3.887-1.221 6.721 6.721 0 0 1 -2.579-1.894 5.132 5.132 0 0 1 -1.082-3.438 5.932 5.932 0 0 1 1.846-4.394 8.459 8.459 0 0 1 4.838-2.26v-2.006a1.651 1.651 0 0 1 .446-1.194 1.737 1.737 0 0 1 2.357 0 1.654 1.654 0 0 1 .445 1.194v1.974a10.677 10.677 0 0 1 5.539 2.324 1.785 1.785 0 0 1 .765 1.5 1.855 1.855 0 0 1 -.4 1.178 1.165 1.165 0 0 1 -.939.509 1.68 1.68 0 0 1 -.557-.095 3.777 3.777 0 0 1 -.716-.382 12.063 12.063 0 0 0 -2.468-1.385 7.454 7.454 0 0 0 -2.753-.461 5.161 5.161 0 0 0 -3.152.875 2.832 2.832 0 0 0 -1.177 2.4 2.273 2.273 0 0 0 .668 1.7 4.426 4.426 0 0 0 1.687 1q1.019.351 2.77.8a27.478 27.478 0 0 1 3.788 1.177 6.475 6.475 0 0 1 2.5 1.831 5 5 0 0 1 1.034 3.327 5.817 5.817 0 0 1 -1.769 4.3z" fill="#fff"/><path d="m52.585 32.766 1.332.359-1.332.359a5.458 5.458 0 0 0 -3.851 3.851l-.359 1.332-.359-1.332a5.455 5.455 0 0 0 -3.85-3.851l-1.333-.359 1.333-.359a5.456 5.456 0 0 0 3.85-3.851l.359-1.332.359 1.332a5.459 5.459 0 0 0 3.851 3.851z" fill="#ffd7e5"/><path d="m107.831 76.821 2.044.551-2.044.55a8.37 8.37 0 0 0 -5.906 5.906l-.55 2.044-.55-2.044a8.37 8.37 0 0 0 -5.906-5.906l-2.044-.55 2.044-.551a8.37 8.37 0 0 0 5.906-5.906l.55-2.043.55 2.043a8.37 8.37 0 0 0 5.906 5.906z" fill="#ffd7e5"/><path d="m35.426 54.338 2.91.784-2.91.783a11.919 11.919 0 0 0 -8.411 8.411l-.784 2.911-.784-2.911a11.921 11.921 0 0 0 -8.411-8.411l-2.911-.783 2.911-.784a11.921 11.921 0 0 0 8.411-8.411l.784-2.911.784 2.911a11.919 11.919 0 0 0 8.411 8.411z" fill="#ffd7e5"/><g fill="#3a2c60"><path d="m96.6 37.4a1 1 0 0 0 -1 1v8.08a1 1 0 0 0 2 0v-8.08a1 1 0 0 0 -1-1z"/><path d="m65.958 85.833a24.333 24.333 0 1 0 -24.333-24.333 24.361 24.361 0 0 0 24.333 24.333zm0-46.666a22.333 22.333 0 1 1 -22.333 22.333 22.358 22.358 0 0 1 22.333-22.333z"/><path d="m43.905 34.449a4.47 4.47 0 0 1 3.146 3.151l.358 1.332a1 1 0 0 0 1.932 0l.359-1.332a4.467 4.467 0 0 1 3.145-3.146l1.332-.358a1 1 0 0 0 0-1.932l-1.332-.364a4.47 4.47 0 0 1 -3.145-3.146l-.359-1.332a1 1 0 0 0 -1.932 0l-.358 1.332a4.471 4.471 0 0 1 -3.146 3.146l-1.332.358a1 1 0 0 0 0 1.932zm4.47-3.791a6.506 6.506 0 0 0 2.466 2.467 6.5 6.5 0 0 0 -2.466 2.466 6.5 6.5 0 0 0 -2.466-2.466 6.5 6.5 0 0 0 2.466-2.467z"/><path d="m110.135 76.405-2.044-.55a7.386 7.386 0 0 1 -5.2-5.2l-.551-2.044a1 1 0 0 0 -1.932 0l-.55 2.044a7.364 7.364 0 0 1 -2.258 3.606v-22.944a1 1 0 0 0 -2 0v24.216a7.288 7.288 0 0 1 -.937.322l-2.044.55a1 1 0 0 0 0 1.932l2.044.551a7.288 7.288 0 0 1 .937.322v21.877h-59.28v-44.387l2.276-.613a1 1 0 0 0 0-1.932l-2.276-.612v-35.113h59.28v15.137a1 1 0 1 0 2 0v-19.532a8.045 8.045 0 0 0 -8.04-8.035h-47.2a8.044 8.044 0 0 0 -8.036 8.035v38.87a10.957 10.957 0 0 1 -6.339-7.238l-.785-2.911a1 1 0 0 0 -1.931 0l-.783 2.911a10.954 10.954 0 0 1 -7.706 7.7l-2.911.783a1 1 0 0 0 0 1.932l2.911.784a10.954 10.954 0 0 1 7.706 7.7l.783 2.911a1 1 0 0 0 1.931 0l.785-2.911a10.957 10.957 0 0 1 6.339-7.238v52.627a8.045 8.045 0 0 0 8.032 8.045h47.2a8.046 8.046 0 0 0 8.036-8.035v-29.483a7.364 7.364 0 0 1 2.263 3.606l.55 2.043a1 1 0 0 0 1.932 0l.551-2.044a7.388 7.388 0 0 1 5.2-5.2l2.044-.551a1 1 0 0 0 0-1.932zm-67.779-68.405h47.2a6.042 6.042 0 0 1 6.044 6.035v2.395h-59.28v-2.395a6.042 6.042 0 0 1 6.036-6.035zm-16.125 55.442a12.972 12.972 0 0 0 -8.321-8.321 12.97 12.97 0 0 0 8.321-8.32 12.97 12.97 0 0 0 8.321 8.32 12.974 12.974 0 0 0 -8.321 8.321zm63.329 52.558h-47.2a6.042 6.042 0 0 1 -6.036-6.035v-6.878h59.276v6.878a6.042 6.042 0 0 1 -6.04 6.035zm11.815-33.638a9.416 9.416 0 0 0 -4.99-4.991 9.414 9.414 0 0 0 4.99-4.99 9.416 9.416 0 0 0 4.99 4.991 9.411 9.411 0 0 0 -4.99 4.99z"/></g></svg>