<?xml version="1.0"?>
<svg xmlns="http://www.w3.org/2000/svg" viewBox="0 0 128 128" width="512" height="512"><path d="M106.6,56.075a2.929,2.929,0,0,1,0-3.153l4.286-6.683A4.924,4.924,0,0,0,109,39.209l-7.053-3.645a2.93,2.93,0,0,1-1.577-2.731l.369-7.931a4.929,4.929,0,0,0-1.437-3.709A4.855,4.855,0,0,0,95.6,19.756l-7.932.369a2.954,2.954,0,0,1-2.731-1.577L81.29,11.5a4.922,4.922,0,0,0-7.029-1.883L67.576,13.9a2.923,2.923,0,0,1-3.152,0L57.739,9.612A4.922,4.922,0,0,0,50.71,11.5l-3.646,7.053a2.964,2.964,0,0,1-2.73,1.577L36.4,19.756a4.858,4.858,0,0,0-3.709,1.437A4.928,4.928,0,0,0,31.257,24.9l.369,7.931a2.932,2.932,0,0,1-1.577,2.731L23,39.209a4.924,4.924,0,0,0-1.884,7.03L25.4,52.922a2.925,2.925,0,0,1,0,3.153L21.112,62.76A4.923,4.923,0,0,0,23,69.789l7.053,3.646a2.93,2.93,0,0,1,1.577,2.73L31.257,84.1a4.929,4.929,0,0,0,1.436,3.709A4.857,4.857,0,0,0,36.4,89.242l3.1-.144v33.068a1,1,0,0,0,1.4.918L66,112.255l25.1,10.829a1,1,0,0,0,1.4-.918V89.1l3.1.144a4.854,4.854,0,0,0,3.708-1.436,4.93,4.93,0,0,0,1.437-3.709l-.369-7.932a2.928,2.928,0,0,1,1.577-2.73L109,69.789a4.923,4.923,0,0,0,1.884-7.029Z" fill="#e6e7e8"/><path d="M83.713,83.875a3.921,3.921,0,0,0-3.666,2.116L76.4,93.044a3.923,3.923,0,0,1-5.6,1.5L64.117,90.26a3.923,3.923,0,0,0-4.234,0L53.2,94.545a3.922,3.922,0,0,1-5.6-1.5l-3.646-7.053a3.921,3.921,0,0,0-3.666-2.116l-3.787.176v34.115l25.5-11,25.5,11V84.051Z" fill="#6dc9f7"/><path d="M70.8,94.545,64.117,90.26a3.923,3.923,0,0,0-4.234,0L53.2,94.545a3.9,3.9,0,0,1-1.532.576v16.5L62,107.166l10.333,4.457v-16.5A3.9,3.9,0,0,1,70.8,94.545Z" fill="#0089ef"/><path d="M64.117,10.739,70.8,6.454a3.922,3.922,0,0,1,5.6,1.5l3.646,7.053a3.924,3.924,0,0,0,3.666,2.117l7.931-.369a3.923,3.923,0,0,1,4.1,4.1l-.369,7.931a3.923,3.923,0,0,0,2.117,3.666l7.053,3.646a3.922,3.922,0,0,1,1.5,5.6l-4.285,6.684a3.921,3.921,0,0,0,0,4.233l4.285,6.684a3.921,3.921,0,0,1-1.5,5.6l-7.053,3.646a3.924,3.924,0,0,0-2.117,3.667l.369,7.93a3.922,3.922,0,0,1-4.1,4.1l-7.931-.369a3.924,3.924,0,0,0-3.666,2.117L76.4,93.044a3.923,3.923,0,0,1-5.6,1.5L64.117,90.26a3.923,3.923,0,0,0-4.234,0L53.2,94.545a3.922,3.922,0,0,1-5.6-1.5l-3.646-7.053a3.924,3.924,0,0,0-3.666-2.117l-7.931.369a3.921,3.921,0,0,1-4.1-4.1l.369-7.93a3.924,3.924,0,0,0-2.117-3.667L19.455,64.9a3.922,3.922,0,0,1-1.5-5.6l4.285-6.684a3.921,3.921,0,0,0,0-4.233L17.954,41.7a3.923,3.923,0,0,1,1.5-5.6l7.053-3.646a3.923,3.923,0,0,0,2.117-3.666l-.369-7.931a3.922,3.922,0,0,1,4.1-4.1l7.931.369a3.924,3.924,0,0,0,3.666-2.117L47.6,7.954a3.921,3.921,0,0,1,5.6-1.5l6.684,4.285A3.923,3.923,0,0,0,64.117,10.739Z" fill="#ffd7e5"/><circle cx="62" cy="50.499" r="32.5" fill="#fa759e"/><path d="M62,21A32.5,32.5,0,0,1,94.462,52c.023-.5.038-1,.038-1.5a32.5,32.5,0,0,0-65,0c0,.5.015,1,.038,1.5A32.5,32.5,0,0,1,62,21Z" fill="#fff"/><path d="M102.6,52.077a2.932,2.932,0,0,1,0-3.155l4.285-6.683A4.922,4.922,0,0,0,105,35.209L97.95,31.563a2.928,2.928,0,0,1-1.576-2.73l.369-7.931a4.926,4.926,0,0,0-1.436-3.709A4.877,4.877,0,0,0,91.6,15.756l-7.932.369a2.925,2.925,0,0,1-2.73-1.577L77.289,7.5A4.922,4.922,0,0,0,70.26,5.612L63.576,9.9a2.935,2.935,0,0,1-3.153,0L53.739,5.612A4.921,4.921,0,0,0,46.71,7.5l-3.646,7.052a2.921,2.921,0,0,1-2.732,1.577l-7.93-.369a4.848,4.848,0,0,0-3.708,1.437A4.926,4.926,0,0,0,27.257,20.9l.368,7.932a2.926,2.926,0,0,1-1.576,2.73L19,35.209a4.924,4.924,0,0,0-1.884,7.03L21.4,48.922a2.93,2.93,0,0,1,0,3.154L17.112,58.76A4.925,4.925,0,0,0,19,65.79l7.053,3.645a2.93,2.93,0,0,1,1.576,2.732L27.257,80.1a4.929,4.929,0,0,0,1.437,3.71A4.866,4.866,0,0,0,32.4,85.243l3.1-.144v33.067a1,1,0,0,0,1.4.917L62,108.254l25.1,10.829a1,1,0,0,0,1.4-.917V85.1l3.1.144a4.877,4.877,0,0,0,3.71-1.437,4.93,4.93,0,0,0,1.436-3.71l-.369-7.93a2.933,2.933,0,0,1,1.576-2.731L105,65.79a4.924,4.924,0,0,0,1.884-7.031ZM37.5,85.005l2.833-.131a2.929,2.929,0,0,1,2.731,1.576L46.71,93.5a4.807,4.807,0,0,0,3.956,2.634v14.829L37.5,116.645Zm33.833,25.1L62.4,106.248a1,1,0,0,0-.793,0L52.666,110.1V95.891a4.908,4.908,0,0,0,1.073-.505L60.422,91.1a2.93,2.93,0,0,1,3.154,0l6.684,4.285a4.894,4.894,0,0,0,1.073.5ZM86.5,116.645l-13.167-5.68V96.133A5.022,5.022,0,0,0,74.191,96a4.937,4.937,0,0,0,3.1-2.5l3.646-7.053a2.909,2.909,0,0,1,2.73-1.576l2.834.131Zm19.067-54.473a2.9,2.9,0,0,1-1.482,1.84l-7.054,3.647a4.936,4.936,0,0,0-2.655,4.6l.369,7.931a2.921,2.921,0,0,1-3.054,3.055l-7.931-.37a4.959,4.959,0,0,0-4.6,2.657l-3.644,7.052A2.922,2.922,0,0,1,71.34,93.7l-6.685-4.286a4.94,4.94,0,0,0-5.312,0L52.659,93.7a2.92,2.92,0,0,1-4.172-1.118l-3.646-7.053a4.937,4.937,0,0,0-4.374-2.661c-.075,0-.151,0-.228,0l-7.93.37a2.923,2.923,0,0,1-3.054-3.056l.368-7.93a4.935,4.935,0,0,0-2.656-4.6l-7.052-3.645A2.924,2.924,0,0,1,18.8,59.839l4.285-6.683a4.935,4.935,0,0,0,0-5.314L18.8,41.159a2.922,2.922,0,0,1,1.118-4.172l7.053-3.647a4.933,4.933,0,0,0,2.656-4.6l-.368-7.932a2.923,2.923,0,0,1,3.055-3.054l7.929.369a4.92,4.92,0,0,0,4.6-2.657l3.646-7.052A2.922,2.922,0,0,1,52.659,7.3l6.684,4.286a4.932,4.932,0,0,0,5.313,0L71.339,7.3a2.924,2.924,0,0,1,4.174,1.119l3.645,7.052a4.961,4.961,0,0,0,4.6,2.657l7.932-.369a2.921,2.921,0,0,1,3.054,3.054l-.369,7.931a4.934,4.934,0,0,0,2.656,4.6l7.053,3.647a2.918,2.918,0,0,1,1.118,4.172l-4.285,6.684a4.942,4.942,0,0,0,0,5.313l4.285,6.683A2.9,2.9,0,0,1,105.567,62.172Z" fill="#3a2c60"/><path d="M87.483,69.02a31.779,31.779,0,0,1-5.222,5.6,1,1,0,0,0,1.287,1.531A33.823,33.823,0,0,0,89.1,70.2a1,1,0,1,0-1.617-1.178Z" fill="#3a2c60"/><path d="M62,17A33.5,33.5,0,1,0,79.05,79.341a1,1,0,1,0-1.02-1.72A31.475,31.475,0,1,1,89.9,65.142a1,1,0,1,0,1.769.932A33.51,33.51,0,0,0,62,17Z" fill="#3a2c60"/><path d="M49.383,43.211a1.4,1.4,0,0,1,.353,1V56.771a1.4,1.4,0,0,1-.365,1.005,1.353,1.353,0,0,1-1.99-.106L39.568,47.5v9.268a1.455,1.455,0,0,1-.342,1.005,1.342,1.342,0,0,1-1.884,0A1.455,1.455,0,0,1,37,56.771V44.207a1.368,1.368,0,0,1,.364-1,1.283,1.283,0,0,1,.963-.374,1.2,1.2,0,0,1,1.027.493l7.792,10.123V44.207a1.4,1.4,0,0,1,.353-1,1.222,1.222,0,0,1,.931-.374A1.253,1.253,0,0,1,49.383,43.211Z" fill="#fff"/><path d="M53.342,57.691a1.281,1.281,0,0,1-.353-.964V44.25a1.284,1.284,0,0,1,.353-.964,1.345,1.345,0,0,1,.974-.342h7.727a1.487,1.487,0,0,1,.963.278.963.963,0,0,1,.343.792,1.02,1.02,0,0,1-.343.824,1.449,1.449,0,0,1-.963.289H55.686V49.28h5.929a1.487,1.487,0,0,1,.963.278.986.986,0,0,1,.343.813.963.963,0,0,1-.343.792,1.487,1.487,0,0,1-.963.279H55.686V55.85h6.357a1.449,1.449,0,0,1,.963.289,1.022,1.022,0,0,1,.343.825.961.961,0,0,1-.343.791,1.487,1.487,0,0,1-.963.279H54.316A1.337,1.337,0,0,1,53.342,57.691Z" fill="#fff"/><path d="M85,43.029a1.338,1.338,0,0,1,.739-.214,1.324,1.324,0,0,1,.888.322,1.073,1.073,0,0,1,.375.856,2.134,2.134,0,0,1-.108.556l-4.6,12.735a1.331,1.331,0,0,1-.567.664,1.671,1.671,0,0,1-.868.235,1.721,1.721,0,0,1-.877-.235,1.21,1.21,0,0,1-.557-.664L75.87,47.2,72.251,57.284a1.312,1.312,0,0,1-.567.664,1.715,1.715,0,0,1-1.733,0,1.22,1.22,0,0,1-.546-.664L64.8,44.549a1.809,1.809,0,0,1-.107-.556,1.046,1.046,0,0,1,.4-.856,1.5,1.5,0,0,1,1.7-.108,1.194,1.194,0,0,1,.492.642l3.639,10.467,3.746-10.4a1.346,1.346,0,0,1,.492-.673,1.25,1.25,0,0,1,.749-.247,1.3,1.3,0,0,1,.76.247,1.332,1.332,0,0,1,.5.7l3.639,10.509,3.7-10.6A1.213,1.213,0,0,1,85,43.029Z" fill="#fff"/></svg>
