<svg height="512" viewBox="0 0 128 128" width="512" xmlns="http://www.w3.org/2000/svg"><path d="m99.9 76.139a23.679 23.679 0 0 0 -8.943 1.749v-40.321a1 1 0 0 0 -.348-.758l-27.445-27.447a1 1 0 0 0 -.707-.293h-51.165a3 3 0 0 0 -3 3v101.331a3 3 0 0 0 3 3h71.463a23.712 23.712 0 0 0 10.892 6.5 1 1 0 0 0 1.256-.853l1.73-15.347a1 1 0 0 0 -.453-.953 6.895 6.895 0 1 1 7.443 0 1 1 0 0 0 -.453.953l1.73 15.347a1 1 0 0 0 .994.888 1.02 1.02 0 0 0 .262-.035 23.8 23.8 0 0 0 -6.256-46.761z" fill="#e6e7e8"/><path d="m73.094 95.946a22.807 22.807 0 0 1 12.864-20.53v-41.85l-27.5-27.5h-51.166a2 2 0 0 0 -2 2v101.334a2 2 0 0 0 2 2h71.865a22.663 22.663 0 0 1 -6.063-15.454z" fill="#d4fbff"/><path d="m7.292 9.069h54.165l-3-3h-51.165a2 2 0 0 0 -2 2v3a2 2 0 0 1 2-2z" fill="#fff"/><path d="m58.459 6.069v25.5a2 2 0 0 0 2 2h25.5z" fill="#6dc9f7"/><path d="m95.9 73.139a22.8 22.8 0 0 0 -5.992 44.792l1.729-15.347a7.9 7.9 0 1 1 8.526 0l1.73 15.347a22.8 22.8 0 0 0 -5.993-44.792z" fill="#fa759e"/><path d="m38.146 67.522v.043a2.5 2.5 0 0 1 -3.491 2.292l-14.072-6.1a3.583 3.583 0 0 1 -2.159-3.288v-.039a3.583 3.583 0 0 1 2.159-3.288l14.072-6.1a2.5 2.5 0 0 1 3.491 2.291v.067a2.5 2.5 0 0 1 -1.6 2.331l-12.146 4.68 12.163 4.789a2.5 2.5 0 0 1 1.583 2.322z" fill="#fa759e"/><path d="m49.265 45.411a2.321 2.321 0 0 0 -2.8 1.71l-6.189 25.569a2.323 2.323 0 0 0 1.709 2.8 2.379 2.379 0 0 0 .548.065 2.313 2.313 0 0 0 2.253-1.775l6.188-25.57a2.322 2.322 0 0 0 -1.709-2.799z" fill="#fa759e"/><path d="m70.672 63.708-14.072 6.128a2.5 2.5 0 0 1 -3.494-2.29v-.034a2.5 2.5 0 0 1 1.585-2.325l12.2-4.789-12.191-4.714a2.5 2.5 0 0 1 -1.6-2.33 2.5 2.5 0 0 1 3.487-2.293l14.07 6.071a3.582 3.582 0 0 1 2.164 3.29 3.583 3.583 0 0 1 -2.149 3.286z" fill="#fa759e"/><g fill="#3a2c60"><path d="m5.292 41.138a1 1 0 0 0 1-1v-9.5a1 1 0 0 0 -2 0v9.5a1 1 0 0 0 1 1z"/><path d="m95.9 72.138a23.661 23.661 0 0 0 -8.943 1.75v-40.322a1 1 0 0 0 -.332-.743l-27.461-27.461a1 1 0 0 0 -.707-.293h-51.165a3 3 0 0 0 -3 3v18.069a1 1 0 0 0 2 0v-18.069a1 1 0 0 1 1-1h50.165v24.5a3 3 0 0 0 3 3h24.5v40.245a23.758 23.758 0 0 0 -7.943 35.586h-69.722a1 1 0 0 1 -1-1v-65.1a1 1 0 0 0 -2 0v65.1a3 3 0 0 0 3 3h71.463a23.709 23.709 0 0 0 10.891 6.5.985.985 0 0 0 .263.035 1 1 0 0 0 .994-.887l1.73-15.347a1 1 0 0 0 -.453-.953 6.895 6.895 0 1 1 7.443 0 1 1 0 0 0 -.453.953l1.729 15.347a1 1 0 0 0 1.257.852 23.8 23.8 0 0 0 -6.256-46.762zm-36.443-40.57v-23.085l24.086 24.085h-23.086a1 1 0 0 1 -1-1zm43.3 85.06-1.529-13.564a8.894 8.894 0 1 0 -10.646 0l-1.532 13.564a21.807 21.807 0 1 1 13.7 0z"/><path d="m39.145 53.336a3.5 3.5 0 0 0 -4.887-3.21l-14.073 6.1a4.614 4.614 0 0 0 0 8.451l14.072 6.1a3.5 3.5 0 0 0 4.888-3.209v-.043a3.48 3.48 0 0 0 -2.216-3.255l-9.769-3.848 9.746-3.755a3.543 3.543 0 0 0 2.239-3.331zm-2.959 1.464-12.142 4.678a1 1 0 0 0 -.007 1.865l12.163 4.786a1.487 1.487 0 0 1 .948 1.393v.043a1.5 1.5 0 0 1 -2.092 1.373l-14.072-6.1a2.613 2.613 0 0 1 0-4.78l14.073-6.1a1.528 1.528 0 0 1 1.129 2.842z"/><path d="m42.533 76.556a3.308 3.308 0 0 0 3.225-2.54l6.188-25.568a3.321 3.321 0 0 0 -6.455-1.562l-6.191 25.568a3.325 3.325 0 0 0 2.45 4.01 3.4 3.4 0 0 0 .783.092zm-1.133-2.633a1.309 1.309 0 0 1 -.157-1l6.188-25.57a1.324 1.324 0 0 1 1.28-1.011 1.283 1.283 0 0 1 .313.038 1.322 1.322 0 0 1 .976 1.596l-6.186 25.571a1.329 1.329 0 0 1 -1.593.972 1.314 1.314 0 0 1 -.821-.596z"/><path d="m52.1 67.546a3.5 3.5 0 0 0 4.9 3.207l14.073-6.128a4.584 4.584 0 0 0 -.013-8.411l-14.073-6.071a3.5 3.5 0 1 0 -2.648 6.473l9.793 3.789-9.808 3.852a3.486 3.486 0 0 0 -2.224 3.289zm2.951-1.428 12.2-4.789a1 1 0 0 0 0-1.863l-12.19-4.715a1.507 1.507 0 0 1 -.957-1.4 1.5 1.5 0 0 1 1.494-1.5 1.505 1.505 0 0 1 .6.125l14.068 6.074a2.584 2.584 0 0 1 .006 4.741l-14.072 6.128a1.473 1.473 0 0 1 -1.418-.12 1.525 1.525 0 0 1 .274-2.681z"/></g></svg>