<?xml version="1.0"?>
<svg xmlns="http://www.w3.org/2000/svg" viewBox="0 0 128 128" width="512" height="512"><rect x="10" y="17" width="112" height="98" rx="5" ry="5" fill="#e6e7e8"/><rect x="7" y="14" width="110" height="96" rx="4" ry="4" fill="#d4fbff"/><path d="M113,14H11a4,4,0,0,0-4,4V28.5H117V18A4,4,0,0,0,113,14Z" fill="#0089ef"/><path d="M10,106V18a4,4,0,0,1,4-4H11a4,4,0,0,0-4,4v88a4,4,0,0,0,4,4h3A4,4,0,0,1,10,106Z" fill="#fff"/><path d="M95.667,19.083A2.334,2.334,0,1,0,98,21.416,2.334,2.334,0,0,0,95.667,19.083Z" fill="#fff"/><path d="M102.667,19.083A2.334,2.334,0,1,0,105,21.416,2.333,2.333,0,0,0,102.667,19.083Z" fill="#d4fbff"/><path d="M109.667,19.083A2.334,2.334,0,1,0,112,21.416,2.333,2.333,0,0,0,109.667,19.083Z" fill="#fa759e"/><path d="M62,34.251h0A29.324,29.324,0,0,0,92,51.572h0a29.321,29.321,0,0,0,0,34.641h0a29.322,29.322,0,0,0-30,17.32h0a29.321,29.321,0,0,0-30-17.32h0a29.321,29.321,0,0,0,0-34.641h0A29.323,29.323,0,0,0,62,34.251Z" fill="#ffd7e5"/><path d="M96.25,27.5H87.5a1,1,0,0,0,0,2h8.75a1,1,0,0,0,0-2Z" fill="#3a2c60"/><path d="M113,13H11a5.006,5.006,0,0,0-5,5v88a5.006,5.006,0,0,0,5,5H113a5.006,5.006,0,0,0,5-5V18A5.006,5.006,0,0,0,113,13Zm0,96H11a3,3,0,0,1-3-3V29.5H82.667a1,1,0,0,0,0-2H8V18a3,3,0,0,1,3-3H113a3,3,0,0,1,3,3v9.5H101.268a1,1,0,0,0,0,2H116V106A3,3,0,0,1,113,109Z" fill="#3a2c60"/><path d="M92.866,51.072a1,1,0,0,0-.974-.494,28.232,28.232,0,0,1-28.977-16.73,1,1,0,0,0-1.83,0,28.228,28.228,0,0,1-28.977,16.73,1,1,0,0,0-.915,1.585,28.216,28.216,0,0,1,0,33.459,1,1,0,0,0,.915,1.585,28.228,28.228,0,0,1,28.977,16.729,1,1,0,0,0,1.83,0A28.226,28.226,0,0,1,91.892,87.207a1,1,0,0,0,.915-1.585,28.216,28.216,0,0,1,0-33.459A1,1,0,0,0,92.866,51.072Zm-5.07,1.66L80.237,57.1A17.243,17.243,0,0,1,63,47.011V38.3A30.115,30.115,0,0,0,87.8,52.732ZM63,63.339a8.272,8.272,0,0,0,3.19,1.878L63,67.061Zm-2,3.836-3.325-1.922A8.274,8.274,0,0,0,61,63.339ZM59.9,68.85l-3.182,1.839A8.266,8.266,0,0,0,56.7,67ZM61,70.526v3.919A8.255,8.255,0,0,0,57.576,72.5Zm2,.114,3.289,1.9A8.284,8.284,0,0,0,63,74.445Zm.9-1.79,3.441-1.988a8.267,8.267,0,0,0-.026,3.961Zm5.127-5.271A6.283,6.283,0,0,1,63,59.986V51.014a19.206,19.206,0,0,0,13.825,8.058ZM61,59.986a6.294,6.294,0,0,1-6.234,3.587l-7.76-4.485A19.207,19.207,0,0,0,61,51.014Zm-7.2,5.336a6.284,6.284,0,0,1,.08,7.01l-7.8,4.509a19.21,19.21,0,0,0-.052-16.012Zm.815,8.894A6.3,6.3,0,0,1,61,77.8V86.77a19.211,19.211,0,0,0-14.118-8.087ZM63,77.8a6.305,6.305,0,0,1,6.179-3.588l7.77,4.49A19.21,19.21,0,0,0,63,86.77Zm7.231-5.289a6.3,6.3,0,0,1,.076-7.356l0-.007,7.739-4.472A19.209,19.209,0,0,0,78,77ZM61,38.3v8.708A17.266,17.266,0,0,1,43.539,57.085l-7.534-4.353A30.161,30.161,0,0,0,61,38.3ZM35.011,54.466l7.546,4.361a17.246,17.246,0,0,1,.092,19.993l-7.564,4.371A30.166,30.166,0,0,0,35.011,54.466Zm.839,30.593,7.525-4.349A17.263,17.263,0,0,1,61,90.772v8.7A30.157,30.157,0,0,0,35.85,85.059ZM63,99.482v-8.71A17.259,17.259,0,0,1,80.4,80.695l7.541,4.358A30.19,30.19,0,0,0,63,99.482ZM89.016,83.363l-7.54-4.357a17.256,17.256,0,0,1,.081-20.348l.008-.016,7.525-4.348A30.156,30.156,0,0,0,89.016,83.363Z" fill="#3a2c60"/></svg>
