<svg height="512" viewBox="0 0 128 128" width="512" xmlns="http://www.w3.org/2000/svg"><path d="m106.986 40.073-27.447-27.446a1 1 0 0 0 -.707-.293h-51.166a3 3 0 0 0 -3 3v101.333a3 3 0 0 0 3 3h76.667a3 3 0 0 0 3-3v-75.836a1 1 0 0 0 -.347-.758z" fill="#e6e7e8"/><path d="m102.331 36.833-27.5-27.5h-51.164a2 2 0 0 0 -2 2v101.334a2 2 0 0 0 2 2h76.666a2 2 0 0 0 2-2v-75.836z" fill="#d4fbff"/><path d="m21.667 91v21.667a2 2 0 0 0 2 2h76.666a2 2 0 0 0 2-2v-21.667z" fill="#6dc9f7"/><path d="m23.667 12.333h54.165l-3-3h-51.165a2 2 0 0 0 -2 2v3a2 2 0 0 1 2-2z" fill="#fff"/><path d="m74.834 9.333v25.5a2 2 0 0 0 2 2h25.5z" fill="#6dc9f7"/><path d="m50.029 68.689v.039a2.239 2.239 0 0 1 -3.129 2.055l-12.619-5.469a3.213 3.213 0 0 1 -1.935-2.948v-.035a3.214 3.214 0 0 1 1.935-2.949l12.619-5.468a2.239 2.239 0 0 1 3.129 2.054v.062a2.238 2.238 0 0 1 -1.429 2.089l-10.893 4.194 10.9 4.293a2.239 2.239 0 0 1 1.422 2.083z" fill="#fa759e"/><path d="m53.264 56.231a6.355 6.355 0 0 1 1.072-3.384 8.263 8.263 0 0 1 3.129-2.839 9.842 9.842 0 0 1 4.8-1.125 10.247 10.247 0 0 1 4.5.941 7.3 7.3 0 0 1 3.014 2.557 6.273 6.273 0 0 1 1.063 3.519 5.428 5.428 0 0 1 -.607 2.619 8 8 0 0 1 -1.441 1.943q-.836.816-3 2.75a12.254 12.254 0 0 0 -.958.958 3.927 3.927 0 0 0 -.536.756 3.7 3.7 0 0 0 -.273.686q-.1.342-.29 1.2a1.956 1.956 0 0 1 -2.092 1.828 2.137 2.137 0 0 1 -1.538-.6 2.346 2.346 0 0 1 -.624-1.775 6.23 6.23 0 0 1 1.67-4.456 27.932 27.932 0 0 1 2.047-1.939q1.125-.985 1.626-1.486a5.06 5.06 0 0 0 .844-1.116 2.7 2.7 0 0 0 .343-1.336 3.109 3.109 0 0 0 -1.046-2.373 3.82 3.82 0 0 0 -2.7-.967 3.731 3.731 0 0 0 -2.848.976 7.78 7.78 0 0 0 -1.547 2.874q-.6 1.986-2.267 1.986a2.231 2.231 0 0 1 -1.662-.694 2.124 2.124 0 0 1 -.679-1.503zm8.578 19.269a2.765 2.765 0 0 1 -1.872-.7 2.432 2.432 0 0 1 -.8-1.942 2.5 2.5 0 0 1 .773-1.858 2.614 2.614 0 0 1 1.9-.756 2.582 2.582 0 0 1 2.619 2.619 2.453 2.453 0 0 1 -.791 1.933 2.669 2.669 0 0 1 -1.829.704z" fill="#fa759e"/><path d="m89.724 65.316-12.624 5.494a2.239 2.239 0 0 1 -3.133-2.053v-.031a2.237 2.237 0 0 1 1.421-2.084l10.936-4.294-10.924-4.227a2.239 2.239 0 0 1 -1.431-2.089 2.239 2.239 0 0 1 3.131-2.056l12.617 5.443a3.213 3.213 0 0 1 1.94 2.951 3.215 3.215 0 0 1 -1.933 2.946z" fill="#fa759e"/><g fill="#3a2c60"><path d="m51.822 97.348h-3.69a.942.942 0 0 0 -.682.24.9.9 0 0 0 -.247.675v8.776a.963.963 0 0 0 .262.712.944.944 0 0 0 .7.262.906.906 0 0 0 .975-.974v-3.225h2.684a3.8 3.8 0 0 0 2.64-.855 3.471 3.471 0 0 0 0-4.763 3.814 3.814 0 0 0 -2.642-.848zm-.24 4.98h-2.444v-3.48h2.444q1.995 0 2 1.74t-2 1.74z"/><path d="m65.367 97.273a.918.918 0 0 0 -.69.263.957.957 0 0 0 -.255.7v3.54h-5.415v-3.54a.9.9 0 0 0 -.96-.96.918.918 0 0 0 -.69.263.957.957 0 0 0 -.254.7v8.806a.964.964 0 0 0 .262.7.908.908 0 0 0 .682.27.93.93 0 0 0 .7-.27.964.964 0 0 0 .262-.7v-3.7h5.415v3.7a.981.981 0 0 0 .255.7 1.008 1.008 0 0 0 1.373 0 .964.964 0 0 0 .262-.7v-8.812a.957.957 0 0 0 -.254-.7.922.922 0 0 0 -.693-.26z"/><path d="m73.212 97.348h-3.69a.942.942 0 0 0 -.682.24.9.9 0 0 0 -.248.675v8.776a.967.967 0 0 0 .262.712.944.944 0 0 0 .7.262.9.9 0 0 0 .975-.974v-3.225h2.685a3.8 3.8 0 0 0 2.64-.855 3.473 3.473 0 0 0 0-4.763 3.816 3.816 0 0 0 -2.642-.848zm-.24 4.98h-2.445v-3.48h2.445q2 0 2 1.74t-2 1.74z"/><path d="m103 36.085-27.461-27.459c-.187-.187-51.872-.293-51.872-.293a3 3 0 0 0 -3 3v49.067a1 1 0 0 0 2 0v-49.067a1 1 0 0 1 1-1h50.165v24.5a3 3 0 0 0 3 3h24.5v52.167h-78.665v-11.43a1 1 0 0 0 -2 0v34.1a3 3 0 0 0 3 3h76.667a3 3 0 0 0 3-3v-75.839a1 1 0 0 0 -.334-.746zm-27.168-1.252v-23.085l24.086 24.085h-23.086a1 1 0 0 1 -1-1zm24.5 78.833h-76.665a1 1 0 0 1 -1-1v-20.666h78.667v20.666a1 1 0 0 1 -1 1z"/><path d="m21.667 75.4a1 1 0 0 0 1-1v-9.5a1 1 0 1 0 -2 0v9.5a1 1 0 0 0 1 1z"/><path d="m51.029 55.968a3.238 3.238 0 0 0 -4.529-2.968l-12.616 5.465a4.239 4.239 0 0 0 0 7.766l12.616 5.469a3.24 3.24 0 0 0 4.528-2.972v-.039a3.22 3.22 0 0 0 -2.052-3.014l-8.514-3.352 8.491-3.27a3.281 3.281 0 0 0 2.076-3.085zm-2.794 1.218-10.887 4.194a1 1 0 0 0 -.007 1.864l10.9 4.293a1.231 1.231 0 0 1 .785 1.152v.039a1.239 1.239 0 0 1 -1.726 1.137l-12.621-5.465a2.24 2.24 0 0 1 0-4.1l12.621-5.469a1.248 1.248 0 0 1 .5-.1 1.232 1.232 0 0 1 .677.205 1.29 1.29 0 0 1 -.235 2.254z"/><path d="m64.716 67.032q.184-.823.277-1.152a2.738 2.738 0 0 1 .2-.5 2.907 2.907 0 0 1 .4-.555 11.443 11.443 0 0 1 .871-.87c1.467-1.311 2.458-2.221 3.031-2.782a9.051 9.051 0 0 0 1.622-2.182 6.446 6.446 0 0 0 .726-3.094 7.282 7.282 0 0 0 -1.228-4.065 8.309 8.309 0 0 0 -3.415-2.909 11.279 11.279 0 0 0 -4.934-1.04 10.873 10.873 0 0 0 -5.279 1.248 9.278 9.278 0 0 0 -3.5 3.186 7.368 7.368 0 0 0 -1.224 3.914 3.1 3.1 0 0 0 .96 2.2 3.294 3.294 0 0 0 5.594-1.674 6.874 6.874 0 0 1 1.328-2.507 3.483 3.483 0 0 1 4.137.042 2.1 2.1 0 0 1 .725 1.639 1.7 1.7 0 0 1 -.216.849 4.074 4.074 0 0 1 -.678.9c-.317.317-.847.8-1.578 1.441a28.919 28.919 0 0 0 -2.114 2.015 7.23 7.23 0 0 0 -1.936 5.135 3.313 3.313 0 0 0 .932 2.5 3.09 3.09 0 0 0 1.12.694 3.577 3.577 0 0 0 -1.293.821 3.693 3.693 0 0 0 .069 5.277 3.753 3.753 0 0 0 2.528.939 3.658 3.658 0 0 0 2.493-.956 3.472 3.472 0 0 0 1.126-2.681 3.6 3.6 0 0 0 -2.509-3.46 2.98 2.98 0 0 0 1.765-2.373zm-1.716 4.668a1.534 1.534 0 0 1 .463 1.156 1.437 1.437 0 0 1 -.456 1.186 1.764 1.764 0 0 1 -2.379 0 1.417 1.417 0 0 1 -.456-1.187 1.509 1.509 0 0 1 .472-1.148 1.615 1.615 0 0 1 1.2-.471 1.535 1.535 0 0 1 1.156.464zm.07-6.367c-.067.239-.169.658-.312 1.3-.153.843-.523 1.008-1.108 1.008a1.147 1.147 0 0 1 -.846-.32 1.432 1.432 0 0 1 -.316-1.053 5.6 5.6 0 0 1 .378-2.168 5.533 5.533 0 0 1 1.027-1.609 26.674 26.674 0 0 1 1.963-1.869c.773-.677 1.321-1.178 1.674-1.531a6.082 6.082 0 0 0 1.011-1.336 3.708 3.708 0 0 0 .469-1.823 4.083 4.083 0 0 0 -1.367-3.107 4.8 4.8 0 0 0 -3.377-1.233 4.691 4.691 0 0 0 -3.578 1.292 8.707 8.707 0 0 0 -1.774 3.27c-.384 1.274-1.01 1.274-1.31 1.274a1.224 1.224 0 0 1 -.945-.392 1.108 1.108 0 0 1 -.393-.8 5.4 5.4 0 0 1 .92-2.854 7.3 7.3 0 0 1 2.761-2.491 8.907 8.907 0 0 1 4.319-1 9.3 9.3 0 0 1 4.066.842 6.344 6.344 0 0 1 2.613 2.206 5.246 5.246 0 0 1 .9 2.966 4.474 4.474 0 0 1 -.487 2.144 7.044 7.044 0 0 1 -1.261 1.7c-.543.532-1.54 1.447-2.971 2.727a12.922 12.922 0 0 0 -1.038 1.039 4.849 4.849 0 0 0 -.672.957 4.7 4.7 0 0 0 -.348.865z"/><path d="m72.971 68.757a3.236 3.236 0 0 0 4.532 2.97l12.62-5.5a4.213 4.213 0 0 0 -.013-7.727l-12.617-5.442a3.239 3.239 0 0 0 -4.522 2.974 3.258 3.258 0 0 0 2.07 3.021l8.534 3.3-8.549 3.356a3.232 3.232 0 0 0 -2.055 3.048zm2.786-1.184 10.936-4.294a1 1 0 0 0 0-1.864l-10.931-4.227a1.247 1.247 0 0 1 -.791-1.156 1.246 1.246 0 0 1 1.235-1.242 1.257 1.257 0 0 1 .495.1l12.617 5.444a2.213 2.213 0 0 1 .007 4.06l-12.619 5.5a1.253 1.253 0 1 1 -.948-2.32z"/></g></svg>