<svg height="512" viewBox="0 0 128 128" width="512" xmlns="http://www.w3.org/2000/svg"><rect fill="#e6e7e8" height="73.235" rx="7" width="73.234" x="29.383" y="28.976"/><path d="m105.75 52.617h13.883a3.618 3.618 0 0 0 0-7.235h-13.883a1 1 0 0 0 -1 1v5.235a1 1 0 0 0 1 1z" fill="#e6e7e8"/><path d="m119.633 62.383h-13.883a1 1 0 0 0 -1 1v5.234a1 1 0 0 0 1 1h13.883a3.617 3.617 0 1 0 0-7.234z" fill="#e6e7e8"/><path d="m119.633 79.383h-13.883a1 1 0 0 0 -1 1v5.235a1 1 0 0 0 1 1h13.883a3.618 3.618 0 0 0 0-7.235z" fill="#e6e7e8"/><path d="m26.25 45.382h-13.883a3.618 3.618 0 0 0 0 7.235h13.883a1 1 0 0 0 1-1v-5.235a1 1 0 0 0 -1-1z" fill="#e6e7e8"/><path d="m26.25 62.383h-13.883a3.617 3.617 0 0 0 0 7.234h13.883a1 1 0 0 0 1-1v-5.234a1 1 0 0 0 -1-1z" fill="#e6e7e8"/><path d="m26.25 79.383h-13.883a3.618 3.618 0 0 0 0 7.235h13.883a1 1 0 0 0 1-1v-5.235a1 1 0 0 0 -1-1z" fill="#e6e7e8"/><path d="m85.617 104.75h-5.234a1 1 0 0 0 -1 1v13.883a3.617 3.617 0 0 0 7.234 0v-13.883a1 1 0 0 0 -1-1z" fill="#e6e7e8"/><path d="m68.617 104.75h-5.234a1 1 0 0 0 -1 1v13.883a3.617 3.617 0 0 0 7.234 0v-13.883a1 1 0 0 0 -1-1z" fill="#e6e7e8"/><path d="m51.617 104.75h-5.234a1 1 0 0 0 -1 1v13.883a3.617 3.617 0 0 0 7.234 0v-13.883a1 1 0 0 0 -1-1z" fill="#e6e7e8"/><path d="m80.383 27.249h5.234a1 1 0 0 0 1-1v-13.882a3.617 3.617 0 1 0 -7.234 0v13.882a1 1 0 0 0 1 1z" fill="#e6e7e8"/><path d="m63.383 27.249h5.234a1 1 0 0 0 1-1v-13.882a3.617 3.617 0 1 0 -7.234 0v13.882a1 1 0 0 0 1 1z" fill="#e6e7e8"/><path d="m46.383 27.249h5.234a1 1 0 0 0 1-1v-13.882a3.617 3.617 0 1 0 -7.234 0v13.882a1 1 0 0 0 1 1z" fill="#e6e7e8"/><rect fill="#fa759e" height="71.235" rx="6" width="71.235" x="26.382" y="25.976"/><rect fill="#ffd7e5" height="58" rx="6" width="58" x="33" y="32.593"/><path d="m36 84.593v-46a6 6 0 0 1 6-6h-3a6 6 0 0 0 -6 6v46a6 6 0 0 0 6 6h3a6 6 0 0 1 -6-6z" fill="#fff"/><path d="m115.633 42.382h-13.883v5.235h13.883a2.618 2.618 0 0 0 0-5.235z" fill="#ffd7e5"/><path d="m115.633 59.383h-13.883v5.234h13.883a2.617 2.617 0 1 0 0-5.234z" fill="#ffd7e5"/><path d="m115.633 76.383h-13.883v5.234h13.883a2.617 2.617 0 0 0 0-5.234z" fill="#ffd7e5"/><path d="m8.367 42.382h13.883v5.235h-13.883a2.618 2.618 0 0 1 0-5.235z" fill="#ffd7e5"/><path d="m8.367 59.383h13.883v5.234h-13.883a2.617 2.617 0 1 1 0-5.234z" fill="#ffd7e5"/><path d="m8.367 76.383h13.883v5.234h-13.883a2.617 2.617 0 0 1 0-5.234z" fill="#ffd7e5"/><path d="m81.617 115.633v-13.883h-5.234v13.883a2.617 2.617 0 0 0 5.234 0z" fill="#ffd7e5"/><path d="m64.617 115.633v-13.883h-5.234v13.883a2.617 2.617 0 0 0 5.234 0z" fill="#ffd7e5"/><path d="m47.617 115.633v-13.883h-5.234v13.883a2.617 2.617 0 0 0 5.234 0z" fill="#ffd7e5"/><path d="m81.618 8.367v13.883h-5.235v-13.883a2.618 2.618 0 0 1 5.235 0z" fill="#ffd7e5"/><path d="m64.617 8.367v13.883h-5.234v-13.883a2.617 2.617 0 0 1 5.234 0z" fill="#ffd7e5"/><path d="m47.617 8.367v13.883h-5.234v-13.883a2.617 2.617 0 1 1 5.234 0z" fill="#ffd7e5"/><g fill="#3a2c60"><path d="m91.617 24.976h-59.234a7.008 7.008 0 0 0 -7 7v59.234a7.008 7.008 0 0 0 7 7h59.234a7.008 7.008 0 0 0 7-7v-59.234a7.008 7.008 0 0 0 -7-7zm5 66.234a5.006 5.006 0 0 1 -5 5h-59.234a5.006 5.006 0 0 1 -5-5v-59.234a5.006 5.006 0 0 1 5-5h59.234a5.006 5.006 0 0 1 5 5z"/><path d="m40.437 54.507a1.128 1.128 0 0 0 -.82.288 1.076 1.076 0 0 0 -.3.81v10.53a1.155 1.155 0 0 0 .315.855 1.131 1.131 0 0 0 .837.315 1.089 1.089 0 0 0 1.171-1.17v-3.87h3.221a4.553 4.553 0 0 0 3.168-1.026 4.167 4.167 0 0 0 0-5.715 4.584 4.584 0 0 0 -3.168-1.017zm6.533 3.893q0 2.089-2.394 2.088h-2.933v-4.181h2.933q2.394 0 2.394 2.093z"/><path d="m56.8 54.345a6.321 6.321 0 0 0 -3.222.792 5.229 5.229 0 0 0 -2.1 2.259 8.482 8.482 0 0 0 .008 6.9 5.3 5.3 0 0 0 2.1 2.268 6.877 6.877 0 0 0 6.408 0 5.3 5.3 0 0 0 2.1-2.268 8.493 8.493 0 0 0 .01-6.9 5.265 5.265 0 0 0 -2.088-2.259 6.273 6.273 0 0 0 -3.216-.792zm2.725 9.955a3.705 3.705 0 0 1 -5.471 0 5.345 5.345 0 0 1 -.982-3.456 5.309 5.309 0 0 1 .982-3.447 3.724 3.724 0 0 1 5.471 0 5.309 5.309 0 0 1 .981 3.447 5.345 5.345 0 0 1 -.981 3.456z"/><path d="m67.192 54.84a4.141 4.141 0 0 0 -1.754 1.377 3.353 3.353 0 0 0 -.63 2 2.98 2.98 0 0 0 .5 1.782 3.626 3.626 0 0 0 1.494 1.152 12.934 12.934 0 0 0 2.574.792 8.689 8.689 0 0 1 2.186.711 1.152 1.152 0 0 1 .658 1.053 1.5 1.5 0 0 1 -.7 1.341 3.686 3.686 0 0 1 -2.016.459 6.536 6.536 0 0 1 -1.872-.252 5.375 5.375 0 0 1 -1.62-.81 1.465 1.465 0 0 0 -.739-.252.664.664 0 0 0 -.53.279 1.093 1.093 0 0 0 .189 1.521 5.726 5.726 0 0 0 2.006 1 9.1 9.1 0 0 0 2.62.369 6.567 6.567 0 0 0 2.583-.477 4.048 4.048 0 0 0 1.746-1.332 3.267 3.267 0 0 0 .621-1.971 2.707 2.707 0 0 0 -.531-1.71 3.858 3.858 0 0 0 -1.53-1.125 14.493 14.493 0 0 0 -2.6-.8 7.384 7.384 0 0 1 -2.142-.738 1.261 1.261 0 0 1 -.63-1.134 1.585 1.585 0 0 1 .711-1.377 3.334 3.334 0 0 1 1.935-.5 4.875 4.875 0 0 1 1.7.261 6.1 6.1 0 0 1 1.431.8 2.624 2.624 0 0 0 .405.2.99.99 0 0 0 .333.054.666.666 0 0 0 .531-.279 1.12 1.12 0 0 0 .126-1.134 1.368 1.368 0 0 0 -.333-.387 6.963 6.963 0 0 0 -6.724-.873z"/><path d="m76.094 56.415h3.276v9.72a1.13 1.13 0 0 0 .315.837 1.155 1.155 0 0 0 .855.315 1.082 1.082 0 0 0 1.151-1.152v-9.72h3.277q1.08 0 1.08-.954t-1.08-.954h-8.874q-1.08 0-1.08.954t1.08.954z"/><path d="m85 31.593h-8.333a1 1 0 1 0 0 2h8.333a5.006 5.006 0 0 1 5 5v46a5.006 5.006 0 0 1 -5 5h-46a5.006 5.006 0 0 1 -5-5v-46a5.006 5.006 0 0 1 5-5h21.125a1 1 0 0 0 0-2h-21.125a7.008 7.008 0 0 0 -7 7v46a7.008 7.008 0 0 0 7 7h46a7.008 7.008 0 0 0 7-7v-46a7.008 7.008 0 0 0 -7-7z"/><path d="m64.383 33.593h7.992a1 1 0 0 0 0-2h-7.992a1 1 0 1 0 0 2z"/><path d="m101.75 48.617h13.883a3.618 3.618 0 0 0 0-7.235h-13.883a1 1 0 0 0 -1 1v5.235a1 1 0 0 0 1 1zm1-5.235h12.883a1.618 1.618 0 0 1 0 3.235h-12.883z"/><path d="m115.633 58.382h-13.883a1 1 0 0 0 -1 1v5.235a1 1 0 0 0 1 1h13.883a3.618 3.618 0 0 0 0-7.235zm0 5.235h-12.883v-3.235h12.883a1.618 1.618 0 0 1 0 3.235z"/><path d="m115.633 75.383h-13.883a1 1 0 0 0 -1 1v5.234a1 1 0 0 0 1 1h13.883a3.617 3.617 0 0 0 0-7.234zm0 5.234h-12.883v-3.234h12.883a1.617 1.617 0 0 1 0 3.234z"/><path d="m22.25 41.382h-13.883a3.618 3.618 0 0 0 0 7.235h13.883a1 1 0 0 0 1-1v-5.235a1 1 0 0 0 -1-1zm-1 5.235h-12.883a1.618 1.618 0 0 1 0-3.235h12.883z"/><path d="m22.25 58.382h-13.883a3.618 3.618 0 0 0 0 7.235h13.883a1 1 0 0 0 1-1v-5.235a1 1 0 0 0 -1-1zm-1 5.235h-12.883a1.618 1.618 0 0 1 0-3.235h12.883z"/><path d="m22.25 75.383h-13.883a3.617 3.617 0 0 0 0 7.234h13.883a1 1 0 0 0 1-1v-5.234a1 1 0 0 0 -1-1zm-1 5.234h-12.883a1.617 1.617 0 1 1 0-3.234h12.883z"/><path d="m81.617 100.75h-5.234a1 1 0 0 0 -1 1v13.883a3.617 3.617 0 0 0 7.234 0v-13.883a1 1 0 0 0 -1-1zm-1 14.883a1.617 1.617 0 0 1 -3.234 0v-12.883h3.234z"/><path d="m64.617 100.75h-5.234a1 1 0 0 0 -1 1v13.883a3.617 3.617 0 0 0 7.234 0v-13.883a1 1 0 0 0 -1-1zm-1 14.883a1.617 1.617 0 0 1 -3.234 0v-12.883h3.234z"/><path d="m47.617 100.75h-5.234a1 1 0 0 0 -1 1v13.883a3.617 3.617 0 1 0 7.234 0v-13.883a1 1 0 0 0 -1-1zm-1 14.883a1.617 1.617 0 1 1 -3.234 0v-12.883h3.234z"/><path d="m76.383 23.25h5.234a1 1 0 0 0 1-1v-13.883a3.617 3.617 0 0 0 -7.234 0v13.883a1 1 0 0 0 1 1zm1-14.883a1.617 1.617 0 0 1 3.234 0v12.883h-3.234z"/><path d="m59.383 23.25h5.234a1 1 0 0 0 1-1v-13.883a3.617 3.617 0 0 0 -7.234 0v13.883a1 1 0 0 0 1 1zm1-14.883a1.617 1.617 0 1 1 3.234 0v12.883h-3.234z"/><path d="m42.383 23.25h5.234a1 1 0 0 0 1-1v-13.883a3.617 3.617 0 1 0 -7.234 0v13.883a1 1 0 0 0 1 1zm1-14.883a1.617 1.617 0 1 1 3.234 0v12.883h-3.234z"/></g></svg>