<svg height="512" viewBox="0 0 128 128" width="512" xmlns="http://www.w3.org/2000/svg"><rect fill="#e6e7e8" height="73.235" rx="7" width="73.234" x="29.383" y="28.976"/><path d="m105.75 52.617h13.883a3.618 3.618 0 0 0 0-7.235h-13.883a1 1 0 0 0 -1 1v5.235a1 1 0 0 0 1 1z" fill="#e6e7e8"/><path d="m119.633 62.383h-13.883a1 1 0 0 0 -1 1v5.234a1 1 0 0 0 1 1h13.883a3.617 3.617 0 1 0 0-7.234z" fill="#e6e7e8"/><path d="m119.633 79.383h-13.883a1 1 0 0 0 -1 1v5.235a1 1 0 0 0 1 1h13.883a3.618 3.618 0 0 0 0-7.235z" fill="#e6e7e8"/><path d="m26.25 45.382h-13.883a3.618 3.618 0 0 0 0 7.235h13.883a1 1 0 0 0 1-1v-5.235a1 1 0 0 0 -1-1z" fill="#e6e7e8"/><path d="m26.25 62.383h-13.883a3.617 3.617 0 0 0 0 7.234h13.883a1 1 0 0 0 1-1v-5.234a1 1 0 0 0 -1-1z" fill="#e6e7e8"/><path d="m26.25 79.383h-13.883a3.618 3.618 0 0 0 0 7.235h13.883a1 1 0 0 0 1-1v-5.235a1 1 0 0 0 -1-1z" fill="#e6e7e8"/><path d="m85.617 104.75h-5.234a1 1 0 0 0 -1 1v13.883a3.617 3.617 0 0 0 7.234 0v-13.883a1 1 0 0 0 -1-1z" fill="#e6e7e8"/><path d="m68.617 104.75h-5.234a1 1 0 0 0 -1 1v13.883a3.617 3.617 0 0 0 7.234 0v-13.883a1 1 0 0 0 -1-1z" fill="#e6e7e8"/><path d="m51.617 104.75h-5.234a1 1 0 0 0 -1 1v13.883a3.617 3.617 0 0 0 7.234 0v-13.883a1 1 0 0 0 -1-1z" fill="#e6e7e8"/><path d="m80.383 27.249h5.234a1 1 0 0 0 1-1v-13.882a3.617 3.617 0 1 0 -7.234 0v13.882a1 1 0 0 0 1 1z" fill="#e6e7e8"/><path d="m63.383 27.249h5.234a1 1 0 0 0 1-1v-13.882a3.617 3.617 0 1 0 -7.234 0v13.882a1 1 0 0 0 1 1z" fill="#e6e7e8"/><path d="m46.383 27.249h5.234a1 1 0 0 0 1-1v-13.882a3.617 3.617 0 1 0 -7.234 0v13.882a1 1 0 0 0 1 1z" fill="#e6e7e8"/><rect fill="#0089ef" height="71.235" rx="6" width="71.235" x="26.382" y="25.976"/><rect fill="#6dc9f7" height="58" rx="6" width="58" x="33" y="32.593"/><path d="m85 87.593h-46a6 6 0 0 1 -6-6v3a6 6 0 0 0 6 6h46a6 6 0 0 0 6-6v-3a6 6 0 0 1 -6 6z" fill="#fff"/><path d="m115.633 42.382h-13.883v5.235h13.883a2.618 2.618 0 0 0 0-5.235z" fill="#6dc9f7"/><path d="m115.633 59.383h-13.883v5.234h13.883a2.617 2.617 0 1 0 0-5.234z" fill="#6dc9f7"/><path d="m115.633 76.383h-13.883v5.234h13.883a2.617 2.617 0 0 0 0-5.234z" fill="#6dc9f7"/><path d="m8.367 42.382h13.883v5.235h-13.883a2.618 2.618 0 0 1 0-5.235z" fill="#6dc9f7"/><path d="m8.367 59.383h13.883v5.234h-13.883a2.617 2.617 0 1 1 0-5.234z" fill="#6dc9f7"/><path d="m8.367 76.383h13.883v5.234h-13.883a2.617 2.617 0 0 1 0-5.234z" fill="#6dc9f7"/><path d="m81.617 115.633v-13.883h-5.234v13.883a2.617 2.617 0 0 0 5.234 0z" fill="#6dc9f7"/><path d="m64.617 115.633v-13.883h-5.234v13.883a2.617 2.617 0 0 0 5.234 0z" fill="#6dc9f7"/><path d="m47.617 115.633v-13.883h-5.234v13.883a2.617 2.617 0 0 0 5.234 0z" fill="#6dc9f7"/><path d="m81.618 8.367v13.883h-5.235v-13.883a2.618 2.618 0 0 1 5.235 0z" fill="#6dc9f7"/><path d="m64.617 8.367v13.883h-5.234v-13.883a2.617 2.617 0 0 1 5.234 0z" fill="#6dc9f7"/><path d="m47.617 8.367v13.883h-5.234v-13.883a2.617 2.617 0 1 1 5.234 0z" fill="#6dc9f7"/><g fill="#3a2c60"><path d="m91.617 24.976h-59.234a7.008 7.008 0 0 0 -7 7v59.234a7.008 7.008 0 0 0 7 7h59.234a7.008 7.008 0 0 0 7-7v-59.234a7.008 7.008 0 0 0 -7-7zm5 66.234a5.006 5.006 0 0 1 -5 5h-59.234a5.006 5.006 0 0 1 -5-5v-59.234a5.006 5.006 0 0 1 5-5h59.234a5.006 5.006 0 0 1 5 5z"/><path d="m46.988 54.507a1.127 1.127 0 0 0 -.819.288 1.076 1.076 0 0 0 -.3.81v10.53a1.155 1.155 0 0 0 .315.855 1.131 1.131 0 0 0 .836.315 1.087 1.087 0 0 0 1.171-1.17v-3.87h3.222a4.553 4.553 0 0 0 3.168-1.026 4.167 4.167 0 0 0 0-5.715 4.584 4.584 0 0 0 -3.168-1.017zm6.534 3.893q0 2.089-2.394 2.088h-2.934v-4.181h2.934q2.394 0 2.394 2.093z"/><path d="m67.777 58.251a3.459 3.459 0 0 0 -1.125-2.781 4.925 4.925 0 0 0 -3.284-.963h-4.5a1.127 1.127 0 0 0 -.819.288 1.076 1.076 0 0 0 -.3.81v10.53a1.155 1.155 0 0 0 .314.855 1.133 1.133 0 0 0 .837.315 1.1 1.1 0 0 0 .828-.315 1.171 1.171 0 0 0 .307-.855v-4.035h1.765a2.1 2.1 0 0 1 1.053.234 2.332 2.332 0 0 1 .765.81l2.394 3.636a1.172 1.172 0 0 0 .99.54 1.206 1.206 0 0 0 .783-.27.844.844 0 0 0 .333-.684 1.132 1.132 0 0 0 -.217-.63l-1.637-2.5a3.959 3.959 0 0 0 -.774-.9 2.269 2.269 0 0 0 -.918-.45 3.957 3.957 0 0 0 2.366-1.215 3.511 3.511 0 0 0 .839-2.42zm-2.807 1.575a3.048 3.048 0 0 1 -1.926.495h-3.024v-4.014h3.024a3.134 3.134 0 0 1 1.926.477 1.809 1.809 0 0 1 .612 1.521 1.839 1.839 0 0 1 -.612 1.521z"/><path d="m77.876 56.343a1.222 1.222 0 0 0 .81-.243.859.859 0 0 0 .288-.693.812.812 0 0 0 -.288-.666 1.254 1.254 0 0 0 -.81-.234h-6.5a1.125 1.125 0 0 0 -.819.288 1.072 1.072 0 0 0 -.3.81v10.495a1.072 1.072 0 0 0 .3.81 1.125 1.125 0 0 0 .819.288h6.5a1.254 1.254 0 0 0 .81-.234.811.811 0 0 0 .288-.666.859.859 0 0 0 -.288-.693 1.222 1.222 0 0 0 -.81-.243h-5.347v-3.709h4.987a1.25 1.25 0 0 0 .809-.234.8.8 0 0 0 .288-.666.829.829 0 0 0 -.288-.684 1.25 1.25 0 0 0 -.809-.234h-4.987v-3.492z"/><path d="m85 31.593h-20.333a1 1 0 0 0 0 2h20.333a5.006 5.006 0 0 1 5 5v46a5.006 5.006 0 0 1 -5 5h-46a5.006 5.006 0 0 1 -5-5v-46a5.006 5.006 0 0 1 5-5h9.125a1 1 0 0 0 0-2h-9.125a7.008 7.008 0 0 0 -7 7v46a7.008 7.008 0 0 0 7 7h46a7.008 7.008 0 0 0 7-7v-46a7.008 7.008 0 0 0 -7-7z"/><path d="m52.383 33.593h7.992a1 1 0 0 0 0-2h-7.992a1 1 0 0 0 0 2z"/><path d="m101.75 48.617h13.883a3.618 3.618 0 0 0 0-7.235h-13.883a1 1 0 0 0 -1 1v5.235a1 1 0 0 0 1 1zm1-5.235h12.883a1.618 1.618 0 0 1 0 3.235h-12.883z"/><path d="m115.633 58.382h-13.883a1 1 0 0 0 -1 1v5.235a1 1 0 0 0 1 1h13.883a3.618 3.618 0 0 0 0-7.235zm0 5.235h-12.883v-3.235h12.883a1.618 1.618 0 0 1 0 3.235z"/><path d="m115.633 75.383h-13.883a1 1 0 0 0 -1 1v5.234a1 1 0 0 0 1 1h13.883a3.617 3.617 0 0 0 0-7.234zm0 5.234h-12.883v-3.234h12.883a1.617 1.617 0 0 1 0 3.234z"/><path d="m22.25 41.382h-13.883a3.618 3.618 0 0 0 0 7.235h13.883a1 1 0 0 0 1-1v-5.235a1 1 0 0 0 -1-1zm-1 5.235h-12.883a1.618 1.618 0 0 1 0-3.235h12.883z"/><path d="m22.25 58.382h-13.883a3.618 3.618 0 0 0 0 7.235h13.883a1 1 0 0 0 1-1v-5.235a1 1 0 0 0 -1-1zm-1 5.235h-12.883a1.618 1.618 0 0 1 0-3.235h12.883z"/><path d="m22.25 75.383h-13.883a3.617 3.617 0 0 0 0 7.234h13.883a1 1 0 0 0 1-1v-5.234a1 1 0 0 0 -1-1zm-1 5.234h-12.883a1.617 1.617 0 1 1 0-3.234h12.883z"/><path d="m81.617 100.75h-5.234a1 1 0 0 0 -1 1v13.883a3.617 3.617 0 0 0 7.234 0v-13.883a1 1 0 0 0 -1-1zm-1 14.883a1.617 1.617 0 0 1 -3.234 0v-12.883h3.234z"/><path d="m64.617 100.75h-5.234a1 1 0 0 0 -1 1v13.883a3.617 3.617 0 0 0 7.234 0v-13.883a1 1 0 0 0 -1-1zm-1 14.883a1.617 1.617 0 0 1 -3.234 0v-12.883h3.234z"/><path d="m47.617 100.75h-5.234a1 1 0 0 0 -1 1v13.883a3.617 3.617 0 1 0 7.234 0v-13.883a1 1 0 0 0 -1-1zm-1 14.883a1.617 1.617 0 1 1 -3.234 0v-12.883h3.234z"/><path d="m76.383 23.25h5.234a1 1 0 0 0 1-1v-13.883a3.617 3.617 0 0 0 -7.234 0v13.883a1 1 0 0 0 1 1zm1-14.883a1.617 1.617 0 0 1 3.234 0v12.883h-3.234z"/><path d="m59.383 23.25h5.234a1 1 0 0 0 1-1v-13.883a3.617 3.617 0 0 0 -7.234 0v13.883a1 1 0 0 0 1 1zm1-14.883a1.617 1.617 0 1 1 3.234 0v12.883h-3.234z"/><path d="m42.383 23.25h5.234a1 1 0 0 0 1-1v-13.883a3.617 3.617 0 1 0 -7.234 0v13.883a1 1 0 0 0 1 1zm1-14.883a1.617 1.617 0 1 1 3.234 0v12.883h-3.234z"/></g></svg>