<svg height="512" viewBox="0 0 128 128" width="512" xmlns="http://www.w3.org/2000/svg"><rect fill="#e6e7e8" height="110.643" rx="5" width="97.063" x="17.469" y="10.679"/><rect fill="#d4fbff" height="108.643" rx="4" width="95.063" x="14.469" y="7.679"/><path d="m27.244 7.679v48.78a4 4 0 0 0 2.312 3.626l30.756 14.315a4 4 0 0 0 3.376 0l30.756-14.315a4 4 0 0 0 2.311-3.626v-48.78z" fill="#6dc9f7"/><path d="m94.444 57.085-30.756 14.315a4 4 0 0 1 -3.376 0l-30.756-14.315a4 4 0 0 1 -2.311-3.626v3a4 4 0 0 0 2.311 3.626l30.756 14.315a4 4 0 0 0 3.376 0l30.756-14.315a4 4 0 0 0 2.311-3.626v-3a4 4 0 0 1 -2.311 3.626z" fill="#fff"/><path d="m88.17 31.494-26.17 29.006-26.17-29.006 7.252-12.494h37.836z" fill="#ffd7e5"/><g fill="#3a2c60"><path d="m105.531 6.679h-87.062a5.006 5.006 0 0 0 -5 5v100.642a5.006 5.006 0 0 0 5 5h87.062a5.006 5.006 0 0 0 5-5v-57.7a1 1 0 0 0 -2 0v57.7a3 3 0 0 1 -3 3h-87.062a3 3 0 0 1 -3-3v-100.642a3 3 0 0 1 3-3h7.776v47.78a5.015 5.015 0 0 0 2.889 4.532l30.755 14.319a4.993 4.993 0 0 0 4.221 0l30.756-14.319a5.015 5.015 0 0 0 2.889-4.532v-47.78h7.776a3 3 0 0 1 3 3v23.571a1 1 0 0 0 2 0v-23.571a5.006 5.006 0 0 0 -5-5zm-9.776 49.78a3.011 3.011 0 0 1 -1.733 2.72l-30.756 14.321a2.992 2.992 0 0 1 -2.533 0l-30.755-14.321a3.011 3.011 0 0 1 -1.733-2.72v-47.78h67.51z"/><path d="m109.531 38.75a1 1 0 0 0 -1 1v10.5a1 1 0 0 0 2 0v-10.5a1 1 0 0 0 -1-1z"/><path d="m61.257 61.17a1 1 0 0 0 1.486 0l26.169-29.006a1 1 0 0 0 .122-1.172l-7.251-12.492a1 1 0 0 0 -.865-.5h-37.836a1 1 0 0 0 -.865.5l-7.251 12.492a1 1 0 0 0 .122 1.172zm9.777-28.67-9.034 25.052-9.034-25.052zm-17.353-2 8.319-9.942 8.319 9.942zm19.479 2h12.758l-21.251 23.55zm-9.019-12.5h14.892l-6.66 9.835zm-12.514 9.835-6.66-9.835h14.892zm7.706 26.215-21.251-23.55h12.758zm27.101-25.55h-12.093l6.512-9.616zm-43.287-9.62 6.512 9.62h-12.093z"/><path d="m96.755 84h-69.51a1 1 0 0 0 0 2h69.51a1 1 0 0 0 0-2z"/><path d="m96.755 94h-69.51a1 1 0 0 0 0 2h69.51a1 1 0 0 0 0-2z"/><path d="m96.755 104h-69.51a1 1 0 0 0 0 2h69.51a1 1 0 0 0 0-2z"/></g></svg>