<svg height="512" viewBox="0 0 128 128" width="512" xmlns="http://www.w3.org/2000/svg"><rect fill="#e6e7e8" height="110.643" rx="5" width="97.062" x="17.469" y="10.679"/><rect fill="#d4fbff" height="108.643" rx="4" width="95.063" x="14.469" y="7.679"/><path d="m27.244 7.679v48.78a4 4 0 0 0 2.312 3.626l30.756 14.315a4 4 0 0 0 3.376 0l30.756-14.315a4 4 0 0 0 2.311-3.626v-48.78z" fill="#6dc9f7"/><path d="m27.245 7.679h69.511v3h-69.511z" fill="#fff"/><path d="m61.973 20.755-5.114 3.902 1.766 5.593h6.75l1.755-5.559z" fill="#fa759e"/><path d="m65.375 30.25h-6.75l-3 29.875 6.375 6 6.375-6z" fill="#fa759e"/><path d="m46.229 15.5 15.75 5.25-9.5 7.25z" fill="#0089ef"/><path d="m77.716 15.5-15.75 5.25 9.5 7.25z" fill="#0089ef"/><g fill="#3a2c60"><path d="m14.469 69.25a1 1 0 0 0 1-1v-9.5a1 1 0 0 0 -2 0v9.5a1 1 0 0 0 1 1z"/><path d="m105.531 6.679h-87.062a5.006 5.006 0 0 0 -5 5v42.821a1 1 0 0 0 2 0v-42.821a3 3 0 0 1 3-3h7.776v47.78a5.015 5.015 0 0 0 2.889 4.532l30.755 14.319a4.993 4.993 0 0 0 4.221 0l30.755-14.319a5.015 5.015 0 0 0 2.891-4.532v-47.78h7.775a3 3 0 0 1 3 3v100.642a3 3 0 0 1 -3 3h-87.062a3 3 0 0 1 -3-3v-39.571a1 1 0 0 0 -2 0v39.571a5.006 5.006 0 0 0 5 5h87.062a5.006 5.006 0 0 0 5-5v-100.642a5.006 5.006 0 0 0 -5-5zm-9.775 49.78a3.012 3.012 0 0 1 -1.735 2.72l-30.755 14.321a2.992 2.992 0 0 1 -2.533 0l-30.755-14.321a3.011 3.011 0 0 1 -1.733-2.72v-47.78h67.511z"/><path d="m51.584 28.447a1 1 0 0 0 .669.528 1.087 1.087 0 0 0 .226.025.992.992 0 0 0 .606-.2l3.249-2.479 1.275 4.038-2.979 29.666a1 1 0 0 0 .309.828l6.375 6a1 1 0 0 0 1.372 0l6.375-6a1 1 0 0 0 .309-.828l-2.98-29.672 1.265-4 3.2 2.446a1 1 0 0 0 .607.2 1.07 1.07 0 0 0 .225-.025 1 1 0 0 0 .669-.528l6.25-12.5a1 1 0 0 0 -1.206-1.394l-15.428 5.142-15.427-5.142a1 1 0 0 0 -1.211 1.395zm10.416 36.305-5.331-5.018 2.861-28.484h4.94l2.861 28.484zm2.642-35.5h-5.284l-1.334-4.224 3.948-3.013 3.993 3.047zm11.1-12.038-4.63 9.26-7.038-5.374zm-15.871 3.886-7.038 5.37-4.63-9.26z"/><path d="m27.245 86h69.511a1 1 0 0 0 0-2h-69.511a1 1 0 0 0 0 2z"/><path d="m27.245 96h69.511a1 1 0 0 0 0-2h-69.511a1 1 0 0 0 0 2z"/><path d="m27.245 106h69.511a1 1 0 0 0 0-2h-69.511a1 1 0 0 0 0 2z"/></g></svg>