<svg height="512" viewBox="0 0 128 128" width="512" xmlns="http://www.w3.org/2000/svg"><path d="m123.4 90.324h-9v-53.524a7.008 7.008 0 0 0 -7-7h-82.8a7.008 7.008 0 0 0 -7 7v53.524h-9a1 1 0 0 0 -1 1v3.933a6.953 6.953 0 0 0 6.95 6.943h102.9a6.953 6.953 0 0 0 6.947-6.945v-3.931a1 1 0 0 0 -.997-1z" fill="#e6e7e8"/><path d="m109.4 87.324v-54.524a6 6 0 0 0 -6-6h-82.8a6 6 0 0 0 -6 6v54.524z" fill="#6dc9f7"/><path d="m23.6 26.8h-3a6 6 0 0 0 -6 6v54.524h3v-54.524a6 6 0 0 1 6-6z" fill="#fff"/><path d="m102.372 87.324v-49.689a2 2 0 0 0 -2-2h-76.745a2 2 0 0 0 -2 2v49.689z" fill="#d4fbff"/><path d="m55.12 68.354v.039a2.3 2.3 0 0 1 -3.21 2.107l-12.944-5.61a3.3 3.3 0 0 1 -1.986-3.025v-.035a3.294 3.294 0 0 1 1.986-3.024l12.944-5.606a2.3 2.3 0 0 1 3.21 2.1v.063a2.3 2.3 0 0 1 -1.471 2.143l-11.169 4.3 11.185 4.4a2.3 2.3 0 0 1 1.455 2.148z" fill="#fa759e"/><path d="m65.348 48.015a2.135 2.135 0 0 0 -2.577 1.573l-5.692 23.519a2.136 2.136 0 0 0 1.573 2.576 2.163 2.163 0 0 0 .5.06 2.126 2.126 0 0 0 2.072-1.633l5.696-23.519a2.135 2.135 0 0 0 -1.572-2.576z" fill="#fa759e"/><path d="m85.039 64.845-12.945 5.637a2.3 2.3 0 0 1 -3.215-2.106v-.032a2.3 2.3 0 0 1 1.458-2.138l11.219-4.406-11.208-4.336a2.3 2.3 0 0 1 -1.469-2.142 2.3 2.3 0 0 1 3.207-2.109l12.943 5.587a3.3 3.3 0 0 1 1.99 3.027 3.294 3.294 0 0 1 -1.98 3.018z" fill="#fa759e"/><path d="m4.605 87.324v3.933a5.945 5.945 0 0 0 5.945 5.943h102.9a5.946 5.946 0 0 0 5.947-5.945v-3.931z" fill="#0089ef"/><g fill="#3a2c60"><path d="m74.666 27.8h8.334a1 1 0 0 0 0-2h-8.334a1 1 0 0 0 0 2z"/><path d="m56.12 68.354a3.279 3.279 0 0 0 -2.089-3.068l-8.8-3.463 8.772-3.38a3.336 3.336 0 0 0 2.117-3.143 3.3 3.3 0 0 0 -4.608-3.025l-12.944 5.61a4.324 4.324 0 0 0 0 7.92l12.944 5.609a3.3 3.3 0 0 0 4.608-3.025zm-2 .039a1.3 1.3 0 0 1 -1.813 1.19l-12.944-5.609a2.325 2.325 0 0 1 0-4.25l12.944-5.61a1.313 1.313 0 0 1 .52-.11 1.287 1.287 0 0 1 .708.216 1.348 1.348 0 0 1 -.246 2.357l-11.168 4.3a1 1 0 0 0 -.007 1.864l11.185 4.4a1.289 1.289 0 0 1 .821 1.207z"/><path d="m67.521 48.457a3.134 3.134 0 0 0 -5.721.9l-5.692 23.514a3.136 3.136 0 0 0 2.31 3.785 3.181 3.181 0 0 0 .738.087 3.123 3.123 0 0 0 3.044-2.4l5.692-23.519a3.115 3.115 0 0 0 -.371-2.367zm-1.573 1.9-5.691 23.518a1.151 1.151 0 0 1 -1.37.836 1.136 1.136 0 0 1 -.836-1.369l5.692-23.519a1.13 1.13 0 0 1 .514-.7 1.119 1.119 0 0 1 .586-.166 1.1 1.1 0 0 1 .267.033 1.135 1.135 0 0 1 .836 1.369z"/><path d="m85.425 57.878-12.942-5.584a3.3 3.3 0 1 0 -2.5 6.1l8.817 3.414-8.831 3.467a3.312 3.312 0 1 0 2.524 6.125l12.946-5.637a4.3 4.3 0 0 0 -.014-7.884zm-.785 6.05-12.946 5.637a1.272 1.272 0 0 1 -1.229-.105 1.323 1.323 0 0 1 .237-2.324l11.22-4.4a1 1 0 0 0 0-1.863l-11.213-4.341a1.308 1.308 0 0 1 -.83-1.21 1.3 1.3 0 0 1 1.294-1.3 1.31 1.31 0 0 1 .517.108l12.942 5.585a2.3 2.3 0 0 1 .008 4.213z"/><path d="m119.4 86.324h-9v-53.524a7.008 7.008 0 0 0 -7-7h-16.525a1 1 0 0 0 0 2h16.525a5.006 5.006 0 0 1 5 5v53.524h-5.029v-48.689a3 3 0 0 0 -3-3h-76.744a3 3 0 0 0 -3 3v48.689h-5.027v-53.524a5.006 5.006 0 0 1 5-5h49.9a1 1 0 0 0 0-2h-49.9a7.008 7.008 0 0 0 -7 7v53.524h-8.995a1 1 0 0 0 -1 1v3.933a6.952 6.952 0 0 0 6.945 6.943h102.9a6.954 6.954 0 0 0 6.947-6.945v-3.931a1 1 0 0 0 -.997-1zm-96.773-48.689a1 1 0 0 1 1-1h76.745a1 1 0 0 1 1 1v48.689h-78.745zm95.773 53.622a4.951 4.951 0 0 1 -4.947 4.945h-102.903a4.95 4.95 0 0 1 -4.945-4.945v-2.933h112.795z"/></g></svg>