<svg height="512" viewBox="0 0 128 128" width="512" xmlns="http://www.w3.org/2000/svg"><path d="m105.333 17h-14.063a4.99 4.99 0 0 0 -4.77-3.583h-10.766a9.988 9.988 0 0 0 -19.468 0h-10.766a4.992 4.992 0 0 0 -4.771 3.583h-14.063a5.006 5.006 0 0 0 -5 5v99.334a5.006 5.006 0 0 0 5 5h78.667a5.006 5.006 0 0 0 5-5v-99.334a5.006 5.006 0 0 0 -5-5z" fill="#e6e7e8"/><rect fill="#6dc9f7" height="107.333" rx="4" width="86.667" x="18.667" y="14"/><path d="m101.333 118.333h-78.666a4 4 0 0 1 -4-4v3a4 4 0 0 0 4 4h78.666a4 4 0 0 0 4-4v-3a4 4 0 0 1 -4 4z" fill="#fff"/><rect fill="#d4fbff" height="93.333" rx="2" width="72.667" x="25.667" y="21"/><path d="m70.9 10.417a8.989 8.989 0 0 0 -17.806 0h-11.594a4 4 0 0 0 -4 4v8.5a2 2 0 0 0 2 2h45a2 2 0 0 0 2-2v-8.5a4 4 0 0 0 -4-4z" fill="#0089ef"/><circle cx="62" cy="11.667" fill="#fff" r="3"/><g fill="#3a2c60"><path d="m18.667 48a1 1 0 0 0 1-1v-9.334a1 1 0 0 0 -2 0v9.334a1 1 0 0 0 1 1z"/><path d="m101.334 13h-14.063a4.991 4.991 0 0 0 -4.771-3.584h-10.766a9.988 9.988 0 0 0 -19.468 0h-10.766a4.991 4.991 0 0 0 -4.771 3.584h-14.062a5.006 5.006 0 0 0 -5 5v15a1 1 0 0 0 2 0v-15a3 3 0 0 1 3-3h13.833v5h-8.833a3 3 0 0 0 -3 3v89.333a3 3 0 0 0 3 3h68.667a3 3 0 0 0 3-3v-89.333a3 3 0 0 0 -3-3h-8.834v-5h13.834a3 3 0 0 1 3 3v99.333a3 3 0 0 1 -3 3h-78.667a3 3 0 0 1 -3-3v-66a1 1 0 0 0 -2 0v66a5.006 5.006 0 0 0 5 5h78.667a5.006 5.006 0 0 0 5-5v-99.333a5.006 5.006 0 0 0 -5-5zm-62.834 1.416a3 3 0 0 1 3-3h11.6a1 1 0 0 0 .99-.862 7.989 7.989 0 0 1 15.826 0 1 1 0 0 0 .99.862h11.594a3 3 0 0 1 3 3v8.5a1 1 0 0 1 -1 1h-45a1 1 0 0 1 -1-1zm57.834 7.584a1 1 0 0 1 1 1v89.333a1 1 0 0 1 -1 1h-68.667a1 1 0 0 1 -1-1v-89.333a1 1 0 0 1 1-1h8.833v.916a3 3 0 0 0 3 3h45a3 3 0 0 0 3-3v-.916z"/><path d="m41.726 79.344a8.149 8.149 0 1 0 8.149 8.149 8.158 8.158 0 0 0 -8.149-8.149zm0 14.3a6.149 6.149 0 1 1 6.149-6.149 6.155 6.155 0 0 1 -6.149 6.147z"/><path d="m80.823 47.15a8.149 8.149 0 1 0 8.149 8.15 8.158 8.158 0 0 0 -8.149-8.15zm0 14.3a6.149 6.149 0 1 1 6.149-6.15 6.157 6.157 0 0 1 -6.149 6.148z"/><path d="m33.87 60.3a1 1 0 0 0 1.414 0l5.016-5.015 5.012 5.015a1 1 0 0 0 1.414-1.414l-5.014-5.014 5.014-5.014a1 1 0 0 0 -1.414-1.414l-5.012 5.013-5.014-5.014a1 1 0 0 0 -1.414 1.414l5.014 5.014-5.016 5.014a1 1 0 0 0 0 1.415z"/><path d="m85.824 82.492a1 1 0 0 0 -1.414 0l-5.01 5.015-5.015-5.015a1 1 0 0 0 -1.414 1.414l5.014 5.015-5.014 5.014a1 1 0 1 0 1.414 1.414l5.015-5.014 5.014 5.014a1 1 0 0 0 1.414-1.414l-5.018-5.014 5.014-5.015a1 1 0 0 0 0-1.414z"/><path d="m77.981 79.534a1 1 0 0 0 .856-.482l3.215-5.317a1 1 0 0 0 -1.712-1.035l-2.14 3.536c-8.715-22.103-32.315-22.931-32.559-22.936h-.024a1 1 0 0 0 -.024 2c.231.005 22.524.788 30.758 21.7l-4.074-1.238a1 1 0 1 0 -.581 1.914l5.994 1.82a.977.977 0 0 0 .291.038z"/><path d="m62 15.666a4 4 0 1 0 -4-4 4 4 0 0 0 4 4zm0-6a2 2 0 1 1 -2 2 2 2 0 0 1 2-2z"/></g></svg>