<svg height="512" viewBox="0 0 128 128" width="512" xmlns="http://www.w3.org/2000/svg"><path d="m105.333 17h-14.063a4.99 4.99 0 0 0 -4.77-3.583h-10.766a9.988 9.988 0 0 0 -19.468 0h-10.766a4.992 4.992 0 0 0 -4.771 3.583h-14.063a5.006 5.006 0 0 0 -5 5v99.334a5.006 5.006 0 0 0 5 5h78.667a5.006 5.006 0 0 0 5-5v-99.334a5.006 5.006 0 0 0 -5-5z" fill="#e6e7e8"/><rect fill="#6dc9f7" height="107.333" rx="4" width="86.667" x="18.667" y="14"/><path d="m101.333 118.333h-78.666a4 4 0 0 1 -4-4v3a4 4 0 0 0 4 4h78.666a4 4 0 0 0 4-4v-3a4 4 0 0 1 -4 4z" fill="#fff"/><rect fill="#d4fbff" height="93.333" rx="2" width="72.667" x="25.667" y="21"/><path d="m85.958 87.5h-47.916a6.25 6.25 0 0 0 -6.25 6.25 6.25 6.25 0 0 0 6.25 6.25h47.916a6.25 6.25 0 0 0 6.25-6.25 6.25 6.25 0 0 0 -6.25-6.25z" fill="#ffd7e5"/><path d="m38.042 90.5a3.25 3.25 0 0 0 0 6.5h34.166v-6.5z" fill="#fa759e"/><path d="m70.9 10.417a8.989 8.989 0 0 0 -17.806 0h-11.594a4 4 0 0 0 -4 4v8.5a2 2 0 0 0 2 2h45a2 2 0 0 0 2-2v-8.5a4 4 0 0 0 -4-4z" fill="#0089ef"/><circle cx="62" cy="11.667" fill="#fff" r="3"/><path d="m84.5 60.108v-4.722a1.314 1.314 0 0 0 -1.315-1.314h-3.177a18.256 18.256 0 0 0 -2.679-6.457l2.25-2.249a1.316 1.316 0 0 0 0-1.86l-3.338-3.338a1.315 1.315 0 0 0 -1.86 0l-2.249 2.25a18.256 18.256 0 0 0 -6.457-2.679v-3.177a1.314 1.314 0 0 0 -1.314-1.315h-4.722a1.314 1.314 0 0 0 -1.314 1.315v3.177a18.256 18.256 0 0 0 -6.457 2.679l-2.249-2.25a1.315 1.315 0 0 0 -1.86 0l-3.338 3.338a1.315 1.315 0 0 0 0 1.86l2.25 2.249a18.256 18.256 0 0 0 -2.679 6.457h-3.177a1.314 1.314 0 0 0 -1.315 1.314v4.722a1.314 1.314 0 0 0 1.315 1.314h3.177a18.256 18.256 0 0 0 2.679 6.457l-2.25 2.249a1.315 1.315 0 0 0 0 1.86l3.338 3.338a1.316 1.316 0 0 0 1.86 0l2.249-2.25a18.256 18.256 0 0 0 6.457 2.679v3.177a1.314 1.314 0 0 0 1.314 1.315h4.722a1.314 1.314 0 0 0 1.314-1.315v-3.177a18.256 18.256 0 0 0 6.457-2.679l2.249 2.25a1.316 1.316 0 0 0 1.86 0l3.338-3.338a1.316 1.316 0 0 0 0-1.86l-2.25-2.249a18.256 18.256 0 0 0 2.679-6.457h3.177a1.314 1.314 0 0 0 1.315-1.314zm-22.5 8.392a10.757 10.757 0 1 1 10.757-10.753 10.757 10.757 0 0 1 -10.757 10.753z" fill="#fa759e"/><g fill="#3a2c60"><path d="m101.334 13h-14.063a4.991 4.991 0 0 0 -4.771-3.584h-10.766a9.988 9.988 0 0 0 -19.468 0h-10.766a4.991 4.991 0 0 0 -4.771 3.584h-14.062a5.006 5.006 0 0 0 -5 5v99.333a5.006 5.006 0 0 0 5 5h78.667a5.006 5.006 0 0 0 5-5v-22.666a1 1 0 0 0 -2 0v22.666a3 3 0 0 1 -3 3h-78.667a3 3 0 0 1 -3-3v-99.333a3 3 0 0 1 3-3h13.833v5h-8.833a3 3 0 0 0 -3 3v89.333a3 3 0 0 0 3 3h68.667a3 3 0 0 0 3-3v-89.333a3 3 0 0 0 -3-3h-8.834v-5h13.834a3 3 0 0 1 3 3v62.667a1 1 0 0 0 2 0v-62.667a5.006 5.006 0 0 0 -5-5zm-62.834 1.416a3 3 0 0 1 3-3h11.6a1 1 0 0 0 .99-.862 7.989 7.989 0 0 1 15.826 0 1 1 0 0 0 .99.862h11.594a3 3 0 0 1 3 3v8.5a1 1 0 0 1 -1 1h-45a1 1 0 0 1 -1-1zm57.834 7.584a1 1 0 0 1 1 1v89.333a1 1 0 0 1 -1 1h-68.667a1 1 0 0 1 -1-1v-89.333a1 1 0 0 1 1-1h8.833v.916a3 3 0 0 0 3 3h45a3 3 0 0 0 3-3v-.916z"/><path d="m105.334 83.292a1 1 0 0 0 -1 1v6.875a1 1 0 0 0 2 0v-6.875a1 1 0 0 0 -1-1z"/><path d="m38.042 86.5a7.25 7.25 0 0 0 0 14.5h47.916a7.25 7.25 0 0 0 0-14.5zm53.166 7.25a5.256 5.256 0 0 1 -5.25 5.25h-47.916a5.25 5.25 0 0 1 0-10.5h47.916a5.256 5.256 0 0 1 5.25 5.25z"/><path d="m62 15.666a4 4 0 1 0 -4-4 4 4 0 0 0 4 4zm0-6a2 2 0 1 1 -2 2 2 2 0 0 1 2-2z"/><path d="m62 69.5a11.757 11.757 0 1 0 -11.757-11.753 11.77 11.77 0 0 0 11.757 11.753zm0-21.51a9.757 9.757 0 1 1 -9.757 9.757 9.768 9.768 0 0 1 9.757-9.757z"/><path d="m40.814 62.422h2.378a19.209 19.209 0 0 0 2.2 5.316l-1.683 1.683a2.317 2.317 0 0 0 0 3.274l3.339 3.338a2.316 2.316 0 0 0 3.273 0l1.684-1.684a19.133 19.133 0 0 0 5.315 2.206v2.377a2.317 2.317 0 0 0 2.314 2.315h4.726a2.318 2.318 0 0 0 2.315-2.315v-2.377a19.133 19.133 0 0 0 5.315-2.206l1.685 1.685a2.319 2.319 0 0 0 3.273 0l3.339-3.338a2.32 2.32 0 0 0 0-3.274l-1.687-1.684a19.176 19.176 0 0 0 2.206-5.316h2.377a2.317 2.317 0 0 0 2.317-2.314v-4.722a2.317 2.317 0 0 0 -2.315-2.314h-2.377a19.158 19.158 0 0 0 -2.208-5.315l1.685-1.684a2.32 2.32 0 0 0 0-3.274l-3.338-3.338a2.319 2.319 0 0 0 -3.274 0l-1.683 1.684a19.163 19.163 0 0 0 -5.315-2.206v-2.377a2.317 2.317 0 0 0 -2.315-2.315h-4.721a2.317 2.317 0 0 0 -2.314 2.315v2.377a19.133 19.133 0 0 0 -5.315 2.206l-1.684-1.684a2.37 2.37 0 0 0 -3.274 0l-3.338 3.339a2.317 2.317 0 0 0 0 3.274l1.686 1.683a19.163 19.163 0 0 0 -2.206 5.315h-2.38a2.317 2.317 0 0 0 -2.314 2.314v4.722a2.317 2.317 0 0 0 2.314 2.314zm-.314-7.036a.314.314 0 0 1 .314-.314h3.178a1 1 0 0 0 .98-.8 17.211 17.211 0 0 1 2.532-6.1 1 1 0 0 0 -.127-1.259l-2.249-2.25a.315.315 0 0 1 0-.445l3.339-3.338a.267.267 0 0 1 .445 0l2.249 2.249a1 1 0 0 0 1.259.127 17.2 17.2 0 0 1 6.1-2.532 1 1 0 0 0 .8-.98v-3.182a.315.315 0 0 1 .314-.315h4.726a.315.315 0 0 1 .315.315v3.177a1 1 0 0 0 .8.979 17.213 17.213 0 0 1 6.1 2.533 1 1 0 0 0 1.259-.127l2.249-2.249a.275.275 0 0 1 .446 0l3.338 3.338a.314.314 0 0 1 0 .445l-2.249 2.25a1 1 0 0 0 -.127 1.259 17.234 17.234 0 0 1 2.532 6.1 1 1 0 0 0 .98.8h3.177a.314.314 0 0 1 .315.314v4.722a.315.315 0 0 1 -.315.314h-3.172a1 1 0 0 0 -.98.8 17.218 17.218 0 0 1 -2.532 6.1 1 1 0 0 0 .127 1.259l2.249 2.249a.316.316 0 0 1 0 .446l-3.338 3.337a.317.317 0 0 1 -.446 0l-2.249-2.25a1 1 0 0 0 -1.259-.127 17.2 17.2 0 0 1 -6.1 2.533 1 1 0 0 0 -.8.98v3.177a.315.315 0 0 1 -.315.315h-4.726a.315.315 0 0 1 -.314-.315v-3.166a1 1 0 0 0 -.8-.98 17.2 17.2 0 0 1 -6.1-2.533 1 1 0 0 0 -1.259.127l-2.249 2.249a.315.315 0 0 1 -.446 0l-3.338-3.338a.316.316 0 0 1 0-.446l2.249-2.249a1 1 0 0 0 .127-1.259 17.2 17.2 0 0 1 -2.532-6.1 1 1 0 0 0 -.98-.8h-3.183a.315.315 0 0 1 -.314-.314z"/></g></svg>