<svg height="512" viewBox="0 0 128 128" width="512" xmlns="http://www.w3.org/2000/svg"><path d="m113.9 22.814h-20.451v-11.37a3 3 0 0 0 -3-3h-51.166a1 1 0 0 0 -.707.293l-27.447 27.447a1 1 0 0 0 -.347.758v75.835a3 3 0 0 0 3 3h50.433v.464a7.324 7.324 0 0 0 7.316 7.315h42.369a7.323 7.323 0 0 0 7.315-7.315v-86.111a7.324 7.324 0 0 0 -7.315-7.316z" fill="#e6e7e8"/><path d="m7.784 32.944 27.5-27.5h51.164a2 2 0 0 1 2 2v101.334a2 2 0 0 1 -2 2h-76.666a2 2 0 0 1 -2-2v-75.836z" fill="#d4fbff"/><path d="m86.448 8.444h-54.165l3-3h51.165a2 2 0 0 1 2 2v3a2 2 0 0 0 -2-2z" fill="#fff"/><path d="m35.281 5.444v25.5a2 2 0 0 1 -2 2h-25.499z" fill="#6dc9f7"/><rect fill="#6dc9f7" height="98.741" rx="7.035" width="55.003" x="61.215" y="19.815"/><path d="m61.215 29.176h55.003v75.992h-55.003z" fill="#d4fbff"/><path d="m96.283 23.572h-15.133a1.019 1.019 0 0 0 0 2.037h15.133a1.019 1.019 0 1 0 0-2.037z" fill="#0089ef"/><path d="m101.376 23.473a1.118 1.118 0 1 0 1.118 1.118 1.117 1.117 0 0 0 -1.118-1.118z" fill="#0089ef"/><path d="m93.664 108.819h-9.894a2.474 2.474 0 1 0 0 4.947h9.894a2.474 2.474 0 1 0 0-4.947z" fill="#0089ef"/><path d="m73.334 38.089h30.766v30.766h-30.766z" fill="#fa759e"/><path d="m80.714 91.798h16.006v6h-16.006z" fill="#0089ef"/><path d="m20.564 38.089h30.766v30.766h-30.766z" fill="#fa759e"/><path d="m27.944 91.798h16.006v6h-16.006z" fill="#0089ef"/><g fill="#3a2c60"><path d="m109.184 18.814h-19.736v-11.37a3 3 0 0 0 -3-3h-51.165a1 1 0 0 0 -.707.293l-27.447 27.447a1 1 0 0 0 -.347.758v75.835a3 3 0 0 0 3 3h50.446a8.04 8.04 0 0 0 8.023 7.779h40.933a8.045 8.045 0 0 0 8.035-8.036v-28.77a1 1 0 0 0 -2 0v21.419h-53v-73.993h53v37.907a1 1 0 0 0 2 0v-41.233a8.045 8.045 0 0 0 -8.035-8.036zm-74.901-10.956v23.086a1 1 0 0 1 -1 1h-23.083zm-25.501 100.919v-74.833h24.5a3 3 0 0 0 3-3v-24.5h50.166a1 1 0 0 1 1 1v11.37h-19.2a8.045 8.045 0 0 0 -8.036 8.036v82.927h-50.43a1 1 0 0 1 -1-1zm106.437-2.608v5.351a6.042 6.042 0 0 1 -6.035 6.036h-40.933a6.043 6.043 0 0 1 -6.036-6.036v-5.351zm-53-77.993v-1.326a6.043 6.043 0 0 1 6.036-6.036h40.933a6.042 6.042 0 0 1 6.035 6.036v1.326z"/><path d="m116.219 71a1 1 0 0 0 -1 1v7.062a1 1 0 1 0 2 0v-7.062a1 1 0 0 0 -1-1z"/><path d="m105.1 38.089a1 1 0 0 0 -1-1h-30.766a1 1 0 0 0 -1 1v30.766a1 1 0 0 0 1 1h30.766a1 1 0 0 0 1-1zm-30.766 2.411 12.966 12.972-12.966 12.969zm1.414-1.414h25.938l-12.969 12.972zm12.969 15.8 12.969 12.969h-25.938zm1.414-1.414 12.969-12.972v25.941z"/><path d="m80.714 90.8a1 1 0 0 0 -1 1v6a1 1 0 0 0 1 1h16.006a1 1 0 0 0 1-1v-6a1 1 0 0 0 -1-1zm15.006 6h-14.006v-4h14.006z"/><path d="m104.1 76.438h-30.766a1 1 0 0 0 0 2h30.766a1 1 0 0 0 0-2z"/><path d="m105.1 85.464a1 1 0 0 0 -1-1h-30.766a1 1 0 0 0 0 2h30.766a1 1 0 0 0 1-1z"/><path d="m51.33 37.089h-30.766a1 1 0 0 0 -1 1v30.766a1 1 0 0 0 1 1h30.766a1 1 0 0 0 1-1v-30.766a1 1 0 0 0 -1-1zm-29.766 3.411 12.969 12.972-12.969 12.969zm1.414-1.414h25.938l-12.969 12.972zm12.969 15.8 12.969 12.969h-25.938zm1.414-1.414 12.969-12.972v25.941z"/><path d="m43.95 90.8h-16.006a1 1 0 0 0 -1 1v6a1 1 0 0 0 1 1h16.006a1 1 0 0 0 1-1v-6a1 1 0 0 0 -1-1zm-1 6h-14.006v-4h14.006z"/><path d="m51.33 76.438h-30.766a1 1 0 0 0 0 2h30.766a1 1 0 0 0 0-2z"/><path d="m51.33 84.464h-30.766a1 1 0 1 0 0 2h30.766a1 1 0 0 0 0-2z"/></g></svg>