<svg height="512" viewBox="0 0 128 128" width="512" xmlns="http://www.w3.org/2000/svg"><path d="m106.985 40.073-27.446-27.446a1 1 0 0 0 -.707-.293h-51.165a3 3 0 0 0 -3 3v101.333a3 3 0 0 0 3 3h76.666a3 3 0 0 0 3-3v-75.836a1 1 0 0 0 -.348-.758z" fill="#e6e7e8"/><path d="m102.332 36.833-27.5-27.5h-51.165a2 2 0 0 0 -2 2v101.334a2 2 0 0 0 2 2h76.666a2 2 0 0 0 2-2v-75.834z" fill="#d4fbff"/><path d="m21.667 91v21.667a2 2 0 0 0 2 2h76.666a2 2 0 0 0 2-2v-21.667z" fill="#6dc9f7"/><path d="m23.667 12.333h54.165l-3-3h-51.165a2 2 0 0 0 -2 2v3a2 2 0 0 1 2-2z" fill="#fff"/><path d="m74.834 9.333v25.5a2 2 0 0 0 2 2h25.5z" fill="#6dc9f7"/><path d="m56.46 60.08h11.08a6.289 6.289 0 0 0 6.289-6.289v-11.111a6.289 6.289 0 0 0 -6.289-6.289h-11.08a6.289 6.289 0 0 0 -6.289 6.289v6.013h-6.013a6.289 6.289 0 0 0 -6.289 6.289v11.08a6.289 6.289 0 0 0 6.289 6.289h6.013v-5.982a6.289 6.289 0 0 1 6.289-6.289z" fill="#0089ef"/><path d="m79.842 48.693h-6.013v5.1a6.289 6.289 0 0 1 -6.289 6.287h-11.08a6.289 6.289 0 0 0 -6.289 6.289v12a6.289 6.289 0 0 0 6.289 6.289h11.08a6.289 6.289 0 0 0 6.289-6.289v-6.018h6.013a6.289 6.289 0 0 0 6.289-6.289v-11.08a6.289 6.289 0 0 0 -6.289-6.289z" fill="#fa759e"/><g fill="#3a2c60"><path d="m36.23 97.348h-3.689a.945.945 0 0 0 -.683.24.9.9 0 0 0 -.247.675v8.776a.963.963 0 0 0 .262.712.942.942 0 0 0 .7.262.906.906 0 0 0 .975-.974v-3.225h2.682a3.8 3.8 0 0 0 2.641-.855 3.473 3.473 0 0 0 0-4.763 3.817 3.817 0 0 0 -2.641-.848zm-.239 4.98h-2.445v-3.48h2.445q1.993 0 1.995 1.74t-1.995 1.74z"/><path d="m48.725 97.273a.805.805 0 0 0 -.644.331l-3.06 3.81-3.075-3.814a.811.811 0 0 0 -.646-.331.859.859 0 0 0 -.614.263.834.834 0 0 0 -.27.622.887.887 0 0 0 .224.571l3.406 4.154v4.156a.937.937 0 0 0 .27.719.983.983 0 0 0 .7.255.966.966 0 0 0 .69-.255.944.944 0 0 0 .27-.719v-4.156l3.4-4.154a.879.879 0 0 0 .226-.571.835.835 0 0 0 -.271-.622.856.856 0 0 0 -.606-.259z"/><path d="m58.25 97.348h-7.4c-.6 0-.9.265-.9.8s.3.795.9.795h2.73v8.1a.941.941 0 0 0 .262.7.964.964 0 0 0 .713.263.9.9 0 0 0 .96-.96v-8.1h2.73c.6 0 .9-.266.9-.795s-.295-.803-.895-.803z"/><path d="m68.554 97.273a.915.915 0 0 0 -.689.263.957.957 0 0 0 -.255.7v3.54h-5.41v-3.54a.9.9 0 0 0 -.96-.96.916.916 0 0 0 -.69.263.957.957 0 0 0 -.255.7v8.806a.968.968 0 0 0 .262.7.911.911 0 0 0 .683.27.927.927 0 0 0 .7-.27.965.965 0 0 0 .263-.7v-3.7h5.407v3.7a.981.981 0 0 0 .255.7 1.006 1.006 0 0 0 1.372 0 .965.965 0 0 0 .263-.7v-8.812a.957.957 0 0 0 -.255-.7.92.92 0 0 0 -.691-.26z"/><path d="m79.167 97.874a5.77 5.77 0 0 0 -5.363 0 4.368 4.368 0 0 0 -1.747 1.882 7.08 7.08 0 0 0 .007 5.752 4.4 4.4 0 0 0 1.748 1.89 5.731 5.731 0 0 0 5.34 0 4.4 4.4 0 0 0 1.747-1.89 7.074 7.074 0 0 0 .008-5.752 4.382 4.382 0 0 0 -1.74-1.882zm-.405 7.634a3.089 3.089 0 0 1 -4.56 0 5.465 5.465 0 0 1 0-5.752 3.1 3.1 0 0 1 4.56 0 5.465 5.465 0 0 1 0 5.752z"/><path d="m91.474 97.273a.856.856 0 0 0 -.652.263.974.974 0 0 0 -.247.7v6.48l-5.46-7.095a.845.845 0 0 0 -.721-.345.9.9 0 0 0 -.675.263.957.957 0 0 0 -.255.7v8.806a1.018 1.018 0 0 0 .241.7.942.942 0 0 0 1.32 0 1.021 1.021 0 0 0 .239-.7v-6.5l5.476 7.125a.948.948 0 0 0 1.394.075.981.981 0 0 0 .255-.7v-8.812a.974.974 0 0 0 -.247-.7.875.875 0 0 0 -.668-.26z"/><path d="m103 36.085-27.461-27.459a1 1 0 0 0 -.707-.293h-51.165a3 3 0 0 0 -3 3v17.067a1 1 0 0 0 2 0v-17.067a1 1 0 0 1 1-1h50.165v24.5a3 3 0 0 0 3 3h24.5v52.167h-78.665v-43.43a1 1 0 1 0 -2 0v66.1a3 3 0 0 0 3 3h76.667a3 3 0 0 0 3-3v-75.839a1 1 0 0 0 -.334-.746zm-27.168-1.252v-23.085l24.086 24.085h-23.086a1 1 0 0 1 -1-1zm24.5 78.833h-76.665a1 1 0 0 1 -1-1v-20.666h78.667v20.666a1 1 0 0 1 -1 1z"/><path d="m21.667 43.4a1 1 0 0 0 1-1v-9.5a1 1 0 0 0 -2 0v9.5a1 1 0 0 0 1 1z"/><path d="m67.54 35.391h-11.08a7.3 7.3 0 0 0 -7.289 7.289v5.013h-5.013a7.3 7.3 0 0 0 -7.289 7.289v11.08a7.3 7.3 0 0 0 7.289 7.289h5.013v5.013a7.3 7.3 0 0 0 7.289 7.289h11.08a7.3 7.3 0 0 0 7.289-7.289v-5.013h5.013a7.3 7.3 0 0 0 7.289-7.289v-11.08a7.3 7.3 0 0 0 -7.289-7.289h-5.013v-5.013a7.3 7.3 0 0 0 -7.289-7.289zm-23.382 35.96a5.3 5.3 0 0 1 -5.289-5.289v-11.08a5.3 5.3 0 0 1 5.289-5.289h16.227a1 1 0 1 0 0-2h-9.214v-5.013a5.3 5.3 0 0 1 5.289-5.289h11.08a5.3 5.3 0 0 1 5.289 5.289v11.111a5.3 5.3 0 0 1 -5.289 5.289h-11.08a7.3 7.3 0 0 0 -7.289 7.289v4.982zm35.684-21.658a5.3 5.3 0 0 1 5.289 5.289v11.08a5.3 5.3 0 0 1 -5.289 5.289h-16.227a1 1 0 0 0 0 2h9.214v5.013a5.3 5.3 0 0 1 -5.289 5.289h-11.08a5.3 5.3 0 0 1 -5.289-5.289v-12a5.3 5.3 0 0 1 5.289-5.284h11.08a7.3 7.3 0 0 0 7.289-7.289v-4.1z"/></g><path d="m55.262 41.486a1.8 1.8 0 1 0 1.8 1.8 1.8 1.8 0 0 0 -1.8-1.8z" fill="#fff"/><path d="m68.738 75.626a1.8 1.8 0 1 0 1.8 1.8 1.8 1.8 0 0 0 -1.8-1.8z" fill="#fff"/></svg>