<svg height="512" viewBox="0 0 128 128" width="512" xmlns="http://www.w3.org/2000/svg"><path d="m111.42 83.9-2.493-3.034c.011-.349.023-.7.023-1.051a41.061 41.061 0 0 0 -22.157-36.215 20.926 20.926 0 0 0 -5.9-5.4c-1.487-9.847-5.6-19.625-14.112-30.219a1.036 1.036 0 0 0 -1.56 0c-8.692 10.819-12.921 20.659-14.479 30.458a21.032 21.032 0 0 0 -5.557 5.191 41.449 41.449 0 0 0 -21.285 27.978h-1.378a2.517 2.517 0 0 0 -1.943 4.12l2.494 3.035c-.011.349-.023.7-.023 1.051 0 19.894 14.56 36.839 34.744 40.6v1.434a2.5 2.5 0 0 0 1.444 2.279 2.5 2.5 0 0 0 2.677-.337l3.2-2.631c.3.008.587.017.888.017 20.5 0 38.067-13.894 42.1-33.157h1.376a2.516 2.516 0 0 0 1.942-4.12zm-21.15 0a2.521 2.521 0 0 0 1.83 4.117c-3.641 10.7-14.071 18.074-25.872 18.168l-4.312-3.544a2.519 2.519 0 0 0 -4.119 1.945v.414a26.527 26.527 0 0 1 -19.247-25.186c0-.075 0-.148 0-.222l3.177-3.865a2.522 2.522 0 0 0 -1.827-4.116 26.023 26.023 0 0 1 5.556-9.27h5.609v4.233a5.006 5.006 0 0 0 5 5h19.396a5.006 5.006 0 0 0 5-5v-4.233h6.1a25.788 25.788 0 0 1 6.89 17.473v.222z" fill="#e6e7e8"/><path d="m71.511 73.248a1 1 0 0 0 -1 1v7.714a1 1 0 1 0 2 0v-7.714a1 1 0 0 0 -1-1z" fill="#e6e7e8"/><path d="m66 73.248a1 1 0 0 0 -1 1v12.123a1 1 0 0 0 2 0v-12.123a1 1 0 0 0 -1-1z" fill="#e6e7e8"/><path d="m60.489 73.248a1 1 0 0 0 -1 1v7.714a1 1 0 0 0 2 0v-7.714a1 1 0 0 0 -1-1z" fill="#e6e7e8"/><path d="m82.117 40.417c5.383 7.311 5.966 16.923 5.966 16.923h-5.09a26.723 26.723 0 0 1 7.457 18.474c0 .2 0 .388-.007.586l5.229-6.362a1.523 1.523 0 0 1 2.349 0l5.9 7.175c.023-.464.031-.927.031-1.4-.002-15.243-8.838-28.533-21.835-35.396z" fill="#0089ef"/><path d="m67.777 108.042-5.9-4.849-4.6-3.778a1.519 1.519 0 0 0 -2.486 1.171v1.725c-12.219-3.071-21.241-13.773-21.241-26.497 0-.2 0-.387.007-.585l-5.229 6.362a1.524 1.524 0 0 1 -2.349 0l-5.9-7.175c-.023.463-.031.927-.031 1.4 0 19.892 15.035 36.47 34.744 39.761v2.272a1.517 1.517 0 0 0 2.486 1.171l3.481-2.865h.008l7.008-5.762a1.524 1.524 0 0 0 .002-2.351z" fill="#0089ef"/><path d="m35.784 68.609h-1.239a27.078 27.078 0 0 1 6.475-11.269h-5.1s.58-9.605 5.948-16.916a40.614 40.614 0 0 0 -21.149 28.185h-2.2a1.517 1.517 0 0 0 -1.171 2.485l2.729 3.322 5.9 7.175a1.524 1.524 0 0 0 2.349 0l5.229-6.362 3.4-4.135a1.521 1.521 0 0 0 -1.171-2.485z" fill="#6dc9f7"/><path d="m106.648 80.534-2.729-3.321-5.9-7.176a1.524 1.524 0 0 0 -2.349 0l-5.227 6.363-3.4 4.134a1.521 1.521 0 0 0 1.171 2.486h1.239c-3.29 11.622-14.334 20.173-27.453 20.173h-.122l5.9 4.849a1.524 1.524 0 0 1 0 2.349l-7.008 5.762c.41.015.813.022 1.231.022 20.576 0 37.739-14.328 41.281-33.155h2.2a1.517 1.517 0 0 0 1.166-2.486z" fill="#6dc9f7"/><path d="m88.083 57.34s-.978-16.122-12.083-22.488c1 7.176.616 14.517-.539 22.488z" fill="#ffd7e5"/><path d="m47.676 35.031c-10.806 6.487-11.759 22.309-11.759 22.309h12.147a75.854 75.854 0 0 1 -.388-22.309z" fill="#ffd7e5"/><path d="m62 4.611c-14.631 18.212-16.7 33.669-13.936 52.729h27.4c2.762-19.06 1.167-34.517-13.464-52.729z" fill="#fa759e"/><path d="m61.23 9.548a1.016 1.016 0 0 1 1.559 0c7.445 9.07 11.5 17.478 13.313 26.02-1.302-10.238-5.387-20.109-14.102-30.957-8.886 11.061-13.132 21.107-14.482 31.561 1.882-8.75 6.082-17.34 13.712-26.624z" fill="#fff"/><path d="m48.068 57.34v5.234a4 4 0 0 0 4 4h19.393a4 4 0 0 0 4-4v-5.234z" fill="#ffd7e5"/><circle cx="61.456" cy="36" fill="#6dc9f7" r="8.31" transform="matrix(.383 -.924 .924 .383 4.678 79.002)"/><g fill="#3a2c60"><path d="m107.42 79.9-2.493-3.033c.011-.349.023-.7.023-1.051a41.17 41.17 0 0 0 -22.124-36.145 21.073 21.073 0 0 0 -5.926-5.444c-1.484-9.855-5.6-19.64-14.115-30.243a1.036 1.036 0 0 0 -1.56 0c-8.698 10.821-12.925 20.659-14.484 30.46a21.193 21.193 0 0 0 -5.581 5.23 41.383 41.383 0 0 0 -21.26 27.934h-1.377a2.518 2.518 0 0 0 -1.944 4.121l2.5 3.034c-.012.349-.023.7-.023 1.052 0 19.893 14.56 36.838 34.743 40.6v1.434a2.5 2.5 0 0 0 1.444 2.279 2.5 2.5 0 0 0 2.677-.337l3.2-2.631c.294.007.586.016.887.016 20.5 0 38.067-13.894 42.1-33.155h1.376a2.517 2.517 0 0 0 1.937-4.121zm-4.52-5.5-4.107-5a2.6 2.6 0 0 0 -3.892 0l-3.538 4.3a27.689 27.689 0 0 0 -6.168-15.366h2.889a1 1 0 0 0 1-1.061 38.287 38.287 0 0 0 -3.915-13.868 39 39 0 0 1 17.731 30.995zm-16.956 8.181a2.49 2.49 0 0 0 2.156 1.436c-3.641 10.7-14.072 18.074-25.873 18.167l-4.312-3.543a2.519 2.519 0 0 0 -4.118 1.945v.414a26.526 26.526 0 0 1 -19.247-25.185c0-.076 0-.149 0-.223l3.177-3.865a2.521 2.521 0 0 0 -1.827-4.116 26.3 26.3 0 0 1 5.561-9.27h5.6v4.233a5.006 5.006 0 0 0 5 5h19.4a5.006 5.006 0 0 0 5-5v-4.233h6.09a25.726 25.726 0 0 1 6.9 17.474v.222l-3.18 3.863a2.5 2.5 0 0 0 -.327 2.681zm1.032-26.24h-10.364a81.106 81.106 0 0 0 .615-19.483c7.444 5.55 9.329 16.111 9.749 19.483zm-24.976-50.121c13.708 17.535 15.073 32.293 12.6 50.121h-3.017a1 1 0 0 0 0 2h2.878v4.233a3 3 0 0 1 -3 3h-19.393a3 3 0 0 1 -3-3v-4.233h9.369a1 1 0 0 0 0-2h-9.5c-2.362-17.071-.914-32.248 13.063-50.121zm-15.621 30.938a77.967 77.967 0 0 0 .537 19.183h-9.893c.407-3.311 2.225-13.556 9.356-19.183zm-28.327 32.747a.505.505 0 0 1 .471-.3h2.2a1 1 0 0 0 .983-.815 39.085 39.085 0 0 1 17.132-25.402 38.263 38.263 0 0 0 -3.919 13.892 1 1 0 0 0 1 1.061h2.907a28.02 28.02 0 0 0 -5.241 9.995 1 1 0 0 0 .962 1.272h1.24a.5.5 0 0 1 .464.3.509.509 0 0 1 -.067.555l-8.628 10.491a.513.513 0 0 1 -.4.19.514.514 0 0 1 -.4-.188l-8.629-10.5a.505.505 0 0 1 -.075-.551zm42.074 45.475-3.483 2.866a.517.517 0 0 1 -.849-.4v-2.273a1 1 0 0 0 -.835-.986c-19.17-3.2-33.2-18.8-33.876-37.381l4.125 5.019a2.51 2.51 0 0 0 1.945.917 2.512 2.512 0 0 0 1.946-.918l3.541-4.309a28.671 28.671 0 0 0 21.91 25.364 1 1 0 0 0 1.243-.969v-1.726a.5.5 0 0 1 .294-.467.514.514 0 0 1 .557.069l10.495 8.626a.521.521 0 0 1 0 .8l-6.938 5.7c-.024.028-.05.047-.075.068zm45.822-33.657a.5.5 0 0 1 -.471.3h-2.2a1 1 0 0 0 -.983.815c-3.432 18.241-19.583 31.608-38.725 32.306l4.839-3.979a2.522 2.522 0 0 0 0-3.892l-3.876-3.186c12.18-1.016 22.62-9.278 25.881-20.792a1 1 0 0 0 -.963-1.272h-1.234a.5.5 0 0 1 -.465-.3.511.511 0 0 1 .067-.556l8.626-10.5a.523.523 0 0 1 .8 0l8.628 10.5a.506.506 0 0 1 .076.556z"/><path d="m67.333 56.341h-4.646a1 1 0 0 0 0 2h4.646a1 1 0 0 0 0-2z"/><path d="m61.456 45.311a9.311 9.311 0 1 0 -9.31-9.311 9.321 9.321 0 0 0 9.31 9.311zm0-16.621a7.311 7.311 0 1 1 -7.31 7.31 7.319 7.319 0 0 1 7.31-7.31z"/><path d="m67.511 69.247a1 1 0 0 0 -1 1v7.715a1 1 0 1 0 2 0v-7.715a1 1 0 0 0 -1-1z"/><path d="m62 69.247a1 1 0 0 0 -1 1v12.124a1 1 0 0 0 2 0v-12.124a1 1 0 0 0 -1-1z"/><path d="m56.49 69.247a1 1 0 0 0 -1 1v7.715a1 1 0 0 0 2 0v-7.715a1 1 0 0 0 -1-1z"/></g></svg>