<svg height="512" viewBox="0 0 128 128" width="512" xmlns="http://www.w3.org/2000/svg"><rect fill="#e6e7e8" height="98" rx="5" width="112" x="10" y="17"/><rect fill="#d4fbff" height="96" rx="4" width="110" x="7" y="14"/><path d="m113 14h-102a4 4 0 0 0 -4 4v10.5h110v-10.5a4 4 0 0 0 -4-4z" fill="#0089ef"/><path d="m10 106v-88a4 4 0 0 1 4-4h-3a4 4 0 0 0 -4 4v88a4 4 0 0 0 4 4h3a4 4 0 0 1 -4-4z" fill="#fff"/><path d="m95.667 19.083a2.334 2.334 0 1 0 2.333 2.333 2.334 2.334 0 0 0 -2.333-2.333z" fill="#fff"/><path d="m102.667 19.083a2.334 2.334 0 1 0 2.333 2.333 2.333 2.333 0 0 0 -2.333-2.333z" fill="#d4fbff"/><path d="m109.667 19.083a2.334 2.334 0 1 0 2.333 2.333 2.333 2.333 0 0 0 -2.333-2.333z" fill="#fa759e"/><rect fill="#ffd7e5" height="63.734" rx="2" width="50.293" x="36.853" y="38.849"/><path d="m47.3 33.417a2.615 2.615 0 0 0 -2.615 2.615v5.6a2.615 2.615 0 0 0 5.23 0v-5.6a2.614 2.614 0 0 0 -2.615-2.615z" fill="#fa759e"/><path d="m62 33.417a2.615 2.615 0 0 0 -2.615 2.615v5.6a2.615 2.615 0 0 0 5.23 0v-5.6a2.615 2.615 0 0 0 -2.615-2.615z" fill="#fa759e"/><rect fill="#fa759e" height="10.834" rx="2.615" width="5.23" x="74.087" y="33.417"/><g fill="#3a2c60"><path d="m117 77.333a1 1 0 0 0 -1 1v10.334a1 1 0 0 0 2 0v-10.334a1 1 0 0 0 -1-1z"/><path d="m113 13h-102a5.006 5.006 0 0 0 -5 5v88a5.006 5.006 0 0 0 5 5h102a5.006 5.006 0 0 0 5-5v-12.333a1 1 0 0 0 -2 0v12.333a3 3 0 0 1 -3 3h-102a3 3 0 0 1 -3-3v-76.5h108v43.833a1 1 0 0 0 2 0v-55.333a5.006 5.006 0 0 0 -5-5zm-105 14.5v-9.5a3 3 0 0 1 3-3h102a3 3 0 0 1 3 3v9.5z"/><path d="m47.3 32.417a3.62 3.62 0 0 0 -3.615 3.615v1.818h-4.83a3 3 0 0 0 -3 3v59.733a3 3 0 0 0 3 3h46.291a3 3 0 0 0 3-3v-59.733a3 3 0 0 0 -3-3h-4.83v-1.818a3.615 3.615 0 1 0 -7.229 0v1.818h-7.472v-1.818a3.615 3.615 0 0 0 -7.23 0v1.818h-7.471v-1.818a3.62 3.62 0 0 0 -3.614-3.615zm-1.615 3.615a1.616 1.616 0 0 1 3.231 0v5.6a1.616 1.616 0 0 1 -3.231 0zm29.4 0a1.615 1.615 0 1 1 3.229 0v5.6a1.615 1.615 0 0 1 -3.229 0zm-14.7 0a1.615 1.615 0 0 1 3.23 0v5.6a1.615 1.615 0 0 1 -3.23 0zm-2 3.818v1.786a3.615 3.615 0 0 0 7.23 0v-1.786h7.472v1.786a3.615 3.615 0 0 0 7.229 0v-1.786h4.83a1 1 0 0 1 1 1v59.733a1 1 0 0 1 -1 1h-46.293a1 1 0 0 1 -1-1v-59.733a1 1 0 0 1 1-1h4.83v1.786a3.616 3.616 0 0 0 7.231 0v-1.786z"/><path d="m44.625 57.5a1 1 0 0 0 1 1h32.75a1 1 0 0 0 0-2h-32.75a1 1 0 0 0 -1 1z"/><path d="m78.375 66.5h-32.75a1 1 0 0 0 0 2h32.75a1 1 0 0 0 0-2z"/><path d="m78.375 76.5h-32.75a1 1 0 0 0 0 2h32.75a1 1 0 0 0 0-2z"/><path d="m78.375 86.5h-32.75a1 1 0 0 0 0 2h32.75a1 1 0 0 0 0-2z"/></g></svg>