<?xml version="1.0"?>
<svg xmlns="http://www.w3.org/2000/svg" viewBox="0 0 128 128" width="512" height="512"><path d="M66,7.334A43.716,43.716,0,0,0,22.333,51c0,32.059,41.222,71.719,42.977,73.391a1,1,0,0,0,1.383,0C68.447,122.7,109.667,82.728,109.667,51A43.716,43.716,0,0,0,66,7.334Z" fill="#e6e7e8"/><path d="M62,4.334A42.667,42.667,0,0,0,19.333,47C19.333,79,62,119.667,62,119.667s42.667-41,42.667-72.667A42.667,42.667,0,0,0,62,4.334Z" fill="#0089ef"/><path d="M62,8.334a42.667,42.667,0,0,1,42.613,40.535c.032-.626.054-1.25.054-1.869a42.667,42.667,0,0,0-85.334,0c0,.624.022,1.252.054,1.882A42.666,42.666,0,0,1,62,8.334Z" fill="#fff"/><circle cx="62" cy="47.083" r="32.333" transform="translate(-3.182 4.514) rotate(-4.065)" fill="#ffd7e5"/><path d="M62,32.084a15,15,0,1,0,15,15A15.016,15.016,0,0,0,62,32.084Z" fill="#d4fbff"/><path d="M62,67.084a20,20,0,1,1,20-20A20.023,20.023,0,0,1,62,67.084Zm0-35a15,15,0,1,0,15,15A15.016,15.016,0,0,0,62,32.084Z" fill="#fa759e"/><path d="M62,73.334a2.5,2.5,0,0,1-2.5-2.5v-13.5a2.5,2.5,0,0,1,5,0v13.5A2.5,2.5,0,0,1,62,73.334Z" fill="#fa759e"/><path d="M62,39.333a2.5,2.5,0,0,1-2.5-2.5v-13.5a2.5,2.5,0,0,1,5,0v13.5A2.5,2.5,0,0,1,62,39.333Z" fill="#fa759e"/><path d="M85.75,49.584H72.25a2.5,2.5,0,0,1,0-5h13.5a2.5,2.5,0,0,1,0,5Z" fill="#fa759e"/><path d="M51.75,49.584H38.25a2.5,2.5,0,0,1,0-5h13.5a2.5,2.5,0,0,1,0,5Z" fill="#fa759e"/><path d="M78.616,99.66c-1.577,1.973-3.239,3.98-4.942,5.967a1,1,0,0,0,1.519,1.3c1.717-2,3.395-4.028,4.986-6.018a1,1,0,0,0-1.563-1.25Z" fill="#3a2c60"/><path d="M62,3.333A43.717,43.717,0,0,0,18.333,47c0,32.06,41.222,71.719,42.977,73.391a1,1,0,0,0,1.383,0c.041-.04,4.231-4.077,9.889-10.464a1,1,0,1,0-1.5-1.326c-4.267,4.815-7.684,8.276-9.088,9.67C56.506,112.841,20.333,75.987,20.333,47a41.667,41.667,0,1,1,83.333,0c0,16.7-12.326,36.206-22.667,49.626a1,1,0,0,0,1.584,1.221C93.113,84.181,105.666,64.266,105.666,47A43.716,43.716,0,0,0,62,3.333Z" fill="#3a2c60"/><path d="M95.333,47.083A33.333,33.333,0,1,0,62,80.417,33.371,33.371,0,0,0,95.333,47.083ZM62,78.417A31.334,31.334,0,1,1,93.333,47.083,31.369,31.369,0,0,1,62,78.417Z" fill="#3a2c60"/><path d="M85.75,43.584H82.671A21.008,21.008,0,0,0,65.5,26.41V23.334a3.5,3.5,0,0,0-7,0V26.41A21.008,21.008,0,0,0,41.329,43.584H38.25a3.5,3.5,0,0,0,0,7h3.079A21.008,21.008,0,0,0,58.5,67.758v3.076a3.5,3.5,0,0,0,7,0V67.755A21.008,21.008,0,0,0,82.674,50.584H85.75a3.5,3.5,0,0,0,0-7Zm-5.109,0h-3.05A16.021,16.021,0,0,0,65.5,31.5V28.443A19.01,19.01,0,0,1,80.641,43.584ZM60.5,23.334a1.5,1.5,0,0,1,3,0v13.5a1.5,1.5,0,0,1-3,0Zm-2,5.109V31.5A16.021,16.021,0,0,0,46.409,43.584H43.36A19.008,19.008,0,0,1,58.5,28.443ZM36.75,47.084a1.5,1.5,0,0,1,1.5-1.5h13.5a1.5,1.5,0,0,1,0,3H38.25A1.5,1.5,0,0,1,36.75,47.084Zm6.61,3.5h3.049A16.02,16.02,0,0,0,58.5,62.669v3.056A19.008,19.008,0,0,1,43.36,50.584ZM63.5,70.834a1.5,1.5,0,0,1-3,0v-13.5a1.5,1.5,0,0,1,3,0Zm-1.5-17a3.5,3.5,0,0,0-3.5,3.5v3.292A14.042,14.042,0,0,1,48.446,50.584h3.3a3.5,3.5,0,0,0,0-7h-3.3A14.044,14.044,0,0,1,58.5,33.542v3.291a3.5,3.5,0,0,0,7,0V33.542A14.044,14.044,0,0,1,75.554,43.584h-3.3a3.5,3.5,0,0,0,0,7h3.292A14.044,14.044,0,0,1,65.5,60.638v-3.3A3.5,3.5,0,0,0,62,53.834Zm3.5,11.891v-3.05A16.02,16.02,0,0,0,77.585,50.584h3.056A19.009,19.009,0,0,1,65.5,65.725ZM85.75,48.584H72.25a1.5,1.5,0,0,1,0-3h13.5a1.5,1.5,0,0,1,0,3Z" fill="#3a2c60"/></svg>
