<?xml version="1.0"?>
<svg xmlns="http://www.w3.org/2000/svg" viewBox="0 0 128 128" width="512" height="512"><rect x="15" y="15" width="102" height="102" rx="9" ry="9" fill="#e6e7e8"/><rect x="12" y="12" width="100" height="100" rx="8" ry="8" fill="#ffd7e5"/><path d="M104,12H20a8,8,0,0,0-8,8v3a8,8,0,0,1,8-8h84a8,8,0,0,1,8,8V20A8,8,0,0,0,104,12Z" fill="#fff"/><path d="M66.05,80.67A19.458,19.458,0,1,1,80.693,65.946L91.382,76.635a32.843,32.843,0,0,0,2.871-8.255H99.99a2.373,2.373,0,0,0,2.373-2.373V57.483a2.374,2.374,0,0,0-2.373-2.374H94.253a32.99,32.99,0,0,0-4.836-11.657l4.062-4.062a2.373,2.373,0,0,0,0-3.356l-6.028-6.028a2.374,2.374,0,0,0-3.357,0l-4.061,4.062a32.99,32.99,0,0,0-11.657-4.836V23.5A2.374,2.374,0,0,0,66,21.122H57.478A2.373,2.373,0,0,0,55.105,23.5v5.736a32.983,32.983,0,0,0-11.657,4.836l-4.062-4.062a2.374,2.374,0,0,0-3.357,0L30,36.034a2.373,2.373,0,0,0,0,3.356l4.061,4.062a32.99,32.99,0,0,0-4.836,11.657H23.491a2.374,2.374,0,0,0-2.374,2.374v8.524a2.373,2.373,0,0,0,2.374,2.373h5.736a32.983,32.983,0,0,0,4.836,11.657L30,84.1a2.374,2.374,0,0,0,0,3.357l6.027,6.027a2.374,2.374,0,0,0,3.357,0l4.062-4.061a32.983,32.983,0,0,0,11.657,4.836v5.736a2.373,2.373,0,0,0,2.373,2.374H66a2.374,2.374,0,0,0,2.374-2.374V94.258a32.851,32.851,0,0,0,8.345-2.918Z" fill="#fa759e"/><path d="M71.15,51.6a13.77,13.77,0,0,0-13.966-3.366L66.158,57.2l-8.891,8.891L48.293,57.12A13.773,13.773,0,0,0,66.705,74.062l26.212,26.212a5.248,5.248,0,0,0,7.421,0h0a5.248,5.248,0,0,0,0-7.421L74.125,66.641A13.779,13.779,0,0,0,71.15,51.6Z" fill="#0089ef"/><path d="M12,50.125a1,1,0,0,0,1-1v-6.75a1,1,0,0,0-2,0v6.75A1,1,0,0,0,12,50.125Z" fill="#3a2c60"/><path d="M104,11H20a9.01,9.01,0,0,0-9,9V38.25a1,1,0,0,0,2,0V20a7.009,7.009,0,0,1,7-7h84a7.009,7.009,0,0,1,7,7v84a7.009,7.009,0,0,1-7,7H20a7.009,7.009,0,0,1-7-7V52.75a1,1,0,0,0-2,0V104a9.01,9.01,0,0,0,9,9h84a9.01,9.01,0,0,0,9-9V20A9.01,9.01,0,0,0,104,11Z" fill="#3a2c60"/><path d="M23.491,54.109a3.378,3.378,0,0,0-3.374,3.373v8.525a3.378,3.378,0,0,0,3.374,3.374H28.42A33.8,33.8,0,0,0,32.785,79.9L29.3,83.392a3.377,3.377,0,0,0,0,4.771l6.027,6.027a3.378,3.378,0,0,0,4.771,0l3.49-3.49A33.84,33.84,0,0,0,54.1,95.065v4.929a3.379,3.379,0,0,0,3.375,3.374H66a3.378,3.378,0,0,0,3.374-3.374v-4.93a33.951,33.951,0,0,0,7.8-2.832,1,1,0,0,0,.254-1.6L66.757,79.963a1,1,0,0,0-.928-.269A18.454,18.454,0,1,1,79.717,65.73a1,1,0,0,0,.269.923L90.675,77.342a.99.99,0,0,0,.865.28,1,1,0,0,0,.735-.537,33.99,33.99,0,0,0,2.785-7.7h4.929a3.378,3.378,0,0,0,3.374-3.374V57.482a3.377,3.377,0,0,0-3.374-3.373H95.061A33.866,33.866,0,0,0,90.7,43.588l3.491-3.49a3.38,3.38,0,0,0,0-4.772L88.158,29.3a3.349,3.349,0,0,0-2.385-.988h0a3.348,3.348,0,0,0-2.384.989L79.9,32.79a33.817,33.817,0,0,0-10.521-4.366V23.5A3.378,3.378,0,0,0,66,20.122H57.479A3.378,3.378,0,0,0,54.1,23.5v4.929A33.827,33.827,0,0,0,43.583,32.79l-3.49-3.49a3.352,3.352,0,0,0-2.385-.989h0a3.353,3.353,0,0,0-2.385.988L29.3,35.326a3.378,3.378,0,0,0,0,4.772l3.49,3.49A33.864,33.864,0,0,0,28.42,54.109Zm6.717,1.2A31.854,31.854,0,0,1,34.9,44a1,1,0,0,0-.126-1.259l-4.062-4.061a1.378,1.378,0,0,1,0-1.944l6.027-6.027a1.374,1.374,0,0,1,1.943,0l4.061,4.061A1,1,0,0,0,44,34.9,31.854,31.854,0,0,1,55.3,30.212a1,1,0,0,0,.8-.981V23.5a1.376,1.376,0,0,1,1.375-1.373H66A1.375,1.375,0,0,1,67.376,23.5v5.736a1,1,0,0,0,.8.981,31.85,31.85,0,0,1,11.3,4.69,1,1,0,0,0,1.259-.127L84.8,30.714a1.406,1.406,0,0,1,1.942,0l6.027,6.027a1.376,1.376,0,0,1,0,1.944L88.71,42.745A1,1,0,0,0,88.583,44a31.854,31.854,0,0,1,4.689,11.305,1,1,0,0,0,.981.8h5.736a1.376,1.376,0,0,1,1.374,1.373v8.525a1.375,1.375,0,0,1-1.374,1.374H94.253a1,1,0,0,0-.981.8,31.716,31.716,0,0,1-2.183,6.746l-9.307-9.307A20.487,20.487,0,1,0,65.727,81.762l9.29,9.29a31.683,31.683,0,0,1-6.84,2.225,1,1,0,0,0-.8.981v5.736A1.375,1.375,0,0,1,66,101.368H57.479A1.376,1.376,0,0,1,56.1,99.994V94.258a1,1,0,0,0-.8-.981A31.854,31.854,0,0,1,44,88.588a1,1,0,0,0-1.259.127l-4.061,4.061a1.375,1.375,0,0,1-1.943,0l-6.027-6.027a1.377,1.377,0,0,1,0-1.943l4.062-4.062a1,1,0,0,0,.126-1.26,31.812,31.812,0,0,1-4.689-11.3,1,1,0,0,0-.98-.8H23.491a1.375,1.375,0,0,1-1.374-1.374V57.482a1.376,1.376,0,0,1,1.374-1.373h5.737A1,1,0,0,0,30.208,55.309Z" fill="#3a2c60"/><path d="M49,56.413a1,1,0,0,0-1.659.4A14.773,14.773,0,0,0,66.46,75.23l25.75,25.75a6.247,6.247,0,0,0,8.835-8.834L75.294,66.4A14.774,14.774,0,0,0,56.878,47.277a1,1,0,0,0-.4,1.66L64.743,57.2,57.267,64.68Zm17.864,1.5a1,1,0,0,0,0-1.414l-7.727-7.727A12.773,12.773,0,0,1,73.2,66.256a1,1,0,0,0,.216,1.092L99.631,93.561a4.247,4.247,0,1,1-6.007,6L67.412,73.354a1,1,0,0,0-1.091-.215A12.773,12.773,0,0,1,48.832,59.073L56.56,66.8a1,1,0,0,0,1.414,0Z" fill="#3a2c60"/><path d="M97.889,95.09a1.934,1.934,0,1,0,0,2.736A1.934,1.934,0,0,0,97.889,95.09Z" fill="#d4fbff"/></svg>
