<svg height="512" viewBox="0 0 128 128" width="512" xmlns="http://www.w3.org/2000/svg"><rect fill="#e6e7e8" height="98" rx="5" width="112" x="10" y="17"/><rect fill="#d4fbff" height="96" rx="4" width="110" x="7" y="14"/><path d="m38.154 53.154a28.472 28.472 0 0 0 -3.716 8.189 10.86 10.86 0 0 1 2.272 3.442h9.09a16.71 16.71 0 0 1 32.4 0h9.09a10.874 10.874 0 0 1 2.273-3.442 28.5 28.5 0 0 0 -3.717-8.189l3.5-3.5a2.044 2.044 0 0 0 0-2.892l-5.193-5.193a2.044 2.044 0 0 0 -2.892 0l-3.5 3.5a28.423 28.423 0 0 0 -10.044-4.169v-4.941a2.045 2.045 0 0 0 -2.045-2.045h-7.344a2.046 2.046 0 0 0 -2.045 2.045v4.941a28.43 28.43 0 0 0 -10.044 4.167l-3.5-3.5a2.044 2.044 0 0 0 -2.892 0l-5.193 5.193a2.044 2.044 0 0 0 0 2.892z" fill="#fa759e"/><path d="m85.846 84.675a28.5 28.5 0 0 0 3.717-8.19 10.863 10.863 0 0 1 -2.273-3.442h-9.09a16.71 16.71 0 0 1 -32.4 0h-9.09a10.86 10.86 0 0 1 -2.272 3.442 28.466 28.466 0 0 0 3.716 8.19l-3.5 3.5a2.044 2.044 0 0 0 0 2.892l5.193 5.193a2.044 2.044 0 0 0 2.892 0l3.5-3.5a28.43 28.43 0 0 0 10.044 4.167v4.942a2.045 2.045 0 0 0 2.045 2.045h7.344a2.044 2.044 0 0 0 2.045-2.045v-4.942a28.423 28.423 0 0 0 10.044-4.167l3.5 3.5a2.044 2.044 0 0 0 2.892 0l5.193-5.193a2.044 2.044 0 0 0 0-2.892z" fill="#fa759e"/><path d="m96.975 63.967h9.987a10.839 10.839 0 0 0 -19.672.818h-50.58a10.839 10.839 0 0 0 -19.672-.818h9.987v9.895h-9.987a10.839 10.839 0 0 0 19.672-.818h50.58a10.839 10.839 0 0 0 19.672.818h-9.987z" fill="#0089ef"/><path d="m113 14h-102a4 4 0 0 0 -4 4v10.5h110v-10.5a4 4 0 0 0 -4-4z" fill="#0089ef"/><path d="m10 106v-88a4 4 0 0 1 4-4h-3a4 4 0 0 0 -4 4v88a4 4 0 0 0 4 4h3a4 4 0 0 1 -4-4z" fill="#fff"/><path d="m95.667 19.083a2.334 2.334 0 1 0 2.333 2.333 2.334 2.334 0 0 0 -2.333-2.333z" fill="#fff"/><path d="m102.667 19.083a2.334 2.334 0 1 0 2.333 2.333 2.333 2.333 0 0 0 -2.333-2.333z" fill="#d4fbff"/><path d="m109.667 19.083a2.334 2.334 0 1 0 2.333 2.333 2.333 2.333 0 0 0 -2.333-2.333z" fill="#fa759e"/><g fill="#3a2c60"><path d="m106.962 64.967a1 1 0 0 0 .89-1.457 11.836 11.836 0 0 0 -17.812-3.941 29.12 29.12 0 0 0 -2.917-6.278l2.929-2.93a3.047 3.047 0 0 0 0-4.306l-5.193-5.193a3.118 3.118 0 0 0 -4.306 0l-2.93 2.929a29.283 29.283 0 0 0 -8.906-3.691v-4.14a3.049 3.049 0 0 0 -3.045-3.046h-7.344a3.049 3.049 0 0 0 -3.045 3.046v4.14a29.268 29.268 0 0 0 -8.906 3.7l-2.93-2.929a3.049 3.049 0 0 0 -4.306 0l-5.194 5.193a3.049 3.049 0 0 0 0 4.306l2.929 2.93a29.12 29.12 0 0 0 -2.917 6.278 11.836 11.836 0 0 0 -17.811 3.932 1 1 0 0 0 .89 1.457h8.987v7.895h-8.987a1 1 0 0 0 -.89 1.457 11.837 11.837 0 0 0 17.813 3.941 29.086 29.086 0 0 0 2.916 6.277l-2.93 2.93a3.049 3.049 0 0 0 0 4.306l5.193 5.194a3.049 3.049 0 0 0 4.306 0l2.93-2.93a29.243 29.243 0 0 0 8.906 3.695v4.137a3.048 3.048 0 0 0 3.045 3.045h7.344a3.048 3.048 0 0 0 3.045-3.045v-4.137a29.233 29.233 0 0 0 8.906-3.695l2.93 2.93a3.118 3.118 0 0 0 4.306 0l5.193-5.194a3.047 3.047 0 0 0 0-4.306l-2.929-2.93a29.09 29.09 0 0 0 2.918-6.277 11.836 11.836 0 0 0 17.812-3.941 1 1 0 0 0 -.89-1.457h-8.987v-7.895zm-68.1-12.521-3.5-3.5a1.047 1.047 0 0 1 0-1.478l5.193-5.193a1.045 1.045 0 0 1 1.478 0l3.5 3.5a1 1 0 0 0 1.259.127 27.314 27.314 0 0 1 9.69-4.02 1 1 0 0 0 .8-.981v-4.941a1.047 1.047 0 0 1 1.045-1.046h7.344a1.047 1.047 0 0 1 1.045 1.046v4.94a1 1 0 0 0 .8.981 27.306 27.306 0 0 1 9.69 4.02 1 1 0 0 0 1.26-.127l3.5-3.5a1.073 1.073 0 0 1 1.477 0l5.193 5.193a1.045 1.045 0 0 1 0 1.478l-3.5 3.5a1 1 0 0 0 -.127 1.259 27.369 27.369 0 0 1 3.416 7.378 11.858 11.858 0 0 0 -1.787 2.7h-7.7a17.69 17.69 0 0 0 -33.886 0h-7.7a11.858 11.858 0 0 0 -1.787-2.7 27.341 27.341 0 0 1 3.416-7.378 1 1 0 0 0 -.12-1.258zm37.985 11.339h-29.694a15.7 15.7 0 0 1 29.694 0zm8.292 21.6 3.5 3.5a1.045 1.045 0 0 1 0 1.478l-5.193 5.194a1.072 1.072 0 0 1 -1.478 0l-3.5-3.5a1 1 0 0 0 -1.26-.127 27.272 27.272 0 0 1 -9.689 4.02 1 1 0 0 0 -.8.981v4.942a1.046 1.046 0 0 1 -1.045 1.045h-7.346a1.046 1.046 0 0 1 -1.045-1.045v-4.946a1 1 0 0 0 -.8-.981 27.277 27.277 0 0 1 -9.69-4.02 1 1 0 0 0 -1.259.127l-3.5 3.5a1.045 1.045 0 0 1 -1.478 0l-5.193-5.194a1.047 1.047 0 0 1 0-1.478l3.5-3.5a1 1 0 0 0 .127-1.259 27.327 27.327 0 0 1 -3.416-7.378 11.885 11.885 0 0 0 1.787-2.7h7.7a17.689 17.689 0 0 0 33.884 0h7.7a11.884 11.884 0 0 0 1.788 2.7 27.348 27.348 0 0 1 -3.417 7.376 1 1 0 0 0 .123 1.262zm-37.986-11.341h29.694a15.7 15.7 0 0 1 -29.694 0zm49.822.818h8.183a9.839 9.839 0 0 1 -16.944-2.2 1 1 0 0 0 -.924-.619h-50.58a1 1 0 0 0 -.924.619 9.839 9.839 0 0 1 -16.944 2.2h8.183a1 1 0 0 0 1-1v-9.895a1 1 0 0 0 -1-1h-8.183a9.839 9.839 0 0 1 16.944 2.2 1 1 0 0 0 .924.619h50.58a1 1 0 0 0 .924-.619 9.839 9.839 0 0 1 16.944-2.2h-8.183a1 1 0 0 0 -1 1v9.895a1 1 0 0 0 1 1z"/><path d="m27.5 29.5h8.75a1 1 0 0 0 0-2h-8.75a1 1 0 0 0 0 2z"/><path d="m113 13h-102a5.006 5.006 0 0 0 -5 5v88a5.006 5.006 0 0 0 5 5h102a5.006 5.006 0 0 0 5-5v-88a5.006 5.006 0 0 0 -5-5zm0 96h-102a3 3 0 0 1 -3-3v-76.5h14.666a1 1 0 0 0 0-2h-14.666v-9.5a3 3 0 0 1 3-3h102a3 3 0 0 1 3 3v9.5h-74.733a1 1 0 1 0 0 2h74.733v76.5a3 3 0 0 1 -3 3z"/></g></svg>