<svg height="512" viewBox="0 0 128 128" width="512" xmlns="http://www.w3.org/2000/svg"><path d="m95.422 31.1a3.5 3.5 0 1 0 -1.584 6.818 28.836 28.836 0 0 1 0 56.167 3.5 3.5 0 1 0 1.584 6.818 35.835 35.835 0 0 0 0-69.8z" fill="#e6e7e8"/><path d="m93.518 48.473a18.485 18.485 0 0 1 0 35.054 3.5 3.5 0 1 0 2.223 6.637 25.484 25.484 0 0 0 0-48.327 3.5 3.5 0 1 0 -2.225 6.636z" fill="#e6e7e8"/><path d="m92.772 72.038a3.5 3.5 0 1 0 3.716 5.932 14.106 14.106 0 0 0 0-23.939 3.5 3.5 0 0 0 -3.717 5.931 7.107 7.107 0 0 1 0 12.076z" fill="#e6e7e8"/><path d="m80.1 20.645a6.893 6.893 0 0 0 -6.884 6.885v1.663l-36.54 15.55h-16.805a11.012 11.012 0 0 0 -11 11v20.514a11.012 11.012 0 0 0 11 11h16.806l36.54 15.549v1.664a6.885 6.885 0 0 0 13.77 0v-76.94a6.894 6.894 0 0 0 -6.887-6.885z" fill="#e6e7e8"/><path d="m15.87 41.743a10 10 0 0 0 -10 10v20.514a10 10 0 0 0 10 10h17.01v-40.514z" fill="#0089ef"/><path d="m24.87 41.743h8.01v40.515h-8.01z" fill="#fa759e"/><path d="m32.88 41.743v40.514l37.337 15.888v-72.291z" fill="#6dc9f7"/><path d="m90.628 95.994a2.5 2.5 0 0 1 -.564-4.937 29.835 29.835 0 0 0 0-58.114 2.5 2.5 0 1 1 1.136-4.871 34.836 34.836 0 0 1 0 67.856 2.52 2.52 0 0 1 -.572.066z" fill="#fa759e"/><path d="m90.63 85.346a2.5 2.5 0 0 1 -.794-4.871 19.485 19.485 0 0 0 0-36.951 2.5 2.5 0 0 1 1.588-4.74 24.484 24.484 0 0 1 0 46.432 2.51 2.51 0 0 1 -.794.13z" fill="#fa759e"/><path d="m90.632 73.5a2.5 2.5 0 0 1 -1.332-4.615 8.108 8.108 0 0 0 0-13.771 2.5 2.5 0 1 1 2.654-4.236 13.106 13.106 0 0 1 0 22.244 2.481 2.481 0 0 1 -1.322.378z" fill="#fa759e"/><path d="m76.1 17.646a5.885 5.885 0 0 0 -5.885 5.885v76.938a5.885 5.885 0 0 0 11.77 0v-76.938a5.885 5.885 0 0 0 -5.885-5.885z" fill="#d4fbff"/><path d="m76.1 17.646a5.893 5.893 0 0 0 -1.5.2 5.882 5.882 0 0 1 4.385 5.684v76.939a5.882 5.882 0 0 1 -4.385 5.685 5.866 5.866 0 0 0 7.385-5.685v-76.939a5.884 5.884 0 0 0 -5.885-5.884z" fill="#fff"/><g fill="#3a2c60"><path d="m24.87 61.5a1 1 0 0 0 1-1v-8.333a1 1 0 0 0 -2 0v8.333a1 1 0 0 0 1 1z"/><path d="m91.422 27.1a3.5 3.5 0 1 0 -1.584 6.818 28.836 28.836 0 0 1 0 56.167 3.5 3.5 0 0 0 .79 6.91 3.469 3.469 0 0 0 .794-.092 35.835 35.835 0 0 0 0-69.8zm-.451 67.855a1.5 1.5 0 1 1 -.68-2.923 30.835 30.835 0 0 0 0-60.061 1.5 1.5 0 0 1 .339-2.963 1.521 1.521 0 0 1 .339.039 33.836 33.836 0 0 1 0 65.908z"/><path d="m89.519 44.473a18.485 18.485 0 0 1 0 35.054 3.5 3.5 0 1 0 2.222 6.637 25.484 25.484 0 0 0 0-48.327 3.5 3.5 0 1 0 -2.224 6.636zm-.311-3.8a1.489 1.489 0 0 1 .755-.868 1.472 1.472 0 0 1 .662-.158 1.522 1.522 0 0 1 .482.08 23.485 23.485 0 0 1 0 44.537 1.518 1.518 0 0 1 -1.9-.948 1.5 1.5 0 0 1 .945-1.9 20.485 20.485 0 0 0 0-38.848 1.5 1.5 0 0 1 -.945-1.9z"/><path d="m88.773 68.038a3.5 3.5 0 1 0 3.715 5.932 14.106 14.106 0 0 0 0-23.939 3.5 3.5 0 1 0 -3.716 5.931 7.108 7.108 0 0 1 0 12.076zm5.357-6.038a9.083 9.083 0 0 0 -4.3-7.733 1.5 1.5 0 0 1 .462-2.733 1.557 1.557 0 0 1 .338-.038 1.475 1.475 0 0 1 .793.23 12.105 12.105 0 0 1 0 20.549 1.532 1.532 0 0 1 -2.066-.475 1.5 1.5 0 0 1 .475-2.067 9.084 9.084 0 0 0 4.298-7.733z"/><path d="m76.1 16.646a6.892 6.892 0 0 0 -6.885 6.884v1.664l-36.538 15.548h-16.807a11.013 11.013 0 0 0 -11 11v20.515a11.013 11.013 0 0 0 11 11h16.807l36.54 15.55v1.663a6.885 6.885 0 1 0 13.769 0v-76.94a6.892 6.892 0 0 0 -6.886-6.884zm-69.23 55.611v-20.515a9.01 9.01 0 0 1 9-9h8v5.425a1 1 0 0 0 2 0v-5.425h6.01v38.515h-6.01v-17.09a1 1 0 0 0 -2 0v17.09h-8a9.01 9.01 0 0 1 -9-9zm27.01 9.343v-39.2l35.337-15.033v69.266zm47.106 18.87a4.885 4.885 0 1 1 -9.769 0v-76.94a4.885 4.885 0 0 1 9.769 0z"/></g></svg>