<svg xmlns="http://www.w3.org/2000/svg" viewBox="0 0 128 128" width="512" height="512"><path d="M118.73 55.85h-7.1a46.3 46.3 0 00-6.2-14.93l5.02-5.03a4.27 4.27 0 000-6.04l-8.3-8.3a4.27 4.27 0 00-6.05 0l-5.02 5.02a46.23 46.23 0 00-14.94-6.2v-7.1A4.28 4.28 0 0071.87 9H60.13a4.28 4.28 0 00-4.27 4.27v7.1a46.23 46.23 0 00-14.93 6.2l-5.03-5.02a4.28 4.28 0 00-6.04 0l-8.3 8.3a4.28 4.28 0 000 6.05l5.02 5.02a46.23 46.23 0 00-6.2 14.94h-7.1A4.28 4.28 0 009 60.12v11.76a4.28 4.28 0 004.27 4.27h7.1a46.26 46.26 0 006.2 14.93l-5.02 5.03a4.27 4.27 0 000 6.04l8.3 8.3a4.27 4.27 0 006.05 0l5.02-5.02a46.24 46.24 0 0014.94 6.2v7.1a4.28 4.28 0 004.27 4.27h11.74a4.28 4.28 0 004.28-4.27v-7.1a46.25 46.25 0 0014.93-6.2l5.03 5.02a4.27 4.27 0 006.04 0l8.3-8.3a4.27 4.27 0 000-6.05l-5.02-5.02a46.27 46.27 0 006.2-14.94h7.1a4.28 4.28 0 004.27-4.27V60.13a4.28 4.28 0 00-4.27-4.27z" fill="#e6e7e8"/><circle cx="62" cy="62" r="32.5" fill="#ffd7e5"/><path d="M62 91.5a32.5 32.5 0 01-32.46-31c-.03.5-.04 1-.04 1.5a32.5 32.5 0 0065 0c0-.5-.01-1-.04-1.5A32.5 32.5 0 0162 91.5z" fill="#fff"/><path d="M82 62h12.5a32.45 32.45 0 00-13.86-26.62l-7.17 10.25A19.96 19.96 0 0182 62z" fill="#0089ef"/><path d="M62 42a19.89 19.89 0 0111.46 3.63l7.18-10.25a32.47 32.47 0 00-37.28 0l7.18 10.25A19.89 19.89 0 0162 42z" fill="#6dc9f7"/><path d="M50.53 45.63l-7.17-10.25A32.45 32.45 0 0029.5 62H42a19.96 19.96 0 018.53-16.37z" fill="#d4fbff"/><path d="M65.17 58.16L62 34.75l-3.17 23.41a5 5 0 106.34 0z" fill="#0089ef"/><path d="M118 67.88V56.13a3.27 3.27 0 00-3.27-3.28h-7.91a45.47 45.47 0 00-6.67-16.07l5.6-5.6a3.27 3.27 0 000-4.63l-8.3-8.3a3.27 3.27 0 00-4.63 0l-5.6 5.6a45.46 45.46 0 00-16.07-6.67v-7.9A3.27 3.27 0 0067.87 6H56.13a3.27 3.27 0 00-3.27 3.27v7.91a45.46 45.46 0 00-16.07 6.67l-5.6-5.6a3.27 3.27 0 00-4.63 0l-8.3 8.3a3.27 3.27 0 000 4.63l5.6 5.6a45.47 45.47 0 00-6.67 16.07h-7.9A3.27 3.27 0 006 56.12v11.76a3.27 3.27 0 003.27 3.27h7.91a45.47 45.47 0 006.67 16.07l-5.6 5.6a3.27 3.27 0 000 4.62l8.3 8.31a3.27 3.27 0 004.63 0l5.6-5.6a45.46 45.46 0 0016.07 6.67v7.9a3.27 3.27 0 003.27 3.28h11.76a3.27 3.27 0 003.27-3.27v-7.91a45.46 45.46 0 0016.07-6.67l5.6 5.6a3.27 3.27 0 004.63 0l8.3-8.3a3.27 3.27 0 000-4.63l-5.6-5.6a45.47 45.47 0 006.67-16.07h7.9a3.27 3.27 0 003.28-3.28zM62 94.5A32.5 32.5 0 1194.5 62 32.5 32.5 0 0162 94.5z" fill="#fa759e"/><path d="M86.3 82.05a31.77 31.77 0 01-4.48 4.44 1 1 0 001.26 1.55 33.79 33.79 0 004.76-4.72 1 1 0 10-1.54-1.27z" fill="#3a2c60"/><path d="M62 28.5a33.5 33.5 0 1018.27 61.58 1 1 0 10-1.1-1.67A31.5 31.5 0 0130.53 63H42a1 1 0 001-1 19 19 0 0116.85-18.83L57.9 57.64a6 6 0 108.22 0l-1.96-14.47A19 19 0 0181 62a1 1 0 001 1h11.46a31.33 31.33 0 01-5.18 16.38 1 1 0 101.66 1.1A33.5 33.5 0 0062 28.5zM62 66a4 4 0 114-4 4 4 0 01-4 4zm0-10a5.97 5.97 0 00-1.91.32L62 42.2l1.91 14.12A5.97 5.97 0 0062 56zm1.87-14.87L63 34.62a1 1 0 00-1.98 0l-.88 6.51A21 21 0 0041.03 61h-10.5a31.5 31.5 0 0162.94 0h-10.5a21 21 0 00-19.1-19.87z" fill="#3a2c60"/><path d="M114.73 51.85h-7.1a46.3 46.3 0 00-6.2-14.93l5.02-5.03a4.27 4.27 0 000-6.04l-8.3-8.31a4.27 4.27 0 00-6.04 0l-5.03 5.03a46.28 46.28 0 00-14.93-6.2v-7.1A4.28 4.28 0 0067.87 5H56.13a4.28 4.28 0 00-4.27 4.27v7.1a46.26 46.26 0 00-14.93 6.2l-5.03-5.03a4.28 4.28 0 00-6.04 0l-8.3 8.3a4.27 4.27 0 000 6.05l5.02 5.03a46.23 46.23 0 00-6.2 14.93h-7.1A4.28 4.28 0 005 56.12v11.76a4.28 4.28 0 004.27 4.27h7.1a46.24 46.24 0 006.2 14.93l-5.02 5.03a4.27 4.27 0 000 6.04l8.3 8.3a4.27 4.27 0 006.05 0l5.02-5.02a46.28 46.28 0 0014.94 6.2v7.1a4.28 4.28 0 004.27 4.27h11.74a4.28 4.28 0 004.28-4.27v-7.1a46.3 46.3 0 0014.93-6.2l5.03 5.02a4.27 4.27 0 006.04 0l8.3-8.3a4.27 4.27 0 000-6.05l-5.02-5.02a46.27 46.27 0 006.2-14.94h7.1a4.28 4.28 0 004.27-4.27V56.13a4.28 4.28 0 00-4.27-4.27zM117 67.87a2.27 2.27 0 01-2.27 2.28h-7.91a1 1 0 00-.98.8 44.3 44.3 0 01-6.52 15.71 1 1 0 00.13 1.26l5.6 5.6a2.27 2.27 0 010 3.22l-8.31 8.3a2.33 2.33 0 01-3.22 0l-5.6-5.6a1 1 0 00-1.26-.12 44.3 44.3 0 01-15.71 6.52 1 1 0 00-.8.98v7.9a2.27 2.27 0 01-2.28 2.28H56.13a2.27 2.27 0 01-2.27-2.27v-7.91a1 1 0 00-.8-.98 44.3 44.3 0 01-15.71-6.52 1 1 0 00-1.26.13l-5.6 5.6a2.33 2.33 0 01-3.22 0l-8.3-8.31a2.27 2.27 0 010-3.22l5.6-5.6a1 1 0 00.12-1.26 44.3 44.3 0 01-6.52-15.71 1 1 0 00-.98-.8h-7.9A2.27 2.27 0 017 67.87V56.13a2.27 2.27 0 012.27-2.27h7.91a1 1 0 00.98-.8 44.3 44.3 0 016.52-15.71 1 1 0 00-.13-1.26l-5.6-5.6a2.27 2.27 0 010-3.22l8.31-8.3a2.28 2.28 0 013.22 0l5.6 5.6a1 1 0 001.26.12 44.3 44.3 0 0115.71-6.52 1 1 0 00.8-.98v-7.9A2.27 2.27 0 0156.12 7h11.76a2.27 2.27 0 012.27 2.27v7.91a1 1 0 00.8.98 44.3 44.3 0 0115.71 6.52 1 1 0 001.26-.13l5.6-5.6a2.33 2.33 0 013.22 0l8.3 8.31a2.27 2.27 0 010 3.22l-5.6 5.6a1 1 0 00-.12 1.26 44.3 44.3 0 016.52 15.71 1 1 0 00.98.8h7.9a2.27 2.27 0 012.28 2.27z" fill="#3a2c60"/></svg>