<?xml version="1.0"?>
<svg xmlns="http://www.w3.org/2000/svg" viewBox="0 0 128 128" width="512" height="512"><path d="M118.728,55.853h-7.1a46.294,46.294,0,0,0-6.2-14.936l5.025-5.026a4.271,4.271,0,0,0,0-6.042l-8.309-8.308a4.27,4.27,0,0,0-6.041,0l-5.026,5.026a46.232,46.232,0,0,0-14.936-6.2v-7.1A4.277,4.277,0,0,0,71.875,9H60.125a4.276,4.276,0,0,0-4.272,4.272v7.1a46.232,46.232,0,0,0-14.936,6.2l-5.026-5.026a4.276,4.276,0,0,0-6.042,0l-8.308,8.308a4.277,4.277,0,0,0,0,6.042l5.026,5.026a46.228,46.228,0,0,0-6.2,14.936h-7.1A4.277,4.277,0,0,0,9,60.124V71.875a4.277,4.277,0,0,0,4.272,4.272h7.1a46.259,46.259,0,0,0,6.2,14.936l-5.026,5.026a4.27,4.27,0,0,0,0,6.041l8.309,8.309a4.27,4.27,0,0,0,6.041,0l5.026-5.026a46.241,46.241,0,0,0,14.936,6.2v7.1A4.277,4.277,0,0,0,60.125,123h11.75a4.278,4.278,0,0,0,4.272-4.272v-7.1a46.25,46.25,0,0,0,14.936-6.2l5.026,5.026a4.27,4.27,0,0,0,6.041,0l8.309-8.309a4.27,4.27,0,0,0,0-6.041l-5.025-5.026a46.27,46.27,0,0,0,6.2-14.936h7.1A4.277,4.277,0,0,0,123,71.875V60.124A4.277,4.277,0,0,0,118.728,55.853Z" fill="#e6e7e8"/><circle cx="62" cy="62" r="32.5" fill="#ffd7e5"/><path d="M62,91.5a32.5,32.5,0,0,1-32.462-31c-.023.5-.038,1-.038,1.5a32.5,32.5,0,0,0,65,0c0-.5-.015-1-.038-1.5A32.5,32.5,0,0,1,62,91.5Z" fill="#fff"/><path d="M82,62H94.5A32.455,32.455,0,0,0,80.638,35.382L73.465,45.627A19.963,19.963,0,0,1,82,62Z" fill="#0089ef"/><path d="M62,42a19.889,19.889,0,0,1,11.465,3.627l7.173-10.245a32.47,32.47,0,0,0-37.276,0l7.173,10.245A19.889,19.889,0,0,1,62,42Z" fill="#6dc9f7"/><path d="M50.535,45.627,43.362,35.382A32.455,32.455,0,0,0,29.5,62H42A19.963,19.963,0,0,1,50.535,45.627Z" fill="#d4fbff"/><path d="M65.172,58.164,62,34.75,58.828,58.164a5,5,0,1,0,6.344,0Z" fill="#0089ef"/><path d="M118,67.875V56.125a3.272,3.272,0,0,0-3.272-3.273H106.82a45.465,45.465,0,0,0-6.667-16.069l5.6-5.6a3.272,3.272,0,0,0,0-4.628l-8.308-8.309a3.273,3.273,0,0,0-4.628,0l-5.6,5.6a45.462,45.462,0,0,0-16.07-6.667V9.272A3.272,3.272,0,0,0,67.875,6H56.125a3.272,3.272,0,0,0-3.272,3.272V17.18a45.462,45.462,0,0,0-16.07,6.667l-5.6-5.6a3.273,3.273,0,0,0-4.628,0l-8.308,8.309a3.272,3.272,0,0,0,0,4.628l5.6,5.6A45.465,45.465,0,0,0,17.18,52.852H9.272A3.272,3.272,0,0,0,6,56.125v11.75a3.272,3.272,0,0,0,3.272,3.272H17.18a45.47,45.47,0,0,0,6.667,16.07l-5.6,5.6a3.271,3.271,0,0,0,0,4.627l8.308,8.309a3.272,3.272,0,0,0,4.628,0l5.6-5.6a45.462,45.462,0,0,0,16.07,6.667v7.908A3.272,3.272,0,0,0,56.125,118h11.75a3.272,3.272,0,0,0,3.272-3.272V106.82a45.462,45.462,0,0,0,16.07-6.667l5.6,5.6a3.272,3.272,0,0,0,4.628,0l8.308-8.309a3.271,3.271,0,0,0,0-4.627l-5.6-5.6a45.47,45.47,0,0,0,6.667-16.07h7.908A3.272,3.272,0,0,0,118,67.875ZM62,94.5A32.5,32.5,0,1,1,94.5,62,32.5,32.5,0,0,1,62,94.5Z" fill="#fa759e"/><path d="M86.3,82.048a31.765,31.765,0,0,1-4.483,4.438,1,1,0,0,0,1.26,1.555,33.789,33.789,0,0,0,4.764-4.72A1,1,0,1,0,86.3,82.048Z" fill="#3a2c60"/><path d="M62,28.5A33.5,33.5,0,1,0,80.269,90.085a1,1,0,1,0-1.092-1.676A31.5,31.5,0,0,1,30.525,63H42a1,1,0,0,0,1-1A18.993,18.993,0,0,1,59.851,43.167L57.89,57.64a6,6,0,1,0,8.22,0L64.149,43.167A18.993,18.993,0,0,1,81,62a1,1,0,0,0,1,1H93.464a31.329,31.329,0,0,1-5.189,16.381,1,1,0,1,0,1.666,1.105A33.5,33.5,0,0,0,62,28.5ZM62,66a4,4,0,1,1,4-4A4,4,0,0,1,62,66Zm0-10a5.973,5.973,0,0,0-1.913.318L62,42.2l1.913,14.119A5.973,5.973,0,0,0,62,56Zm1.874-14.868-.883-6.516a1,1,0,0,0-1.982,0l-.882,6.516A21,21,0,0,0,41.023,61h-10.5a31.491,31.491,0,0,1,62.95,0h-10.5A21,21,0,0,0,63.874,41.132Z" fill="#3a2c60"/><path d="M114.728,51.853h-7.1a46.294,46.294,0,0,0-6.2-14.936l5.025-5.026a4.271,4.271,0,0,0,0-6.042L98.15,17.54a4.272,4.272,0,0,0-6.041,0l-5.027,5.026a46.28,46.28,0,0,0-14.935-6.2v-7.1A4.278,4.278,0,0,0,67.875,5H56.125a4.277,4.277,0,0,0-4.272,4.272v7.1a46.261,46.261,0,0,0-14.936,6.2L31.891,17.54a4.278,4.278,0,0,0-6.042,0l-8.308,8.309a4.271,4.271,0,0,0,0,6.042l5.026,5.026a46.228,46.228,0,0,0-6.2,14.936h-7.1A4.277,4.277,0,0,0,5,56.125v11.75a4.277,4.277,0,0,0,4.272,4.272h7.1a46.245,46.245,0,0,0,6.2,14.935l-5.026,5.026a4.271,4.271,0,0,0,0,6.042l8.309,8.309a4.27,4.27,0,0,0,6.041,0l5.026-5.025a46.283,46.283,0,0,0,14.936,6.2v7.1A4.277,4.277,0,0,0,56.125,119h11.75a4.278,4.278,0,0,0,4.272-4.272v-7.1a46.294,46.294,0,0,0,14.936-6.2l5.026,5.025a4.27,4.27,0,0,0,6.041,0l8.309-8.309a4.271,4.271,0,0,0,0-6.042l-5.025-5.026a46.265,46.265,0,0,0,6.2-14.935h7.1A4.278,4.278,0,0,0,119,67.875V56.125A4.278,4.278,0,0,0,114.728,51.853ZM117,67.875a2.275,2.275,0,0,1-2.272,2.272H106.82a1,1,0,0,0-.98.8,44.306,44.306,0,0,1-6.521,15.717,1,1,0,0,0,.127,1.259l5.6,5.6a2.272,2.272,0,0,1,0,3.214l-8.309,8.309a2.325,2.325,0,0,1-3.213,0l-5.6-5.6a1,1,0,0,0-1.259-.127,44.291,44.291,0,0,1-15.717,6.521,1,1,0,0,0-.8.98v7.908A2.275,2.275,0,0,1,67.875,117H56.125a2.275,2.275,0,0,1-2.272-2.272V106.82a1,1,0,0,0-.8-.98,44.3,44.3,0,0,1-15.717-6.521,1,1,0,0,0-1.259.127l-5.6,5.6a2.325,2.325,0,0,1-3.213,0l-8.309-8.309a2.272,2.272,0,0,1,0-3.214l5.6-5.6a1,1,0,0,0,.127-1.259A44.306,44.306,0,0,1,18.16,70.948a1,1,0,0,0-.98-.8H9.272A2.275,2.275,0,0,1,7,67.875V56.125a2.275,2.275,0,0,1,2.272-2.272H17.18a1,1,0,0,0,.98-.8,44.307,44.307,0,0,1,6.52-15.717,1,1,0,0,0-.126-1.259l-5.6-5.6a2.272,2.272,0,0,1,0-3.214l8.308-8.309a2.278,2.278,0,0,1,3.214,0l5.6,5.6a1,1,0,0,0,1.259.127A44.3,44.3,0,0,1,53.052,18.16a1,1,0,0,0,.8-.98V9.272A2.275,2.275,0,0,1,56.125,7h11.75a2.275,2.275,0,0,1,2.272,2.272V17.18a1,1,0,0,0,.8.98,44.291,44.291,0,0,1,15.717,6.521,1,1,0,0,0,1.259-.127l5.6-5.6a2.329,2.329,0,0,1,3.213,0l8.309,8.309a2.272,2.272,0,0,1,0,3.214l-5.6,5.6a1,1,0,0,0-.127,1.259,44.291,44.291,0,0,1,6.521,15.717,1,1,0,0,0,.98.8h7.908A2.275,2.275,0,0,1,117,56.125Z" fill="#3a2c60"/></svg>
