<svg height="512" viewBox="0 0 128 128" width="512" xmlns="http://www.w3.org/2000/svg"><path d="m105.333 17h-14.062a4.992 4.992 0 0 0 -4.771-3.583h-10.766a9.988 9.988 0 0 0 -19.468 0h-10.766a4.99 4.99 0 0 0 -4.77 3.583h-14.063a5.006 5.006 0 0 0 -5 5v99.334a5.006 5.006 0 0 0 5 5h78.666a5.006 5.006 0 0 0 5-5v-99.334a5.006 5.006 0 0 0 -5-5z" fill="#e6e7e8"/><rect fill="#6dc9f7" height="107.333" rx="4" width="86.667" x="18.667" y="14"/><path d="m101.333 118.333h-78.666a4 4 0 0 1 -4-4v3a4 4 0 0 0 4 4h78.666a4 4 0 0 0 4-4v-3a4 4 0 0 1 -4 4z" fill="#fff"/><rect fill="#d4fbff" height="93.333" rx="2" width="72.667" x="25.667" y="21"/><path d="m70.9 10.417a8.989 8.989 0 0 0 -17.806 0h-11.594a4 4 0 0 0 -4 4v8.5a2 2 0 0 0 2 2h45a2 2 0 0 0 2-2v-8.5a4 4 0 0 0 -4-4z" fill="#0089ef"/><circle cx="62" cy="11.667" fill="#fff" r="3"/><rect fill="#fa759e" height="11.25" rx="2" width="11.25" x="34.5" y="34.604"/><rect fill="#fa759e" height="11.25" rx="2" width="11.25" x="34.5" y="54.604"/><rect fill="#fa759e" height="11.25" rx="2" width="11.25" x="34.5" y="74.604"/><g fill="#3a2c60"><path d="m101.334 13h-14.063a4.992 4.992 0 0 0 -4.771-3.584h-10.766a9.988 9.988 0 0 0 -19.468 0h-10.766a4.991 4.991 0 0 0 -4.771 3.584h-14.062a5.006 5.006 0 0 0 -5 5v99.333a5.006 5.006 0 0 0 5 5h78.667a5.006 5.006 0 0 0 5-5v-62.667a1 1 0 0 0 -2 0v62.667a3 3 0 0 1 -3 3h-78.667a3 3 0 0 1 -3-3v-99.333a3 3 0 0 1 3-3h13.833v5h-8.833a3 3 0 0 0 -3 3v89.333a3 3 0 0 0 3 3h68.667a3 3 0 0 0 3-3v-89.333a3 3 0 0 0 -3-3h-8.834v-5h13.834a3 3 0 0 1 3 3v22.666a1 1 0 0 0 2 0v-22.666a5.006 5.006 0 0 0 -5-5zm-62.834 1.416a3 3 0 0 1 3-3h11.6a1 1 0 0 0 .99-.862 7.989 7.989 0 0 1 15.826 0 1 1 0 0 0 .99.862h11.594a3 3 0 0 1 3 3v8.5a1 1 0 0 1 -1 1h-45a1 1 0 0 1 -1-1zm57.834 7.584a1 1 0 0 1 1 1v89.333a1 1 0 0 1 -1 1h-68.667a1 1 0 0 1 -1-1v-89.333a1 1 0 0 1 1-1h8.833v.916a3 3 0 0 0 3 3h45a3 3 0 0 0 3-3v-.916z"/><path d="m105.334 43.291a1 1 0 0 0 -1 1v6.875a1 1 0 0 0 2 0v-6.875a1 1 0 0 0 -1-1z"/><path d="m62 15.666a4 4 0 1 0 -4-4 4 4 0 0 0 4 4zm0-6a2 2 0 1 1 -2 2 2 2 0 0 1 2-2z"/><path d="m52.5 36.229a1 1 0 0 0 1 1h36a1 1 0 0 0 0-2h-36a1 1 0 0 0 -1 1z"/><path d="m89.5 43.23h-36a1 1 0 0 0 0 2h36a1 1 0 0 0 0-2z"/><path d="m47.351 33.486-1.221 1.314a2.983 2.983 0 0 0 -2.38-1.2h-7.25a3 3 0 0 0 -3 3v7.25a3 3 0 0 0 3 3h7.25a3 3 0 0 0 3-3v-6.781l2.066-2.222a1 1 0 1 0 -1.465-1.361zm-2.6 10.368a1 1 0 0 1 -1 1h-7.251a1 1 0 0 1 -1-1v-7.254a1 1 0 0 1 1-1h7.25a.988.988 0 0 1 .947.736l-4.352 4.68-2.353-2.607a1 1 0 1 0 -1.484 1.34l3.084 3.417a1 1 0 0 0 .734.33h.008a1 1 0 0 0 .732-.319l3.684-3.957z"/><path d="m89.5 55.23h-36a1 1 0 0 0 0 2h36a1 1 0 0 0 0-2z"/><path d="m89.5 63.23h-36a1 1 0 0 0 0 2h36a1 1 0 0 0 0-2z"/><path d="m47.351 53.487-1.221 1.313a2.983 2.983 0 0 0 -2.38-1.2h-7.25a3 3 0 0 0 -3 3v7.25a3 3 0 0 0 3 3h7.25a3 3 0 0 0 3-3v-6.78l2.066-2.222a1 1 0 1 0 -1.465-1.361zm-2.6 10.368a1 1 0 0 1 -1 1h-7.251a1 1 0 0 1 -1-1v-7.25a1 1 0 0 1 1-1h7.25a.988.988 0 0 1 .947.736l-4.352 4.679-2.353-2.607a1 1 0 1 0 -1.484 1.34l3.084 3.417a1 1 0 0 0 .734.33h.008a1 1 0 0 0 .732-.319l3.684-3.961z"/><path d="m89.5 75.23h-36a1 1 0 0 0 0 2h36a1 1 0 0 0 0-2z"/><path d="m89.5 83.23h-36a1 1 0 0 0 0 2h36a1 1 0 0 0 0-2z"/><path d="m47.351 73.487-1.221 1.313a2.983 2.983 0 0 0 -2.38-1.195h-7.25a3 3 0 0 0 -3 3v7.25a3 3 0 0 0 3 3h7.25a3 3 0 0 0 3-3v-6.785l2.066-2.222a1 1 0 1 0 -1.465-1.361zm-2.6 10.368a1 1 0 0 1 -1 1h-7.251a1 1 0 0 1 -1-1v-7.25a1 1 0 0 1 1-1h7.25a.988.988 0 0 1 .947.736l-4.352 4.679-2.353-2.607a1 1 0 0 0 -1.484 1.34l3.084 3.417a1 1 0 0 0 .734.33h.008a1 1 0 0 0 .732-.319l3.684-3.961z"/><path d="m43.75 93.605h-7.25a3 3 0 0 0 -3 3v7.25a3 3 0 0 0 3 3h7.25a3 3 0 0 0 3-3v-7.25a3 3 0 0 0 -3-3zm1 10.25a1 1 0 0 1 -1 1h-7.25a1 1 0 0 1 -1-1v-7.25a1 1 0 0 1 1-1h7.25a1 1 0 0 1 1 1z"/><path d="m89.5 95.23h-36a1 1 0 0 0 0 2h36a1 1 0 0 0 0-2z"/><path d="m89.5 103.23h-36a1 1 0 0 0 0 2h36a1 1 0 0 0 0-2z"/></g></svg>