<svg height="512" viewBox="0 0 128 128" width="512" xmlns="http://www.w3.org/2000/svg"><path d="m38.787 104.329h-29.449a1 1 0 1 0 0 2h29.449a1 1 0 0 0 0-2z" fill="#e6e7e8"/><path d="m39.787 95.3h-22.823a1 1 0 1 0 0 2h22.823a1 1 0 0 0 0-2z" fill="#e6e7e8"/><path d="m40.787 86.3h-11.823a1 1 0 0 0 0 2h11.823a1 1 0 0 0 0-2z" fill="#e6e7e8"/><path d="m20.912 113.362h-4.542a1 1 0 0 0 0 2h4.542a1 1 0 1 0 0-2z" fill="#e6e7e8"/><path d="m37.787 113.362h-12.406a1 1 0 0 0 0 2h12.406a1 1 0 1 0 0-2z" fill="#e6e7e8"/><path d="m122.494 27.369a4.571 4.571 0 0 0 -3.444-1.493h-10.508a3.829 3.829 0 0 0 -.86-1.642 3.905 3.905 0 0 0 -2.945-1.279h-8.546a7.468 7.468 0 0 0 -7.517-6.317 9.4 9.4 0 0 0 -8.652 6.317h-8.7a4.721 4.721 0 0 0 -4.252 2.921h-10.661a5.561 5.561 0 0 0 -5.4 4.9l-8.13 79.484a4.544 4.544 0 0 0 4.586 5.1h62.641a5.563 5.563 0 0 0 5.4-4.9l8.127-79.486a4.607 4.607 0 0 0 -1.139-3.605z" fill="#e6e7e8"/><path d="m115.05 22.876h-62.641a4.536 4.536 0 0 0 -4.409 4l-8.127 79.486a3.547 3.547 0 0 0 3.592 4h62.641a4.536 4.536 0 0 0 4.409-4l8.126-79.486a3.546 3.546 0 0 0 -3.591-4z" fill="#6dc9f7"/><path d="m110.761 28.581h-55.23a2.268 2.268 0 0 0 -2.2 2l-7.369 72.075a1.773 1.773 0 0 0 1.8 2h55.229a2.268 2.268 0 0 0 2.2-2l7.369-72.075a1.773 1.773 0 0 0 -1.799-2z" fill="#d4fbff"/><path d="m103.676 101.656h-55.9a1.787 1.787 0 0 1 -1.617-.96l-.2 1.96a1.773 1.773 0 0 0 1.8 2h55.23a2.268 2.268 0 0 0 2.2-2l.185-1.814a2.255 2.255 0 0 1 -1.698.814z" fill="#fff"/><path d="m91.285 19.955a6.467 6.467 0 0 0 -6.611-6.317 8.334 8.334 0 0 0 -7.9 6.317h-9.455a3.7 3.7 0 0 0 -3.594 3.26l-.708 6.929a1.445 1.445 0 0 0 1.463 1.63h36.679a1.848 1.848 0 0 0 1.8-1.63l.709-6.929a2.891 2.891 0 0 0 -2.928-3.26z" fill="#0089ef"/><path d="m84.174 18.529a2.771 2.771 0 0 0 -2.7 2.445 2.167 2.167 0 0 0 2.2 2.445 2.773 2.773 0 0 0 2.695-2.445 2.167 2.167 0 0 0 -2.195-2.445z" fill="#fff"/><path d="m66.767 39.67h-5.167a2.268 2.268 0 0 0 -2.2 2l-.528 5.17a1.773 1.773 0 0 0 1.795 2h5.17a2.268 2.268 0 0 0 2.2-2l.529-5.17a1.773 1.773 0 0 0 -1.799-2z" fill="#fa759e"/><path d="m65.1 55.972h-5.17a2.268 2.268 0 0 0 -2.2 2l-.528 5.17a1.773 1.773 0 0 0 1.8 2h5.17a2.269 2.269 0 0 0 2.2-2l.528-5.17a1.773 1.773 0 0 0 -1.8-2z" fill="#fa759e"/><path d="m63.434 72.274h-5.17a2.268 2.268 0 0 0 -2.2 2l-.529 5.169a1.773 1.773 0 0 0 1.8 2h5.165a2.268 2.268 0 0 0 2.2-2l.528-5.169a1.772 1.772 0 0 0 -1.794-2z" fill="#fa759e"/><g fill="#3a2c60"><path d="m34.787 100.33h-29.45a1 1 0 0 0 0 2h29.45a1 1 0 0 0 0-2z"/><path d="m35.787 91.3h-22.824a1 1 0 1 0 0 2h22.824a1 1 0 1 0 0-2z"/><path d="m36.787 82.3h-11.823a1 1 0 0 0 0 2h11.823a1 1 0 0 0 0-2z"/><path d="m16.912 109.362h-4.542a1 1 0 0 0 0 2h4.542a1 1 0 1 0 0-2z"/><path d="m33.787 109.362h-12.407a1 1 0 1 0 0 2h12.407a1 1 0 1 0 0-2z"/><path d="m118.5 23.37a4.574 4.574 0 0 0 -3.445-1.494h-10.513a3.829 3.829 0 0 0 -.86-1.642 3.905 3.905 0 0 0 -2.945-1.279h-8.546a7.468 7.468 0 0 0 -7.517-6.317 9.4 9.4 0 0 0 -8.652 6.317h-8.7a4.719 4.719 0 0 0 -4.252 2.921h-10.661a5.565 5.565 0 0 0 -5.4 4.9l-8.13 79.484a4.544 4.544 0 0 0 4.585 5.1h62.641a5.563 5.563 0 0 0 5.4-4.9l8.127-79.487a4.6 4.6 0 0 0 -1.132-3.603zm-53.78-.053a2.714 2.714 0 0 1 2.6-2.362h9.452a1 1 0 0 0 .972-.765 7.345 7.345 0 0 1 6.931-5.552 5.443 5.443 0 0 1 5.612 5.354 1 1 0 0 0 1 .963h9.452a1.936 1.936 0 0 1 1.461.619 1.962 1.962 0 0 1 .472 1.54l-.709 6.928a.85.85 0 0 1 -.8.732h-36.683a.464.464 0 0 1 -.358-.145.485.485 0 0 1 -.111-.384zm52.927 3.457-8.127 79.486a3.519 3.519 0 0 1 -3.415 3.1h-62.641a2.6 2.6 0 0 1 -1.96-.834 2.637 2.637 0 0 1 -.636-2.064l8.132-79.485a3.52 3.52 0 0 1 3.414-3.1h10.239l-.379 3.7h-6.743a3.253 3.253 0 0 0 -3.2 2.9l-7.369 72.075a2.772 2.772 0 0 0 2.79 3.1h55.23a3.253 3.253 0 0 0 3.2-2.9l2.092-20.452a1 1 0 0 0 -.893-1.1.988.988 0 0 0 -1.1.893l-2.092 20.456a1.265 1.265 0 0 1 -1.21 1.1h-55.226a.8.8 0 0 1 -.608-.252.819.819 0 0 1 -.192-.646l7.368-72.074a1.267 1.267 0 0 1 1.21-1.1h6.538l-.047.461a2.5 2.5 0 0 0 .615 1.928 2.449 2.449 0 0 0 1.843.8h36.679a2.837 2.837 0 0 0 2.792-2.529l.068-.664h6.742a.806.806 0 0 1 .609.252.829.829 0 0 1 .192.647l-3.49 34.139a1 1 0 1 0 1.989.2l3.49-34.139a2.772 2.772 0 0 0 -2.79-3.1h-6.538l.379-3.7h10.448a2.6 2.6 0 0 1 1.96.834 2.634 2.634 0 0 1 .637 2.068z"/><path d="m108.752 67.792a.989.989 0 0 0 -1.1.893l-.92 9a1 1 0 0 0 .893 1.1.892.892 0 0 0 .1 0 1 1 0 0 0 .994-.9l.92-9a1 1 0 0 0 -.887-1.093z"/><path d="m83.674 24.419a3.751 3.751 0 0 0 3.69-3.343 3.166 3.166 0 0 0 -3.19-3.547 3.751 3.751 0 0 0 -3.69 3.344 3.166 3.166 0 0 0 3.19 3.546zm.5-4.89a1.206 1.206 0 0 1 .91.382 1.228 1.228 0 0 1 .291.961 1.778 1.778 0 0 1 -1.7 1.547 1.2 1.2 0 0 1 -.909-.382 1.225 1.225 0 0 1 -.292-.961 1.777 1.777 0 0 1 1.7-1.547z"/><path d="m60.66 49.84h5.17a3.251 3.251 0 0 0 3.2-2.9l.523-5.118 1.847-1.79a1 1 0 0 0 -1.39-1.432l-1.095 1.061c-.02-.024-.034-.051-.055-.075a2.78 2.78 0 0 0 -2.093-.911h-5.167a3.252 3.252 0 0 0 -3.2 2.9l-.528 5.17a2.771 2.771 0 0 0 2.79 3.1zm-.272-8.069a1.264 1.264 0 0 1 1.21-1.1h5.169a.806.806 0 0 1 .609.252.768.768 0 0 1 .081.146l-3.669 3.555-1.541-1.924a1 1 0 0 0 -1.562 1.25l2.229 2.785a1 1 0 0 0 .717.373h.063a1 1 0 0 0 .7-.282l2.931-2.839-.281 2.753a1.266 1.266 0 0 1 -1.21 1.1h-5.174a.805.805 0 0 1 -.609-.253.825.825 0 0 1 -.192-.646z"/><path d="m104.292 39.995h-29.343a1 1 0 0 0 0 2h29.343a1 1 0 0 0 0-2z"/><path d="m103.626 46.515h-29.344a1 1 0 0 0 0 2h29.344a1 1 0 0 0 0-2z"/><path d="m58.993 66.142h5.17a3.251 3.251 0 0 0 3.2-2.9l.523-5.118 1.85-1.792a1 1 0 1 0 -1.393-1.432l-1.095 1.061c-.02-.024-.033-.051-.054-.074a2.78 2.78 0 0 0 -2.093-.912h-5.17a3.251 3.251 0 0 0 -3.2 2.9l-.531 5.165a2.772 2.772 0 0 0 2.79 3.1zm-.272-8.069a1.264 1.264 0 0 1 1.21-1.1h5.169a.8.8 0 0 1 .608.252.716.716 0 0 1 .081.146l-3.669 3.554-1.54-1.925a1 1 0 1 0 -1.561 1.25l2.228 2.784a1 1 0 0 0 .717.374h.063a1 1 0 0 0 .7-.282l2.932-2.84-.282 2.754a1.265 1.265 0 0 1 -1.21 1.1h-5.17a.8.8 0 0 1 -.608-.252.825.825 0 0 1 -.193-.647z"/><path d="m102.626 56.3h-29.344a1 1 0 0 0 0 2h29.344a1 1 0 0 0 0-2z"/><path d="m101.959 62.817h-29.343a1 1 0 0 0 0 2h29.343a1 1 0 1 0 0-2z"/><path d="m100.959 72.6h-29.343a1 1 0 0 0 0 2h29.343a1 1 0 0 0 0-2z"/><path d="m100.292 79.119h-29.343a1 1 0 1 0 0 2h29.343a1 1 0 0 0 0-2z"/><path d="m68.09 71.221a1 1 0 0 0 -1.414-.022l-1.095 1.061c-.02-.024-.033-.051-.054-.074a2.779 2.779 0 0 0 -2.093-.912h-5.17a3.252 3.252 0 0 0 -3.2 2.9l-.528 5.17a2.771 2.771 0 0 0 2.79 3.1h5.174a3.253 3.253 0 0 0 3.2-2.9l.523-5.119 1.849-1.791a1 1 0 0 0 .018-1.413zm-4.383 8.12a1.267 1.267 0 0 1 -1.21 1.1h-5.17a.8.8 0 0 1 -.609-.252.823.823 0 0 1 -.192-.646l.528-5.169a1.266 1.266 0 0 1 1.21-1.1h5.17a.8.8 0 0 1 .609.252.793.793 0 0 1 .081.146l-3.669 3.554-1.542-1.926a1 1 0 1 0 -1.561 1.25l2.228 2.784a1 1 0 0 0 .718.373h.063a1 1 0 0 0 .7-.281l2.931-2.84z"/><path d="m61.767 87.576h-5.167a3.252 3.252 0 0 0 -3.2 2.9l-.528 5.17a2.774 2.774 0 0 0 2.79 3.1h5.17a3.251 3.251 0 0 0 3.2-2.9l.529-5.17a2.772 2.772 0 0 0 -2.791-3.1zm.273 8.068a1.266 1.266 0 0 1 -1.21 1.1h-5.17a.805.805 0 0 1 -.609-.253.826.826 0 0 1 -.192-.646l.529-5.17a1.264 1.264 0 0 1 1.21-1.1h5.169a.8.8 0 0 1 .609.252.824.824 0 0 1 .192.646z"/><path d="m99.292 88.9h-29.343a1 1 0 1 0 0 2h29.343a1 1 0 0 0 0-2z"/><path d="m98.626 95.421h-29.344a1 1 0 0 0 0 2h29.344a1 1 0 0 0 0-2z"/></g></svg>