<svg height="512" viewBox="0 0 128 128" width="512" xmlns="http://www.w3.org/2000/svg"><rect fill="#e6e7e8" height="110.643" rx="5" width="97.063" x="17.469" y="10.679"/><rect fill="#d4fbff" height="108.643" rx="4" width="95.063" x="14.469" y="7.679"/><path d="m17.469 112.321v-100.642a4 4 0 0 1 4-4h-3a4 4 0 0 0 -4 4v100.642a4 4 0 0 0 4 4h3a4 4 0 0 1 -4-4z" fill="#fff"/><path d="m27.244 7.679v48.78a4 4 0 0 0 2.312 3.626l30.756 14.315a4 4 0 0 0 3.376 0l30.756-14.315a4 4 0 0 0 2.311-3.626v-48.78z" fill="#6dc9f7"/><path d="m53.173 33.692a12.444 12.444 0 0 0 -1.269-.567 8.865 8.865 0 0 1 -8.935 0 12.508 12.508 0 0 0 -8.052 11.675v3.353a2 2 0 0 0 2 2h12.718a12.527 12.527 0 0 1 7.9-9.75 8.886 8.886 0 0 1 -4.362-6.711z" fill="#fa759e"/><path d="m56.3 25.9c.008-.153.023-.3.023-.46a8.9 8.9 0 1 0 -3.194 6.823 8.873 8.873 0 0 1 3.171-6.363z" fill="#fff"/><path d="m81.031 33.123a8.865 8.865 0 0 1 -8.935 0 12.444 12.444 0 0 0 -1.269.567 8.886 8.886 0 0 1 -4.365 6.716 12.527 12.527 0 0 1 7.9 9.75h12.721a2 2 0 0 0 2-2v-3.356a12.508 12.508 0 0 0 -8.052-11.677z" fill="#fa759e"/><path d="m76.568 16.547a8.892 8.892 0 0 0 -8.892 8.893c0 .155.015.307.023.46a8.868 8.868 0 0 1 3.17 6.363 8.892 8.892 0 1 0 5.7-15.716z" fill="#fff"/><path d="m66.463 40.407a8.836 8.836 0 0 1 -8.926 0 12.509 12.509 0 0 0 -8.052 11.681v3.353a2 2 0 0 0 2 2h21.03a2 2 0 0 0 2-2v-3.353a12.509 12.509 0 0 0 -8.052-11.681z" fill="#ffd7e5"/><circle cx="62" cy="32.724" fill="#fff" r="8.893"/><g fill="#3a2c60"><path d="m109.531 88a1 1 0 0 0 -1 1v6.875a1 1 0 0 0 2 0v-6.875a1 1 0 0 0 -1-1z"/><path d="m105.531 6.679h-87.062a5.006 5.006 0 0 0 -5 5v100.642a5.006 5.006 0 0 0 5 5h87.062a5.006 5.006 0 0 0 5-5v-12.321a1 1 0 0 0 -2 0v12.321a3 3 0 0 1 -3 3h-87.062a3 3 0 0 1 -3-3v-100.642a3 3 0 0 1 3-3h7.775v47.78a5.015 5.015 0 0 0 2.891 4.532l30.754 14.319a4.983 4.983 0 0 0 4.221 0l30.755-14.319a5.015 5.015 0 0 0 2.891-4.532v-47.78h7.775a3 3 0 0 1 3 3v73.446a1 1 0 0 0 2 0v-73.446a5.006 5.006 0 0 0 -5-5zm-9.775 49.78a3.012 3.012 0 0 1 -1.735 2.72l-30.755 14.321a2.992 2.992 0 0 1 -2.533 0l-30.754-14.321a3.012 3.012 0 0 1 -1.735-2.72v-47.78h67.512z"/><path d="m36.917 51.156h11.6c-.021.309-.035.619-.035.933v3.351a3 3 0 0 0 3 3h21.03a3 3 0 0 0 3-3v-3.351c0-.314-.014-.624-.035-.933h11.6a3 3 0 0 0 3-3v-3.351a13.514 13.514 0 0 0 -7.077-11.868 9.884 9.884 0 1 0 -16.219-8.866 9.852 9.852 0 0 0 -9.57 0 9.885 9.885 0 1 0 -16.211 8.866 13.514 13.514 0 0 0 -7.079 11.868v3.351a3 3 0 0 0 2.996 3zm36.6 4.284a1 1 0 0 1 -1 1h-21.032a1 1 0 0 1 -1-1v-3.351a11.513 11.513 0 0 1 7-10.573 9.812 9.812 0 0 0 9.028 0 11.512 11.512 0 0 1 7 10.573zm14.566-10.635v3.351a1 1 0 0 1 -1 1h-11.892a13.559 13.559 0 0 0 -6.755-8.935 9.882 9.882 0 0 0 3.307-5.844c.1-.049.206-.1.313-.147a9.8 9.8 0 0 0 9.026 0 11.513 11.513 0 0 1 7.001 10.575zm-19.407-19.366a7.917 7.917 0 1 1 3.167 6.31 9.858 9.858 0 0 0 -3.167-6.3zm1.217 7.285a7.893 7.893 0 1 1 -7.893-7.893 7.9 7.9 0 0 1 7.893 7.893zm-30.354-7.285a7.893 7.893 0 0 1 15.785 0v.006a9.858 9.858 0 0 0 -3.167 6.3 7.881 7.881 0 0 1 -12.618-6.31zm-3.622 19.366a11.513 11.513 0 0 1 7-10.573 9.8 9.8 0 0 0 9.026 0c.107.046.209.1.313.147a9.882 9.882 0 0 0 3.307 5.844 13.559 13.559 0 0 0 -6.755 8.935h-11.891a1 1 0 0 1 -1-1z"/><path d="m96.756 84h-69.512a1 1 0 0 0 0 2h69.512a1 1 0 0 0 0-2z"/><path d="m96.756 94h-69.512a1 1 0 0 0 0 2h69.512a1 1 0 0 0 0-2z"/><path d="m96.756 104h-69.512a1 1 0 0 0 0 2h69.512a1 1 0 0 0 0-2z"/></g></svg>