<svg height="512" viewBox="0 0 128 128" width="512" xmlns="http://www.w3.org/2000/svg"><rect fill="#e6e7e8" height="98" rx="5" width="112" x="10" y="17"/><rect fill="#d4fbff" height="96" rx="4" width="110" x="7" y="14"/><path d="m113 107h-102a4 4 0 0 1 -4-4v3a4 4 0 0 0 4 4h102a4 4 0 0 0 4-4v-3a4 4 0 0 1 -4 4z" fill="#fff"/><path d="m113 14h-102a4 4 0 0 0 -4 4v10.5h110v-10.5a4 4 0 0 0 -4-4z" fill="#0089ef"/><path d="m95.667 19.083a2.334 2.334 0 1 0 2.333 2.334 2.334 2.334 0 0 0 -2.333-2.334z" fill="#fff"/><path d="m102.667 19.083a2.334 2.334 0 1 0 2.333 2.334 2.333 2.333 0 0 0 -2.333-2.334z" fill="#d4fbff"/><path d="m109.667 19.083a2.334 2.334 0 1 0 2.333 2.334 2.333 2.333 0 0 0 -2.333-2.334z" fill="#fa759e"/><path d="m71.014 92.3-17.114 3.66 4.481-16.918 33.9-32.3a3.367 3.367 0 0 1 4.761.115l7.985 8.38a3.368 3.368 0 0 1 -.117 4.763z" fill="#ffd7e5"/><path d="m71.014 92.3-12.631-13.258 33.9-32.3a3.367 3.367 0 0 1 4.761.115l7.985 8.38a3.368 3.368 0 0 1 -.119 4.763z" fill="#6dc9f7"/><path d="m101.684 63.075 3.226-3.075a3.368 3.368 0 0 0 .115-4.761l-7.985-8.379a3.367 3.367 0 0 0 -4.761-.115l-3.226 3.074z" fill="#0089ef"/><path d="m19.546 53.95v5.129a3.947 3.947 0 0 0 3.947 3.947 3.947 3.947 0 0 0 3.947-3.947v-3.261h10.569v35.374a4.768 4.768 0 0 0 4.769 4.768 4.768 4.768 0 0 0 4.768-4.768v-35.374h10.568v3.261a3.947 3.947 0 0 0 3.947 3.947 3.947 3.947 0 0 0 3.946-3.947v-5.129a6.025 6.025 0 0 0 -6.025-6.025h-34.41a6.026 6.026 0 0 0 -6.026 6.025z" fill="#fa759e"/><g fill="#3a2c60"><path d="m117 84.67a1 1 0 0 0 -1 1v8.33a1 1 0 0 0 2 0v-8.33a1 1 0 0 0 -1-1z"/><path d="m113 13h-102a5.006 5.006 0 0 0 -5 5v88a5.006 5.006 0 0 0 5 5h102a5.006 5.006 0 0 0 5-5v-7a1 1 0 0 0 -2 0v7a3 3 0 0 1 -3 3h-102a3 3 0 0 1 -3-3v-76.5h108v51.25a1 1 0 0 0 2 0v-62.75a5.006 5.006 0 0 0 -5-5zm-27.732 14.5h-77.268v-9.5a3 3 0 0 1 3-3h102a3 3 0 0 1 3 3v9.5z"/><path d="m53.9 96.96a1 1 0 0 0 .21-.022l17.112-3.662a.992.992 0 0 0 .48-.254l33.9-32.3a4.372 4.372 0 0 0 .149-6.175l-7.987-8.377a4.373 4.373 0 0 0 -6.175-.149l-33.9 32.3a1.016 1.016 0 0 0 -.277.469l-4.48 16.919a1 1 0 0 0 .968 1.251zm35.118-45.728 11.252 11.809-29.221 27.844-11.249-11.809zm3.95-3.763a2.371 2.371 0 0 1 3.348.081l7.986 8.38a2.371 2.371 0 0 1 -.081 3.347l-2.5 2.385-11.255-11.809zm-34.076 33.557 10.166 10.668-10.492 2.246-2.421-2.54z"/><path d="m42.777 96.96a5.775 5.775 0 0 0 5.769-5.768v-34.374h8.568v2.261a4.947 4.947 0 0 0 9.894 0v-5.129a7.033 7.033 0 0 0 -7.026-7.025h-34.41a7.033 7.033 0 0 0 -7.026 7.025v5.129a4.947 4.947 0 0 0 9.894 0v-2.261h8.569v34.374a5.775 5.775 0 0 0 5.768 5.768zm-15.337-42.142a1 1 0 0 0 -1 1v3.261a2.947 2.947 0 0 1 -5.894 0v-5.129a5.031 5.031 0 0 1 5.026-5.025h34.41a5.031 5.031 0 0 1 5.026 5.025v5.129a2.947 2.947 0 0 1 -5.894 0v-3.261a1 1 0 0 0 -1-1h-10.568a1 1 0 0 0 -1 1v35.374a3.769 3.769 0 0 1 -7.537 0v-35.374a1 1 0 0 0 -1-1z"/></g></svg>