<?xml version="1.0"?>
<svg xmlns="http://www.w3.org/2000/svg" viewBox="0 0 128 128" width="512" height="512"><path d="M117,34.024H90.52V25.183A9.7,9.7,0,0,0,80.835,15.5H51.165a9.7,9.7,0,0,0-9.685,9.684v8.841H15a5.006,5.006,0,0,0-5,5v11.09a5.006,5.006,0,0,0,5,5h.428V111.5a5.006,5.006,0,0,0,5,5h91.144a5.006,5.006,0,0,0,5-5V55.114H117a5.006,5.006,0,0,0,5-5V39.024A5.006,5.006,0,0,0,117,34.024Zm-63.75-4.5a3.347,3.347,0,0,1,3.343-3.342H75.407a3.347,3.347,0,0,1,3.343,3.342v4.5H53.25Z" fill="#e6e7e8"/><path d="M12.428,50.114V107.5a4,4,0,0,0,4,4h91.144a4,4,0,0,0,4-4V50.114Z" fill="#fa759e"/><rect x="7" y="31.024" width="110" height="19.09" rx="4" ry="4" fill="#ffd7e5"/><path d="M113,31.024H11a4,4,0,0,0-4,4v3a4,4,0,0,1,4-4H113a4,4,0,0,1,4,4v-3A4,4,0,0,0,113,31.024Z" fill="#fff"/><path d="M38.48,21.183v9.841h9.77v-5.5a4.342,4.342,0,0,1,4.342-4.342H71.408a4.342,4.342,0,0,1,4.342,4.342v5.5h9.769V21.183A8.684,8.684,0,0,0,76.835,12.5H47.165A8.685,8.685,0,0,0,38.48,21.183Z" fill="#6dc9f7"/><path d="M94,74.314h10.841a11.766,11.766,0,0,0-21.355.888H40.518a11.766,11.766,0,0,0-21.355-.888H30V85.055H19.163a11.766,11.766,0,0,0,21.355-.888H83.482a11.766,11.766,0,0,0,21.355.888H94Z" fill="#0089ef"/><rect x="21.971" y="45.388" width="18.183" height="9.537" rx="3" ry="3" fill="#6dc9f7"/><rect x="83.846" y="45.388" width="18.183" height="9.537" rx="3" ry="3" fill="#6dc9f7"/><path d="M73.833,110.5h-10a1,1,0,0,0,0,2h10a1,1,0,0,0,0-2Z" fill="#3a2c60"/><path d="M113,30.024H86.52V21.183A9.7,9.7,0,0,0,76.835,11.5H47.165a9.7,9.7,0,0,0-9.685,9.684v8.841H11a5.006,5.006,0,0,0-5,5v11.09a5.006,5.006,0,0,0,5,5h.428V107.5a5.006,5.006,0,0,0,5,5H59.562a1,1,0,0,0,0-2H16.428a3,3,0,0,1-3-3V51.114h7.543v.811a4,4,0,0,0,4,4H37.153a4,4,0,0,0,4-4v-.811H82.847v.811a4,4,0,0,0,4,4H99.029a4,4,0,0,0,4-4v-.811h7.543V107.5a3,3,0,0,1-3,3h-29.4a1,1,0,0,0,0,2h29.405a5.006,5.006,0,0,0,5-5V51.114H113a5.006,5.006,0,0,0,5-5V35.024A5.006,5.006,0,0,0,113,30.024ZM39.48,21.183A7.694,7.694,0,0,1,47.165,13.5h29.67a7.694,7.694,0,0,1,7.685,7.684v8.841H76.75v-4.5a5.348,5.348,0,0,0-5.343-5.342H52.593a5.348,5.348,0,0,0-5.343,5.342v4.5H39.48Zm9.77,8.841v-4.5a3.346,3.346,0,0,1,3.343-3.342H71.407a3.346,3.346,0,0,1,3.343,3.342v4.5Zm-10.1,21.9a2,2,0,0,1-2,2H24.971a2,2,0,0,1-2-2V48.388a2,2,0,0,1,2-2H37.153a2,2,0,0,1,2,2Zm61.876,0a2,2,0,0,1-2,2H86.847a2,2,0,0,1-2-2V48.388a2,2,0,0,1,2-2H99.029a2,2,0,0,1,2,2ZM116,46.114a3,3,0,0,1-3,3h-9.971v-.726a4,4,0,0,0-4-4H86.847a4,4,0,0,0-4,4v.726H41.153v-.726a4,4,0,0,0-4-4H24.971a4,4,0,0,0-4,4v.726H11a3,3,0,0,1-3-3V35.024a3,3,0,0,1,3-3H113a3,3,0,0,1,3,3Z" fill="#3a2c60"/><path d="M19.162,84.055a1,1,0,0,0-.89,1.457,12.766,12.766,0,0,0,22.9-.345H82.832a12.766,12.766,0,0,0,22.9.345,1,1,0,0,0-.89-1.457H95V75.314h9.841a1,1,0,0,0,.89-1.457,12.766,12.766,0,0,0-22.9.345H41.168a12.767,12.767,0,0,0-22.9-.345,1,1,0,0,0,.89,1.457H29v8.741ZM30,73.314H20.95a10.767,10.767,0,0,1,18.643,2.27,1,1,0,0,0,.925.618H83.482a1,1,0,0,0,.925-.618,10.766,10.766,0,0,1,18.642-2.27H94a1,1,0,0,0-1,1V85.055a1,1,0,0,0,1,1h9.053a10.765,10.765,0,0,1-18.642-2.269,1,1,0,0,0-.925-.619H40.518a1,1,0,0,0-.925.619A10.766,10.766,0,0,1,20.95,86.055H30a1,1,0,0,0,1-1V74.314A1,1,0,0,0,30,73.314Z" fill="#3a2c60"/></svg>
