<svg height="512" viewBox="0 0 128 128" width="512" xmlns="http://www.w3.org/2000/svg"><rect fill="#e6e7e8" height="112" rx="8.036" width="63.275" x="34.362" y="10"/><rect fill="#6dc9f7" height="110" rx="7.035" width="61.275" x="31.362" y="7"/><path d="m31.362 17.429h61.275v84.657h-61.275z" fill="#d4fbff"/><path d="m31.362 99.086h61.275v3h-61.275z" fill="#fff"/><rect fill="#0089ef" height="2.269" rx="1.026" width="19.128" x="52.436" y="11.186"/><path d="m76.1 11.075a1.246 1.246 0 1 0 1.245 1.246 1.245 1.245 0 0 0 -1.245-1.246z" fill="#0089ef"/><rect fill="#0089ef" height="5.511" rx="2.492" width="16.534" x="53.733" y="106.153"/><path d="m63.965 42.122 9.153-14.915 9.158 14.915v46.819a3.366 3.366 0 0 1 -3.367 3.367h-11.576a3.367 3.367 0 0 1 -3.368-3.367z" fill="#ffd7e5"/><path d="m63.965 42.122h18.311v46.819a3.366 3.366 0 0 1 -3.367 3.367h-11.576a3.367 3.367 0 0 1 -3.368-3.367z" fill="#6dc9f7"/><path d="m63.965 84.485v4.456a3.367 3.367 0 0 0 3.368 3.367h11.576a3.366 3.366 0 0 0 3.367-3.367v-4.456z" fill="#fa759e"/><path d="m41.724 27.207h17.667v65.101h-17.667z" fill="#ffd7e5"/><g fill="#3a2c60"><path d="m31.362 91.414a1 1 0 0 0 1-1v-8.081a1 1 0 0 0 -2 0v8.081a1 1 0 0 0 1 1z"/><path d="m85.6 6h-47.2a8.045 8.045 0 0 0 -8.036 8.036v63.464a1 1 0 1 0 2 0v-59.071h59.273v82.657h-59.275v-5.836a1 1 0 0 0 -2 0v14.714a8.045 8.045 0 0 0 8.038 8.036h47.2a8.044 8.044 0 0 0 8.035-8.036v-95.928a8.044 8.044 0 0 0 -8.035-8.036zm-53.238 10.429v-2.393a6.043 6.043 0 0 1 6.038-6.036h47.2a6.042 6.042 0 0 1 6.035 6.036v2.393zm53.238 99.571h-47.2a6.043 6.043 0 0 1 -6.036-6.036v-6.878h59.273v6.878a6.042 6.042 0 0 1 -6.037 6.036z"/><path d="m78.909 93.309a4.373 4.373 0 0 0 4.367-4.368v-46.819a.994.994 0 0 0 -.148-.523l-9.158-14.915a1.039 1.039 0 0 0 -1.7 0l-9.157 14.916a1 1 0 0 0 -.148.523v46.818a4.374 4.374 0 0 0 4.368 4.368zm-13.944-50.187h16.311v40.363h-16.311zm9.909-11.144 5.615 9.144h-14.737l5.612-9.144zm-9.909 56.963v-3.456h16.311v3.456a2.37 2.37 0 0 1 -2.367 2.368h-11.576a2.37 2.37 0 0 1 -2.368-2.368z"/><path d="m59.39 93.309a1 1 0 0 0 1-1v-65.1a1 1 0 0 0 -1-1h-17.666a1 1 0 0 0 -1 1v65.1a1 1 0 0 0 1 1zm-16.666-65.1h15.666v5.55h-3.833a1 1 0 0 0 0 2h3.833v3h-1.833a1 1 0 0 0 0 2h1.833v3h-3.833a1 1 0 0 0 0 2h3.833v3h-1.833a1 1 0 0 0 0 2h1.833v3h-3.833a1 1 0 0 0 0 2h3.833v3h-1.833a1 1 0 0 0 0 2h1.833v3h-3.833a1 1 0 0 0 0 2h3.833v3h-1.833a1 1 0 0 0 0 2h1.833v3h-3.833a1 1 0 0 0 0 2h3.833v3h-1.833a1 1 0 0 0 0 2h1.833v3h-3.833a1 1 0 0 0 0 2h3.833v5.551h-15.666z"/></g></svg>