<svg height="512" viewBox="0 0 128 128" width="512" xmlns="http://www.w3.org/2000/svg"><path d="m117 34.024h-26.48v-8.841a9.7 9.7 0 0 0 -9.685-9.683h-29.67a9.7 9.7 0 0 0 -9.685 9.684v8.841h-26.48a5.006 5.006 0 0 0 -5 5v11.09a5.006 5.006 0 0 0 5 5h.428v56.385a5.006 5.006 0 0 0 5 5h91.144a5.006 5.006 0 0 0 5-5v-56.386h.428a5.006 5.006 0 0 0 5-5v-11.09a5.006 5.006 0 0 0 -5-5zm-63.75-4.5a3.347 3.347 0 0 1 3.343-3.342h18.814a3.347 3.347 0 0 1 3.343 3.342v4.5h-25.5z" fill="#e6e7e8"/><path d="m12.428 50.114v57.386a4 4 0 0 0 4 4h91.144a4 4 0 0 0 4-4v-57.386z" fill="#0089ef"/><path d="m45.338 75.9-3.645-15.219 15.227 3.641 29.615 29.615a3.013 3.013 0 0 1 0 4.26l-7.323 7.322a3.011 3.011 0 0 1 -4.26 0z" fill="#ffd7e5"/><path d="m45.338 75.9 11.582-11.578 29.615 29.615a3.013 3.013 0 0 1 0 4.26l-7.323 7.322a3.011 3.011 0 0 1 -4.26 0z" fill="#6dc9f7"/><path d="m72.134 102.7 2.818 2.819a3.011 3.011 0 0 0 4.26 0l7.323-7.319a3.013 3.013 0 0 0 0-4.26l-2.819-2.819z" fill="#fa759e"/><path d="m33.816 74.337h54.794v14.87h-54.794z" fill="#ffd7e5" transform="matrix(.707 -.707 .707 .707 -39.892 67.235)"/><rect fill="#6dc9f7" height="19.09" rx="4" width="110" x="7" y="31.024"/><path d="m113 31.024h-102a4 4 0 0 0 -4 4v3a4 4 0 0 1 4-4h102a4 4 0 0 1 4 4v-3a4 4 0 0 0 -4-4z" fill="#fff"/><g fill="#fa759e"><path d="m38.48 21.183v9.841h9.77v-5.5a4.342 4.342 0 0 1 4.342-4.342h18.816a4.342 4.342 0 0 1 4.342 4.342v5.5h9.769v-9.841a8.684 8.684 0 0 0 -8.684-8.683h-29.67a8.685 8.685 0 0 0 -8.685 8.683z"/><rect height="9.537" rx="3" width="18.183" x="21.971" y="45.388"/><rect height="9.537" rx="3" width="18.183" x="83.846" y="45.388"/></g><path d="m35.583 95.887a1 1 0 0 0 .293.707l10.515 10.515a1 1 0 0 0 1.414 0l4.493-4.494 5.952-5.952 2.975-2.975.24-.24 12.779 12.779a4.015 4.015 0 0 0 5.674 0l7.324-7.327a4.017 4.017 0 0 0 0-5.674l-12.78-12.776 4.617-4.617 7.469-7.468a1 1 0 0 0 0-1.414l-10.512-10.516a1 1 0 0 0 -1.414 0l-12.088 12.087-4.907-4.907a.967.967 0 0 0 -.294-.2.866.866 0 0 0 -.089-.035.924.924 0 0 0 -.092-.036l-15.227-3.636a1 1 0 0 0 -1.2 1.2l3.645 15.224a.731.731 0 0 0 .036.092.844.844 0 0 0 .034.088.986.986 0 0 0 .2.294l4.907 4.907-13.671 13.667a1 1 0 0 0 -.293.707zm31.594-8.151 5.87-5.871 9.253 9.253-10.166 10.168-9.254-9.253zm18.651 9.754-7.323 7.322a2.016 2.016 0 0 1 -2.846 0l-2.111-2.112 10.168-10.168 2.112 2.112a2.016 2.016 0 0 1 0 2.846zm-39.934-23.556-2.206-9.213 2.046-2.046 9.215 2.2zm.857 1.97 10.169-10.168 4.2 4.2-10.168 10.164zm28.578-17.348 9.1 9.1-3.08 3.079-2.169-2.169a1 1 0 0 0 -1.414 1.414l2.169 2.17-1.562 1.561-.979-.979a1 1 0 0 0 -1.414 1.414l.979.979-1.559 1.562-2.17-2.169a1 1 0 1 0 -1.414 1.414l2.167 2.168-1.561 1.562-.98-.979a1 1 0 1 0 -1.414 1.417l.98.979-1.562 1.562-2.17-2.17a1 1 0 1 0 -1.414 1.414l2.17 2.17-1.562 1.56-.979-.98a1 1 0 0 0 -1.414 1.414l.979.98-1.562 1.562-2.169-2.17a1 1 0 0 0 -1.414 1.414l2.169 2.17-1.561 1.561-.979-.979a1 1 0 0 0 -1.415 1.413l.979.979-1.561 1.562-2.17-2.169a1 1 0 0 0 -1.414 1.414l2.17 2.169-1.562 1.562-.979-.979a1 1 0 0 0 -1.414 1.414l.979.979-1.562 1.562-2.17-2.17a1 1 0 0 0 -1.414 1.414l2.17 2.17-3.077 3.08-9.1-9.1z" fill="#3a2c60"/><path d="m39.833 110.5h-10a1 1 0 1 0 0 2h10a1 1 0 0 0 0-2z" fill="#3a2c60"/><path d="m113 30.024h-26.48v-8.841a9.7 9.7 0 0 0 -9.685-9.683h-29.67a9.7 9.7 0 0 0 -9.685 9.684v8.841h-26.48a5.006 5.006 0 0 0 -5 5v11.09a5.006 5.006 0 0 0 5 5h.428v56.385a5.006 5.006 0 0 0 5 5h9.134a1 1 0 0 0 0-2h-9.134a3 3 0 0 1 -3-3v-56.386h7.543v.811a4 4 0 0 0 4 4h12.182a4 4 0 0 0 4-4v-.811h41.694v.811a4 4 0 0 0 4 4h12.182a4 4 0 0 0 4-4v-.811h7.543v56.386a3 3 0 0 1 -3 3h-63.406a1 1 0 0 0 0 2h63.406a5.006 5.006 0 0 0 5-5v-56.386h.428a5.006 5.006 0 0 0 5-5v-11.09a5.006 5.006 0 0 0 -5-5zm-73.52-8.841a7.694 7.694 0 0 1 7.685-7.683h29.67a7.694 7.694 0 0 1 7.685 7.684v8.841h-7.77v-4.5a5.349 5.349 0 0 0 -5.342-5.342h-18.816a5.349 5.349 0 0 0 -5.342 5.342v4.5h-7.77zm9.77 8.841v-4.5a3.347 3.347 0 0 1 3.342-3.342h18.816a3.347 3.347 0 0 1 3.342 3.342v4.5zm-10.1 21.9a2 2 0 0 1 -2 2h-12.179a2 2 0 0 1 -2-2v-3.536a2 2 0 0 1 2-2h12.182a2 2 0 0 1 2 2zm61.876 0a2 2 0 0 1 -2 2h-12.179a2 2 0 0 1 -2-2v-3.536a2 2 0 0 1 2-2h12.182a2 2 0 0 1 2 2zm14.974-5.81a3 3 0 0 1 -3 3h-9.971v-.726a4 4 0 0 0 -4-4h-12.182a4 4 0 0 0 -4 4v.726h-41.694v-.726a4 4 0 0 0 -4-4h-12.182a4 4 0 0 0 -4 4v.726h-9.971a3 3 0 0 1 -3-3v-11.09a3 3 0 0 1 3-3h102a3 3 0 0 1 3 3z" fill="#3a2c60"/></svg>