<svg height="512" viewBox="0 0 128 128" width="512" xmlns="http://www.w3.org/2000/svg"><rect fill="#e6e7e8" height="102" rx="5" width="102" x="15" y="15"/><rect fill="#0089ef" height="100" rx="4" width="100" x="12" y="12"/><path d="m108 12h-92a4 4 0 0 0 -4 4v3a4 4 0 0 1 4-4h92a4 4 0 0 1 4 4v-3a4 4 0 0 0 -4-4z" fill="#fff"/><path d="m53 111h-10.25a1 1 0 0 0 0 2h10.25a1 1 0 0 0 0-2z" fill="#3a2c60"/><path d="m108 11h-92a5.006 5.006 0 0 0 -5 5v92a5.006 5.006 0 0 0 5 5h21.75a1 1 0 0 0 0-2h-21.75a3 3 0 0 1 -3-3v-92a3 3 0 0 1 3-3h92a3 3 0 0 1 3 3v92a3 3 0 0 1 -3 3h-50.417a1 1 0 0 0 0 2h50.417a5.006 5.006 0 0 0 5-5v-92a5.006 5.006 0 0 0 -5-5z" fill="#3a2c60"/><g fill="#fff"><path d="m97.5 47.411a5 5 0 0 0 -5 5v23.163l-24.575-40.674a5 5 0 0 0 -9.28 2.586v30.457a13.573 13.573 0 1 1 -27.145 0v-30.459a5 5 0 0 0 -10 0v30.459a23.573 23.573 0 1 0 47.145 0v-12.513l20.344 33.67a5 5 0 0 0 4.28 2.414h4.231a5 5 0 0 0 5-5v-34.103a5 5 0 0 0 -5-5z"/><circle cx="97.375" cy="35.875" r="5.125"/></g></svg>