<?xml version="1.0"?>
<svg xmlns="http://www.w3.org/2000/svg" viewBox="0 0 128 128" width="512" height="512"><path d="M120.391,100.017H108V85.44a1,1,0,0,0-1-1h-27.6a5.026,5.026,0,0,0-4.912-4H67V74.67h37.305a5.7,5.7,0,0,0,5.695-5.7V15.256a5.432,5.432,0,0,0-5.426-5.426H27.426A5.432,5.432,0,0,0,22,15.256V68.975a5.7,5.7,0,0,0,5.7,5.7H65v5.775H57.518a5.027,5.027,0,0,0-4.912,4H25a1,1,0,0,0-1,1v14.577H21.453a.366.366,0,0,1-.366-.367v-.925a3.116,3.116,0,0,0-3.111-3.113H11.611A3.116,3.116,0,0,0,8.5,98.725V119.06a3.114,3.114,0,0,0,3.109,3.11H38.738a3.114,3.114,0,0,0,3.11-3.11V103.126a3.112,3.112,0,0,0-3.11-3.109H26V86.44H52.6a5.023,5.023,0,0,0,4.919,4.04H65v9.537H62.279a.366.366,0,0,1-.366-.367v-.925A3.115,3.115,0,0,0,58.8,95.612H52.438a3.116,3.116,0,0,0-3.112,3.113V119.06a3.114,3.114,0,0,0,3.11,3.11H79.564a3.114,3.114,0,0,0,3.11-3.11V103.126a3.112,3.112,0,0,0-3.11-3.109H67V90.48h7.482A5.023,5.023,0,0,0,79.4,86.44H106v13.577h-2.894a.366.366,0,0,1-.366-.367v-.925a3.115,3.115,0,0,0-3.111-3.113H93.264a3.116,3.116,0,0,0-3.112,3.113V119.06a3.114,3.114,0,0,0,3.11,3.11h27.129a3.114,3.114,0,0,0,3.109-3.11V103.126A3.112,3.112,0,0,0,120.391,100.017Z" fill="#e6e7e8"/><path d="M100.3,6.83H23.7a4.7,4.7,0,0,0-4.7,4.7v8.181a4.7,4.7,0,0,1,4.7-4.7H37.865a4.7,4.7,0,0,1,4.7,4.7v2.062a3.04,3.04,0,0,0,3.04,3.04h54.7a4.7,4.7,0,0,1,4.7,4.7V11.53A4.7,4.7,0,0,0,100.3,6.83Z" fill="#fa759e"/><path d="M100.3,6.83H23.7a4.7,4.7,0,0,0-4.7,4.7v3a4.7,4.7,0,0,1,4.7-4.7h76.6a4.7,4.7,0,0,1,4.7,4.7v-3A4.7,4.7,0,0,0,100.3,6.83Z" fill="#fff"/><path d="M100.3,24.813H45.605a3.04,3.04,0,0,1-3.04-3.04V19.711a4.7,4.7,0,0,0-4.7-4.7H23.7a4.7,4.7,0,0,0-4.7,4.7V64.97a4.7,4.7,0,0,0,4.7,4.7h76.6a4.7,4.7,0,0,0,4.7-4.7V29.513A4.7,4.7,0,0,0,100.3,24.813Z" fill="#ffd7e5"/><path d="M79.67,49.624V45.917a1.034,1.034,0,0,0-1.033-1.033h-2.5a14.334,14.334,0,0,0-2.1-5.07l1.767-1.767a1.033,1.033,0,0,0,0-1.46l-2.621-2.622a1.034,1.034,0,0,0-1.461,0l-1.766,1.767a14.347,14.347,0,0,0-5.071-2.1V31.134A1.032,1.032,0,0,0,63.854,30.1H60.146a1.032,1.032,0,0,0-1.032,1.033v2.495a14.347,14.347,0,0,0-5.071,2.1l-1.766-1.767a1.034,1.034,0,0,0-1.461,0L48.2,36.587a1.033,1.033,0,0,0,0,1.46l1.767,1.767a14.334,14.334,0,0,0-2.1,5.07H45.363a1.034,1.034,0,0,0-1.033,1.033v3.707a1.033,1.033,0,0,0,1.033,1.033h2.495a14.343,14.343,0,0,0,2.1,5.07L48.2,57.494a1.033,1.033,0,0,0,0,1.46l2.621,2.622a1.034,1.034,0,0,0,1.461,0l1.766-1.767a14.349,14.349,0,0,0,5.071,2.1v2.5a1.032,1.032,0,0,0,1.032,1.032h3.708a1.032,1.032,0,0,0,1.032-1.032v-2.5a14.349,14.349,0,0,0,5.071-2.1l1.766,1.767a1.034,1.034,0,0,0,1.461,0l2.621-2.622a1.033,1.033,0,0,0,0-1.46l-1.766-1.767a14.343,14.343,0,0,0,2.1-5.07h2.5A1.033,1.033,0,0,0,79.67,49.624ZM62,56.218a8.448,8.448,0,1,1,8.448-8.447A8.448,8.448,0,0,1,62,56.218Z" fill="#fa759e"/><path d="M34.738,97.017H17.453a1.367,1.367,0,0,1-1.366-1.366v-.927a2.111,2.111,0,0,0-2.111-2.111H7.611A2.111,2.111,0,0,0,5.5,94.724V115.06a2.11,2.11,0,0,0,2.109,2.11H34.738a2.11,2.11,0,0,0,2.11-2.11V99.126A2.11,2.11,0,0,0,34.738,97.017Z" fill="#6dc9f7"/><path d="M75.564,97.017H58.279a1.367,1.367,0,0,1-1.366-1.366v-.927A2.111,2.111,0,0,0,54.8,92.613H48.438a2.111,2.111,0,0,0-2.112,2.111V115.06a2.11,2.11,0,0,0,2.11,2.11H75.564a2.11,2.11,0,0,0,2.11-2.11V99.126A2.11,2.11,0,0,0,75.564,97.017Z" fill="#6dc9f7"/><path d="M116.391,97.017H99.105a1.367,1.367,0,0,1-1.366-1.366v-.927a2.111,2.111,0,0,0-2.111-2.111H89.264a2.112,2.112,0,0,0-2.112,2.111V115.06a2.11,2.11,0,0,0,2.11,2.11h27.129a2.11,2.11,0,0,0,2.109-2.11V99.126A2.109,2.109,0,0,0,116.391,97.017Z" fill="#6dc9f7"/><rect x="49.5" y="77.445" width="25" height="8.036" rx="4.018" ry="4.018" fill="#0089ef"/><path d="M105,49.023a1,1,0,0,0-1,1v6.584a1,1,0,0,0,2,0V50.023A1,1,0,0,0,105,49.023Z" fill="#3a2c60"/><path d="M62,38.323a9.448,9.448,0,1,0,9.448,9.448A9.46,9.46,0,0,0,62,38.323Zm0,16.9a7.448,7.448,0,1,1,7.448-7.448A7.456,7.456,0,0,1,62,55.219Z" fill="#3a2c60"/><path d="M78.637,51.657a2.035,2.035,0,0,0,2.033-2.033V45.917a2.035,2.035,0,0,0-2.033-2.032h-1.7a15.245,15.245,0,0,0-1.629-3.927l1.2-1.2a2.03,2.03,0,0,0,0-2.875l-2.621-2.621a2.081,2.081,0,0,0-2.875,0l-1.2,1.2a15.267,15.267,0,0,0-3.926-1.629v-1.7A2.034,2.034,0,0,0,63.854,29.1H60.146a2.034,2.034,0,0,0-2.032,2.033v1.7a15.267,15.267,0,0,0-3.926,1.629l-1.2-1.2a2.081,2.081,0,0,0-2.875,0L47.488,35.88a2.03,2.03,0,0,0,0,2.874l1.2,1.2a15.245,15.245,0,0,0-1.629,3.927h-1.7a2.035,2.035,0,0,0-2.033,2.032v3.707a2.035,2.035,0,0,0,2.033,2.033h1.7a15.253,15.253,0,0,0,1.629,3.926l-1.2,1.2a2.03,2.03,0,0,0,0,2.874l2.621,2.622a2.083,2.083,0,0,0,2.875,0l1.2-1.2a15.267,15.267,0,0,0,3.926,1.629v1.7a2.034,2.034,0,0,0,2.032,2.032h3.708a2.034,2.034,0,0,0,2.032-2.032v-1.7a15.267,15.267,0,0,0,3.926-1.629l1.2,1.2a2.083,2.083,0,0,0,2.875,0l2.621-2.622a2.03,2.03,0,0,0,0-2.874l-1.2-1.2a15.253,15.253,0,0,0,1.629-3.926Zm-3.475-1.2a13.31,13.31,0,0,1-1.957,4.718,1,1,0,0,0,.127,1.259L75.1,58.247,72.43,60.869,70.664,59.1a1,1,0,0,0-1.26-.127,13.28,13.28,0,0,1-4.717,1.957,1,1,0,0,0-.8.98l-.032,2.527-3.74-.032v-2.5a1,1,0,0,0-.8-.98A13.283,13.283,0,0,1,54.6,58.976a1,1,0,0,0-1.26.127l-1.813,1.766L48.9,58.2l1.766-1.766a1,1,0,0,0,.127-1.259,13.31,13.31,0,0,1-1.957-4.718,1,1,0,0,0-.98-.8l-2.528-.033.033-3.739h2.495a1,1,0,0,0,.98-.8A13.315,13.315,0,0,1,50.8,40.365a1,1,0,0,0-.127-1.259L48.9,37.294l2.668-2.621,1.766,1.766a1,1,0,0,0,1.26.127,13.283,13.283,0,0,1,4.716-1.957,1,1,0,0,0,.8-.98l.032-2.528,3.74.033v2.495a1,1,0,0,0,.8.98A13.28,13.28,0,0,1,69.4,36.566a1,1,0,0,0,1.26-.127l1.813-1.766L75.1,37.34l-1.766,1.766a1,1,0,0,0-.127,1.259,13.315,13.315,0,0,1,1.957,4.719,1,1,0,0,0,.98.8l2.528.032v3.707l-2.528.033A1,1,0,0,0,75.162,50.458Z" fill="#3a2c60"/><path d="M116.391,96.017H104V81.44a1,1,0,0,0-1-1h-27.6a5.027,5.027,0,0,0-4.912-4H63V70.67h37.3a5.706,5.706,0,0,0,5.7-5.7V60.44a1,1,0,0,0-2,0v4.53a3.7,3.7,0,0,1-3.7,3.7H23.7a3.7,3.7,0,0,1-3.7-3.7V19.711a3.7,3.7,0,0,1,3.7-3.7H37.865a3.7,3.7,0,0,1,3.7,3.7v2.062a4.045,4.045,0,0,0,4.041,4.04h54.7a3.705,3.705,0,0,1,3.7,3.7V46.357a1,1,0,0,0,2,0V11.53a5.706,5.706,0,0,0-5.7-5.7H23.7a5.706,5.706,0,0,0-5.7,5.7V64.97a5.706,5.706,0,0,0,5.7,5.7H61v5.775H53.518a5.026,5.026,0,0,0-4.912,4H21a1,1,0,0,0-1,1V96.017H17.453a.366.366,0,0,1-.366-.367v-.925a3.116,3.116,0,0,0-3.111-3.113H7.611A3.115,3.115,0,0,0,4.5,94.725V115.06a3.114,3.114,0,0,0,3.109,3.11H34.738a3.114,3.114,0,0,0,3.11-3.11V99.126a3.112,3.112,0,0,0-3.11-3.109H22V82.44H48.6a5.023,5.023,0,0,0,4.919,4.04H61v9.537H58.279a.366.366,0,0,1-.366-.367v-.925A3.115,3.115,0,0,0,54.8,91.612H48.437a3.116,3.116,0,0,0-3.111,3.113V115.06a3.114,3.114,0,0,0,3.11,3.11H75.564a3.114,3.114,0,0,0,3.11-3.11V99.126a3.112,3.112,0,0,0-3.11-3.109H63V86.48h7.482A5.023,5.023,0,0,0,75.4,82.44H102V96.017H99.105a.366.366,0,0,1-.366-.367v-.925a3.115,3.115,0,0,0-3.111-3.113H89.264a3.116,3.116,0,0,0-3.112,3.113V115.06a3.114,3.114,0,0,0,3.11,3.11h27.129a3.114,3.114,0,0,0,3.109-3.11V99.126A3.112,3.112,0,0,0,116.391,96.017ZM23.7,7.83h76.6a3.7,3.7,0,0,1,3.7,3.7V25.186a5.675,5.675,0,0,0-3.7-1.373H45.605a2.043,2.043,0,0,1-2.041-2.04V19.711a5.7,5.7,0,0,0-5.7-5.7H23.7A5.674,5.674,0,0,0,20,15.384V11.53A3.7,3.7,0,0,1,23.7,7.83Zm12.148,91.3V115.06a1.111,1.111,0,0,1-1.11,1.11H7.609A1.111,1.111,0,0,1,6.5,115.06V94.725a1.113,1.113,0,0,1,1.111-1.113h6.365a1.113,1.113,0,0,1,1.111,1.113v.925a2.369,2.369,0,0,0,2.366,2.367H34.738A1.111,1.111,0,0,1,35.848,99.126Zm40.826,0V115.06a1.111,1.111,0,0,1-1.11,1.11H48.436a1.111,1.111,0,0,1-1.11-1.11V94.725a1.113,1.113,0,0,1,1.111-1.113H54.8a1.113,1.113,0,0,1,1.111,1.113v.925a2.37,2.37,0,0,0,2.366,2.367H75.564A1.111,1.111,0,0,1,76.674,99.126ZM70.482,84.48H53.518a3.018,3.018,0,1,1,0-6.035H70.482a3.018,3.018,0,1,1,0,6.035ZM117.5,115.06a1.111,1.111,0,0,1-1.109,1.11H89.262a1.111,1.111,0,0,1-1.11-1.11V94.725a1.114,1.114,0,0,1,1.112-1.113h6.364a1.113,1.113,0,0,1,1.111,1.113v.925a2.37,2.37,0,0,0,2.366,2.367h17.286a1.111,1.111,0,0,1,1.109,1.109Z" fill="#3a2c60"/></svg>
