<svg height="512" viewBox="0 0 128 128" width="512" xmlns="http://www.w3.org/2000/svg"><rect fill="#e6e7e8" height="112" rx="8.036" width="63.275" x="34.362" y="10"/><rect fill="#6dc9f7" height="110" rx="7.035" width="61.275" x="31.362" y="7"/><path d="m31.362 17.429h61.275v84.657h-61.275z" fill="#d4fbff"/><g fill="#fa759e"><path d="m51.305 35.167h21.39v12.833h-21.39z"/><path d="m37.138 68.542h13.155v12.833h-13.155z"/><path d="m55.422 68.542h13.155v12.833h-13.155z"/><path d="m73.707 68.542h13.155v12.833h-13.155z"/></g><path d="m31.362 99.086h61.275v3h-61.275z" fill="#fff"/><path d="m73.707 67.541a1 1 0 0 0 -1 1v12.834a1 1 0 0 0 1 1h13.155a1 1 0 0 0 1-1v-12.834a1 1 0 0 0 -1-1h-5.578v-8.833a1 1 0 0 0 -1-1h-17.284v-8.708h9.695a1 1 0 0 0 1-1v-12.834a1 1 0 0 0 -1-1h-21.39a1 1 0 0 0 -1 1v12.834a1 1 0 0 0 1 1h9.695v8.708h-17.285a1 1 0 0 0 -1 1v8.833h-5.577a1 1 0 0 0 -1 1v12.834a1 1 0 0 0 1 1h13.155a1 1 0 0 0 1-1v-12.834a1 1 0 0 0 -1-1h-5.578v-7.833h16.285v7.833h-5.578a1 1 0 0 0 -1 1v12.834a1 1 0 0 0 1 1h13.156a1 1 0 0 0 1-1v-12.834a1 1 0 0 0 -1-1h-5.578v-7.833h16.284v7.833zm-21.4-31.375h19.39v10.834h-19.392zm-3.014 44.209h-11.155v-10.834h11.155zm18.285 0h-11.156v-10.834h11.156zm18.284 0h-11.155v-10.834h11.155z" fill="#3a2c60"/><path d="m92.637 31.4a1 1 0 0 0 -1 1v8.08a1 1 0 0 0 2 0v-8.08a1 1 0 0 0 -1-1z" fill="#3a2c60"/><path d="m85.6 6h-47.2a8.045 8.045 0 0 0 -8.036 8.036v95.928a8.045 8.045 0 0 0 8.036 8.036h47.2a8.044 8.044 0 0 0 8.035-8.036v-64.646a1 1 0 1 0 -2 0v55.768h-59.273v-82.657h59.275v9.139a1 1 0 0 0 2 0v-13.532a8.044 8.044 0 0 0 -8.037-8.036zm6.035 97.086v6.878a6.042 6.042 0 0 1 -6.035 6.036h-47.2a6.043 6.043 0 0 1 -6.036-6.036v-6.878zm-59.273-86.657v-2.393a6.043 6.043 0 0 1 6.038-6.036h47.2a6.042 6.042 0 0 1 6.035 6.036v2.393z" fill="#3a2c60"/><rect fill="#0089ef" height="2.269" rx="1.026" width="19.128" x="52.436" y="11.186"/><path d="m76.1 11.075a1.246 1.246 0 1 0 1.245 1.246 1.245 1.245 0 0 0 -1.245-1.246z" fill="#0089ef"/><rect fill="#0089ef" height="5.511" rx="2.492" width="16.534" x="53.733" y="106.153"/></svg>