<svg xmlns="http://www.w3.org/2000/svg" viewBox="0 0 128 128" width="512" height="512"><path d="M118.33 60H102v-4.34a3.05 3.05 0 00-3.04-3.04h-4.14a29.26 29.26 0 00-3.7-8.91l2.93-2.93a3.05 3.05 0 000-4.3l-5.2-5.2a3.05 3.05 0 00-4.3 0l-2.93 2.93a29.35 29.35 0 00-8.9-3.7v-4.13a3.05 3.05 0 00-3.05-3.05h-7.34a3.05 3.05 0 00-3.05 3.05v4.14a29.36 29.36 0 00-8.9 3.7l-2.93-2.93a3.05 3.05 0 00-4.3 0l-5.2 5.19a3.05 3.05 0 000 4.3l2.93 2.94a29.29 29.29 0 00-3.7 8.9h-4.13A3.05 3.05 0 0030 55.66V60H13.67a5 5 0 00-5 5v38.67a5 5 0 005 5h38.66a5 5 0 005-5V92.5h8.12v6.78a1 1 0 001.63.77l7.59-6.28v9.9a5 5 0 005 5h38.66a5 5 0 005-5V65a5 5 0 00-5-5zm-68.06-.67a15.73 15.73 0 0131.46 0l-.03.67h-2.03a5 5 0 00-5 5v10.33l-7.56-6.69a1 1 0 00-1.66.75v6.44h-8.12V65a5 5 0 00-5-5H50.3l-.03-.67z" fill="#e6e7e8"/><rect x="5.67" y="57" width="46.67" height="46.67" rx="4" ry="4" fill="#6dc9f7"/><path d="M48.33 57H9.67a4 4 0 00-4 4v3a4 4 0 014-4h38.66a4 4 0 014 4v-3a4 4 0 00-4-4z" fill="#fff"/><rect x="71.67" y="57" width="46.67" height="46.67" rx="4" ry="4" fill="#6dc9f7"/><path fill="#0089ef" d="M79.89 80.83L62.45 65.4v7.44H46.1V87.5h16.34v7.78l17.44-14.45z"/><path d="M26.53 71.7a1.7 1.7 0 011.09.38 1.19 1.19 0 01.48.96 1.56 1.56 0 01-.14.6l-6.68 14.37a1.57 1.57 0 01-.67.71 1.92 1.92 0 01-1.9 0 1.57 1.57 0 01-.66-.7L11.4 73.63a1.5 1.5 0 01-.14-.57 1.2 1.2 0 01.49-1 1.78 1.78 0 011.12-.38 1.47 1.47 0 01.76.2 1.37 1.37 0 01.54.62l5.54 12.32 5.54-12.32a1.32 1.32 0 011.28-.82zM41.8 87.55q0 1.28-1.45 1.28H32.2q-1.47 0-1.47-1.28 0-1.23 1.47-1.23h2.5V75.33l-2.31 1.42a1.24 1.24 0 01-.6.2 1.06 1.06 0 01-.86-.44 1.5 1.5 0 01-.35-.96 1.2 1.2 0 01.63-1.09l3.74-2.31a2.68 2.68 0 011.37-.43 1.47 1.47 0 011.09.4 1.53 1.53 0 01.4 1.14v13.06h2.54q1.44 0 1.44 1.23zM97.56 71.73a1.7 1.7 0 011.09.38 1.19 1.19 0 01.48.97 1.57 1.57 0 01-.14.6L92.3 88.05a1.58 1.58 0 01-.67.7 1.92 1.92 0 01-1.9 0 1.58 1.58 0 01-.66-.7l-6.66-14.37a1.53 1.53 0 01-.14-.58 1.2 1.2 0 01.5-.99 1.77 1.77 0 011.12-.38 1.47 1.47 0 01.76.2 1.36 1.36 0 01.54.62l5.55 12.32 5.54-12.32a1.32 1.32 0 011.27-.82zM112.75 87.59q0 1.28-1.45 1.28h-9.16a1.3 1.3 0 01-.98-.38 1.28 1.28 0 01-.37-.92 1.83 1.83 0 01.56-1.3l5.5-5.9a9.53 9.53 0 001.48-2.05 4.06 4.06 0 00.47-1.84 2.25 2.25 0 00-.65-1.74 2.64 2.64 0 00-1.86-.6 5.09 5.09 0 00-1.91.38 9.57 9.57 0 00-1.87 1.02 2.98 2.98 0 01-.48.28 1.17 1.17 0 01-.48.1.88.88 0 01-.72-.38 1.43 1.43 0 01-.3-.91 1.38 1.38 0 01.14-.63 1.6 1.6 0 01.42-.5 8.38 8.38 0 012.48-1.34 8.6 8.6 0 012.85-.5 5.94 5.94 0 013.96 1.26 4.2 4.2 0 011.48 3.37 6.24 6.24 0 01-.62 2.76 12.23 12.23 0 01-2.12 2.88l-4.17 4.44h6.35q1.45-.01 1.45 1.22z" fill="#fff"/><path d="M45.35 57c-.05-.55-.08-1.1-.08-1.67a16.73 16.73 0 0133.46 0c0 .57-.03 1.12-.08 1.67H97v-5.34a2.04 2.04 0 00-2.04-2.04H90a28.41 28.41 0 00-4.16-10.05l3.5-3.5a2.04 2.04 0 000-2.89l-5.2-5.2a2.04 2.04 0 00-2.89 0l-3.5 3.5a28.43 28.43 0 00-10.04-4.16v-4.94a2.05 2.05 0 00-2.05-2.05h-7.34a2.05 2.05 0 00-2.05 2.05v4.94a28.42 28.42 0 00-10.04 4.17l-3.5-3.5a2.04 2.04 0 00-2.9 0l-5.19 5.2a2.04 2.04 0 000 2.88l3.5 3.5A28.41 28.41 0 0034 49.62h-4.95A2.04 2.04 0 0027 51.66V57z" fill="#fa759e"/><path d="M100.67 102.67H90a1 1 0 000 2h10.67a1 1 0 000-2z" fill="#3a2c60"/><path d="M114.33 56H98v-4.34a3.05 3.05 0 00-3.04-3.04h-4.14a29.26 29.26 0 00-3.7-8.91l2.93-2.93a3.05 3.05 0 000-4.3l-5.2-5.2a3.05 3.05 0 00-4.3 0l-2.93 2.93a29.35 29.35 0 00-8.9-3.7v-4.13a3.05 3.05 0 00-3.05-3.05h-7.34a3.05 3.05 0 00-3.05 3.05v4.14a29.36 29.36 0 00-8.9 3.7l-2.93-2.93a3.05 3.05 0 00-4.3 0l-5.2 5.19a3.05 3.05 0 000 4.3l2.93 2.94a29.29 29.29 0 00-3.7 8.9h-4.13A3.05 3.05 0 0026 51.66V56H9.67a5 5 0 00-5 5v38.67a5 5 0 005 5h38.66a5 5 0 005-5V88.5h8.12v6.78a1 1 0 001.63.77l7.59-6.28v9.9a5 5 0 005 5h9.5a1 1 0 000-2h-9.5a3 3 0 01-3-3V88.1l7.86-6.51a1 1 0 00.02-1.52l-7.88-6.98V61a3 3 0 013-3h38.66a3 3 0 013 3v38.67a3 3 0 01-3 3h-8.83a1 1 0 000 2h8.83a5 5 0 005-5V61a5 5 0 00-5-5zM28 51.66a1.05 1.05 0 011.04-1.04H34a1 1 0 00.98-.8 27.33 27.33 0 014.02-9.7 1 1 0 00-.13-1.25l-3.5-3.5a1.05 1.05 0 010-1.48l5.2-5.19a1.04 1.04 0 011.47 0l3.5 3.5a1 1 0 001.26.13 27.34 27.34 0 019.7-4.03 1 1 0 00.8-.98v-4.94a1.05 1.05 0 011.04-1.05h7.34a1.05 1.05 0 011.05 1.05v4.94a1 1 0 00.8.98 27.3 27.3 0 019.69 4.02 1 1 0 001.26-.12l3.5-3.5a1.04 1.04 0 011.47 0l5.2 5.19a1.05 1.05 0 010 1.48l-3.5 3.5a1 1 0 00-.13 1.25 27.35 27.35 0 014.02 9.7 1 1 0 00.98.8h4.94A1.05 1.05 0 0196 51.66V56H79.72l.01-.67a17.73 17.73 0 00-35.46 0l.01.67H28zm23.33 48a3 3 0 01-3 3H9.67a3 3 0 01-3-3V61a3 3 0 013-3h38.66a3 3 0 013 3v10.83h-5.22a1 1 0 00-1 1V87.5a1 1 0 001 1h5.22zm12.12-6.51V87.5a1 1 0 00-1-1H47.1V73.83h15.34a1 1 0 001-1v-5.22l14.9 13.2zM70.67 61v10.33l-7.56-6.69a1 1 0 00-1.66.75v6.44h-8.12V61a5 5 0 00-5-5H46.3l-.03-.67a15.73 15.73 0 0131.46 0l-.03.67h-2.03a5 5 0 00-5 5z" fill="#3a2c60"/></svg>