<svg height="512" viewBox="0 0 128 128" width="512" xmlns="http://www.w3.org/2000/svg"><rect fill="#e6e7e8" height="98" rx="5" width="112" x="10" y="17"/><rect fill="#d4fbff" height="96" rx="4" width="110" x="7" y="14"/><path d="m113 107h-102a4 4 0 0 1 -4-4v3a4 4 0 0 0 4 4h102a4 4 0 0 0 4-4v-3a4 4 0 0 1 -4 4z" fill="#fff"/><path d="m117 28.5v-10.5a4 4 0 0 0 -4-4h-102a4 4 0 0 0 -4 4v10.5z" fill="#0089ef"/><path d="m95.667 19.083a2.334 2.334 0 1 0 2.333 2.333 2.334 2.334 0 0 0 -2.333-2.333z" fill="#fff"/><path d="m102.667 19.083a2.334 2.334 0 1 0 2.333 2.333 2.333 2.333 0 0 0 -2.333-2.333z" fill="#d4fbff"/><path d="m109.667 19.083a2.334 2.334 0 1 0 2.333 2.333 2.333 2.333 0 0 0 -2.333-2.333z" fill="#fa759e"/><path d="m94.263 65.344c-5.923-4.491-18.146-12.199-32.263-12.199s-26.34 7.708-32.263 12.2a3.941 3.941 0 0 0 0 6.3c5.923 4.49 18.146 12.2 32.263 12.2s26.34-7.708 32.263-12.2a3.941 3.941 0 0 0 0-6.301z" fill="#fff"/><circle cx="62" cy="68.492" fill="#0089ef" r="13.211"/><g fill="#3a2c60"><path d="m71.5 29.5h8.75a1 1 0 0 0 0-2h-8.75a1 1 0 0 0 0 2z"/><path d="m113 13h-102a5.006 5.006 0 0 0 -5 5v88a5.006 5.006 0 0 0 5 5h102a5.006 5.006 0 0 0 5-5v-88a5.006 5.006 0 0 0 -5-5zm0 96h-102a3 3 0 0 1 -3-3v-76.5h58.667a1 1 0 0 0 0-2h-58.667v-9.5a3 3 0 0 1 3-3h102a3 3 0 0 1 3 3v9.5h-30.732a1 1 0 0 0 0 2h30.732v76.5a3 3 0 0 1 -3 3z"/><path d="m94.868 64.548c-6.109-4.632-18.5-12.4-32.868-12.4s-26.759 7.771-32.867 12.4a4.939 4.939 0 0 0 0 7.889c6.109 4.632 18.5 12.4 32.867 12.4s26.758-7.77 32.868-12.4a4.942 4.942 0 0 0 0-7.889zm-1.209 6.3c-5.91 4.479-17.882 12-31.659 12s-25.75-7.516-31.659-12a2.94 2.94 0 0 1 0-4.7c5.908-4.481 17.878-12 31.659-12s25.75 7.516 31.659 12a2.941 2.941 0 0 1 0 4.7z"/><path d="m62 62.723a5.77 5.77 0 1 0 5.77 5.769 5.769 5.769 0 0 0 -5.77-5.769z"/><path d="m16.333 50.333a1 1 0 0 0 1-1v-9.333h9.333a1 1 0 0 0 0-2h-10.333a1 1 0 0 0 -1 1v10.333a1 1 0 0 0 1 1z"/><path d="m107.667 38h-10.333a1 1 0 0 0 0 2h9.333v9.333a1 1 0 0 0 2 0v-10.333a1 1 0 0 0 -1-1z"/><path d="m26.666 98.334h-9.333v-9.334a1 1 0 0 0 -2 0v10.334a1 1 0 0 0 1 1h10.333a1 1 0 0 0 0-2z"/><path d="m107.667 88a1 1 0 0 0 -1 1v9.334h-9.333a1 1 0 0 0 0 2h10.333a1 1 0 0 0 1-1v-10.334a1 1 0 0 0 -1-1z"/></g></svg>