<svg height="512" viewBox="0 0 128 128" width="512" xmlns="http://www.w3.org/2000/svg"><path d="m115.589 13.016h-55.348a9.01 9.01 0 0 0 -9 9v32.884a8.982 8.982 0 0 0 3.666 7.232l-20.484 9.117h-13.07a13.942 13.942 0 0 0 0 27.884h1.039v15.3a4.557 4.557 0 0 0 9.113 0v-15.3h2.918l22.233 9.9v.657a5.177 5.177 0 1 0 10.354 0v-16.474a8.122 8.122 0 0 0 0-16.238v-13.078h12.509v12.451a1 1 0 0 0 1.662.749l14.948-13.2h19.46a9.01 9.01 0 0 0 9-9v-32.884a9.01 9.01 0 0 0 -9-9z" fill="#e6e7e8"/><path d="m111.589 10.016h-55.348a8 8 0 0 0 -8 8v32.884a8 8 0 0 0 4.851 7.354l.564-.25v-1.31a4.177 4.177 0 1 1 8.354 0v2.206h14.51v13.45l15.229-13.45h19.84a8 8 0 0 0 8-8v-32.884a8 8 0 0 0 -8-8z" fill="#ffd7e5"/><path d="m111.589 10.016h-3a8 8 0 0 1 8 8v32.884a8 8 0 0 1 -8 8h3a8 8 0 0 0 8-8v-32.884a8 8 0 0 0 -8-8z" fill="#fff"/><path d="m69.914 81.093a7.131 7.131 0 0 1 -7.127 7.134 6.9 6.9 0 0 1 -.777-.043v-14.174a6.9 6.9 0 0 1 .777-.043 7.124 7.124 0 0 1 7.127 7.126z" fill="#fa759e"/><path d="m30.634 68.249h-13.28a12.942 12.942 0 0 0 -12.942 12.942 12.942 12.942 0 0 0 12.942 12.942h13.28z" fill="#6dc9f7"/><path d="m53.656 57.998-23.021 10.251v25.884l23.021 10.251z" fill="#6dc9f7"/><path d="m62.01 105.691a4.177 4.177 0 1 1 -8.354 0v-49a4.177 4.177 0 1 1 8.354 0z" fill="#fa759e"/><path d="m19.393 94.133v16.3a3.556 3.556 0 0 0 7.112 0v-16.3z" fill="#0089ef"/><path d="m111.589 9.016h-25.989a1 1 0 0 0 0 2h25.986a7.008 7.008 0 0 1 7 7v32.884a7.008 7.008 0 0 1 -7 7h-19.837a1 1 0 0 0 -.662.251l-13.567 11.982v-11.233a1 1 0 0 0 -1-1h-13.51v-1.212a5.177 5.177 0 0 0 -10.354 0v.2a6.992 6.992 0 0 1 -3.415-6v-32.872a7.008 7.008 0 0 1 7-7h10.049a1 1 0 0 0 0-2h-10.049a9.01 9.01 0 0 0 -9 9v32.884a8.989 8.989 0 0 0 3.659 7.231l-20.477 9.118h-13.069a13.942 13.942 0 1 0 0 27.884h1.039v15.3a4.556 4.556 0 0 0 9.111 0v-15.3h2.919l22.233 9.9v.657a5.177 5.177 0 1 0 10.354 0v-16.474a8.122 8.122 0 0 0 0-16.238v-13.078h12.51v12.451a1 1 0 0 0 1.662.749l14.946-13.2h19.461a9.01 9.01 0 0 0 9-9v-32.884a9.01 9.01 0 0 0 -9-9zm-106.178 72.175a11.956 11.956 0 0 1 11.943-11.942h12.281v23.884h-12.281a11.956 11.956 0 0 1 -11.943-11.942zm20.089 29.238a2.556 2.556 0 0 1 -5.111 0v-15.3h5.111zm6.131-16.946v-24.583l21.021-9.36v43.306zm29.379 12.207a3.177 3.177 0 1 1 -6.354 0v-49a3.177 3.177 0 1 1 6.354 0zm7.9-24.6a6.139 6.139 0 0 1 -5.9 6.13v-12.249a6.134 6.134 0 0 1 5.904 6.123z" fill="#3a2c60"/><path d="m71.04 11.016h9.75a1 1 0 0 0 0-2h-9.75a1 1 0 0 0 0 2z" fill="#3a2c60"/><g fill="#fa759e"><circle cx="65.673" cy="35.195" r="5.321" transform="matrix(.383 -.924 .924 .383 8.025 82.4)"/><circle cx="83.915" cy="35.195" r="5.321"/><circle cx="102.157" cy="35.195" r="5.321"/></g></svg>