<svg height="512" viewBox="0 0 128 128" width="512" xmlns="http://www.w3.org/2000/svg"><rect fill="#e6e7e8" height="98" rx="5" width="112" x="10" y="17"/><rect fill="#d4fbff" height="96" rx="4" width="110" x="7" y="14"/><path d="m113 107h-102a4 4 0 0 1 -4-4v3a4 4 0 0 0 4 4h102a4 4 0 0 0 4-4v-3a4 4 0 0 1 -4 4z" fill="#fff"/><path d="m117 28.5v-10.5a4 4 0 0 0 -4-4h-102a4 4 0 0 0 -4 4v10.5z" fill="#0089ef"/><path d="m95.667 19.083a2.334 2.334 0 1 0 2.333 2.333 2.334 2.334 0 0 0 -2.333-2.333z" fill="#fff"/><path d="m102.667 19.083a2.334 2.334 0 1 0 2.333 2.333 2.333 2.333 0 0 0 -2.333-2.333z" fill="#d4fbff"/><path d="m109.667 19.083a2.334 2.334 0 1 0 2.333 2.333 2.333 2.333 0 0 0 -2.333-2.333z" fill="#fa759e"/><path d="m20.5 66.75h23v23h-23z" fill="#fa759e"/><path d="m50.5 66.75h23v23h-23z" fill="#fa759e"/><path d="m80.5 66.75h23v23h-23z" fill="#fa759e"/><path d="m20.5 36.75h83v22.75h-83z" fill="#ffd7e5"/><g fill="#3a2c60"><path d="m21.5 29.5h8.75a1 1 0 0 0 0-2h-8.75a1 1 0 0 0 0 2z"/><path d="m113 13h-102a5.006 5.006 0 0 0 -5 5v88a5.006 5.006 0 0 0 5 5h102a5.006 5.006 0 0 0 5-5v-88a5.006 5.006 0 0 0 -5-5zm0 96h-102a3 3 0 0 1 -3-3v-76.5h8.667a1 1 0 0 0 0-2h-8.667v-9.5a3 3 0 0 1 3-3h102a3 3 0 0 1 3 3v9.5h-80.733a1 1 0 0 0 0 2h80.733v76.5a3 3 0 0 1 -3 3z"/><path d="m43.5 65.75h-23a1 1 0 0 0 -1 1v23a1 1 0 0 0 1 1h23a1 1 0 0 0 1-1v-23a1 1 0 0 0 -1-1zm-22 3.414 9.086 9.086-9.086 9.086zm1.414-1.414h18.172l-9.086 9.086zm9.086 11.914 9.086 9.086h-18.172zm1.414-1.414 9.086-9.086v18.172z"/><path d="m43.5 95.167h-23a1 1 0 0 0 0 2h23a1 1 0 0 0 0-2z"/><path d="m43.5 101.167h-23a1 1 0 0 0 0 2h23a1 1 0 0 0 0-2z"/><path d="m73.5 65.75h-23a1 1 0 0 0 -1 1v23a1 1 0 0 0 1 1h23a1 1 0 0 0 1-1v-23a1 1 0 0 0 -1-1zm-22 3.414 9.086 9.086-9.086 9.086zm1.414-1.414h18.172l-9.086 9.086zm9.086 11.914 9.086 9.086h-18.172zm1.414-1.414 9.086-9.086v18.172z"/><path d="m73.5 95.167h-23a1 1 0 0 0 0 2h23a1 1 0 0 0 0-2z"/><path d="m73.5 101.167h-23a1 1 0 0 0 0 2h23a1 1 0 0 0 0-2z"/><path d="m103.5 65.75h-23a1 1 0 0 0 -1 1v23a1 1 0 0 0 1 1h23a1 1 0 0 0 1-1v-23a1 1 0 0 0 -1-1zm-22 3.414 9.086 9.086-9.086 9.086zm1.414-1.414h18.172l-9.086 9.086zm9.086 11.914 9.086 9.086h-18.172zm1.414-1.414 9.086-9.086v18.172z"/><path d="m103.5 95.167h-23a1 1 0 0 0 0 2h23a1 1 0 0 0 0-2z"/><path d="m103.5 101.167h-23a1 1 0 0 0 0 2h23a1 1 0 0 0 0-2z"/><path d="m103.5 35.75h-83a1 1 0 0 0 -1 1v22.75a1 1 0 0 0 1 1h83a1 1 0 0 0 1-1v-22.75a1 1 0 0 0 -1-1zm-82 2.311 36.715 10.064-36.715 10.063zm6.433-.311h68.134l-34.067 9.338zm34.067 11.412 34.067 9.338h-68.134zm3.785-1.037 36.715-10.064v20.127z"/></g></svg>