<svg height="512" viewBox="0 0 511.14 511.14" width="512" xmlns="http://www.w3.org/2000/svg"><path d="M203.35 72.86l-41.18-39.23a26.35 26.35 0 10-37.26 37.26l39.68 37.75 5 4.01 38-34.95z" fill="#fed2a4"/><path d="M206.91 76.92l-3.56-4.06-11.87-11.3c-2.8 1.75-5.54 3.61-8.2 5.57a22.09 22.09 0 01-28.35-1.67l-12.6-11.98a26.26 26.26 0 01-6.55-26.4 26.22 26.22 0 00-10.87 6.55c-5.15 5.15-7.72 11.9-7.72 18.63s2.57 13.48 7.72 18.63l39.68 37.75 5 4.01 38-34.95z" fill="#ffbd86"/><path d="M247 27.85h31.27v54.42H247z" fill="#9c9c9c"/><path d="M152.54 238.23V316.93a55.91 55.91 0 0038.64 53.18l-.26.8v130.13a2.6 2.6 0 002.6 2.6h147.4a2.6 2.6 0 002.59-2.6V238.24z" fill="#fed2a4"/><path d="M226.97 501.04l.2-104.17c.03-13.95-6.16-27.31-17.15-35.93a55.8 55.8 0 01-21.44-44v-78.71h-36.04V316.93a55.9 55.9 0 0038.38 53.1v131.01a2.6 2.6 0 002.6 2.6h36.04a2.6 2.6 0 01-2.6-2.6zM343.51 324.67v-86.44H267.9a94.77 94.77 0 00-1.83 18.42v53.42a14.6 14.6 0 0014.6 14.6z" fill="#ffbd86"/><circle cx="262.64" cy="175.3" fill="#6bd9e7" r="118.99"/><path d="M381.63 175.3c0-41.07-20.8-77.29-52.46-98.67a54.74 54.74 0 00-5.02 23.03v69.21a95.98 95.98 0 00-38.09 29.35 95.88 95.88 0 00-19.99 58.43v37.59c64.13-1.82 115.56-54.37 115.56-118.94z" fill="#01d0fb"/><circle cx="262.64" cy="175.3" fill="#fee903" r="90.36"/><path d="M353 175.3a90.11 90.11 0 00-28.85-66.2v59.77a95.98 95.98 0 00-38.09 29.35 95.88 95.88 0 00-19.99 58.43v8.94A90.36 90.36 0 00353 175.3z" fill="#fed402"/><path d="M284.07 191.61H232.5a3.48 3.48 0 00-3.48 3.48v28.5a3.48 3.48 0 003.48 3.48H295.89a3.48 3.48 0 003.47-3.48v-28.5a3.48 3.48 0 00-3.47-3.48z" fill="#00f2a6"/><path d="M295.89 227.07a3.48 3.48 0 003.47-3.48v-28.5a3.48 3.48 0 00-3.47-3.48h-4.2a94.03 94.03 0 00-20.87 35.46h25.07z" fill="#05e39c"/><g fill="#fed2a4"><path d="M203.25 180.67v1.3a23.78 23.78 0 01-23.78 23.78h-35.53a23.78 23.78 0 01-23.78-23.78v-1.3a23.78 23.78 0 0123.78-23.78h35.53a23.78 23.78 0 0123.78 23.78zM203.25 229.53v1.3a23.78 23.78 0 01-23.78 23.78h-35.53a23.78 23.78 0 01-23.78-23.78v-1.3a23.78 23.78 0 0123.78-23.78h35.53a23.78 23.78 0 0123.78 23.78z"/><path d="M203.24 278.06l.01.33v1.3a23.78 23.78 0 01-23.78 23.78h-35.53a23.78 23.78 0 01-23.78-23.78v-1.3a23.78 23.78 0 0123.78-23.78h35.53a23.77 23.77 0 0123.77 23.45z"/></g><path d="M179.47 184.91h-35.53a23.78 23.78 0 01-21.68-14.01 23.69 23.69 0 00-2.1 9.77v1.3a23.78 23.78 0 0023.78 23.78h35.53a23.78 23.78 0 0023.78-23.78v-1.3c0-3.48-.76-6.79-2.1-9.77a23.78 23.78 0 01-21.68 14.01zM179.47 233.77h-35.53a23.78 23.78 0 01-21.68-14 23.67 23.67 0 00-2.1 9.76v1.3a23.78 23.78 0 0023.78 23.78h35.53a23.78 23.78 0 0023.78-23.78v-1.3c0-3.48-.76-6.79-2.1-9.77a23.78 23.78 0 01-21.68 14.01zM201.15 268.63a23.78 23.78 0 01-21.68 14h-35.53a23.78 23.78 0 01-21.68-14 23.68 23.68 0 00-2.1 9.76v1.3a23.78 23.78 0 0023.78 23.78h35.53a23.78 23.78 0 0023.78-23.78v-1.3l-.01-.33c-.04-3.36-.8-6.55-2.1-9.43z" fill="#ffbd86"/><path d="M343.51 89.65a37.3 37.3 0 0135.92-27.28h1.21c7.35 0 13.31 5.96 13.31 13.32v220.18a76.98 76.98 0 01-76.97 76.97h-32.91V256.65a77.28 77.28 0 0116.22-47.4 77.34 77.34 0 0141.86-27.55V99.66c0-3.47.47-6.83 1.36-10z" fill="#fed2a4"/><path d="M350.73 173.58a17.85 17.85 0 0010.97-16.39V87.81a37.1 37.1 0 019.11-24.43 37.34 37.34 0 00-28.66 36.28v78.22a77.8 77.8 0 018.58-4.3z" fill="#ffbd86"/><path d="M280.05 33.26h-34.82a6.89 6.89 0 01-6.88-6.88v-12c0-3.8 3.08-6.88 6.88-6.88h34.82c3.8 0 6.88 3.09 6.88 6.89v11.99c0 3.8-3.08 6.88-6.88 6.88z" fill="#838383"/><path d="M218.93 156.89v-20.8a9.56 9.56 0 019.56-9.57h67.78a9.56 9.56 0 019.56 9.56v20.81a9.56 9.56 0 01-9.56 9.56h-67.78a9.56 9.56 0 01-9.56-9.56z" fill="#00f2a6"/><path d="M394.25 293.43a7.5 7.5 0 00-7.97 7c-2.35 36.4-32.8 64.92-69.3 64.92a7.5 7.5 0 100 15c6.53 0 12.9-.77 19.03-2.2v125.5a7.5 7.5 0 1015 0V373.13c27.96-12.38 48.16-39.51 50.24-71.74a7.5 7.5 0 00-7-7.97zM380.64 54.88h-1.2a44.8 44.8 0 00-38.76 22.38 124.95 124.95 0 00-54.91-25.31V39.57a14.4 14.4 0 008.66-13.2V14.4A14.4 14.4 0 00280.04 0h-34.8a14.4 14.4 0 00-14.4 14.39v11.99a14.4 14.4 0 008.67 13.19v12.22a125.85 125.85 0 00-34.93 11.9l-37.17-35.43a33.62 33.62 0 00-23.87-9.85 33.64 33.64 0 00-23.93 9.92c-6.4 6.4-9.92 14.9-9.92 23.93a33.65 33.65 0 0010.05 24.07l35.18 33.46a125.4 125.4 0 00-15.9 39.99 31.33 31.33 0 00-26.36 30.89v1.3c0 9.51 4.27 18.04 11 23.78a31.22 31.22 0 00-11 23.78v1.3c0 9.51 4.27 18.04 11 23.78a31.22 31.22 0 00-11 23.78v1.3a31.32 31.32 0 0031.28 31.28h1.1v5.96a63.5 63.5 0 0038.38 58.25v34.58a7.5 7.5 0 1015 0v-30.22c3.27.52 6.62.8 10.04.8h13.38a7.5 7.5 0 100-15h-13.38a48.47 48.47 0 01-48.42-48.41v-5.96h19.43c13.8 0 25.54-8.99 29.68-21.42a125.8 125.8 0 0067.43 10.9v7.39a7.5 7.5 0 1015 0v-51.19a69.88 69.88 0 0152.44-67.68 7.5 7.5 0 005.63-7.27v-49.75-32.29a29.82 29.82 0 0129.78-29.78h1.2c3.21 0 5.82 2.6 5.82 5.8v195.24a7.5 7.5 0 1015 0V75.69a20.84 20.84 0 00-20.81-20.81zM245.84 15h33.6v10.76h-33.6zm8.67 34.73v-8.97h16.26v8.97zm-124.36 15.8a18.73 18.73 0 01-5.46-13.27c0-5.03 1.96-9.77 5.52-13.32 3.56-3.57 8.3-5.53 13.33-5.53A18.73 18.73 0 01157 39.06l34.2 32.6a125.42 125.42 0 00-27.58 25.7zm-2.49 116.44v-1.3a16.3 16.3 0 0116.28-16.28h35.53a16.3 16.3 0 0116.28 16.28v1.3a16.3 16.3 0 01-16.28 16.28h-35.53a16.3 16.3 0 01-16.28-16.28zm0 48.86v-1.3a16.3 16.3 0 0116.28-16.28h35.53a16.3 16.3 0 0116.28 16.28v1.3c0 2.3-.49 4.5-1.36 6.48a7.45 7.45 0 00-1.44 2.63 16.27 16.27 0 01-13.48 7.17h-35.53a16.3 16.3 0 01-16.28-16.28zm51.8 65.14h-35.52a16.3 16.3 0 01-16.28-16.28v-1.3a16.3 16.3 0 0116.28-16.28h35.53a16.29 16.29 0 0116.28 16.53v1.05a16.3 16.3 0 01-16.28 16.28zm82.7-9.69a110.7 110.7 0 01-51.81-12.87 31.27 31.27 0 00-10.6-18.8c.57-.48 1.12-.99 1.66-1.5a98.15 98.15 0 0075.17 19.9v12.33c-4.79.62-9.61.94-14.43.94zm14.42-29.63v1.18a83.21 83.21 0 01-67.27-17.62 31.18 31.18 0 001.44-9.38v-1.3c0-9.51-4.27-18.04-11-23.78a31.22 31.22 0 0011-23.78v-1.3a31.32 31.32 0 00-28.05-31.11 83.94 83.94 0 0113.82-25.78 7.5 7.5 0 00-11.78-9.3 98.94 98.94 0 00-17.65 34.91H154.5a110.74 110.74 0 01107.65-84.66c27.1 0 52.88 9.76 73.12 27.56-.4 2.4-.62 4.86-.62 7.37v9.06A98.56 98.56 0 00208.9 92.56a7.5 7.5 0 008.11 12.62 83.6 83.6 0 01117.64 28.75v42.17a84.88 84.88 0 00-58.07 80.55zM190.92 432.26a7.5 7.5 0 00-7.5 7.5v63.88a7.5 7.5 0 1015 0v-63.88a7.5 7.5 0 00-7.5-7.5z"/><path d="M298.82 119.02h-69.97c-9.6 0-17.42 7.81-17.42 17.42v20.45a7.5 7.5 0 1015 0v-20.45a2.43 2.43 0 012.42-2.42h69.48v32.43a7.5 7.5 0 1015 0v-32.92c0-8-6.51-14.51-14.51-14.51zM284.07 184.11h-55.06a7.5 7.5 0 100 15h55.06a7.5 7.5 0 100-15zM260.93 219.57h-31.92a7.5 7.5 0 100 15h31.92a7.5 7.5 0 100-15z"/></svg>