<svg xmlns="http://www.w3.org/2000/svg" viewBox="0 0 496 496"><path d="M392 488h40a32 32 0 0032-32V216h-72v272z" fill="#ff8031"/><path d="M444 464a20 20 0 0020-20V216h-40v228a20 20 0 0020 20z" fill="#fea82f"/><path fill="#92e0c0" d="M128 8h304v368H128z"/><path d="M400 224h-24V72h-48v304h104V256a32 32 0 00-32-32z" fill="#48c397"/><path fill="#ececec" d="M48 72h304v256H48z"/><path d="M432 488H64a32 32 0 01-32-32V280h368v176a32 32 0 0032 32z" fill="#fcd770"/><path d="M352 272v-48H244.94l-9.36-18.74A23.88 23.88 0 00214.1 192H48v80h304z" fill="#b6c1ce"/><g fill="#fea82f"><path d="M384 248H240l-11.58-23.15a16 16 0 00-14.3-8.85H48a16 16 0 00-16 16v48h368v-16a16 16 0 00-16-16zM80 104h80v80H80z" /></g><path fill="#92e0c0" d="M64 344h96v96H64z"/><path d="M64 240h136v16H64z" fill="#3a2c60"/><path d="M440 208V0H120v64H40v145.47A23.97 23.97 0 0024 232v224c0 22.06 17.94 40 40 40h368c22.06 0 40-17.94 40-40V208h-32zM136 16h288v352h-16V264c0-13.23-10.77-24-24-24h-24v-32h48v-16h-48v-16h48v-16h-48v-16h48v-16h-48v-16h48V96h-48V80h48V64H136V16zm208 64v160h-99.06l-9.36-18.74A23.87 23.87 0 00214.1 208H56V80h288zM64 480c-13.23 0-24-10.77-24-24V288h304v-16H40v-40a8 8 0 018-8h166.11c3.05 0 5.8 1.7 7.15 4.42l13.8 27.58H384a8 8 0 018 8v8h-32v16h32v168c0 9 3 17.31 8.02 24H64zm392-24c0 13.23-10.77 24-24 24s-24-10.77-24-24v-72h32V224h16v232z" fill="#3a2c60" /><path d="M152 32h256v16H152zM168 96H72v96h96V96zm-16 80H88v-64h64v64zM184 96h144v16H184zM184 128h144v16H184zM184 160h144v16H184zM248 192h80v16h-80zM56 448h112V336H56v112zm16-96h80v80H72v-80zM216 432h160v16H216zM216 400h160v16H216zM216 368h160v16H216zM216 336h160v16H216zM184 336h16v16h-16zM184 368h16v16h-16zM184 400h16v16h-16zM184 432h16v16h-16z" fill="#3a2c60"/></svg>