<svg height="512" viewBox="0 0 51 60" width="512" xmlns="http://www.w3.org/2000/svg"><g fill-rule="nonzero" fill="none"><path d="M46 19c.04 2.03-.22 4.05-.79 6-2.08 6.79-8.1 8-15.21 8s-13.13-1.21-15.21-8a20.02 20.02 0 01-.79-6s5-4 16-4 16 4 16 4z" fill="#3f51b5"/><path d="M30 15c-.52 0-1 .02-1.5.03C38.45 15.38 43 19 43 19c.04 2.03-.22 4.05-.79 6-1.93 6.3-7.26 7.8-13.71 7.98L30 33c7.11 0 13.13-1.21 15.21-8 .57-1.95.83-3.97.79-6 0 0-5-4-16-4z" fill="#283593"/><path d="M22 45v-5l-2.82 4.53-5.29-3.02 1.77-3.54A8.99 8.99 0 0123.71 33H27s1 3 3 4a10.7 10.7 0 014 8z" fill="#3f51b5"/><path d="M30 37c-2-1-3-4-3-4h-3s1 3 3 4a10.7 10.7 0 014 8h3a10.7 10.7 0 00-4-8z" fill="#283593"/><path d="M19.18 44.53l-.5.81a3 3 0 01-4.53 1.03 3.08 3.08 0 01-.78-3.81l.52-1.05z" fill="#ffe0b2"/><path d="M46.11 41.51l-5.29 3.02L38 40v5h-4a10.7 10.7 0 00-4-8c2-1 3-4 3-4h3.29c3.4 0 6.53 1.92 8.05 4.97z" fill="#3f51b5"/><path d="M44.34 37.97A8.99 8.99 0 0036.29 33h-3c3.4 0 6.53 1.92 8.05 4.97l1.77 3.54-3.08 1.76.79 1.26 5.29-3.02z" fill="#283593"/><path d="M40 55c-8.58 0-8 .05-8-.1a9.78 9.78 0 00-1.36-5.42c-.43-.64-.87-.64-1.28 0A9.94 9.94 0 0028 55h-8c-.02-2.92.57-5.8 1.75-8.48.2-.48.29-1 .25-1.52h16c-.04.52.05 1.03.25 1.51A20.71 20.71 0 0140 55z" fill="#3f51b5"/><g fill="#283593"><path d="M38.25 46.51a2.87 2.87 0 01-.25-1.2V45h-3v.31c0 .41.08.82.25 1.2A20.71 20.71 0 0137 55h3c.02-2.92-.57-5.82-1.75-8.49zM28 55a4.01 4.01 0 01-4.84 3.92A4.08 4.08 0 0120 55zM40 55a4 4 0 01-4.47 3.97A4.07 4.07 0 0132.01 55z"/></g><path d="M45.85 46.36a3 3 0 01-4.53-1.02l-.5-.81 5.29-3.02.52 1.05c.68 1.3.35 2.88-.78 3.8z" fill="#ffe0b2"/><path d="M50 22a3 3 0 01-3 3h-1.79c.57-1.95.83-3.97.79-6h1a3 3 0 013 3zM14.79 25H13a3 3 0 010-6h1c-.04 2.03.22 4.05.79 6z" fill="#283593"/><path d="M46 13v6a16.39 16.39 0 00-4.58-2.25 38.03 38.03 0 00-22.84 0c-1.63.5-3.18 1.27-4.58 2.25v-6s5-4 16-4 16 4 16 4z" fill="#f5f5f5"/><path d="M30 9c-.52 0-1 .02-1.5.03C38.45 9.38 43 13 43 13v4.36c1.06.43 2.07.98 3 1.64v-6s-5-4-16-4z" fill="#cfd8dc"/><path d="M46 12v1s-5-4-16-4-16 4-16 4v-1c0-4 2-11 16-11s16 7 16 11z" fill="#3f51b5"/><path d="M30 1c-.52 0-1.01.01-1.5.03 11.95.46 14.27 6.41 14.48 10.32 1.07.42 2.08.98 3.02 1.65v-1c0-4-2-11-16-11z" fill="#283593"/><path d="M42 21c0 2.95-.79 7-5.15 7-4.89 0-3.91-2-6.85-2s-1.96 2-6.85 2C18.79 28 18 23.95 18 21c-.02-1.44.17-2.87.58-4.25A34.64 34.64 0 0130 15c3.88-.06 7.74.53 11.42 1.75.4 1.38.6 2.81.58 4.25z" fill="#ffe0b2"/><path d="M41.42 16.75a34.64 34.64 0 00-12.92-1.72c3.37.07 6.72.65 9.92 1.72.4 1.38.6 2.81.58 4.25 0 2.66-.65 6.2-3.97 6.88.6.08 1.21.12 1.82.12 4.36 0 5.15-4.05 5.15-7 .02-1.44-.17-2.87-.58-4.25z" fill="#dfc49c"/><circle cx="24" cy="22" fill="#f5f5f5" r="2"/><circle cx="36" cy="22" fill="#f5f5f5" r="2"/><path d="M14 13v6h-1c-.76 0-1.5.29-2.05.81C8.83 19.9 7 19.62 7 23v4l-3-2-3 2v-5c0-6 5-8 8-8 1.72.02 3.42-.32 5-1z" fill="#cfd8dc"/><path d="M33 33s-1 3-3 4c-2-1-3-4-3-4z" fill="#283593"/><path d="M47 18v-6c0-3.6-1.66-12-17-12-9.2 0-17 3.2-17 12.33-1.29.45-2.64.68-4 .67-3.48 0-9 2.44-9 9v5a1 1 0 001.55.83L4 26.2C6.7 28 6.6 28 7 28a1 1 0 001-1c0-5.05-.24-5.88 1.17-6.1a3.92 3.92 0 001 3.93c1.31 1.3 2.67 1.17 3.92 1.17a10.77 10.77 0 006.33 6.57 9.93 9.93 0 00-5.66 4.96l-2.29 4.58a4 4 0 107.06 3.76L21 43.5c0 1.87.05 2.11-.17 2.6A21.7 21.7 0 0019 54.83 5 5 0 1029 55c-.05-1.6.29-3.2 1-4.64a9.81 9.81 0 011 4.55 5 5 0 1010 .1c.02-3.07-.6-6.1-1.83-8.91-.23-.5-.17-.8-.17-2.6l1.42 2.29a4 4 0 107.1-3.68l-2.29-4.59a9.93 9.93 0 00-5.65-4.95A10.76 10.76 0 0045.9 26H47a4 4 0 100-8zm-6 3c0 3.98-1.4 6-4.15 6-4.51 0-3.48-2-6.85-2-3.42 0-2.3 2-6.85 2C20.4 27 19 24.98 19 21c0-1.17.12-2.33.39-3.46a37.29 37.29 0 0121.22 0c.27 1.13.4 2.3.39 3.46zm-26-3.8v-3.67c7.23-4.68 22.7-4.73 30 0v3.67c-7.96-4.28-22.02-4.28-30 0zM30 2c12.14 0 14.67 5.42 14.97 9.18-7.95-4.24-21.95-4.26-29.94 0C15.33 7.42 17.86 2 30 2zM6 23v2.13l-1.45-.96a1 1 0 00-1.1 0L2 25.13V22c0-5.74 5.05-7 7-7 1.35 0 2.7-.19 4-.57V18c-.87 0-1.71.3-2.4.82h-.24C8.52 18.89 6 18.96 6 23zm5.59.41A2 2 0 0113.03 20c.03 1.34.18 2.68.46 4-.69.1-1.38-.12-1.9-.59zM31.45 34c-.35.7-.85 1.32-1.45 1.82-.6-.5-1.1-1.12-1.45-1.82zm-15 11.95a2.01 2.01 0 01-2.14-3.05l3.48 1.99a2 2 0 01-1.34 1.06zm2.4-2.76l-3.63-2.08 1.34-2.69A7.96 7.96 0 0123.71 34h2.61a8.13 8.13 0 003.09 3.81A10 10 0 0132.93 44H23v-4a1 1 0 00-1.85-.53zM21.2 56h5.61a2.96 2.96 0 01-5.61 0zm8.8-8c-1.94 0-2.83 4.04-2.96 6h-6c.09-2.44.64-4.84 1.62-7.07.13-.3.22-.61.27-.93h14.14c.22 1.29 1.68 3.26 1.9 8h-6.01c-.13-1.95-1-6-2.96-6zm3.21 8h5.6a2.96 2.96 0 01-5.6 0zm9-11.11l3.48-1.99a2 2 0 11-3.48 1.99zm1.24-6.47l1.35 2.7-3.64 2.07-2.31-3.72A1 1 0 0037 40v4h-2.05a11.3 11.3 0 00-3.38-6.9 9.46 9.46 0 002.1-3.1h2.62a7.95 7.95 0 017.16 4.42zM30.08 32c-9.5 0-14.88-2.32-15.06-12.48.7-.44 1.42-.82 2.18-1.15-.77 5.3.6 10.63 5.95 10.63 5.2 0 4.41-2 6.85-2s1.67 2 6.85 2c5.36 0 6.72-5.33 5.96-10.63.75.33 1.48.7 2.18 1.14-.19 10-5.34 12.48-14.9 12.49zm18.33-8.59c-.37.38-.88.6-1.41.59h-.5c.28-1.32.44-2.66.47-4a2 2 0 011.44 3.41z" fill="#000"/><path d="M24 19a3 3 0 100 6 3 3 0 000-6zm0 4a1 1 0 110-2 1 1 0 010 2zM36 25a3 3 0 100-6 3 3 0 000 6zm0-4a1 1 0 110 2 1 1 0 010-2z" fill="#000"/></g></svg>